<svg width="1128" height="468" viewBox="0 0 1128 468" fill="none" xmlns="http://www.w3.org/2000/svg">
<path d="M0 20C0 8.9543 8.95431 0 20 0H1108C1119.05 0 1128 8.95431 1128 20V448C1128 459.046 1119.05 468 1108 468H20C8.95428 468 0 459.046 0 448V20Z" fill="#00A0D7"/>
<path d="M754.595 99.6507C753.523 100.134 753.047 101.399 753.53 102.466C754.013 103.537 755.278 104.013 756.346 103.53C757.417 103.046 757.894 101.782 757.411 100.715C756.927 99.6437 755.666 99.1672 754.595 99.6507ZM755.488 101.628L755.456 101.552C755.475 101.541 755.501 101.549 755.508 101.572L755.488 101.628Z" fill="white"/>
<path d="M775.142 92.7057C774.904 92.1818 774.284 91.948 773.76 92.186L771.467 93.2206C767.232 85.1232 757.536 81.4607 749.002 84.7435L747.967 82.4521C747.728 81.9242 747.109 81.6904 746.585 81.9284C746.061 82.1664 745.827 82.7857 746.065 83.3096L747.099 85.601C738.998 89.8359 735.337 99.5274 738.616 108.058L736.323 109.093C735.799 109.331 735.565 109.95 735.803 110.474C736.041 110.998 736.661 111.232 737.185 110.994L739.477 109.959C743.713 118.056 753.408 121.715 761.943 118.436L762.978 120.728C763.216 121.251 763.835 121.485 764.359 121.247C764.884 121.009 765.118 120.39 764.879 119.866L763.845 117.575C771.946 113.34 775.608 103.648 772.328 95.1174L774.621 94.0828C775.146 93.8488 775.38 93.2296 775.142 92.7057ZM762.983 115.67L761.852 113.172C761.614 112.648 760.994 112.415 760.47 112.653C759.946 112.891 759.712 113.51 759.95 114.034L761.081 116.531C753.599 119.342 745.143 116.151 741.388 109.1L743.886 107.97C744.411 107.732 744.644 107.112 744.406 106.588C744.168 106.065 743.549 105.831 743.025 106.069L740.526 107.2C737.716 99.7257 740.909 91.2687 747.963 87.5138L749.094 90.0113C749.332 90.5352 749.951 90.769 750.475 90.531C750.999 90.293 751.233 89.6737 750.995 89.1499L749.864 86.6523C757.342 83.8426 765.802 87.0331 769.558 94.0832L767.059 95.2141C766.535 95.4521 766.301 96.0713 766.539 96.5952C766.777 97.1191 767.396 97.3528 767.921 97.1149L770.419 95.984C773.23 103.462 770.036 111.915 762.983 115.67Z" fill="white"/>
<path d="M903.774 389.306C902.564 389.161 901.461 390.029 901.318 391.238C901.172 392.447 902.04 393.549 903.25 393.695C904.46 393.84 905.563 392.972 905.708 391.763C905.851 390.552 904.983 389.452 903.774 389.306ZM903.506 391.542L903.515 391.457C903.536 391.459 903.556 391.481 903.551 391.503L903.506 391.542Z" fill="white"/>
<path d="M924.809 392.951L922.216 392.641C922.8 383.175 916.149 374.723 906.807 373.062L907.118 370.469C907.19 369.874 906.765 369.335 906.17 369.266C905.575 369.194 905.036 369.619 904.967 370.213L904.656 372.806C895.186 372.223 886.73 378.872 885.067 388.21L882.473 387.9C881.878 387.829 881.338 388.253 881.269 388.847C881.198 389.442 881.622 389.982 882.217 390.051L884.811 390.361C884.226 399.827 890.877 408.279 900.216 409.94L899.905 412.533C899.834 413.128 900.258 413.667 900.853 413.736C901.448 413.807 901.988 413.383 902.057 412.789L902.367 410.196C911.837 410.779 920.294 404.13 921.957 394.792L924.55 395.102C925.146 395.173 925.685 394.749 925.754 394.155C925.826 393.562 925.402 393.02 924.809 392.951ZM902.626 408.04L902.963 405.215C903.035 404.62 902.61 404.081 902.016 404.012C901.42 403.94 900.881 404.364 900.812 404.959L900.474 407.784C892.32 406.269 886.518 398.895 886.968 390.618L889.793 390.955C890.389 391.027 890.928 390.603 890.997 390.008C891.069 389.413 890.645 388.874 890.05 388.805L887.224 388.468C888.741 380.317 896.115 374.517 904.398 374.965L904.061 377.79C903.989 378.385 904.414 378.924 905.008 378.993C905.604 379.064 906.143 378.64 906.212 378.045L906.55 375.221C914.703 376.736 920.505 384.106 920.056 392.386L917.23 392.049C916.635 391.978 916.096 392.402 916.027 392.996C915.955 393.591 916.379 394.131 916.974 394.2L919.8 394.537C918.283 402.684 910.906 408.485 902.626 408.04Z" fill="white"/>
<path d="M658.579 87.7467L653.719 89.6521C653.352 89.796 652.931 89.6885 652.68 89.3873L640.208 74.5011C640.017 74.2749 639.949 73.9721 640.022 73.6852C640.096 73.3983 640.302 73.1663 640.576 73.0575L645.969 70.9436C646.358 70.7917 646.8 70.9193 647.045 71.2565L652.31 78.4644L651.326 69.5736C651.281 69.162 651.516 68.7691 651.903 68.6175L657.21 66.5376C657.488 66.4281 657.799 66.4608 658.048 66.6244C658.297 66.788 658.451 67.0618 658.462 67.3592L659.157 86.8628C659.176 87.2481 658.941 87.6035 658.579 87.7467ZM653.662 87.7019L657.304 86.274L656.676 68.7166L653.231 70.0682L654.518 81.6881C654.563 82.0996 654.327 82.4926 653.941 82.6441L653.939 82.6445C653.55 82.7963 653.109 82.6661 652.865 82.3312L645.984 72.9117L642.437 74.302L653.662 87.7019Z" fill="white"/>
<path d="M671.442 83.041C669.554 83.7803 667.263 84.1429 665.739 83.944L665.274 83.8829C664.863 83.8277 664.539 83.5048 664.484 83.0946L663.882 78.5711C663.845 78.2938 663.936 78.0136 664.133 77.8112C664.329 77.6087 664.606 77.5064 664.884 77.5348L665.651 77.6113C666.116 77.6583 667.764 77.7593 669.371 77.1299C669.97 76.8951 670.227 76.6579 670.309 76.5661C670.353 76.5174 670.371 76.4516 670.355 76.3886C670.338 76.3256 670.293 76.2763 670.232 76.2551C669.999 76.1731 669.467 76.0847 668.264 76.1205C663.223 76.3163 661.262 74.0607 660.507 72.1335C659.06 68.4428 661.138 64.6551 665.561 62.9205C667.291 62.2426 668.994 61.9377 670.62 62.0186L671.143 62.0452C671.595 62.0684 671.963 62.4152 672.01 62.8664L672.479 67.3653C672.508 67.6368 672.415 67.9055 672.225 68.1001C672.034 68.2946 671.769 68.3953 671.497 68.3753L670.771 68.3207C669.735 68.2425 668.754 68.3921 667.773 68.7754C667.605 68.8403 667.455 68.9143 667.324 68.9901C667.253 69.0312 667.216 69.1138 667.233 69.1954C667.25 69.277 667.318 69.337 667.401 69.3456C667.992 69.4087 668.886 69.3983 669.316 69.3946C673.266 69.3181 675.725 70.6669 676.844 73.5234C678.582 77.9558 675.384 81.4955 671.442 83.041ZM666.213 82.1479C667.431 82.2385 669.297 81.9116 670.772 81.3325C675.35 79.5373 676.028 76.4694 675.135 74.1961C674.305 72.0837 672.527 71.1704 669.365 71.2337C668.835 71.2385 667.904 71.2497 667.208 71.1743C666.335 71.0809 665.625 70.4443 665.44 69.5862C665.253 68.7285 665.638 67.8548 666.394 67.4094C666.609 67.2836 666.847 67.1685 667.106 67.0689C668.232 66.6263 669.358 66.4316 670.54 66.4715L670.265 63.8436C668.978 63.8218 667.621 64.0862 666.23 64.6316C662.703 66.0142 661.128 68.698 662.215 71.4658C663.009 73.4898 664.967 74.4136 668.199 74.2884C669.43 74.2508 670.267 74.3262 670.835 74.5238C671.481 74.7493 671.967 75.2793 672.134 75.9391C672.302 76.6011 672.128 77.298 671.668 77.8041C671.295 78.2154 670.747 78.5642 670.042 78.8406C668.375 79.493 666.694 79.5139 665.857 79.4689L666.213 82.1479Z" fill="white"/>
<path d="M651.115 97.6206C650.896 97.7072 650.644 97.7077 650.411 97.6071C649.946 97.4035 649.734 96.8627 649.938 96.3996L651.782 92.1772C651.986 91.7119 652.527 91.4998 652.99 91.7037C653.456 91.9073 653.668 92.4481 653.464 92.9111L651.619 97.1335C651.521 97.3657 651.336 97.5337 651.115 97.6206Z" fill="white"/>
<path d="M667.22 60.7573C667.001 60.8439 666.749 60.8444 666.516 60.7437C666.051 60.5402 665.839 59.9994 666.043 59.5363L667.955 55.1565C668.159 54.6912 668.7 54.4791 669.163 54.683C669.629 54.8866 669.841 55.4274 669.637 55.8904L667.724 60.2702C667.624 60.5027 667.438 60.6707 667.22 60.7573Z" fill="white"/>
<path d="M883.232 63.8096L880.273 66.5536C879.828 66.9676 879.13 66.9417 878.715 66.4974L876.717 64.3466L874.565 66.3444C874.12 66.7584 873.422 66.7325 873.008 66.2882L871.009 64.1374L868.857 66.1352C868.413 66.5492 867.714 66.5233 867.3 66.079L865.302 63.9281L863.15 65.926C862.705 66.34 862.007 66.3141 861.592 65.8698L859.594 63.719L857.442 65.7168C856.997 66.1308 856.299 66.1049 855.885 65.6606L847.646 56.7836C847.232 56.3393 847.258 55.641 847.702 55.227L849.854 53.2292L847.856 51.0783C847.442 50.634 847.468 49.9357 847.912 49.5217L853.831 44.0296C854.275 43.6157 854.974 43.6415 855.388 44.0859L857.386 46.2367L859.538 44.2388C859.983 43.8249 860.681 43.8507 861.095 44.2951L863.094 46.4459L864.439 45.1982L862.441 43.0474C862.027 42.6031 862.052 41.9047 862.497 41.4908L864.649 39.4929L862.651 37.3421C862.236 36.8978 862.262 36.1994 862.707 35.7855L868.625 30.2934C869.07 29.8794 869.768 29.9053 870.183 30.3496L872.181 32.5004L874.333 30.5026C874.778 30.0887 875.476 30.1145 875.89 30.5588L884.129 39.4358C884.543 39.8801 884.517 40.5784 884.073 40.9924L881.921 42.9902L883.919 45.1411C884.333 45.5854 884.307 46.2837 883.863 46.6977L881.711 48.6955L883.709 50.8464C884.123 51.2907 884.097 51.989 883.653 52.403L881.501 54.4008L883.499 56.5517C883.913 56.996 883.887 57.6943 883.443 58.1083L881.291 60.1061L883.289 62.257C883.707 62.6967 883.681 63.395 883.232 63.8096ZM879.583 64.19L880.928 62.9423L878.93 60.7915C878.515 60.3472 878.541 59.6488 878.986 59.2349L881.138 57.237L879.14 55.0862C878.725 54.6419 878.751 53.9436 879.196 53.5296L881.348 51.5318L879.35 49.3809C878.936 48.9366 878.961 48.2383 879.406 47.8243L881.558 45.8264L879.56 43.6756C879.145 43.2313 879.171 42.533 879.616 42.119L881.768 40.1212L875.026 32.8616L872.874 34.8595C872.43 35.2734 871.731 35.2476 871.317 34.8033L869.319 32.6524L865.014 36.6441L867.013 38.795C867.427 39.2393 867.401 39.9376 866.956 40.3516L864.804 42.3494L866.802 44.5003C867.217 44.9446 867.191 45.6429 866.746 46.0569L863.787 48.8009C863.342 49.2149 862.643 49.1891 862.229 48.7447L860.231 46.5939L858.079 48.5917C857.634 49.0057 856.936 48.9798 856.522 48.5355L854.523 46.3847L850.219 50.3764L852.217 52.5272C852.631 52.9716 852.605 53.6699 852.157 54.0844L850.005 56.0823L856.742 63.3424L858.894 61.3445C859.339 60.9306 860.037 60.9564 860.451 61.4008L862.45 63.5516L864.602 61.5538C865.047 61.1398 865.745 61.1656 866.159 61.61L868.158 63.7608L870.31 61.763C870.754 61.349 871.453 61.3748 871.867 61.8192L873.865 63.97L876.017 61.9722C876.462 61.5582 877.161 61.584 877.575 62.0284L879.583 64.19Z" fill="white"/>
<path d="M804.344 390.272C805.113 395.393 801.721 400.151 796.761 400.895C791.805 401.639 787.162 398.092 786.392 392.967C785.623 387.846 789.016 383.092 793.976 382.348C798.936 381.603 803.576 385.151 804.344 390.272Z" fill="white"/>
<path opacity="0.5" d="M1064.14 313.76C1056.1 253.986 992.249 163.123 964.174 134.378C926.041 95.3379 889.012 116.354 880.891 124.705C879.106 126.53 876.546 129.185 873.239 132.308C868.808 136.494 863.037 141.523 856.026 146.542C854.331 147.748 852.568 148.961 850.739 150.146C850.617 150.23 850.486 150.311 850.363 150.391C849.573 150.901 848.775 151.409 847.96 151.911C847.889 151.955 847.821 151.998 847.75 152.041C847.694 152.074 847.638 152.107 847.586 152.143C846.924 152.553 846.245 152.953 845.562 153.358C845.021 153.68 844.476 153.995 843.923 154.311C843.28 154.681 842.636 155.047 841.975 155.412C841.873 155.468 841.772 155.524 841.67 155.58C841.605 155.615 841.541 155.649 841.477 155.687C840.741 156.087 839.991 156.482 839.241 156.876C838.824 157.094 838.403 157.313 837.982 157.527C837.211 157.92 836.435 158.306 835.646 158.686C835.433 158.788 835.22 158.897 835.003 158.999C833.935 159.511 832.85 160.009 831.75 160.497C830.72 160.958 829.67 161.397 828.612 161.834C828.381 161.93 828.151 162.03 827.916 162.122C827.819 162.161 827.719 162.201 827.623 162.24C826.466 162.703 825.297 163.161 824.104 163.597L824.096 163.599C823.003 163.999 821.896 164.382 820.78 164.758C820.589 164.823 820.402 164.884 820.216 164.949C819.032 165.339 817.834 165.715 816.62 166.069C815.603 166.369 814.57 166.65 813.532 166.921C813.324 166.976 813.119 167.031 812.911 167.083C811.958 167.328 810.996 167.559 810.028 167.782C809.784 167.843 809.539 167.896 809.293 167.949C808.269 168.176 807.235 168.393 806.191 168.599C805.976 168.639 805.762 168.679 805.543 168.72C804.446 168.926 803.34 169.125 802.222 169.301C800.924 169.504 799.63 169.674 798.331 169.811C798.194 169.828 798.053 169.841 797.917 169.857C796.617 169.991 795.313 170.097 794.012 170.17C793.165 170.219 792.32 170.252 791.478 170.277C791.376 170.28 791.275 170.287 791.169 170.286C791.124 170.289 791.08 170.291 791.035 170.294C790.098 170.316 789.164 170.326 788.232 170.323C788.203 170.323 788.171 170.324 788.142 170.324C787.419 170.322 786.696 170.3 785.974 170.282C784.71 170.247 783.448 170.195 782.185 170.115C780.902 170.034 779.623 169.924 778.341 169.798C778.055 169.771 777.765 169.742 777.478 169.711C776.162 169.574 774.851 169.419 773.541 169.236C773.404 169.22 773.261 169.196 773.123 169.176C771.34 168.925 769.562 168.645 767.789 168.327C767.777 168.325 767.768 168.322 767.756 168.32C767.608 168.293 767.461 168.266 767.314 168.239C766.584 168.107 765.856 167.968 765.128 167.828C764.985 167.8 764.845 167.772 764.702 167.745C764.083 167.621 763.467 167.489 762.847 167.361C762.569 167.305 762.29 167.249 762.016 167.188C761.061 166.984 760.114 166.771 759.165 166.55C758.662 166.433 758.157 166.313 757.653 166.193C757.327 166.115 756.996 166.038 756.67 165.96C755.342 165.637 754.017 165.301 752.694 164.956C752.384 164.876 752.073 164.792 751.762 164.712C750.46 164.368 749.166 164.019 747.874 163.662C725.715 157.504 705.028 149.442 687.612 150.427C653.003 152.388 622.589 211.747 622.589 211.747C595.5 260.665 585.374 324.037 593.328 369.638C596.855 394.41 605.427 414.539 619.215 425.238C627.995 432.057 638.886 435.05 651.933 432.997C709.412 423.943 732.431 365.224 787.442 335.156C800.705 327.899 815.821 322.321 833.73 319.502C894.384 309.95 914.688 344.502 953.106 363.37C972.014 372.646 995.322 378.13 1029.99 372.671C1061.95 367.637 1069.6 344.209 1064.14 313.76Z" fill="#32438B"/>
<path d="M1029.05 356.35C994.38 361.809 971.073 356.33 952.168 347.049C913.754 328.185 893.45 293.629 832.792 303.181C814.883 306 799.766 311.579 786.504 318.835C731.492 348.899 708.47 407.622 650.995 416.676C637.944 418.73 627.057 415.736 618.277 408.917C579.346 378.714 581.972 273.423 622.43 200.366C622.43 200.366 652.843 141.007 687.452 139.046C704.869 138.061 725.555 146.119 747.714 152.281C750.657 153.101 753.631 153.884 756.621 154.612C757.416 154.811 758.211 154.99 759.002 155.173C759.951 155.395 760.898 155.608 761.853 155.812C762.685 155.997 763.515 156.162 764.354 156.331C764.641 156.39 764.923 156.445 765.2 156.498C765.996 156.656 766.791 156.806 767.597 156.947C767.647 156.955 767.694 156.965 767.736 156.971C768.651 157.136 769.573 157.287 770.486 157.436C770.973 157.518 771.457 157.588 771.933 157.656C772.418 157.73 772.904 157.804 773.382 157.859C776.29 158.26 779.213 158.564 782.142 158.75C782.621 158.784 783.103 158.81 783.589 158.831C784.075 158.856 784.557 158.881 785.049 158.893C786.023 158.931 787.002 158.947 787.98 158.952C788.422 158.959 788.864 158.962 789.303 158.949C789.366 158.956 789.439 158.953 789.507 158.947C789.933 158.952 790.356 158.938 790.779 158.928C790.849 158.925 790.93 158.921 791.006 158.914C791.456 158.916 791.895 158.899 792.34 158.869C792.373 158.872 792.401 158.868 792.434 158.871C792.907 158.861 793.38 158.831 793.849 158.797C794.429 158.768 795.013 158.733 795.597 158.678C795.824 158.664 796.042 158.648 796.267 158.626C796.635 158.6 796.998 158.566 797.363 158.523C797.774 158.482 798.193 158.439 798.602 158.39C799.121 158.333 799.639 158.275 800.163 158.201C800.797 158.118 801.428 158.023 802.059 157.924C802.682 157.827 803.303 157.721 803.925 157.616C804.299 157.547 804.685 157.481 805.058 157.405C805.496 157.327 805.925 157.246 806.35 157.162C806.885 157.053 807.413 156.949 807.935 156.834C808.19 156.787 808.439 156.73 808.692 156.675C809.135 156.58 809.566 156.483 810 156.377C810.108 156.361 810.214 156.336 810.313 156.313C810.913 156.17 811.512 156.023 812.102 155.873L812.158 155.865C812.804 155.699 813.444 155.529 814.08 155.356C814.557 155.235 815.026 155.095 815.493 154.968C815.819 154.878 816.137 154.79 816.457 154.689C817.607 154.348 818.743 153.998 819.862 153.634C820.446 153.44 821.037 153.245 821.62 153.043C822.084 152.892 822.541 152.725 823.002 152.558C823.316 152.445 823.63 152.333 823.932 152.222L823.94 152.221C824.084 152.167 824.224 152.121 824.359 152.068C824.804 151.903 825.245 151.739 825.673 151.569C825.843 151.502 826.013 151.436 826.187 151.369C826.716 151.167 827.233 150.959 827.752 150.746C828.485 150.456 829.219 150.146 829.941 149.833C830.495 149.603 831.04 149.37 831.586 149.117C832.17 148.866 832.743 148.604 833.309 148.339C833.733 148.145 834.153 147.947 834.572 147.745C835.43 147.334 836.288 146.924 837.127 146.5C838.172 145.971 839.199 145.441 840.21 144.905C840.645 144.672 841.084 144.435 841.509 144.195C842.03 143.909 842.555 143.622 843.067 143.328C844.104 142.748 845.114 142.155 846.107 141.557C846.606 141.257 847.1 140.958 847.589 140.652C848.2 140.279 848.8 139.894 849.405 139.514C849.8 139.262 850.192 139.011 850.578 138.753C852.41 137.567 854.173 136.351 855.864 135.149C862.875 130.13 868.646 125.101 873.077 120.915C876.385 117.796 878.945 115.141 880.73 113.312C888.847 104.962 925.874 83.9416 964.008 122.986C1005.24 165.225 1123.66 341.447 1029.05 356.35Z" fill="#F7FBFF"/>
<path d="M1028.27 351.41C993.602 356.869 970.299 351.39 951.39 342.109C912.976 323.245 892.672 288.689 832.014 298.241C814.105 301.061 798.988 306.639 785.726 313.895C730.714 343.959 707.692 402.682 650.216 411.736C637.166 413.79 626.279 410.796 617.499 403.977C578.568 373.774 581.194 268.483 621.652 195.426C621.652 195.426 652.065 136.067 686.674 134.106C704.09 133.121 724.777 141.179 746.936 147.341C749.879 148.162 752.853 148.945 755.843 149.672C756.637 149.871 757.432 150.05 758.224 150.234C759.173 150.455 760.12 150.668 761.074 150.872C761.907 151.057 762.737 151.223 763.576 151.391C763.862 151.45 764.145 151.506 764.422 151.558C765.218 151.716 766.013 151.866 766.819 152.007C766.869 152.016 766.916 152.025 766.957 152.031C767.873 152.196 768.795 152.347 769.708 152.496C770.194 152.578 770.679 152.649 771.155 152.716C771.64 152.79 772.125 152.864 772.604 152.919C775.512 153.32 778.435 153.625 781.364 153.81C781.843 153.844 782.325 153.87 782.811 153.891C783.297 153.916 783.779 153.942 784.271 153.953C785.245 153.991 786.224 154.007 787.201 154.012C787.644 154.019 788.086 154.022 788.525 154.009C788.587 154.016 788.661 154.013 788.729 154.007C789.155 154.013 789.578 153.998 790.001 153.988C790.07 153.985 790.151 153.981 790.228 153.974C790.678 153.976 791.117 153.959 791.562 153.929C791.595 153.932 791.623 153.928 791.656 153.931C792.129 153.922 792.602 153.891 793.071 153.858C793.651 153.828 794.234 153.793 794.819 153.738C795.045 153.725 795.264 153.708 795.489 153.687C795.857 153.66 796.22 153.626 796.585 153.583C796.996 153.542 797.415 153.5 797.824 153.45C798.343 153.393 798.861 153.336 799.385 153.261C800.019 153.178 800.651 153.087 801.281 152.985C801.904 152.887 802.525 152.781 803.147 152.676C803.521 152.607 803.907 152.541 804.28 152.465C804.718 152.387 805.147 152.306 805.572 152.222C806.107 152.113 806.635 152.009 807.157 151.894C807.412 151.848 807.66 151.79 807.914 151.735C808.357 151.64 808.788 151.543 809.221 151.433C809.329 151.417 809.436 151.393 809.534 151.37C810.134 151.226 810.733 151.079 811.324 150.929L811.376 150.922C812.021 150.755 812.661 150.586 813.297 150.412C813.774 150.292 814.243 150.152 814.71 150.025C815.036 149.935 815.354 149.846 815.674 149.745C816.824 149.405 817.961 149.055 819.079 148.691C819.663 148.497 820.255 148.302 820.837 148.1C821.301 147.949 821.758 147.782 822.219 147.615C822.533 147.502 822.848 147.39 823.15 147.279L823.158 147.278C823.301 147.224 823.441 147.178 823.576 147.125C824.021 146.96 824.463 146.796 824.891 146.625C825.06 146.559 825.23 146.493 825.404 146.426C825.934 146.224 826.45 146.016 826.97 145.803C827.703 145.513 828.437 145.203 829.158 144.89C829.712 144.66 830.257 144.427 830.804 144.173C831.387 143.922 831.961 143.66 832.526 143.396C832.95 143.201 833.37 143.004 833.789 142.802C834.647 142.391 835.505 141.981 836.344 141.556C837.389 141.028 838.417 140.498 839.427 139.962C839.862 139.729 840.301 139.492 840.727 139.252C841.248 138.966 841.772 138.679 842.284 138.385C843.321 137.805 844.331 137.212 845.324 136.614C845.823 136.314 846.317 136.015 846.807 135.709C847.417 135.335 848.021 134.951 848.622 134.57C849.017 134.319 849.409 134.068 849.795 133.81C851.628 132.624 853.39 131.408 855.081 130.206C862.092 125.187 867.864 120.158 872.294 115.972C875.602 112.853 878.162 110.197 879.947 108.369C888.064 100.018 925.092 78.9983 963.225 118.042C1004.46 160.285 1122.88 336.508 1028.27 351.41Z" fill="white"/>
<path d="M747.938 273.956C767.954 246.881 762.224 208.716 735.14 188.713C708.056 168.709 669.875 174.441 649.859 201.516C629.844 228.591 635.573 266.756 662.657 286.76C689.741 306.763 727.923 301.031 747.938 273.956Z" fill="#C4E1FF"/>
<path d="M708.47 199.066L710.115 220.636C710.139 220.959 710.121 221.28 710.053 221.585C709.922 222.291 709.575 222.951 709.048 223.467L700.945 231.444C699.699 232.677 697.744 232.828 696.314 231.796L687.092 225.138C686.497 224.709 686.051 224.106 685.814 223.43C685.706 223.14 685.638 222.828 685.61 222.501L683.965 200.931C683.815 198.952 685.296 197.223 687.276 197.072L704.601 195.75C706.59 195.607 708.32 197.087 708.47 199.066Z" fill="#32438B"/>
<path d="M710.052 221.585C709.921 222.29 709.575 222.951 709.048 223.467L700.944 231.444C699.699 232.677 697.744 232.827 696.314 231.796L687.092 225.138C686.496 224.709 686.05 224.106 685.814 223.43C688.964 220.65 693.056 218.83 697.625 218.483C702.195 218.136 706.52 219.317 710.052 221.585Z" fill="#1F307A"/>
<path d="M689.721 276.371L688.076 254.801C688.052 254.478 688.069 254.156 688.134 253.853C688.265 253.147 688.611 252.486 689.139 251.97L697.242 243.993C698.487 242.76 700.443 242.61 701.872 243.641L711.094 250.299C711.69 250.729 712.136 251.332 712.372 252.007C712.481 252.297 712.549 252.609 712.577 252.936L714.222 274.506C714.372 276.485 712.891 278.215 710.911 278.365L693.586 279.687C691.598 279.835 689.871 278.354 689.721 276.371Z" fill="#32438B"/>
<path d="M688.139 253.856C688.27 253.15 688.616 252.489 689.143 251.973L697.247 243.996C698.492 242.764 700.447 242.613 701.877 243.644L711.099 250.303C711.695 250.732 712.141 251.335 712.377 252.01C709.231 254.79 705.136 256.61 700.566 256.957C695.991 257.301 691.671 256.124 688.139 253.856Z" fill="#1F307A"/>
<path d="M737.51 246.321L715.93 247.968C715.607 247.992 715.286 247.975 714.982 247.91C714.275 247.779 713.615 247.433 713.098 246.906L705.119 238.807C703.886 237.563 703.74 235.608 704.767 234.179L711.43 224.96C711.859 224.365 712.463 223.919 713.138 223.682C713.428 223.573 713.741 223.506 714.068 223.477L735.647 221.831C737.627 221.681 739.357 223.161 739.507 225.14L740.828 242.457C740.971 244.445 739.489 246.171 737.51 246.321Z" fill="#32438B"/>
<path d="M714.982 247.91C714.276 247.779 713.615 247.433 713.098 246.906L705.119 238.807C703.886 237.563 703.74 235.608 704.767 234.179L711.43 224.96C711.859 224.364 712.463 223.919 713.138 223.682C715.919 226.827 717.739 230.92 718.086 235.488C718.433 240.056 717.254 244.375 714.982 247.91Z" fill="#1F307A"/>
<path d="M660.174 227.59L681.754 225.943C682.077 225.919 682.398 225.937 682.703 226.005C683.409 226.136 684.07 226.482 684.586 227.009L692.565 235.108C693.798 236.353 693.949 238.307 692.917 239.736L686.255 248.955C685.825 249.551 685.222 249.997 684.542 250.234C684.252 250.343 683.939 250.41 683.613 250.439L662.033 252.085C660.054 252.235 658.323 250.755 658.173 248.776L656.852 231.459C656.709 229.471 658.191 227.745 660.174 227.59Z" fill="#32438B"/>
<path d="M682.699 226.006C683.405 226.137 684.066 226.483 684.582 227.01L692.561 235.109C693.794 236.353 693.945 238.308 692.913 239.737L686.251 248.956C685.821 249.552 685.218 249.997 684.538 250.234C681.757 247.086 679.937 242.997 679.59 238.429C679.252 233.86 680.43 229.537 682.699 226.006Z" fill="#1F307A"/>
<path opacity="0.5" d="M694.683 186.034L686.593 195.819L704.161 194.48L694.683 186.034Z" fill="#32438B"/>
<path opacity="0.5" d="M702.563 289.475L710.656 279.69L693.085 281.033L702.563 289.475Z" fill="#32438B"/>
<path opacity="0.5" d="M750.642 233.787L740.854 225.702L742.196 243.265L750.642 233.787Z" fill="#32438B"/>
<path opacity="0.5" d="M647.157 241.68L656.944 249.765L655.608 232.205L647.157 241.68Z" fill="#32438B"/>
<path d="M975.454 235.376C995.065 208.848 989.451 171.455 962.915 151.856C936.378 132.256 898.969 137.873 879.358 164.401C859.747 190.928 865.361 228.321 891.897 247.921C918.433 267.52 955.843 261.903 975.454 235.376Z" fill="#C4E1FF"/>
<path opacity="0.5" d="M933.368 187.539C939.665 179.021 937.862 167.014 929.342 160.721C920.821 154.428 908.809 156.231 902.512 164.749C896.215 173.267 898.018 185.273 906.539 191.567C915.059 197.86 927.071 196.056 933.368 187.539Z" fill="#32438B"/>
<path opacity="0.5" d="M945.723 250.559C955.478 246.425 960.034 235.17 955.899 225.42C951.764 215.67 940.505 211.118 930.75 215.252C920.996 219.386 916.44 230.641 920.575 240.391C924.709 250.141 935.969 254.694 945.723 250.559Z" fill="#32438B"/>
<path opacity="0.5" d="M962.815 212.487C952.812 215.974 941.876 210.692 938.389 200.693C934.901 190.694 940.187 179.762 950.19 176.275C960.194 172.788 971.13 178.07 974.617 188.069C978.108 198.067 972.823 208.999 962.815 212.487Z" fill="#32438B"/>
<path opacity="0.5" d="M908.253 231.826C917.735 227.101 921.591 215.587 916.865 206.109C912.139 196.631 900.621 192.778 891.138 197.503C881.655 202.229 877.799 213.743 882.526 223.221C887.252 232.699 898.77 236.552 908.253 231.826Z" fill="#32438B"/>
<path d="M936.914 175.012C937.961 164.473 930.263 155.083 919.72 154.038C909.177 152.993 899.782 160.689 898.735 171.227C897.688 181.766 905.386 191.156 915.928 192.201C926.471 193.246 935.867 185.55 936.914 175.012Z" fill="#F45197"/>
<path d="M953.548 241.288C959.845 232.771 958.043 220.764 949.522 214.471C941.001 208.178 928.99 209.981 922.693 218.499C916.396 227.017 918.198 239.023 926.719 245.316C935.239 251.609 947.251 249.806 953.548 241.288Z" fill="#8331A7"/>
<path d="M959.223 210.306C969.701 208.732 976.92 198.967 975.347 188.494C973.775 178.021 964.007 170.806 953.529 172.38C943.051 173.953 935.832 183.718 937.405 194.191C938.977 204.664 948.745 211.879 959.223 210.306Z" fill="#FF8326"/>
<path d="M905.875 229.76C895.872 233.247 884.936 227.966 881.449 217.967C877.961 207.968 883.247 197.036 893.25 193.549C903.254 190.062 914.19 195.344 917.678 205.347C921.164 215.341 915.879 226.273 905.875 229.76Z" fill="#FFEA22"/>
<path d="M922.798 171.401C923.31 174.65 921.091 177.695 917.841 178.207C914.591 178.72 911.545 176.502 911.033 173.254C910.521 170.005 912.74 166.96 915.99 166.448C919.239 165.935 922.286 168.153 922.798 171.401Z" fill="white"/>
<path d="M904.879 210.716C905.392 213.964 903.172 217.009 899.923 217.522C896.673 218.034 893.627 215.816 893.114 212.568C892.602 209.32 894.822 206.274 898.071 205.762C901.321 205.253 904.368 207.471 904.879 210.716Z" fill="white"/>
<path d="M944.096 228.989C944.608 232.237 942.389 235.283 939.139 235.795C935.889 236.308 932.843 234.09 932.331 230.841C931.818 227.593 934.038 224.548 937.288 224.035C940.537 223.523 943.584 225.741 944.096 228.989Z" fill="white"/>
<path d="M962.798 190.244C963.311 193.492 961.091 196.537 957.841 197.05C954.592 197.562 951.545 195.344 951.033 192.096C950.521 188.848 952.741 185.802 955.99 185.29C959.24 184.781 962.291 186.999 962.798 190.244Z" fill="white"/>
<path d="M855.08 130.223L859.065 155.518C860.867 166.946 853.057 177.669 841.623 179.467L774.861 189.981C763.428 191.783 752.702 183.978 750.904 172.549L746.935 147.337C761.836 151.48 777.397 154.773 793.074 153.853C795.81 153.704 798.546 153.416 801.285 152.984C806.291 152.196 811.098 151.09 815.682 149.748C818.242 149 820.73 148.173 823.157 147.278L823.165 147.277C825.795 146.31 828.341 145.278 830.808 144.177C840.051 140.089 848.17 135.157 855.08 130.223Z" fill="#1F307A"/>
<path d="M831.286 164.945L782.19 172.676C780.872 172.882 779.634 171.985 779.428 170.664C779.222 169.347 780.119 168.109 781.44 167.903L830.537 160.172C831.854 159.966 833.092 160.863 833.299 162.184C833.505 163.501 832.604 164.739 831.286 164.945Z" fill="#F45197"/>
<path opacity="0.2" d="M815.679 149.757L803.59 185.459L781.181 188.987L793.071 153.858C795.807 153.708 798.542 153.42 801.281 152.988C806.288 152.204 811.092 151.103 815.679 149.757Z" fill="white"/>
<path opacity="0.2" d="M830.809 144.184L817.587 183.255L810.62 184.354L823.159 147.29L823.167 147.288C825.793 146.322 828.343 145.29 830.809 144.184Z" fill="white"/>
<path opacity="0.5" d="M859.534 263.898C848.622 267.701 836.65 261.917 832.851 251.014C829.048 240.106 834.832 228.14 845.745 224.34C856.657 220.537 868.629 226.321 872.428 237.225C876.23 248.128 870.446 260.095 859.534 263.898Z" fill="#32438B"/>
<path d="M871.527 247.393C873.335 236.978 866.354 227.071 855.935 225.265C845.516 223.459 835.604 230.438 833.796 240.854C831.988 251.269 838.968 261.176 849.388 262.981C859.807 264.787 869.719 257.808 871.527 247.393Z" fill="#32438B"/>
<path d="M865.457 239.652C867.925 246.728 864.186 254.462 857.106 256.926C850.027 259.394 842.29 255.658 839.826 248.582C837.358 241.506 841.097 233.776 848.176 231.308C855.252 228.844 862.989 232.58 865.457 239.652Z" fill="#D4E9FF"/>
<path d="M864.012 240.155C866.238 246.544 862.95 253.496 856.67 255.685C850.391 257.873 843.492 254.469 841.266 248.08C839.04 241.69 842.324 234.739 848.608 232.55C854.887 230.361 861.786 233.766 864.012 240.155Z" fill="#1F307A"/>
<path opacity="0.5" d="M797.954 273.074C787.041 276.877 775.07 271.093 771.271 260.19C767.467 249.282 773.251 237.316 784.164 233.516C795.077 229.713 807.048 235.497 810.847 246.401C814.646 257.305 808.862 269.271 797.954 273.074Z" fill="#32438B"/>
<path d="M809.138 246.992C812.619 256.976 807.342 267.886 797.354 271.367C787.366 274.847 776.452 269.575 772.971 259.591C769.49 249.608 774.767 238.698 784.755 235.217C794.744 231.74 805.661 237.008 809.138 246.992Z" fill="#32438B"/>
<path d="M803.872 248.829C806.34 255.905 802.602 263.639 795.522 266.103C788.443 268.571 780.706 264.835 778.241 257.758C775.773 250.682 779.512 242.952 786.592 240.484C793.671 238.016 801.408 241.752 803.872 248.829Z" fill="#D4E9FF"/>
<path d="M802.431 249.331C804.658 255.72 801.374 262.671 795.09 264.86C788.811 267.049 781.912 263.645 779.686 257.255C777.46 250.866 780.748 243.914 787.027 241.726C793.307 239.537 800.205 242.941 802.431 249.331Z" fill="#1F307A"/>
<path d="M796.102 200.202C796.383 201.806 795.309 203.331 793.707 203.609C792.103 203.89 790.577 202.816 790.3 201.216C790.018 199.612 791.092 198.086 792.694 197.809C794.294 197.528 795.82 198.602 796.102 200.202Z" fill="#C4E1FF"/>
<path d="M805.643 198.536C805.925 200.14 804.85 201.666 803.249 201.943C801.645 202.225 800.118 201.151 799.841 199.551C799.564 197.95 800.634 196.421 802.235 196.144C803.837 195.867 805.362 196.937 805.643 198.536Z" fill="#C4E1FF"/>
<path d="M815.184 196.871C815.466 198.475 814.392 200.001 812.79 200.278C811.186 200.56 809.66 199.486 809.383 197.885C809.101 196.281 810.175 194.756 811.777 194.478C813.377 194.197 814.903 195.267 815.184 196.871Z" fill="#C4E1FF"/>
<path d="M824.726 195.206C825.008 196.81 823.933 198.335 822.332 198.612C820.727 198.894 819.201 197.82 818.924 196.22C818.642 194.616 819.717 193.09 821.318 192.813C822.919 192.532 824.444 193.602 824.726 195.206Z" fill="#C4E1FF"/>
<path d="M834.267 193.536C834.549 195.14 833.474 196.666 831.873 196.943C830.268 197.225 828.742 196.151 828.465 194.55C828.183 192.947 829.258 191.421 830.859 191.144C832.46 190.863 833.986 191.937 834.267 193.536Z" fill="#C4E1FF"/>
<path d="M802.085 206.305C802.367 207.909 801.292 209.434 799.691 209.711C798.087 209.993 796.56 208.919 796.283 207.319C796.002 205.715 797.076 204.189 798.678 203.912C800.278 203.631 801.804 204.701 802.085 206.305Z" fill="#C4E1FF"/>
<path d="M811.627 204.639C811.909 206.243 810.834 207.769 809.233 208.046C807.628 208.328 806.102 207.254 805.825 205.653C805.543 204.05 806.618 202.524 808.219 202.247C809.82 201.966 811.345 203.036 811.627 204.639Z" fill="#C4E1FF"/>
<path d="M821.164 202.971C821.445 204.575 820.371 206.1 818.769 206.377C817.165 206.659 815.639 205.585 815.362 203.985C815.08 202.381 816.154 200.855 817.756 200.578C819.36 200.296 820.886 201.37 821.164 202.971Z" fill="#C4E1FF"/>
<path d="M830.705 201.305C830.987 202.909 829.912 204.435 828.311 204.712C826.706 204.994 825.18 203.92 824.903 202.319C824.621 200.716 825.696 199.19 827.297 198.913C828.902 198.631 830.428 199.705 830.705 201.305Z" fill="#C4E1FF"/>
<path d="M807.963 211.811C808.245 213.415 807.17 214.941 805.569 215.218C803.964 215.499 802.438 214.426 802.161 212.825C801.879 211.221 802.954 209.696 804.555 209.418C806.156 209.137 807.682 210.211 807.963 211.811Z" fill="#C4E1FF"/>
<path d="M817.504 210.145C817.786 211.749 816.711 213.275 815.11 213.552C813.506 213.834 811.979 212.76 811.702 211.16C811.421 209.556 812.495 208.03 814.096 207.753C815.697 207.472 817.223 208.546 817.504 210.145Z" fill="#C4E1FF"/>
<path d="M827.042 208.481C827.324 210.085 826.249 211.61 824.648 211.888C823.043 212.169 821.517 211.095 821.24 209.495C820.958 207.891 822.033 206.365 823.634 206.088C825.239 205.807 826.764 206.876 827.042 208.481Z" fill="#C4E1FF"/>
<path d="M875.27 282.262L781.853 296.973C778.838 297.446 776.012 295.391 775.539 292.378C775.067 289.365 777.123 286.54 780.137 286.067L873.555 271.355C876.569 270.882 879.395 272.938 879.868 275.951C880.34 278.96 878.28 281.785 875.27 282.262Z" fill="#1F307A"/>
<path d="M810.448 289.412L785.56 293.333C784.199 293.545 782.914 292.611 782.698 291.25C782.485 289.889 783.42 288.605 784.781 288.388L809.668 284.468C811.03 284.256 812.315 285.19 812.531 286.551C812.744 287.912 811.805 289.2 810.448 289.412Z" fill="#F45197"/>
<path d="M867.041 280.499L842.154 284.419C840.792 284.632 839.507 283.697 839.291 282.337C839.078 280.976 840.014 279.692 841.375 279.475L866.262 275.555C867.623 275.342 868.908 276.277 869.125 277.637C869.341 278.998 868.403 280.286 867.041 280.499Z" fill="#F45197"/>
<path d="M1037.13 113.774L1029.51 121.997C1029.27 122.249 1028.97 122.417 1028.63 122.484C1026.75 122.848 1025.29 121.936 1024.63 119.976C1024.57 119.777 1024.54 119.569 1024.55 119.363C1024.62 118.304 1024.2 117.275 1023.42 116.551C1021.98 115.219 1019.73 115.304 1018.39 116.742C1017.06 118.18 1017.15 120.434 1018.58 121.766C1019.3 122.427 1020.23 122.761 1021.21 122.704C1021.29 122.7 1021.36 122.701 1021.44 122.707C1022.42 122.739 1023.31 123.079 1023.94 123.67C1024.71 124.384 1025.05 125.39 1024.91 126.51C1024.87 126.843 1024.73 127.155 1024.49 127.402L1017.19 135.275C1016.59 135.926 1015.56 135.965 1014.91 135.36L993.258 115.303C992.607 114.699 992.568 113.675 993.173 113.025L1000.37 105.266C1000.57 105.052 1000.82 104.896 1001.1 104.812C1002.75 104.34 1003.82 105.029 1004.31 105.487C1004.78 105.923 1005.14 106.514 1005.39 107.245C1005.45 107.443 1005.48 107.652 1005.47 107.858C1005.4 108.917 1005.82 109.946 1006.6 110.67C1008.04 112.002 1010.29 111.917 1011.63 110.479C1012.96 109.041 1012.87 106.787 1011.44 105.455C1010.72 104.794 1009.79 104.46 1008.81 104.517C1008.73 104.521 1008.65 104.521 1008.58 104.515C1007.61 104.481 1006.7 104.128 1006.06 103.54C1005.23 102.767 1004.9 101.637 1005.15 100.434C1005.21 100.151 1005.35 99.8899 1005.55 99.672L1013.11 91.5196C1013.71 90.8691 1014.74 90.8297 1015.39 91.4346L1023.08 98.5599C1023.1 98.5735 1023.13 98.6007 1023.17 98.6278C1023.99 98.6682 1024.48 98.0265 1024.5 97.0917C1024.51 97.0752 1024.51 97.0546 1024.51 97.038C1024.43 95.5144 1024.96 94.0544 1026 92.93C1028.1 90.6571 1031.66 90.523 1033.94 92.6284C1036.21 94.7339 1036.34 98.2921 1034.24 100.565C1033.11 101.776 1031.53 102.426 1029.88 102.359C1028.83 102.736 1028.71 103.286 1028.79 103.842C1028.79 103.846 1028.79 103.85 1028.8 103.849L1037.05 111.491C1037.7 112.1 1037.74 113.123 1037.13 113.774ZM1028.1 120.489L1035.32 112.702L1027.39 105.355C1027.31 105.278 1026.89 104.871 1026.79 104.383C1026.43 102.501 1027.34 101.045 1029.3 100.383C1029.5 100.316 1029.7 100.29 1029.91 100.3C1030.98 100.36 1032 99.9486 1032.73 99.1652C1034.06 97.7274 1033.98 95.4731 1032.54 94.1409C1031.1 92.8087 1028.85 92.8941 1027.51 94.3319C1026.85 95.0439 1026.52 95.9764 1026.58 96.9563C1026.58 97.0374 1026.58 97.1111 1026.57 97.1854C1026.54 98.1665 1026.2 99.0511 1025.61 99.6872C1024.89 100.456 1023.88 100.804 1022.77 100.657C1022.28 100.595 1021.78 100.155 1021.69 100.071L1014.33 93.2481L1007.16 100.978C1007.09 101.417 1007.2 101.769 1007.48 102.029C1007.76 102.286 1008.21 102.446 1008.69 102.456C1008.71 102.458 1008.73 102.459 1008.74 102.46C1010.27 102.379 1011.73 102.907 1012.85 103.948C1015.12 106.053 1015.26 109.611 1013.15 111.884C1011.04 114.157 1007.48 114.291 1005.21 112.186C1004 111.06 1003.35 109.479 1003.42 107.831C1003.28 107.467 1003.11 107.19 1002.91 107.003C1002.63 106.736 1002.26 106.661 1001.79 106.768L994.99 114.1L1015.99 133.553L1022.88 126.117C1022.9 125.722 1022.79 125.416 1022.54 125.184C1022.26 124.927 1021.84 124.779 1021.34 124.767C1021.33 124.765 1021.31 124.764 1021.29 124.767C1019.77 124.848 1018.31 124.32 1017.18 123.28C1014.91 121.174 1014.77 117.616 1016.88 115.343C1018.99 113.07 1022.55 112.936 1024.82 115.042C1026.03 116.167 1026.69 117.748 1026.61 119.4C1026.99 120.443 1027.54 120.569 1028.1 120.489ZM1026.61 119.483L1026.61 119.487C1026.61 119.487 1026.61 119.487 1026.61 119.483ZM1021.24 124.758C1021.24 124.757 1021.24 124.757 1021.24 124.758C1021.24 124.757 1021.24 124.757 1021.24 124.758ZM1023.02 98.6181L1023.02 98.6175C1023.02 98.6175 1023.02 98.6175 1023.02 98.6181ZM1003.41 107.737L1003.41 107.741L1003.41 107.737Z" fill="white"/>
<path d="M80 188.45C80 188.817 79.9 189.083 79.7 189.25C79.5333 189.383 79.2667 189.5 78.9 189.6C78.3667 189.767 77.4333 189.95 76.1 190.15C74.7667 190.35 73.2167 190.45 71.45 190.45C69.55 190.45 67.7 190.183 65.9 189.65C64.1333 189.117 62.5667 188.233 61.2 187C59.8333 185.733 58.7333 184.083 57.9 182.05C57.0667 180.017 56.65 177.517 56.65 174.55V168.25C56.65 165.283 57.0667 162.783 57.9 160.75C58.7333 158.717 59.8333 157.083 61.2 155.85C62.5667 154.617 64.1333 153.733 65.9 153.2C67.7 152.667 69.55 152.4 71.45 152.4C73.2167 152.4 74.7667 152.5 76.1 152.7C77.4333 152.9 78.3667 153.083 78.9 153.25C79.2667 153.35 79.5333 153.467 79.7 153.6C79.9 153.733 80 153.983 80 154.35V159.2C80 159.867 79.6833 160.2 79.05 160.2H78.9C77.9333 160.133 76.8 160.05 75.5 159.95C74.2333 159.85 72.9 159.8 71.5 159.8C70.6333 159.8 69.8167 159.933 69.05 160.2C68.3167 160.433 67.6667 160.883 67.1 161.55C66.5333 162.183 66.0833 163.05 65.75 164.15C65.45 165.217 65.3 166.583 65.3 168.25V174.55C65.3 176.217 65.45 177.6 65.75 178.7C66.0833 179.767 66.5333 180.633 67.1 181.3C67.6667 181.933 68.3167 182.383 69.05 182.65C69.8167 182.883 70.6333 183 71.5 183C72.9 183 74.2333 182.95 75.5 182.85C76.8 182.75 77.9333 182.667 78.9 182.6H79.05C79.6833 182.6 80 182.933 80 183.6V188.45ZM109.627 188.95C109.627 189.217 109.511 189.467 109.277 189.7C109.077 189.9 108.844 190 108.577 190H102.527C102.261 190 102.027 189.9 101.827 189.7C101.627 189.467 101.527 189.217 101.527 188.95V172.3C101.527 171.433 101.477 170.7 101.377 170.1C101.277 169.5 101.094 169.017 100.827 168.65C100.561 168.283 100.177 168.033 99.6773 167.9C99.2107 167.733 98.594 167.65 97.8273 167.65C97.094 167.65 96.344 167.8 95.5773 168.1C94.8107 168.4 93.994 168.783 93.1273 169.25V188.95C93.1273 189.217 93.0273 189.467 92.8273 189.7C92.6273 189.9 92.394 190 92.1273 190H86.0773C85.8107 190 85.5607 189.9 85.3273 189.7C85.1273 189.467 85.0273 189.217 85.0273 188.95V152.65C85.0273 152.383 85.1273 152.15 85.3273 151.95C85.5273 151.75 85.7607 151.65 86.0273 151.65H92.1273C92.394 151.65 92.6273 151.75 92.8273 151.95C93.0273 152.15 93.1273 152.383 93.1273 152.65V163.2C94.394 162.367 95.6107 161.783 96.7773 161.45C97.944 161.117 99.2773 160.95 100.777 160.95C102.577 160.95 104.044 161.25 105.177 161.85C106.344 162.45 107.244 163.267 107.877 164.3C108.544 165.3 108.994 166.5 109.227 167.9C109.494 169.267 109.627 170.733 109.627 172.3V188.95ZM139.893 177C139.893 177.8 139.543 178.2 138.843 178.2H122.893V178.3C122.893 179 122.976 179.683 123.143 180.35C123.309 181.017 123.593 181.6 123.993 182.1C124.393 182.6 124.909 183 125.543 183.3C126.209 183.6 127.043 183.75 128.043 183.75C128.843 183.75 129.693 183.733 130.593 183.7C131.493 183.667 132.376 183.633 133.243 183.6C134.143 183.567 134.976 183.533 135.743 183.5C136.509 183.433 137.143 183.367 137.643 183.3H137.793C138.426 183.3 138.743 183.567 138.743 184.1V187.9C138.743 188.3 138.676 188.6 138.543 188.8C138.409 189 138.126 189.15 137.693 189.25C136.093 189.65 134.526 189.95 132.993 190.15C131.459 190.35 129.609 190.45 127.443 190.45C125.943 190.45 124.443 190.233 122.943 189.8C121.443 189.367 120.093 188.65 118.893 187.65C117.693 186.65 116.726 185.333 115.993 183.7C115.259 182.033 114.893 180 114.893 177.6V174.1C114.893 172.1 115.176 170.283 115.743 168.65C116.309 167.017 117.126 165.633 118.193 164.5C119.293 163.367 120.626 162.5 122.193 161.9C123.759 161.267 125.543 160.95 127.543 160.95C129.576 160.95 131.359 161.283 132.893 161.95C134.459 162.617 135.759 163.533 136.793 164.7C137.826 165.867 138.593 167.25 139.093 168.85C139.626 170.45 139.893 172.2 139.893 174.1V177ZM131.993 173C131.993 171.133 131.593 169.75 130.793 168.85C129.993 167.917 128.893 167.45 127.493 167.45C126.093 167.45 124.976 167.917 124.143 168.85C123.309 169.783 122.893 171.167 122.893 173V173.2H131.993V173ZM163.735 188.55C163.735 188.917 163.651 189.183 163.485 189.35C163.318 189.483 163.051 189.6 162.685 189.7C161.985 189.867 161.068 190.033 159.935 190.2C158.835 190.367 157.535 190.45 156.035 190.45C152.501 190.45 149.668 189.367 147.535 187.2C145.435 185.033 144.385 181.9 144.385 177.8V173.6C144.385 169.5 145.435 166.367 147.535 164.2C149.668 162.033 152.501 160.95 156.035 160.95C157.535 160.95 158.835 161.033 159.935 161.2C161.068 161.367 161.985 161.533 162.685 161.7C163.051 161.8 163.318 161.933 163.485 162.1C163.651 162.233 163.735 162.483 163.735 162.85V167.3C163.735 167.567 163.635 167.783 163.435 167.95C163.268 168.083 163.051 168.15 162.785 168.15H162.685C161.751 168.05 160.851 167.967 159.985 167.9C159.151 167.833 158.018 167.8 156.585 167.8C156.018 167.8 155.485 167.9 154.985 168.1C154.485 168.267 154.051 168.583 153.685 169.05C153.318 169.483 153.018 170.083 152.785 170.85C152.585 171.583 152.485 172.5 152.485 173.6V177.8C152.485 178.9 152.585 179.833 152.785 180.6C153.018 181.333 153.318 181.933 153.685 182.4C154.051 182.833 154.485 183.15 154.985 183.35C155.485 183.517 156.018 183.6 156.585 183.6C158.018 183.6 159.151 183.567 159.985 183.5C160.851 183.433 161.751 183.35 162.685 183.25H162.785C163.051 183.25 163.268 183.333 163.435 183.5C163.635 183.633 163.735 183.833 163.735 184.1V188.55ZM193.716 161.9C193.716 162.067 193.65 162.233 193.516 162.4L184.216 175.05L193.466 188.95C193.533 189.017 193.566 189.15 193.566 189.35C193.566 189.783 193.35 190 192.916 190H185.366C185.1 190 184.866 189.967 184.666 189.9C184.5 189.8 184.316 189.6 184.116 189.3L176.916 177.55V188.95C176.916 189.217 176.816 189.467 176.616 189.7C176.416 189.9 176.183 190 175.916 190H169.866C169.6 190 169.35 189.9 169.116 189.7C168.916 189.467 168.816 189.217 168.816 188.95V152.65C168.816 152.383 168.916 152.15 169.116 151.95C169.35 151.75 169.6 151.65 169.866 151.65H175.916C176.183 151.65 176.416 151.75 176.616 151.95C176.816 152.15 176.916 152.383 176.916 152.65V173.55L184.516 162.1C184.716 161.8 184.933 161.6 185.166 161.5C185.4 161.4 185.616 161.35 185.816 161.35H192.966C193.466 161.35 193.716 161.533 193.716 161.9ZM235.449 177.45C235.449 179.45 235.166 181.25 234.599 182.85C234.066 184.45 233.266 185.817 232.199 186.95C231.166 188.05 229.866 188.917 228.299 189.55C226.766 190.15 224.983 190.45 222.949 190.45C220.916 190.45 219.116 190.15 217.549 189.55C216.016 188.917 214.716 188.05 213.649 186.95C212.583 185.817 211.766 184.45 211.199 182.85C210.666 181.25 210.399 179.45 210.399 177.45V173.95C210.399 171.95 210.666 170.15 211.199 168.55C211.766 166.95 212.583 165.6 213.649 164.5C214.716 163.367 216.016 162.5 217.549 161.9C219.116 161.267 220.916 160.95 222.949 160.95C224.983 160.95 226.766 161.267 228.299 161.9C229.866 162.5 231.166 163.367 232.199 164.5C233.266 165.6 234.066 166.95 234.599 168.55C235.166 170.15 235.449 171.95 235.449 173.95V177.45ZM227.399 173.95C227.399 169.883 225.916 167.85 222.949 167.85C221.483 167.85 220.366 168.367 219.599 169.4C218.833 170.4 218.449 171.917 218.449 173.95V177.45C218.449 179.483 218.833 181.017 219.599 182.05C220.366 183.083 221.483 183.6 222.949 183.6C225.916 183.6 227.399 181.55 227.399 177.45V173.95ZM265.243 189C265.243 189.267 265.143 189.5 264.943 189.7C264.743 189.9 264.509 190 264.243 190H258.643C258.376 190 258.143 189.9 257.943 189.7C257.743 189.5 257.643 189.267 257.643 189V187.8C256.276 188.767 254.976 189.45 253.743 189.85C252.509 190.217 251.093 190.4 249.493 190.4C247.693 190.4 246.209 190.117 245.043 189.55C243.909 188.95 243.009 188.133 242.343 187.1C241.709 186.067 241.259 184.867 240.993 183.5C240.759 182.1 240.643 180.617 240.643 179.05V162.4C240.643 162.133 240.743 161.9 240.943 161.7C241.176 161.467 241.426 161.35 241.693 161.35H247.743C248.009 161.35 248.243 161.467 248.443 161.7C248.643 161.9 248.743 162.133 248.743 162.4V179.05C248.743 179.917 248.793 180.65 248.893 181.25C248.993 181.85 249.176 182.333 249.443 182.7C249.709 183.067 250.076 183.333 250.543 183.5C251.043 183.633 251.676 183.7 252.443 183.7C253.176 183.7 253.926 183.55 254.693 183.25C255.459 182.95 256.276 182.567 257.143 182.1V162.4C257.143 162.133 257.243 161.9 257.443 161.7C257.643 161.467 257.876 161.35 258.143 161.35H264.193C264.459 161.35 264.693 161.467 264.893 161.7C265.126 161.9 265.243 162.133 265.243 162.4V189ZM286.958 166.7C286.958 166.933 286.891 167.15 286.758 167.35C286.624 167.55 286.441 167.65 286.208 167.65H285.808C284.574 167.65 283.424 167.817 282.358 168.15C281.291 168.483 280.291 168.9 279.358 169.4V188.95C279.358 189.217 279.258 189.467 279.058 189.7C278.858 189.9 278.624 190 278.358 190H272.308C272.041 190 271.791 189.9 271.558 189.7C271.358 189.467 271.258 189.217 271.258 188.95V162.35C271.258 162.083 271.358 161.85 271.558 161.65C271.758 161.45 271.991 161.35 272.258 161.35H278.208C278.474 161.35 278.708 161.45 278.908 161.65C279.108 161.85 279.208 162.083 279.208 162.35V163.35C280.141 162.583 281.191 162 282.358 161.6C283.558 161.167 284.758 160.95 285.958 160.95C286.224 160.95 286.458 161.05 286.658 161.25C286.858 161.45 286.958 161.683 286.958 161.95V166.7Z" fill="white"/>
<path d="M96.176 264.568C96.176 265.251 95.92 265.827 95.408 266.296C94.9387 266.765 94.3627 267 93.68 267H87.408C86.7253 267 86.128 266.893 85.616 266.68C85.104 266.424 84.592 265.869 84.08 265.016L69.488 239.8C69.2747 239.459 69.0827 239.288 68.912 239.288C68.6987 239.288 68.592 239.459 68.592 239.8V265.72C68.592 266.061 68.464 266.36 68.208 266.616C67.952 266.872 67.6533 267 67.312 267H59.76C59.4187 267 59.12 266.872 58.864 266.616C58.608 266.36 58.48 266.061 58.48 265.72V221.88C58.48 221.197 58.7147 220.621 59.184 220.152C59.6533 219.683 60.2293 219.448 60.912 219.448H67.376C68.016 219.448 68.528 219.619 68.912 219.96C69.296 220.259 69.68 220.749 70.064 221.432L85.232 247.8C85.4453 248.141 85.616 248.312 85.744 248.312C85.9573 248.312 86.064 248.12 86.064 247.736V220.664C86.064 220.323 86.192 220.045 86.448 219.832C86.704 219.576 87.0027 219.448 87.344 219.448H94.896C95.2373 219.448 95.536 219.576 95.792 219.832C96.048 220.045 96.176 220.323 96.176 220.664V264.568ZM135.505 250.36C135.505 251.384 135.057 251.896 134.161 251.896H113.745V252.024C113.745 252.92 113.852 253.795 114.065 254.648C114.278 255.501 114.641 256.248 115.153 256.888C115.665 257.528 116.326 258.04 117.137 258.424C117.99 258.808 119.057 259 120.337 259C121.361 259 122.449 258.979 123.601 258.936C124.753 258.893 125.884 258.851 126.993 258.808C128.145 258.765 129.212 258.723 130.193 258.68C131.174 258.595 131.985 258.509 132.625 258.424H132.817C133.628 258.424 134.033 258.765 134.033 259.448V264.312C134.033 264.824 133.948 265.208 133.777 265.464C133.606 265.72 133.244 265.912 132.689 266.04C130.641 266.552 128.636 266.936 126.673 267.192C124.71 267.448 122.342 267.576 119.569 267.576C117.649 267.576 115.729 267.299 113.809 266.744C111.889 266.189 110.161 265.272 108.625 263.992C107.089 262.712 105.852 261.027 104.913 258.936C103.974 256.803 103.505 254.2 103.505 251.128V246.648C103.505 244.088 103.868 241.763 104.593 239.672C105.318 237.581 106.364 235.811 107.729 234.36C109.137 232.909 110.844 231.8 112.849 231.032C114.854 230.221 117.137 229.816 119.697 229.816C122.3 229.816 124.582 230.243 126.545 231.096C128.55 231.949 130.214 233.123 131.537 234.616C132.86 236.109 133.841 237.88 134.481 239.928C135.164 241.976 135.505 244.216 135.505 246.648V250.36ZM125.393 245.24C125.393 242.851 124.881 241.08 123.857 239.928C122.833 238.733 121.425 238.136 119.633 238.136C117.841 238.136 116.412 238.733 115.345 239.928C114.278 241.123 113.745 242.893 113.745 245.24V245.496H125.393V245.24ZM190.599 231.672L184.903 262.52C184.562 264.355 183.858 265.571 182.791 266.168C181.767 266.723 180.594 267 179.271 267H175.367C173.831 267 172.636 266.637 171.783 265.912C170.93 265.144 170.332 264.141 169.991 262.904L165.703 246.2C165.66 245.987 165.554 245.88 165.383 245.88C165.212 245.88 165.106 245.987 165.063 246.2L160.775 262.904C160.434 264.141 159.836 265.144 158.983 265.912C158.13 266.637 156.935 267 155.399 267H151.495C150.812 267 150.172 266.936 149.575 266.808C148.978 266.68 148.423 266.467 147.911 266.168C147.442 265.827 147.015 265.357 146.631 264.76C146.29 264.163 146.034 263.416 145.863 262.52L140.167 231.672V231.416C140.167 231.117 140.252 230.861 140.423 230.648C140.594 230.435 140.828 230.328 141.127 230.328H148.871C149.255 230.328 149.554 230.392 149.767 230.52C149.98 230.648 150.13 230.947 150.215 231.416L153.991 255.736C154.076 256.291 154.204 256.568 154.375 256.568C154.588 256.568 154.759 256.291 154.887 255.736L159.175 238.84C159.474 237.731 159.879 236.984 160.391 236.6C160.946 236.173 161.735 235.96 162.759 235.96H168.007C169.031 235.96 169.799 236.173 170.311 236.6C170.866 236.984 171.292 237.731 171.591 238.84L175.879 255.736C176.007 256.291 176.178 256.568 176.391 256.568C176.562 256.568 176.69 256.291 176.775 255.736L180.551 231.416C180.636 230.947 180.786 230.648 180.999 230.52C181.212 230.392 181.511 230.328 181.895 230.328H189.639C189.938 230.328 190.172 230.435 190.343 230.648C190.514 230.861 190.599 231.117 190.599 231.416V231.672ZM246.183 228.088C246.183 228.429 246.097 228.664 245.927 228.792C245.756 228.877 245.521 228.92 245.222 228.92H245.031C243.495 228.835 241.575 228.728 239.271 228.6C236.967 228.472 234.449 228.408 231.719 228.408C230.439 228.408 229.265 228.579 228.199 228.92C227.175 229.261 226.3 229.859 225.575 230.712C224.849 231.523 224.295 232.632 223.911 234.04C223.527 235.448 223.335 237.197 223.335 239.288V247.288C223.335 249.507 223.548 251.32 223.975 252.728C224.444 254.136 225.02 255.245 225.703 256.056C226.428 256.867 227.217 257.421 228.071 257.72C228.924 258.019 229.735 258.168 230.503 258.168C232.252 258.168 233.895 258.104 235.431 257.976V243.256C235.431 242.915 235.537 242.616 235.751 242.36C236.007 242.104 236.305 241.976 236.647 241.976H244.839C245.18 241.976 245.479 242.104 245.735 242.36C245.991 242.616 246.119 242.915 246.119 243.256V264.76C246.119 265.571 245.692 266.061 244.839 266.232C243.089 266.573 241.063 266.872 238.759 267.128C236.455 267.427 233.703 267.576 230.503 267.576C229.265 267.576 227.964 267.448 226.599 267.192C225.233 266.936 223.868 266.509 222.503 265.912C221.18 265.315 219.9 264.504 218.663 263.48C217.425 262.456 216.316 261.197 215.335 259.704C214.396 258.211 213.649 256.44 213.095 254.392C212.54 252.301 212.263 249.912 212.263 247.224V239.288C212.263 235.192 212.839 231.843 213.991 229.24C215.143 226.595 216.636 224.504 218.47 222.968C220.348 221.432 222.439 220.365 224.743 219.768C227.089 219.171 229.415 218.872 231.719 218.872C234.919 218.872 237.649 219.064 239.911 219.448C242.172 219.789 243.9 220.088 245.095 220.344C245.82 220.472 246.183 220.792 246.183 221.304V228.088ZM282.441 265.72C282.441 266.061 282.313 266.36 282.057 266.616C281.801 266.872 281.502 267 281.161 267H273.993C273.651 267 273.353 266.872 273.097 266.616C272.841 266.36 272.713 266.061 272.713 265.72V264.696C271.475 265.592 270.153 266.296 268.745 266.808C267.379 267.32 265.737 267.576 263.817 267.576C262.409 267.576 261.043 267.384 259.72 267C258.441 266.659 257.289 266.061 256.265 265.208C255.241 264.355 254.409 263.224 253.769 261.816C253.171 260.408 252.873 258.659 252.873 256.568V255.992C252.873 252.237 254.11 249.507 256.585 247.8C259.102 246.051 263.113 245.176 268.617 245.176H272.073V242.872C272.073 241.037 271.646 239.843 270.793 239.288C269.939 238.733 268.766 238.456 267.273 238.456C266.249 238.456 265.203 238.477 264.137 238.52C263.113 238.52 262.11 238.541 261.129 238.584C260.19 238.627 259.337 238.691 258.569 238.776C257.801 238.819 257.161 238.861 256.649 238.904H256.329C255.987 238.904 255.71 238.819 255.497 238.648C255.283 238.477 255.177 238.179 255.177 237.752V232.568C255.177 231.843 255.582 231.373 256.393 231.16C257.587 230.861 259.187 230.563 261.193 230.264C263.241 229.965 265.331 229.816 267.465 229.816C269.769 229.816 271.838 230.072 273.673 230.584C275.55 231.053 277.129 231.821 278.409 232.888C279.689 233.912 280.67 235.256 281.353 236.92C282.078 238.541 282.441 240.525 282.441 242.872V265.72ZM272.265 251.32H268.617C267.507 251.32 266.59 251.427 265.865 251.64C265.139 251.811 264.563 252.088 264.137 252.472C263.71 252.856 263.411 253.347 263.241 253.944C263.07 254.541 262.985 255.224 262.985 255.992V256.568C262.985 257.933 263.305 258.808 263.945 259.192C264.627 259.576 265.651 259.768 267.017 259.768C267.998 259.768 268.915 259.64 269.769 259.384C270.665 259.085 271.497 258.744 272.265 258.36V251.32ZM338.41 265.656C338.41 265.997 338.261 266.317 337.962 266.616C337.706 266.872 337.407 267 337.066 267H329.322C328.981 267 328.682 266.872 328.426 266.616C328.17 266.317 328.042 265.997 328.042 265.656V243.832C328.042 241.784 327.765 240.397 327.21 239.672C326.655 238.904 325.631 238.52 324.138 238.52C323.583 238.52 322.858 238.605 321.962 238.776C321.109 238.904 320.191 239.203 319.21 239.672C319.338 240.952 319.402 242.339 319.402 243.832V265.656C319.402 265.997 319.274 266.317 319.018 266.616C318.762 266.872 318.463 267 318.122 267H310.378C310.037 267 309.717 266.872 309.418 266.616C309.162 266.317 309.034 265.997 309.034 265.656V243.832C309.034 241.784 308.778 240.397 308.266 239.672C307.797 238.904 306.815 238.52 305.322 238.52C304.725 238.52 303.999 238.669 303.146 238.968C302.335 239.267 301.439 239.672 300.458 240.184V265.656C300.458 265.997 300.33 266.317 300.074 266.616C299.818 266.872 299.519 267 299.178 267H291.434C291.093 267 290.773 266.872 290.474 266.616C290.218 266.317 290.09 265.997 290.09 265.656V231.608C290.09 231.267 290.218 230.968 290.474 230.712C290.73 230.456 291.029 230.328 291.37 230.328H298.666C299.007 230.328 299.306 230.456 299.562 230.712C299.818 230.968 299.946 231.267 299.946 231.608V233.016C301.311 232.12 302.762 231.373 304.298 230.776C305.834 230.136 307.541 229.816 309.418 229.816C311.125 229.816 312.575 230.072 313.77 230.584C315.007 231.053 316.074 231.843 316.97 232.952C317.909 232.44 318.783 231.992 319.594 231.608C320.405 231.181 321.215 230.84 322.026 230.584C322.837 230.328 323.669 230.136 324.522 230.008C325.418 229.88 326.378 229.816 327.402 229.816C329.493 229.816 331.242 230.157 332.65 230.84C334.101 231.523 335.231 232.483 336.042 233.72C336.895 234.915 337.493 236.387 337.834 238.136C338.218 239.843 338.41 241.741 338.41 243.832V265.656ZM377.13 250.36C377.13 251.384 376.682 251.896 375.786 251.896H355.37V252.024C355.37 252.92 355.477 253.795 355.69 254.648C355.903 255.501 356.266 256.248 356.778 256.888C357.29 257.528 357.951 258.04 358.762 258.424C359.615 258.808 360.682 259 361.962 259C362.986 259 364.074 258.979 365.226 258.936C366.378 258.893 367.509 258.851 368.618 258.808C369.77 258.765 370.837 258.723 371.818 258.68C372.799 258.595 373.61 258.509 374.25 258.424H374.442C375.253 258.424 375.658 258.765 375.658 259.448V264.312C375.658 264.824 375.573 265.208 375.402 265.464C375.231 265.72 374.869 265.912 374.314 266.04C372.266 266.552 370.261 266.936 368.298 267.192C366.335 267.448 363.967 267.576 361.194 267.576C359.274 267.576 357.354 267.299 355.434 266.744C353.514 266.189 351.786 265.272 350.25 263.992C348.714 262.712 347.477 261.027 346.538 258.936C345.599 256.803 345.13 254.2 345.13 251.128V246.648C345.13 244.088 345.493 241.763 346.218 239.672C346.943 237.581 347.989 235.811 349.354 234.36C350.762 232.909 352.469 231.8 354.474 231.032C356.479 230.221 358.762 229.816 361.322 229.816C363.925 229.816 366.207 230.243 368.17 231.096C370.175 231.949 371.839 233.123 373.162 234.616C374.485 236.109 375.466 237.88 376.106 239.928C376.789 241.976 377.13 244.216 377.13 246.648V250.36ZM367.018 245.24C367.018 242.851 366.506 241.08 365.482 239.928C364.458 238.733 363.05 238.136 361.258 238.136C359.466 238.136 358.037 238.733 356.97 239.928C355.903 241.123 355.37 242.893 355.37 245.24V245.496H367.018V245.24ZM409.504 256.824C409.504 258.317 409.227 259.725 408.672 261.048C408.117 262.371 407.264 263.523 406.112 264.504C405.003 265.443 403.595 266.189 401.888 266.744C400.181 267.299 398.155 267.576 395.808 267.576C394.912 267.576 393.952 267.533 392.928 267.448C391.947 267.405 390.923 267.32 389.856 267.192C388.832 267.064 387.829 266.915 386.848 266.744C385.867 266.573 384.971 266.381 384.16 266.168C383.349 265.955 382.944 265.464 382.944 264.696V259.512C382.944 259.171 383.051 258.893 383.264 258.68C383.477 258.424 383.776 258.296 384.16 258.296H384.416C385.269 258.424 386.208 258.552 387.232 258.68C388.299 258.765 389.344 258.851 390.368 258.936C391.392 259.021 392.331 259.085 393.184 259.128C394.08 259.171 394.784 259.192 395.296 259.192C396.832 259.192 397.835 259 398.304 258.616C398.816 258.189 399.072 257.549 399.072 256.696C399.072 256.227 398.901 255.8 398.56 255.416C398.219 254.989 397.6 254.52 396.704 254.008L388.384 249.208C386.592 248.184 385.184 246.883 384.16 245.304C383.179 243.683 382.688 241.827 382.688 239.736C382.688 236.493 383.755 234.04 385.888 232.376C388.064 230.669 391.371 229.816 395.808 229.816C398.325 229.816 400.437 229.965 402.144 230.264C403.893 230.52 405.579 230.861 407.2 231.288C408.011 231.501 408.416 231.992 408.416 232.76V237.944C408.416 238.755 408.053 239.16 407.328 239.16H407.136C406.667 239.117 406.005 239.053 405.152 238.968C404.299 238.84 403.36 238.733 402.336 238.648C401.355 238.563 400.331 238.499 399.264 238.456C398.24 238.371 397.323 238.328 396.512 238.328C395.275 238.328 394.4 238.456 393.888 238.712C393.376 238.968 393.12 239.459 393.12 240.184C393.12 240.653 393.291 241.059 393.632 241.4C393.973 241.699 394.464 242.04 395.104 242.424L403.04 246.968C404.363 247.736 405.429 248.525 406.24 249.336C407.093 250.104 407.755 250.915 408.224 251.768C408.736 252.579 409.077 253.411 409.248 254.264C409.419 255.117 409.504 255.971 409.504 256.824ZM429.532 219.192L428.252 251.128C428.252 251.469 428.124 251.789 427.868 252.088C427.612 252.344 427.313 252.472 426.972 252.472H421.532C421.19 252.472 420.87 252.344 420.572 252.088C420.273 251.789 420.124 251.469 420.124 251.128L418.844 219.192V219.128C418.844 218.787 418.993 218.509 419.292 218.296C419.59 218.04 419.91 217.912 420.252 217.912H428.252C428.593 217.912 428.892 218.04 429.148 218.296C429.404 218.509 429.532 218.787 429.532 219.128V219.192ZM429.212 265.72C429.212 266.061 429.084 266.36 428.828 266.616C428.614 266.872 428.337 267 427.996 267H420.444C420.102 267 419.804 266.872 419.548 266.616C419.292 266.36 419.164 266.061 419.164 265.72V257.656C419.164 257.315 419.292 257.037 419.548 256.824C419.804 256.568 420.102 256.44 420.444 256.44H427.996C428.806 256.44 429.212 256.845 429.212 257.656V265.72Z" fill="#FFEA22"/>
</svg>
