<svg width="346" height="473" viewBox="0 0 346 473" fill="none" xmlns="http://www.w3.org/2000/svg">
<rect width="372" height="472.881" rx="32" fill="#00A0D7"/>
<mask id="mask0" style="mask-type:alpha" maskUnits="userSpaceOnUse" x="0" y="0" width="372" height="473">
<rect width="372" height="472.881" rx="32" fill="#5543A5"/>
</mask>
<g mask="url(#mask0)">
<circle opacity="0.5" cx="280.577" cy="412.983" r="193.881" fill="white"/>
</g>
<rect x="43" y="114" width="95" height="40" rx="10" fill="#FFEA22"/>
<path d="M79.45 135.382C79.45 135.838 79.372 136.294 79.216 136.75C79.06 137.194 78.796 137.596 78.424 137.956C78.064 138.304 77.578 138.592 76.966 138.82C76.366 139.036 75.616 139.144 74.716 139.144C74.032 139.144 73.438 139.114 72.934 139.054C72.43 138.994 71.962 138.916 71.53 138.82C71.434 138.796 71.35 138.754 71.278 138.694C71.218 138.634 71.188 138.556 71.188 138.46V137.164C71.188 137.068 71.218 136.99 71.278 136.93C71.35 136.858 71.434 136.822 71.53 136.822H71.566C71.746 136.846 71.98 136.87 72.268 136.894C72.568 136.906 72.874 136.924 73.186 136.948C73.498 136.96 73.792 136.972 74.068 136.984C74.356 136.996 74.584 137.002 74.752 137.002C75.556 137.002 76.102 136.864 76.39 136.588C76.69 136.312 76.84 135.91 76.84 135.382C76.84 135.202 76.816 135.046 76.768 134.914C76.72 134.77 76.636 134.632 76.516 134.5C76.396 134.368 76.24 134.236 76.048 134.104C75.856 133.96 75.61 133.798 75.31 133.618L72.934 132.196C72.514 131.944 72.166 131.692 71.89 131.44C71.626 131.188 71.41 130.93 71.242 130.666C71.086 130.39 70.972 130.108 70.9 129.82C70.84 129.52 70.81 129.214 70.81 128.902C70.81 128.41 70.888 127.954 71.044 127.534C71.2 127.114 71.452 126.754 71.8 126.454C72.16 126.142 72.622 125.902 73.186 125.734C73.762 125.566 74.47 125.482 75.31 125.482C75.61 125.482 75.928 125.494 76.264 125.518C76.6 125.53 76.93 125.554 77.254 125.59C77.578 125.626 77.872 125.662 78.136 125.698C78.4 125.734 78.61 125.77 78.766 125.806C78.862 125.83 78.94 125.872 79 125.932C79.06 125.98 79.09 126.052 79.09 126.148V127.48C79.09 127.576 79.06 127.654 79 127.714C78.952 127.774 78.88 127.804 78.784 127.804H78.748C78.148 127.744 77.554 127.702 76.966 127.678C76.378 127.642 75.79 127.624 75.202 127.624C74.53 127.624 74.044 127.738 73.744 127.966C73.456 128.182 73.312 128.494 73.312 128.902C73.312 129.046 73.33 129.184 73.366 129.316C73.414 129.436 73.492 129.562 73.6 129.694C73.72 129.814 73.876 129.94 74.068 130.072C74.26 130.204 74.5 130.348 74.788 130.504L76.948 131.71C77.44 131.986 77.848 132.268 78.172 132.556C78.496 132.832 78.748 133.12 78.928 133.42C79.12 133.72 79.252 134.032 79.324 134.356C79.408 134.68 79.45 135.022 79.45 135.382ZM86.4728 138.694C86.4728 138.874 86.3588 138.982 86.1308 139.018C85.9148 139.054 85.7048 139.084 85.5008 139.108C85.3088 139.132 85.1108 139.144 84.9068 139.144C84.4028 139.144 83.9648 139.108 83.5928 139.036C83.2328 138.964 82.9388 138.826 82.7108 138.622C82.4828 138.418 82.3148 138.13 82.2068 137.758C82.0988 137.374 82.0448 136.882 82.0448 136.282V130.63L80.3528 130.378C80.2568 130.354 80.1728 130.312 80.1008 130.252C80.0288 130.192 79.9928 130.114 79.9928 130.018V129.208C79.9928 129.112 80.0288 129.028 80.1008 128.956C80.1728 128.884 80.2568 128.848 80.3528 128.848H82.0448V127.372C82.0448 127.276 82.0808 127.198 82.1528 127.138C82.2248 127.078 82.3088 127.036 82.4048 127.012L84.0788 126.724H84.1508C84.3428 126.724 84.4388 126.814 84.4388 126.994V128.848H86.0588C86.1548 128.848 86.2388 128.884 86.3108 128.956C86.3828 129.028 86.4188 129.112 86.4188 129.208V130.27C86.4188 130.366 86.3828 130.45 86.3108 130.522C86.2388 130.594 86.1548 130.63 86.0588 130.63H84.4388V136.282C84.4388 136.51 84.4448 136.69 84.4568 136.822C84.4688 136.954 84.4988 137.056 84.5468 137.128C84.5948 137.2 84.6608 137.248 84.7448 137.272C84.8408 137.284 84.9728 137.29 85.1408 137.29H86.0948C86.3468 137.29 86.4728 137.38 86.4728 137.56V138.694ZM95.6217 138.64C95.6217 138.736 95.5857 138.82 95.5137 138.892C95.4417 138.964 95.3577 139 95.2617 139H93.7317C93.6357 139 93.5517 138.964 93.4797 138.892C93.4077 138.82 93.3717 138.736 93.3717 138.64V138.352C92.9517 138.604 92.5317 138.802 92.1117 138.946C91.6917 139.078 91.2657 139.144 90.8337 139.144C90.4617 139.144 90.0897 139.102 89.7177 139.018C89.3457 138.934 89.0097 138.778 88.7097 138.55C88.4217 138.322 88.1817 138.016 87.9897 137.632C87.8097 137.248 87.7197 136.75 87.7197 136.138V136.066C87.7197 135.55 87.7977 135.1 87.9537 134.716C88.1217 134.332 88.3797 134.008 88.7277 133.744C89.0877 133.48 89.5437 133.282 90.0957 133.15C90.6597 133.018 91.3317 132.952 92.1117 132.952H93.2457V132.16C93.2457 131.572 93.1137 131.182 92.8497 130.99C92.5977 130.798 92.2017 130.702 91.6617 130.702C91.0857 130.702 90.5277 130.72 89.9877 130.756C89.4477 130.78 89.0277 130.81 88.7277 130.846H88.6377C88.5417 130.846 88.4637 130.828 88.4037 130.792C88.3437 130.756 88.3137 130.672 88.3137 130.54V129.388C88.3137 129.184 88.4277 129.058 88.6557 129.01C89.0157 128.938 89.4477 128.872 89.9517 128.812C90.4677 128.752 91.0377 128.722 91.6617 128.722C92.9457 128.722 93.9237 129.004 94.5957 129.568C95.2797 130.132 95.6217 130.996 95.6217 132.16V138.64ZM93.2457 134.536H92.1117C91.7037 134.536 91.3677 134.572 91.1037 134.644C90.8517 134.704 90.6477 134.8 90.4917 134.932C90.3477 135.052 90.2457 135.208 90.1857 135.4C90.1377 135.592 90.1137 135.814 90.1137 136.066V136.138C90.1137 136.582 90.2157 136.882 90.4197 137.038C90.6237 137.182 90.9537 137.254 91.4097 137.254C91.7337 137.254 92.0517 137.206 92.3637 137.11C92.6877 137.014 92.9817 136.894 93.2457 136.75V134.536ZM103.179 130.378C103.179 130.474 103.143 130.558 103.071 130.63C102.999 130.702 102.915 130.738 102.819 130.738C102.327 130.738 101.883 130.798 101.487 130.918C101.103 131.026 100.719 131.182 100.335 131.386V138.622C100.335 138.718 100.299 138.808 100.227 138.892C100.155 138.964 100.071 139 99.9751 139H98.3191C98.2231 139 98.1391 138.964 98.0671 138.892C97.9951 138.808 97.9591 138.718 97.9591 138.622V129.208C97.9591 129.112 97.9951 129.028 98.0671 128.956C98.1391 128.884 98.2231 128.848 98.3191 128.848H99.8851C99.9811 128.848 100.065 128.884 100.137 128.956C100.209 129.028 100.245 129.112 100.245 129.208V129.586C100.689 129.238 101.139 129.01 101.595 128.902C102.051 128.782 102.459 128.722 102.819 128.722C102.915 128.722 102.999 128.758 103.071 128.83C103.143 128.902 103.179 128.986 103.179 129.082V130.378ZM110.379 138.694C110.379 138.874 110.265 138.982 110.037 139.018C109.821 139.054 109.611 139.084 109.407 139.108C109.215 139.132 109.017 139.144 108.813 139.144C108.309 139.144 107.871 139.108 107.499 139.036C107.139 138.964 106.845 138.826 106.617 138.622C106.389 138.418 106.221 138.13 106.113 137.758C106.005 137.374 105.951 136.882 105.951 136.282V130.63L104.259 130.378C104.163 130.354 104.079 130.312 104.007 130.252C103.935 130.192 103.899 130.114 103.899 130.018V129.208C103.899 129.112 103.935 129.028 104.007 128.956C104.079 128.884 104.163 128.848 104.259 128.848H105.951V127.372C105.951 127.276 105.987 127.198 106.059 127.138C106.131 127.078 106.215 127.036 106.311 127.012L107.985 126.724H108.057C108.249 126.724 108.345 126.814 108.345 126.994V128.848H109.965C110.061 128.848 110.145 128.884 110.217 128.956C110.289 129.028 110.325 129.112 110.325 129.208V130.27C110.325 130.366 110.289 130.45 110.217 130.522C110.145 130.594 110.061 130.63 109.965 130.63H108.345V136.282C108.345 136.51 108.351 136.69 108.363 136.822C108.375 136.954 108.405 137.056 108.453 137.128C108.501 137.2 108.567 137.248 108.651 137.272C108.747 137.284 108.879 137.29 109.047 137.29H110.001C110.253 137.29 110.379 137.38 110.379 137.56V138.694Z" fill="#00A0D7"/>
<path d="M62.74 62.19C62.74 62.21 62.73 62.23 62.71 62.25C62.71 62.27 62.71 62.3 62.71 62.34L58.24 80.94C58.06 81.66 57.8 82.24 57.46 82.68C57.12 83.12 56.72 83.46 56.26 83.7C55.82 83.92 55.34 84.07 54.82 84.15C54.32 84.23 53.81 84.27 53.29 84.27C52.77 84.27 52.25 84.23 51.73 84.15C51.21 84.07 50.72 83.92 50.26 83.7C49.82 83.46 49.43 83.12 49.09 82.68C48.75 82.24 48.49 81.66 48.31 80.94L43.84 62.34C43.84 62.3 43.83 62.28 43.81 62.28C43.81 62.26 43.81 62.23 43.81 62.19C43.81 62.05 43.86 61.94 43.96 61.86C44.06 61.76 44.19 61.71 44.35 61.71H48.52C48.68 61.71 48.81 61.76 48.91 61.86C49.01 61.96 49.08 62.09 49.12 62.25L52.87 79.56C52.93 79.86 53.07 80.01 53.29 80.01C53.51 80.01 53.65 79.86 53.71 79.56L57.46 62.25C57.5 62.09 57.56 61.96 57.64 61.86C57.74 61.76 57.87 61.71 58.03 61.71H62.23C62.57 61.71 62.74 61.87 62.74 62.19ZM78.4223 76.47C78.4223 77.67 78.2523 78.75 77.9123 79.71C77.5923 80.67 77.1123 81.49 76.4723 82.17C75.8523 82.83 75.0723 83.35 74.1323 83.73C73.2123 84.09 72.1423 84.27 70.9223 84.27C69.7023 84.27 68.6223 84.09 67.6823 83.73C66.7623 83.35 65.9823 82.83 65.3423 82.17C64.7023 81.49 64.2123 80.67 63.8723 79.71C63.5523 78.75 63.3923 77.67 63.3923 76.47V74.37C63.3923 73.17 63.5523 72.09 63.8723 71.13C64.2123 70.17 64.7023 69.36 65.3423 68.7C65.9823 68.02 66.7623 67.5 67.6823 67.14C68.6223 66.76 69.7023 66.57 70.9223 66.57C72.1423 66.57 73.2123 66.76 74.1323 67.14C75.0723 67.5 75.8523 68.02 76.4723 68.7C77.1123 69.36 77.5923 70.17 77.9123 71.13C78.2523 72.09 78.4223 73.17 78.4223 74.37V76.47ZM73.5923 74.37C73.5923 71.93 72.7023 70.71 70.9223 70.71C70.0423 70.71 69.3723 71.02 68.9123 71.64C68.4523 72.24 68.2223 73.15 68.2223 74.37V76.47C68.2223 77.69 68.4523 78.61 68.9123 79.23C69.3723 79.85 70.0423 80.16 70.9223 80.16C72.7023 80.16 73.5923 78.93 73.5923 76.47V74.37ZM86.6383 64.26C86.6383 64.42 86.5783 64.56 86.4583 64.68C86.3383 64.8 86.1983 64.86 86.0383 64.86H82.1383C81.9783 64.86 81.8383 64.8 81.7183 64.68C81.5983 64.56 81.5383 64.42 81.5383 64.26V61.47C81.5383 61.31 81.5983 61.17 81.7183 61.05C81.8383 60.93 81.9783 60.87 82.1383 60.87H86.0383C86.1983 60.87 86.3383 60.93 86.4583 61.05C86.5783 61.17 86.6383 61.31 86.6383 61.47V64.26ZM86.5183 83.4C86.5183 83.56 86.4583 83.7 86.3383 83.82C86.2183 83.94 86.0783 84 85.9183 84H82.2583C82.0983 84 81.9583 83.94 81.8383 83.82C81.7183 83.7 81.6583 83.56 81.6583 83.4V67.41C81.6583 67.25 81.7183 67.11 81.8383 66.99C81.9583 66.87 82.0983 66.81 82.2583 66.81H85.9183C86.0783 66.81 86.2183 66.87 86.3383 66.99C86.4583 67.11 86.5183 67.25 86.5183 67.41V83.4ZM101.399 83.13C101.399 83.35 101.349 83.51 101.249 83.61C101.149 83.69 100.989 83.76 100.769 83.82C100.349 83.92 99.7995 84.02 99.1195 84.12C98.4595 84.22 97.6795 84.27 96.7795 84.27C94.6595 84.27 92.9595 83.62 91.6795 82.32C90.4195 81.02 89.7895 79.14 89.7895 76.68V74.16C89.7895 71.7 90.4195 69.82 91.6795 68.52C92.9595 67.22 94.6595 66.57 96.7795 66.57C97.6795 66.57 98.4595 66.62 99.1195 66.72C99.7995 66.82 100.349 66.92 100.769 67.02C100.989 67.08 101.149 67.16 101.249 67.26C101.349 67.34 101.399 67.49 101.399 67.71V70.38C101.399 70.54 101.339 70.67 101.219 70.77C101.119 70.85 100.989 70.89 100.829 70.89H100.769C100.209 70.83 99.6695 70.78 99.1495 70.74C98.6495 70.7 97.9695 70.68 97.1095 70.68C96.7695 70.68 96.4495 70.74 96.1495 70.86C95.8495 70.96 95.5895 71.15 95.3695 71.43C95.1495 71.69 94.9695 72.05 94.8295 72.51C94.7095 72.95 94.6495 73.5 94.6495 74.16V76.68C94.6495 77.34 94.7095 77.9 94.8295 78.36C94.9695 78.8 95.1495 79.16 95.3695 79.44C95.5895 79.7 95.8495 79.89 96.1495 80.01C96.4495 80.11 96.7695 80.16 97.1095 80.16C97.9695 80.16 98.6495 80.14 99.1495 80.1C99.6695 80.06 100.209 80.01 100.769 79.95H100.829C100.989 79.95 101.119 80 101.219 80.1C101.339 80.18 101.399 80.3 101.399 80.46V83.13ZM118.354 76.2C118.354 76.68 118.144 76.92 117.724 76.92H108.154V76.98C108.154 77.4 108.204 77.81 108.304 78.21C108.404 78.61 108.574 78.96 108.814 79.26C109.054 79.56 109.364 79.8 109.744 79.98C110.144 80.16 110.644 80.25 111.244 80.25C111.724 80.25 112.234 80.24 112.774 80.22C113.314 80.2 113.844 80.18 114.364 80.16C114.904 80.14 115.404 80.12 115.864 80.1C116.324 80.06 116.704 80.02 117.004 79.98H117.094C117.474 79.98 117.664 80.14 117.664 80.46V82.74C117.664 82.98 117.624 83.16 117.544 83.28C117.464 83.4 117.294 83.49 117.034 83.55C116.074 83.79 115.134 83.97 114.214 84.09C113.294 84.21 112.184 84.27 110.884 84.27C109.984 84.27 109.084 84.14 108.184 83.88C107.284 83.62 106.474 83.19 105.754 82.59C105.034 81.99 104.454 81.2 104.014 80.22C103.574 79.22 103.354 78 103.354 76.56V74.46C103.354 73.26 103.524 72.17 103.864 71.19C104.204 70.21 104.694 69.38 105.334 68.7C105.994 68.02 106.794 67.5 107.734 67.14C108.674 66.76 109.744 66.57 110.944 66.57C112.164 66.57 113.234 66.77 114.154 67.17C115.094 67.57 115.874 68.12 116.494 68.82C117.114 69.52 117.574 70.35 117.874 71.31C118.194 72.27 118.354 73.32 118.354 74.46V76.2ZM113.614 73.8C113.614 72.68 113.374 71.85 112.894 71.31C112.414 70.75 111.754 70.47 110.914 70.47C110.074 70.47 109.404 70.75 108.904 71.31C108.404 71.87 108.154 72.7 108.154 73.8V73.92H113.614V73.8ZM146.422 74.79C146.422 76.37 146.202 77.76 145.762 78.96C145.322 80.14 144.692 81.13 143.872 81.93C143.052 82.71 142.052 83.3 140.872 83.7C139.692 84.08 138.352 84.27 136.852 84.27C136.232 84.27 135.602 84.25 134.962 84.21C134.342 84.19 133.742 84.16 133.162 84.12C132.602 84.08 132.082 84.04 131.602 84C131.142 83.94 130.762 83.88 130.462 83.82C130.182 83.78 129.962 83.68 129.802 83.52C129.662 83.36 129.592 83.11 129.592 82.77V62.94C129.592 62.6 129.662 62.35 129.802 62.19C129.962 62.03 130.182 61.93 130.462 61.89C130.762 61.83 131.142 61.78 131.602 61.74C132.082 61.68 132.602 61.63 133.162 61.59C133.742 61.55 134.342 61.52 134.962 61.5C135.602 61.46 136.232 61.44 136.852 61.44C138.352 61.44 139.692 61.64 140.872 62.04C142.052 62.42 143.052 63.01 143.872 63.81C144.692 64.59 145.322 65.58 145.762 66.78C146.202 67.96 146.422 69.34 146.422 70.92V74.79ZM141.292 70.92C141.292 69.9 141.182 69.06 140.962 68.4C140.762 67.74 140.462 67.22 140.062 66.84C139.682 66.44 139.222 66.17 138.682 66.03C138.142 65.87 137.532 65.79 136.852 65.79C136.472 65.79 136.072 65.8 135.652 65.82C135.252 65.82 134.942 65.83 134.722 65.85V79.86C134.942 79.88 135.252 79.9 135.652 79.92C136.072 79.92 136.472 79.92 136.852 79.92C137.532 79.92 138.142 79.85 138.682 79.71C139.222 79.55 139.682 79.28 140.062 78.9C140.462 78.5 140.762 77.97 140.962 77.31C141.182 76.65 141.292 75.81 141.292 74.79V70.92ZM163.001 83.4C163.001 83.56 162.941 83.7 162.821 83.82C162.701 83.94 162.561 84 162.401 84H159.041C158.881 84 158.741 83.94 158.621 83.82C158.501 83.7 158.441 83.56 158.441 83.4V82.92C157.861 83.34 157.241 83.67 156.581 83.91C155.941 84.15 155.171 84.27 154.271 84.27C153.611 84.27 152.971 84.18 152.351 84C151.751 83.84 151.211 83.56 150.731 83.16C150.251 82.76 149.861 82.23 149.561 81.57C149.281 80.91 149.141 80.09 149.141 79.11V78.84C149.141 77.08 149.721 75.8 150.881 75C152.061 74.18 153.941 73.77 156.521 73.77H158.141V72.69C158.141 71.83 157.941 71.27 157.541 71.01C157.141 70.75 156.591 70.62 155.891 70.62C155.411 70.62 154.921 70.63 154.421 70.65C153.941 70.65 153.471 70.66 153.011 70.68C152.571 70.7 152.171 70.73 151.811 70.77C151.451 70.79 151.151 70.81 150.911 70.83H150.761C150.601 70.83 150.471 70.79 150.371 70.71C150.271 70.63 150.221 70.49 150.221 70.29V67.86C150.221 67.52 150.411 67.3 150.791 67.2C151.351 67.06 152.101 66.92 153.041 66.78C154.001 66.64 154.981 66.57 155.981 66.57C157.061 66.57 158.031 66.69 158.891 66.93C159.771 67.15 160.511 67.51 161.111 68.01C161.711 68.49 162.171 69.12 162.491 69.9C162.831 70.66 163.001 71.59 163.001 72.69V83.4ZM158.231 76.65H156.521C156.001 76.65 155.571 76.7 155.231 76.8C154.891 76.88 154.621 77.01 154.421 77.19C154.221 77.37 154.081 77.6 154.001 77.88C153.921 78.16 153.881 78.48 153.881 78.84V79.11C153.881 79.75 154.031 80.16 154.331 80.34C154.651 80.52 155.131 80.61 155.771 80.61C156.231 80.61 156.661 80.55 157.061 80.43C157.481 80.29 157.871 80.13 158.231 79.95V76.65ZM175.784 83.43C175.784 83.77 175.594 83.97 175.214 84.03C174.754 84.11 174.354 84.17 174.014 84.21C173.674 84.25 173.284 84.27 172.844 84.27C172.024 84.27 171.294 84.2 170.654 84.06C170.034 83.94 169.514 83.69 169.094 83.31C168.674 82.93 168.354 82.41 168.134 81.75C167.914 81.07 167.804 80.2 167.804 79.14V70.44L165.404 70.05C165.244 70.01 165.094 69.94 164.954 69.84C164.834 69.72 164.774 69.58 164.774 69.42V67.44C164.774 67.28 164.834 67.14 164.954 67.02C165.094 66.88 165.244 66.81 165.404 66.81H167.804V64.35C167.804 64.19 167.864 64.06 167.984 63.96C168.104 63.86 168.244 63.79 168.404 63.75L172.064 63.12H172.154C172.314 63.12 172.444 63.17 172.544 63.27C172.644 63.35 172.694 63.47 172.694 63.63V66.81H175.154C175.314 66.81 175.454 66.87 175.574 66.99C175.694 67.11 175.754 67.25 175.754 67.41V69.84C175.754 70 175.694 70.14 175.574 70.26C175.454 70.38 175.314 70.44 175.154 70.44H172.694V79.17C172.694 79.77 172.744 80.16 172.844 80.34C172.944 80.5 173.224 80.58 173.684 80.58H175.154C175.574 80.58 175.784 80.75 175.784 81.09V83.43ZM191.771 83.4C191.771 83.56 191.711 83.7 191.591 83.82C191.471 83.94 191.331 84 191.171 84H187.811C187.651 84 187.511 83.94 187.391 83.82C187.271 83.7 187.211 83.56 187.211 83.4V82.92C186.631 83.34 186.011 83.67 185.351 83.91C184.711 84.15 183.941 84.27 183.041 84.27C182.381 84.27 181.741 84.18 181.121 84C180.521 83.84 179.981 83.56 179.501 83.16C179.021 82.76 178.631 82.23 178.331 81.57C178.051 80.91 177.911 80.09 177.911 79.11V78.84C177.911 77.08 178.491 75.8 179.651 75C180.831 74.18 182.711 73.77 185.291 73.77H186.911V72.69C186.911 71.83 186.711 71.27 186.311 71.01C185.911 70.75 185.361 70.62 184.661 70.62C184.181 70.62 183.691 70.63 183.191 70.65C182.711 70.65 182.241 70.66 181.781 70.68C181.341 70.7 180.941 70.73 180.581 70.77C180.221 70.79 179.921 70.81 179.681 70.83H179.531C179.371 70.83 179.241 70.79 179.141 70.71C179.041 70.63 178.991 70.49 178.991 70.29V67.86C178.991 67.52 179.181 67.3 179.561 67.2C180.121 67.06 180.871 66.92 181.811 66.78C182.771 66.64 183.751 66.57 184.751 66.57C185.831 66.57 186.801 66.69 187.661 66.93C188.541 67.15 189.281 67.51 189.881 68.01C190.481 68.49 190.941 69.12 191.261 69.9C191.601 70.66 191.771 71.59 191.771 72.69V83.4ZM187.001 76.65H185.291C184.771 76.65 184.341 76.7 184.001 76.8C183.661 76.88 183.391 77.01 183.191 77.19C182.991 77.37 182.851 77.6 182.771 77.88C182.691 78.16 182.651 78.48 182.651 78.84V79.11C182.651 79.75 182.801 80.16 183.101 80.34C183.421 80.52 183.901 80.61 184.541 80.61C185.001 80.61 185.431 80.55 185.831 80.43C186.251 80.29 186.641 80.13 187.001 79.95V76.65ZM216.95 83.07C216.95 83.29 216.89 83.45 216.77 83.55C216.67 83.63 216.51 83.7 216.29 83.76C215.97 83.86 215.41 83.97 214.61 84.09C213.81 84.21 212.88 84.27 211.82 84.27C210.68 84.27 209.57 84.11 208.49 83.79C207.43 83.47 206.49 82.94 205.67 82.2C204.85 81.44 204.19 80.45 203.69 79.23C203.19 78.01 202.94 76.51 202.94 74.73V70.95C202.94 69.17 203.19 67.67 203.69 66.45C204.19 65.23 204.85 64.25 205.67 63.51C206.49 62.77 207.43 62.24 208.49 61.92C209.57 61.6 210.68 61.44 211.82 61.44C212.88 61.44 213.81 61.5 214.61 61.62C215.41 61.74 215.97 61.85 216.29 61.95C216.51 62.01 216.67 62.08 216.77 62.16C216.89 62.24 216.95 62.39 216.95 62.61V65.52C216.95 65.92 216.76 66.12 216.38 66.12H216.29C215.71 66.08 215.03 66.03 214.25 65.97C213.49 65.91 212.69 65.88 211.85 65.88C211.33 65.88 210.84 65.96 210.38 66.12C209.94 66.26 209.55 66.53 209.21 66.93C208.87 67.31 208.6 67.83 208.4 68.49C208.22 69.13 208.13 69.95 208.13 70.95V74.73C208.13 75.73 208.22 76.56 208.4 77.22C208.6 77.86 208.87 78.38 209.21 78.78C209.55 79.16 209.94 79.43 210.38 79.59C210.84 79.73 211.33 79.8 211.85 79.8C212.69 79.8 213.49 79.77 214.25 79.71C215.03 79.65 215.71 79.6 216.29 79.56H216.38C216.76 79.56 216.95 79.76 216.95 80.16V83.07ZM234.516 76.47C234.516 77.67 234.346 78.75 234.006 79.71C233.686 80.67 233.206 81.49 232.566 82.17C231.946 82.83 231.166 83.35 230.226 83.73C229.306 84.09 228.236 84.27 227.016 84.27C225.796 84.27 224.716 84.09 223.776 83.73C222.856 83.35 222.076 82.83 221.436 82.17C220.796 81.49 220.306 80.67 219.966 79.71C219.646 78.75 219.486 77.67 219.486 76.47V74.37C219.486 73.17 219.646 72.09 219.966 71.13C220.306 70.17 220.796 69.36 221.436 68.7C222.076 68.02 222.856 67.5 223.776 67.14C224.716 66.76 225.796 66.57 227.016 66.57C228.236 66.57 229.306 66.76 230.226 67.14C231.166 67.5 231.946 68.02 232.566 68.7C233.206 69.36 233.686 70.17 234.006 71.13C234.346 72.09 234.516 73.17 234.516 74.37V76.47ZM229.686 74.37C229.686 71.93 228.796 70.71 227.016 70.71C226.136 70.71 225.466 71.02 225.006 71.64C224.546 72.24 224.316 73.15 224.316 74.37V76.47C224.316 77.69 224.546 78.61 225.006 79.23C225.466 79.85 226.136 80.16 227.016 80.16C228.796 80.16 229.686 78.93 229.686 76.47V74.37ZM242.492 83.37C242.492 83.53 242.432 83.68 242.312 83.82C242.212 83.94 242.082 84 241.922 84H238.262C238.102 84 237.952 83.94 237.812 83.82C237.692 83.68 237.632 83.53 237.632 83.37V61.59C237.632 61.43 237.692 61.29 237.812 61.17C237.952 61.05 238.102 60.99 238.262 60.99H241.922C242.082 60.99 242.212 61.05 242.312 61.17C242.432 61.29 242.492 61.43 242.492 61.59V83.37ZM250.959 83.37C250.959 83.53 250.899 83.68 250.779 83.82C250.679 83.94 250.549 84 250.389 84H246.729C246.569 84 246.419 83.94 246.279 83.82C246.159 83.68 246.099 83.53 246.099 83.37V61.59C246.099 61.43 246.159 61.29 246.279 61.17C246.419 61.05 246.569 60.99 246.729 60.99H250.389C250.549 60.99 250.679 61.05 250.779 61.17C250.899 61.29 250.959 61.43 250.959 61.59V83.37ZM269.116 76.2C269.116 76.68 268.906 76.92 268.486 76.92H258.916V76.98C258.916 77.4 258.966 77.81 259.066 78.21C259.166 78.61 259.336 78.96 259.576 79.26C259.816 79.56 260.126 79.8 260.506 79.98C260.906 80.16 261.406 80.25 262.006 80.25C262.486 80.25 262.996 80.24 263.536 80.22C264.076 80.2 264.606 80.18 265.126 80.16C265.666 80.14 266.166 80.12 266.626 80.1C267.086 80.06 267.466 80.02 267.766 79.98H267.856C268.236 79.98 268.426 80.14 268.426 80.46V82.74C268.426 82.98 268.386 83.16 268.306 83.28C268.226 83.4 268.056 83.49 267.796 83.55C266.836 83.79 265.896 83.97 264.976 84.09C264.056 84.21 262.946 84.27 261.646 84.27C260.746 84.27 259.846 84.14 258.946 83.88C258.046 83.62 257.236 83.19 256.516 82.59C255.796 81.99 255.216 81.2 254.776 80.22C254.336 79.22 254.116 78 254.116 76.56V74.46C254.116 73.26 254.286 72.17 254.626 71.19C254.966 70.21 255.456 69.38 256.096 68.7C256.756 68.02 257.556 67.5 258.496 67.14C259.436 66.76 260.506 66.57 261.706 66.57C262.926 66.57 263.996 66.77 264.916 67.17C265.856 67.57 266.636 68.12 267.256 68.82C267.876 69.52 268.336 70.35 268.636 71.31C268.956 72.27 269.116 73.32 269.116 74.46V76.2ZM264.376 73.8C264.376 72.68 264.136 71.85 263.656 71.31C263.176 70.75 262.516 70.47 261.676 70.47C260.836 70.47 260.166 70.75 259.666 71.31C259.166 71.87 258.916 72.7 258.916 73.8V73.92H264.376V73.8ZM283.421 83.13C283.421 83.35 283.371 83.51 283.271 83.61C283.171 83.69 283.011 83.76 282.791 83.82C282.371 83.92 281.821 84.02 281.141 84.12C280.481 84.22 279.701 84.27 278.801 84.27C276.681 84.27 274.981 83.62 273.701 82.32C272.441 81.02 271.811 79.14 271.811 76.68V74.16C271.811 71.7 272.441 69.82 273.701 68.52C274.981 67.22 276.681 66.57 278.801 66.57C279.701 66.57 280.481 66.62 281.141 66.72C281.821 66.82 282.371 66.92 282.791 67.02C283.011 67.08 283.171 67.16 283.271 67.26C283.371 67.34 283.421 67.49 283.421 67.71V70.38C283.421 70.54 283.361 70.67 283.241 70.77C283.141 70.85 283.011 70.89 282.851 70.89H282.791C282.231 70.83 281.691 70.78 281.171 70.74C280.671 70.7 279.991 70.68 279.131 70.68C278.791 70.68 278.471 70.74 278.171 70.86C277.871 70.96 277.611 71.15 277.391 71.43C277.171 71.69 276.991 72.05 276.851 72.51C276.731 72.95 276.671 73.5 276.671 74.16V76.68C276.671 77.34 276.731 77.9 276.851 78.36C276.991 78.8 277.171 79.16 277.391 79.44C277.611 79.7 277.871 79.89 278.171 80.01C278.471 80.11 278.791 80.16 279.131 80.16C279.991 80.16 280.671 80.14 281.171 80.1C281.691 80.06 282.231 80.01 282.791 79.95H282.851C283.011 79.95 283.141 80 283.241 80.1C283.361 80.18 283.421 80.3 283.421 80.46V83.13ZM296.37 83.43C296.37 83.77 296.18 83.97 295.8 84.03C295.34 84.11 294.94 84.17 294.6 84.21C294.26 84.25 293.87 84.27 293.43 84.27C292.61 84.27 291.88 84.2 291.24 84.06C290.62 83.94 290.1 83.69 289.68 83.31C289.26 82.93 288.94 82.41 288.72 81.75C288.5 81.07 288.39 80.2 288.39 79.14V70.44L285.99 70.05C285.83 70.01 285.68 69.94 285.54 69.84C285.42 69.72 285.36 69.58 285.36 69.42V67.44C285.36 67.28 285.42 67.14 285.54 67.02C285.68 66.88 285.83 66.81 285.99 66.81H288.39V64.35C288.39 64.19 288.45 64.06 288.57 63.96C288.69 63.86 288.83 63.79 288.99 63.75L292.65 63.12H292.74C292.9 63.12 293.03 63.17 293.13 63.27C293.23 63.35 293.28 63.47 293.28 63.63V66.81H295.74C295.9 66.81 296.04 66.87 296.16 66.99C296.28 67.11 296.34 67.25 296.34 67.41V69.84C296.34 70 296.28 70.14 296.16 70.26C296.04 70.38 295.9 70.44 295.74 70.44H293.28V79.17C293.28 79.77 293.33 80.16 293.43 80.34C293.53 80.5 293.81 80.58 294.27 80.58H295.74C296.16 80.58 296.37 80.75 296.37 81.09V83.43ZM304.197 64.26C304.197 64.42 304.137 64.56 304.017 64.68C303.897 64.8 303.757 64.86 303.597 64.86H299.697C299.537 64.86 299.397 64.8 299.277 64.68C299.157 64.56 299.097 64.42 299.097 64.26V61.47C299.097 61.31 299.157 61.17 299.277 61.05C299.397 60.93 299.537 60.87 299.697 60.87H303.597C303.757 60.87 303.897 60.93 304.017 61.05C304.137 61.17 304.197 61.31 304.197 61.47V64.26ZM304.077 83.4C304.077 83.56 304.017 83.7 303.897 83.82C303.777 83.94 303.637 84 303.477 84H299.817C299.657 84 299.517 83.94 299.397 83.82C299.277 83.7 299.217 83.56 299.217 83.4V67.41C299.217 67.25 299.277 67.11 299.397 66.99C299.517 66.87 299.657 66.81 299.817 66.81H303.477C303.637 66.81 303.777 66.87 303.897 66.99C304.017 67.11 304.077 67.25 304.077 67.41V83.4ZM322.348 76.47C322.348 77.67 322.178 78.75 321.838 79.71C321.518 80.67 321.038 81.49 320.398 82.17C319.778 82.83 318.998 83.35 318.058 83.73C317.138 84.09 316.068 84.27 314.848 84.27C313.628 84.27 312.548 84.09 311.608 83.73C310.688 83.35 309.908 82.83 309.268 82.17C308.628 81.49 308.138 80.67 307.798 79.71C307.478 78.75 307.318 77.67 307.318 76.47V74.37C307.318 73.17 307.478 72.09 307.798 71.13C308.138 70.17 308.628 69.36 309.268 68.7C309.908 68.02 310.688 67.5 311.608 67.14C312.548 66.76 313.628 66.57 314.848 66.57C316.068 66.57 317.138 66.76 318.058 67.14C318.998 67.5 319.778 68.02 320.398 68.7C321.038 69.36 321.518 70.17 321.838 71.13C322.178 72.09 322.348 73.17 322.348 74.37V76.47ZM317.518 74.37C317.518 71.93 316.628 70.71 314.848 70.71C313.968 70.71 313.298 71.02 312.838 71.64C312.378 72.24 312.148 73.15 312.148 74.37V76.47C312.148 77.69 312.378 78.61 312.838 79.23C313.298 79.85 313.968 80.16 314.848 80.16C316.628 80.16 317.518 78.93 317.518 76.47V74.37ZM340.224 83.37C340.224 83.53 340.154 83.68 340.014 83.82C339.894 83.94 339.754 84 339.594 84H335.964C335.804 84 335.664 83.94 335.544 83.82C335.424 83.68 335.364 83.53 335.364 83.37V73.38C335.364 72.86 335.334 72.42 335.274 72.06C335.214 71.7 335.104 71.41 334.944 71.19C334.784 70.97 334.554 70.82 334.254 70.74C333.974 70.64 333.604 70.59 333.144 70.59C332.704 70.59 332.254 70.68 331.794 70.86C331.334 71.04 330.844 71.27 330.324 71.55V83.37C330.324 83.53 330.264 83.68 330.144 83.82C330.024 83.94 329.884 84 329.724 84H326.094C325.934 84 325.784 83.94 325.644 83.82C325.524 83.68 325.464 83.53 325.464 83.37V67.41C325.464 67.25 325.524 67.11 325.644 66.99C325.764 66.87 325.904 66.81 326.064 66.81H329.424C329.584 66.81 329.724 66.87 329.844 66.99C329.964 67.11 330.024 67.25 330.024 67.41V68.13C330.844 67.55 331.624 67.15 332.364 66.93C333.104 66.69 333.954 66.57 334.914 66.57C335.994 66.57 336.874 66.75 337.554 67.11C338.254 67.47 338.794 67.96 339.174 68.58C339.574 69.18 339.844 69.9 339.984 70.74C340.144 71.56 340.224 72.44 340.224 73.38V83.37Z" fill="white"/>
<path d="M279.006 298.323L282.106 301.863C282.336 301.951 282.523 301.811 282.989 301.467C283.824 300.853 284.661 300.239 285.516 299.655C285.651 299.562 285.927 299.559 286.08 299.634C286.994 300.076 287.881 300.574 288.798 301.006C289.082 301.14 289.207 301.255 289.208 301.586C289.21 302.91 289.25 304.235 289.275 305.544C290.417 305.936 293.391 306.168 294.41 305.934C294.612 304.688 294.838 303.419 295.013 302.143C295.068 301.746 295.193 301.605 295.602 301.501C296.55 301.26 297.48 300.932 298.396 300.587C298.767 300.448 299.017 300.405 299.33 300.722C300.142 301.544 301.005 302.315 301.831 303.123C302.053 303.34 302.245 303.392 302.482 303.187C303.6 302.224 304.716 301.259 305.833 300.295C306.107 300.058 305.895 299.861 305.767 299.68C305.123 298.761 304.485 297.838 303.812 296.941C303.559 296.604 303.557 296.363 303.772 295.995C304.341 295.018 304.847 294.005 305.419 292.93C306.726 292.899 308.167 292.866 309.65 292.831C310.059 291.156 310.153 289.475 309.984 287.722C308.565 287.486 307.145 287.25 305.893 287.041C305.439 285.77 305.044 284.584 304.582 283.424C304.448 283.089 304.496 282.921 304.726 282.686C305.524 281.873 306.295 281.035 307.087 280.217C307.258 280.039 307.36 279.895 307.202 279.651C306.406 278.417 305.516 277.267 304.382 276.318C304.128 276.106 303.957 276.136 303.72 276.306C302.766 276.987 301.799 277.65 300.847 278.335C300.617 278.5 300.464 278.535 300.179 278.385C299.192 277.865 298.182 277.386 297.161 276.936C296.9 276.821 296.855 276.686 296.85 276.449C296.82 275.124 296.779 273.8 296.741 272.442C295.071 272.073 293.414 271.9 291.693 272.059C291.452 273.507 291.213 274.946 290.983 276.323C289.644 276.765 288.347 277.194 286.959 277.653C286.221 276.956 285.377 276.147 284.52 275.353C283.817 274.701 283.993 274.652 283.155 275.244C283.075 275.3 282.975 275.327 282.884 275.368C282.218 275.951 281.554 276.533 280.889 277.115C280.765 277.271 280.661 277.451 280.512 277.578C280.125 277.907 280.073 278.197 280.411 278.636C281.114 279.551 281.76 280.511 282.407 281.468C282.492 281.593 282.507 281.84 282.442 281.979C282.023 282.885 281.525 283.757 281.154 284.681C280.972 285.134 280.754 285.236 280.312 285.238C279.057 285.244 277.803 285.302 276.422 285.344C276.292 287.054 276.165 288.722 276.037 290.409C276.353 290.467 276.534 290.504 276.716 290.534C277.839 290.721 278.961 290.918 280.086 291.085C280.405 291.132 280.511 291.276 280.609 291.576C280.941 292.606 281.339 293.614 281.679 294.641C281.731 294.8 281.667 295.073 281.554 295.199C280.93 295.894 280.268 296.555 279.631 297.237C279.115 297.788 278.925 297.995 279.006 298.323ZM287.377 293.964C284.605 290.8 284.925 285.988 288.088 283.216C291.252 280.445 296.064 280.765 298.836 283.929C301.607 287.093 301.287 291.905 298.123 294.676C294.959 297.447 290.147 297.128 287.377 293.964Z" fill="#F45197"/>
<path d="M291.224 311.428L285.33 317.429C285.204 317.85 285.479 318.164 286.154 318.951C287.36 320.357 288.567 321.765 289.723 323.212C289.905 323.439 289.947 323.933 289.835 324.216C289.17 325.903 288.402 327.55 287.753 329.243C287.552 329.768 287.367 330.005 286.776 330.051C284.416 330.232 282.06 330.48 279.729 330.702C279.184 332.79 279.171 338.121 279.723 339.905C281.97 340.098 284.263 340.331 286.561 340.472C287.276 340.516 287.546 340.722 287.786 341.436C288.342 343.094 289.051 344.707 289.789 346.295C290.088 346.939 290.197 347.376 289.674 347.978C288.319 349.536 287.06 351.176 285.731 352.757C285.374 353.182 285.308 353.53 285.704 353.926C287.57 355.789 289.439 357.649 291.306 359.512C291.765 359.97 292.087 359.564 292.394 359.313C293.946 358.044 295.506 356.783 297.014 355.463C297.58 354.967 298.008 354.931 298.695 355.264C300.511 356.149 302.385 356.914 304.379 357.789C304.608 360.113 304.861 362.679 305.121 365.316C308.162 365.82 311.17 365.764 314.272 365.227C314.503 362.665 314.733 360.102 314.937 357.843C317.141 356.863 319.203 356 321.208 355.021C321.788 354.737 322.093 354.801 322.541 355.18C324.097 356.491 325.694 357.755 327.259 359.055C327.598 359.336 327.869 359.499 328.283 359.185C330.374 357.601 332.305 355.862 333.846 353.712C334.189 353.233 334.111 352.931 333.778 352.531C332.435 350.921 331.125 349.286 329.776 347.681C329.449 347.293 329.368 347.024 329.597 346.497C330.391 344.669 331.108 342.803 331.775 340.923C331.946 340.443 332.179 340.344 332.602 340.303C334.958 340.07 337.314 339.821 339.729 339.571C340.162 336.544 340.249 333.569 339.733 330.521C337.12 330.286 334.524 330.052 332.038 329.829C331.07 327.5 330.132 325.247 329.129 322.833C330.273 321.426 331.6 319.814 332.902 318.18C333.969 316.839 334.079 317.147 332.913 315.731C332.802 315.596 332.739 315.421 332.654 315.264C331.527 314.156 330.4 313.049 329.273 311.942C328.979 311.742 328.643 311.583 328.398 311.335C327.759 310.688 327.236 310.636 326.498 311.296C324.962 312.672 323.338 313.952 321.72 315.234C321.509 315.401 321.07 315.462 320.814 315.366C319.143 314.74 317.521 313.967 315.823 313.431C314.992 313.169 314.783 312.794 314.719 312.005C314.54 309.769 314.268 307.541 314.009 305.086C310.944 305.083 307.954 305.081 304.93 305.079C304.868 305.649 304.826 305.977 304.797 306.305C304.615 308.332 304.415 310.357 304.269 312.386C304.227 312.962 303.985 313.17 303.463 313.382C301.672 314.112 299.929 314.957 298.143 315.699C297.867 315.814 297.372 315.737 297.13 315.551C295.808 314.533 294.542 313.442 293.24 312.397C292.192 311.551 291.797 311.24 291.224 311.428ZM300.114 325.763C305.383 320.399 314.002 320.323 319.365 325.591C324.729 330.86 324.805 339.479 319.537 344.842C314.268 350.206 305.649 350.282 300.286 345.014C294.922 339.745 294.846 331.127 300.114 325.763Z" fill="#F45197"/>
<path d="M303.429 292.639C303.423 292.637 303.415 292.635 303.409 292.632C303.218 292.563 303.024 292.502 302.827 292.446C302.76 292.426 302.693 292.406 302.626 292.388C302.555 292.369 302.484 292.352 302.411 292.336C302.339 292.318 302.266 292.301 302.192 292.285C302.123 292.271 302.053 292.257 301.984 292.243C301.905 292.229 301.828 292.214 301.748 292.201C301.681 292.19 301.614 292.179 301.547 292.17C301.462 292.157 301.376 292.147 301.29 292.137C301.227 292.13 301.166 292.123 301.103 292.117C301.004 292.107 300.906 292.101 300.807 292.093C300.755 292.09 300.704 292.086 300.651 292.083C300.499 292.076 300.346 292.071 300.192 292.071H229.673C229.509 292.071 229.346 292.076 229.184 292.084C228.86 292.101 228.539 292.133 228.225 292.181C228.068 292.206 227.912 292.234 227.757 292.265C223.733 293.091 220.635 296.467 220.213 300.637C220.181 300.958 220.164 301.284 220.164 301.613V419.364V446.227C220.164 450.357 222.778 453.872 226.437 455.201C226.453 455.207 226.47 455.212 226.487 455.218C226.668 455.283 226.852 455.34 227.039 455.395C227.106 455.415 227.173 455.435 227.241 455.452C227.312 455.471 227.384 455.488 227.456 455.505C227.528 455.523 227.601 455.539 227.675 455.555C227.744 455.57 227.813 455.583 227.883 455.597C227.962 455.612 228.041 455.626 228.119 455.639C228.186 455.651 228.253 455.661 228.32 455.67C228.405 455.683 228.491 455.693 228.577 455.703C228.64 455.71 228.702 455.718 228.765 455.724C228.863 455.733 228.962 455.741 229.06 455.747C229.112 455.75 229.164 455.754 229.216 455.757C229.368 455.765 229.521 455.769 229.675 455.769H300.195C300.523 455.769 300.848 455.752 301.168 455.72C305.643 455.264 309.201 451.694 309.655 447.203C309.688 446.882 309.704 446.557 309.704 446.227V328.478V301.614C309.702 297.485 307.088 293.968 303.429 292.639Z" fill="black"/>
<path d="M305.092 305.076H224.773V442.765H305.092V305.076Z" fill="white"/>
<path opacity="0.2" d="M285.474 372.507C296.735 361.246 296.735 342.988 285.474 331.727C274.213 320.466 255.956 320.466 244.695 331.727C233.434 342.988 233.434 361.246 244.695 372.507C255.956 383.768 274.213 383.768 285.474 372.507Z" fill="#00A0D7"/>
<path opacity="0.3" d="M281.321 300.75H248.677C248.2 300.75 247.814 300.363 247.814 299.887C247.814 299.41 248.201 299.025 248.677 299.025H281.321C281.797 299.025 282.183 299.411 282.183 299.887C282.184 300.363 281.797 300.75 281.321 300.75Z" fill="#00A0D7"/>
<path opacity="0.2" d="M283.04 370.074C292.958 360.157 292.958 344.077 283.04 334.159C273.123 324.242 257.043 324.242 247.125 334.159C237.208 344.077 237.208 360.157 247.125 370.074C257.043 379.992 273.123 379.992 283.04 370.074Z" fill="#00A0D7"/>
<path opacity="0.2" d="M279.841 366.874C287.99 358.724 287.99 345.51 279.841 337.36C271.691 329.21 258.477 329.21 250.327 337.36C242.177 345.51 242.177 358.724 250.327 366.874C258.477 375.024 271.691 375.024 279.841 366.874Z" fill="#00A0D7"/>
<path opacity="0.3" d="M268.833 449.398C268.833 451.584 267.068 453.357 264.888 453.357C262.709 453.357 260.943 451.585 260.943 449.398C260.943 447.211 262.709 445.441 264.888 445.441C267.068 445.441 268.833 447.213 268.833 449.398Z" fill="#00A0D7"/>
<path opacity="0.2" d="M305.092 436.988H224.773V442.765H305.092V436.988Z" fill="#00A0D7"/>
<path opacity="0.2" d="M305.092 305.076H224.773V312.382H305.092V305.076Z" fill="#00A0D7"/>
<path d="M208.346 382.965L208.627 383.217C208.772 383.347 208.99 383.342 209.115 383.205L214.113 377.691C214.236 377.554 214.22 377.338 214.075 377.208L213.793 376.955C213.649 376.825 213.431 376.831 213.306 376.968L208.308 382.482C208.183 382.618 208.201 382.835 208.346 382.965Z" fill="black"/>
<path d="M191.401 378.485C192.07 377.94 197.235 380.215 197.169 381.006C197.103 381.798 200.774 389.475 200.774 389.475L207.116 384.4L207.118 384.401C207.175 384.218 207.775 382.244 207.805 381.89C207.835 381.521 208.907 380.872 209.405 380.967C209.902 381.063 208.979 381.689 208.919 381.805C208.753 382.118 209.391 382.235 209.391 382.235C209.391 382.235 211.224 381.226 211.263 380.632C211.301 380.039 211.68 378.794 212.076 379.055C212.28 379.189 212.278 380.073 212.214 380.491C212.331 380.015 212.498 379.478 212.66 379.425C212.957 379.328 213.105 379.706 213.05 379.892C212.997 380.078 212.518 382.097 212.372 382.323C212.23 382.545 209.271 384.938 208.844 385.457C208.844 385.457 200.64 394.868 200.056 395.114C199.544 395.33 197.716 392.087 195.99 389.934C194.266 387.782 189.314 380.189 191.401 378.485Z" fill="#F7A491"/>
<path d="M174.847 447.684C174.847 447.684 173.719 448.788 173.694 449.193C173.669 449.599 173.594 453.938 174.054 454.343C174.514 454.749 175.866 455.036 175.432 455.491C175.104 455.836 172.577 455.762 170.902 455.67C170.412 455.642 169.799 451.729 169.605 451.153C169.325 450.318 168.64 448.435 168.896 447.854C169.021 447.57 169.617 446.987 170.456 446.442C171.34 445.87 172.185 444.595 172.185 444.595L174.847 447.684Z" fill="#F79C8D"/>
<path d="M186.526 450.254C186.526 450.254 185.517 453.114 185.516 453.121C185.441 453.574 185.146 454.694 185.146 455.106C185.146 456.653 192.101 453.792 190.543 453.106C190.401 453.045 189.959 452.549 189.913 452.022C189.842 451.211 190.499 450.192 190.499 450.192L186.526 450.254Z" fill="#F7A491"/>
<path d="M197.435 397.001C197.435 397.001 197.943 402.128 197.943 402.205C197.943 410.498 199.581 426.697 199.269 428.256C198.509 432.059 190.328 451.459 190.328 451.459L185.906 450.929L191.668 427.701L189.547 418.351L186.548 399.871L197.435 397.001Z" fill="black"/>
<path d="M182.597 401.536L181.758 406.395L179.488 426.394L170.844 445.938C170.844 445.938 172.06 448.782 173.854 449.181L187.613 429.115L196.16 403.438L195.86 397.734L182.597 401.536Z" fill="black"/>
<path d="M199.199 384.794L193.068 385.422C193.068 385.422 192.787 380.378 192.787 377.973C192.787 375.053 193.034 371.294 193.386 371.376C194.372 371.603 195.7 372.149 196.491 373.239C199.225 377.01 199.199 384.794 199.199 384.794Z" fill="#F45197"/>
<path d="M196.188 377.458C196.316 378.348 198.673 402.542 198.673 402.542C187.51 407.952 181.349 403.506 181.349 403.506C181.349 403.506 181.715 386.517 181.277 384.204C180.988 382.674 180.626 372.508 181.615 372.223C182.882 371.858 184.336 371.47 185.921 371.305C187.274 371.165 192.529 371.083 193.468 371.4C193.466 371.399 195.647 373.715 196.188 377.458Z" fill="#F45197"/>
<path d="M170.512 446.414C170.512 446.414 173.111 453.755 174.127 454.109C174.397 454.204 175.692 454.443 175.938 455.017C176.011 455.19 175.938 455.769 175.938 455.769H170.521C170.521 455.769 169.836 452.534 169.566 451.114C169.566 451.114 168.132 447.641 168.292 447.326C168.451 447.01 170.512 446.414 170.512 446.414Z" fill="black"/>
<path d="M184.75 455.616L185.546 453.092C185.546 453.092 187.219 453.802 188.055 453.684C188.891 453.565 190.523 453.092 190.523 453.092C193.862 454.194 196.597 454.73 196.099 455.616H184.75Z" fill="black"/>
<path d="M200.06 395.115C200.085 395.105 200.176 395.033 200.229 394.989C200.031 392.619 200.066 390.322 200.807 389.546C200.789 389.509 200.627 389.163 200.458 388.805C199.599 389.472 199.19 391.243 199.351 394.119C199.362 394.317 199.419 394.468 199.464 394.714C199.713 394.989 199.939 395.166 200.06 395.115Z" fill="#F7A491"/>
<path d="M170.292 402.798C170.285 402.745 170.285 402.694 170.289 402.642C170.454 400.966 171.84 386.897 172.074 386.299C172.284 385.759 178.502 376.836 178.502 376.836L181.558 381.014L175.579 389.017C175.444 389.525 173.287 399.022 173.287 399.022C173.287 399.022 172.845 400.753 172.647 401.791C172.737 402.04 172.826 402.277 172.905 402.47C173.103 402.884 173.336 403.223 173.549 403.509C173.816 403.869 174.258 404.654 174.313 404.864C174.376 405.108 174.49 405.616 174.555 405.922C174.62 406.228 174.708 406.586 174.723 406.752C174.732 406.854 174.836 407.055 174.915 407.197C175.035 407.41 174.831 407.661 174.6 407.584C174.383 407.512 174.213 407.23 174.11 407.054C173.815 406.557 173.658 405.651 173.586 405.699C173.512 405.747 173.255 407.284 173.214 407.458C173.173 407.632 172.864 409.418 172.689 409.744C172.514 410.07 172.283 410.015 172.222 409.811C172.17 409.635 172.415 407.137 172.415 407.137C172.415 407.137 172.446 406.818 172.306 406.918C172.167 407.017 171.94 409.285 171.843 409.617C171.747 409.949 171.526 410.125 171.339 409.858C171.112 409.533 171.503 407.128 171.503 407.128C171.503 407.128 171.547 406.825 171.418 406.854C171.289 406.882 171.127 408.814 171.028 408.982C170.927 409.148 170.675 409.209 170.554 408.931C170.412 408.603 170.781 406.458 170.781 406.458C170.781 406.458 170.763 406.287 170.682 406.343C170.601 406.4 170.347 408.038 170.181 408.19C170.042 408.317 169.926 408.194 169.926 408.194C169.621 407.985 170.088 406.427 170.084 405.653C170.08 404.879 170.437 404.008 170.33 403.086C170.323 403.029 170.304 402.887 170.292 402.798Z" fill="#F8A492"/>
<path d="M173.645 382.488L178.956 386.066C178.956 386.066 181.95 381.596 183.557 380.004C185.57 378.011 182.823 371.904 181.526 372.25C178.625 373.023 173.645 382.488 173.645 382.488Z" fill="#F45197"/>
<path d="M186.31 366.075L185.516 371.329C185.516 371.329 188.417 377.584 190.149 377.042C191.602 376.588 190.709 371.052 190.709 371.052C190.709 371.052 189.916 368.079 190.154 366.591C190.391 365.104 186.31 366.075 186.31 366.075Z" fill="#F7A491"/>
<path d="M190.154 366.591C190.391 365.104 186.31 366.075 186.31 366.075L186.244 366.511C186.364 366.802 186.509 367.051 186.686 367.243C187.598 368.227 189.023 368.819 190.255 368.863C190.133 368.06 190.056 367.201 190.154 366.591Z" fill="#F45197"/>
<path d="M185.642 358.641C185.526 358.6 184.718 364.626 186.253 366.283C187.789 367.941 190.78 368.484 191.853 367.178C193.04 365.733 192.981 359.257 190.593 357.551C188.206 355.846 185.642 358.641 185.642 358.641Z" fill="#F7A491"/>
<path d="M189.684 354.328C187.839 354.705 186.643 355.837 186.204 356.32C185.366 356.419 184.227 356.883 183.052 358.837C181.606 361.24 182.673 363.902 184.357 365.207C186.04 366.513 186.017 368.022 186.017 368.022L186.283 367.241C186.479 366.65 186.56 366.023 186.494 365.403C186.454 365.031 186.375 364.629 186.221 364.298C185.817 363.426 187.091 362.846 187.448 362.12C187.724 361.562 187.736 360.283 188.17 359.36L188.688 358.655C188.688 358.655 189.882 357.723 191.051 357.986C192.221 358.25 192.052 353.844 189.684 354.328Z" fill="black"/>
<path d="M187.37 363.193C187.383 363.929 187.05 364.53 186.626 364.538C186.203 364.545 185.851 363.955 185.838 363.22C185.826 362.484 186.159 361.883 186.582 361.875C187.004 361.869 187.358 362.459 187.37 363.193Z" fill="#F7A491"/>
<path d="M189.863 364.893L192.178 364.772C192.178 364.772 192.171 365.658 191.154 365.74C189.914 365.84 189.863 364.893 189.863 364.893Z" fill="white"/>
<path d="M339.803 385.192C339.803 385.192 344.261 394.977 345.206 396.796C346.151 398.615 347.911 404.221 347.991 404.498C348.072 404.776 345.742 407.906 346.183 408.066C346.623 408.226 347.243 406.488 347.706 406.756C348.17 407.025 349.266 411.502 349.553 411.317C350.09 410.974 348.986 408.553 349.268 408.44C349.55 408.327 350.188 411.07 350.727 411.052C351.266 411.035 349.882 408.508 350.045 408.318C350.209 408.127 351.662 410.523 351.986 410.084C352.162 409.845 350.642 407.983 350.967 407.862C351.292 407.74 352.672 408.987 352.848 408.693C353.024 408.398 351.554 407.801 351.164 406.908C350.774 406.015 350.036 405.566 349.827 403.971C349.619 402.376 349.536 396.683 348.108 393.685C346.679 390.687 343.539 384.055 343.539 384.055L339.803 385.192Z" fill="#F7A491"/>
<path d="M341.221 374.296C341.32 371.881 340.966 369.497 339.891 367.249C338.966 365.315 336.675 364.218 334.587 364.215C327.955 364.207 327.113 373.005 322.891 376.4C321.601 377.437 320.159 378.282 318.939 379.4C314.432 383.529 316.462 391.174 320.601 394.796C323.473 397.308 327.986 398.735 331.525 396.772C333.372 395.746 334.775 394.042 335.774 392.175C337.192 389.525 338.106 386.467 339.114 383.643C340.188 380.635 341.087 377.505 341.221 374.296Z" fill="black"/>
<path d="M317.525 364.9C317.831 364.678 318.606 366.258 318.978 366.242C319.35 366.227 318.722 364.032 319.001 363.863C319.518 363.551 319.839 366.225 320.085 366.097C320.331 365.968 320.136 363.194 320.67 363.34C321.203 363.487 320.572 366.237 320.898 366.217C321.224 366.197 321.254 363.606 321.935 363.448C322.299 363.363 321.321 367.87 321.65 368.26C321.979 368.649 323.378 367.216 323.733 367.498C324.09 367.78 320.993 369.886 320.945 370.169C320.897 370.451 320.257 376.502 320.341 378.502C321.031 378.541 324.934 379.314 325.582 379.336C325.152 380.601 326.207 381.908 325.854 383.188C323.666 382.994 317.159 382.498 316.751 382.029C315.508 380.6 317.786 371.766 318.311 370.217C318.836 368.667 318.322 368.024 318.35 367.073C318.378 366.123 317.218 365.122 317.525 364.9Z" fill="#F7A491"/>
<path d="M327.665 455.248C328.217 454.842 328.662 454.573 330.423 453.72C330.539 453.664 330.957 453.397 331.108 453.305C331.49 453.071 331.873 452.702 332.205 452.333C332.52 451.981 332.671 450.852 332.742 449.952C332.561 447.942 329.649 415.707 329.034 412.218C328.4 408.615 329.366 403.121 329.366 403.121L331.615 402.274L335.882 417.067L335.546 428.328C335.546 428.328 336.55 431.574 336.677 433.513C336.803 435.453 335.225 451.197 335.225 451.197C335.225 451.76 335.247 452.269 335.31 452.588C335.427 453.177 336.071 454.389 335.776 454.943C335.48 455.498 335.142 455.636 335.142 455.636L327.473 455.76C327.052 455.766 327.328 455.497 327.665 455.248Z" fill="#F79C8D"/>
<path d="M339.304 401.966C339.304 401.966 341.968 405.983 342.601 409.309C343.235 412.635 342.136 422.852 343.356 427.21C344.016 429.568 346.519 433.211 346.9 436.259C347.28 439.307 348.603 448.103 348.603 448.103C348.804 449.026 349.118 450.168 349.524 450.7C349.774 451.024 350.229 451.436 350.528 452.023C350.993 452.938 350.737 454.299 350.393 455.049C350.217 455.434 350.406 455.433 350.004 455.557C348.816 455.924 347.552 455.306 347.047 454.166C346.764 453.529 346.517 452.679 346.467 451.608C346.415 450.473 346.236 449.571 346.048 448.905L337.535 428.022L331.372 409.999L329.793 400.718L339.304 401.966Z" fill="#F79C8D"/>
<path d="M331.108 453.305C333.136 453.826 334.636 453.471 335.474 453.133C335.69 453.747 335.977 454.518 335.825 454.962C335.639 455.506 335.374 455.63 335.14 455.636C333.287 455.684 328.353 455.751 326.941 455.769C326.744 455.771 326.635 455.541 326.761 455.389C327.111 454.97 330.957 453.397 331.108 453.305Z" fill="black"/>
<path d="M337.579 427.629C337.419 427.639 337.259 427.65 337.098 427.659C337.089 427.659 337.081 427.66 337.073 427.66C336.914 427.67 336.756 427.679 336.597 427.686C336.587 427.687 336.578 427.687 336.567 427.687C336.408 427.696 336.248 427.703 336.088 427.711C336.079 427.711 336.071 427.712 336.063 427.712C335.9 427.719 335.737 427.725 335.574 427.73C333.756 427.79 331.511 427.767 330.07 427.522C329.335 420.168 329.062 413.458 328.79 411.972C328.13 408.37 329.364 402.684 329.364 402.684L329.264 401.335L329.58 400.474L339.471 401.72C339.471 401.72 342.24 405.738 342.899 409.064C343.558 412.388 342.415 422.607 343.684 426.965C343.686 426.966 340.862 427.406 337.579 427.629Z" fill="black"/>
<path d="M324.109 378.785C324.109 378.785 331.515 378.01 333.7 378.741C335.886 379.472 337.421 382.595 336.254 384.341C335.087 386.088 324.577 383.801 324.577 383.801L324.109 378.785Z" fill="#FFEA22"/>
<path d="M337.17 378.096C337.17 378.096 340.833 377.87 342.282 379.405C343.731 380.94 339.067 393.082 338.803 395.037C338.539 396.991 340.146 402.185 340.146 402.185C340.146 402.185 331.542 403.868 329.081 402.285C329.081 402.285 328.63 388.101 328.893 386.706C329.156 385.311 331.541 379.772 332.068 379.213C332.596 378.654 337.17 378.096 337.17 378.096Z" fill="#FFEA22"/>
<path d="M335.949 373.339C335.949 373.339 335.968 373.444 336.003 373.622C336.166 374.478 336.795 377.317 337.22 378.097C337.734 379.04 335.462 382.049 333.276 381.682C332.626 381.573 333.826 378.918 333.769 378.637C333.659 378.098 333.509 377.364 333.355 376.612C333.268 376.187 333.181 375.757 333.098 375.351C332.865 374.201 332.674 373.26 332.674 373.26L335.949 373.339Z" fill="#F7A491"/>
<path opacity="0.5" d="M336.003 373.623C335.968 373.445 335.949 373.34 335.949 373.34L332.674 373.261C332.674 373.261 332.865 374.202 333.098 375.352C333.18 375.754 333.267 376.183 333.353 376.605C333.859 376.533 334.387 376.294 334.917 375.843C335.495 375.352 335.874 374.761 336.102 374.131C336.061 373.929 336.028 373.755 336.003 373.623Z" fill="#F45197"/>
<path d="M333.745 366.103C333.745 366.103 335.289 365.93 336.257 367.147C337.225 368.363 338.267 372.125 335.864 374.17C333.459 376.216 331.084 373.9 330.731 371.446C330.379 368.991 330.242 366.015 333.745 366.103Z" fill="#F7A491"/>
<path d="M330.021 371.409C330.308 371.951 330.79 372.252 331.097 372.08C331.404 371.908 331.421 371.33 331.134 370.787C330.847 370.245 330.365 369.944 330.058 370.116C329.751 370.288 329.734 370.867 330.021 371.409Z" fill="#F7A491"/>
<path d="M333.572 365.702C333.572 365.702 335.635 369.279 337.111 369.445C338.586 369.61 338.78 371.511 338.78 371.511C338.78 371.511 338.252 367.131 336.791 366.286C335.331 365.441 333.572 365.702 333.572 365.702Z" fill="black"/>
<path d="M336.724 370.343C336.604 370.977 336.846 371.56 337.264 371.644C337.682 371.728 338.118 371.28 338.237 370.644C338.358 370.009 338.116 369.427 337.698 369.343C337.28 369.259 336.844 369.708 336.724 370.343Z" fill="#F7A491"/>
<path d="M334.696 371.996L332.588 372.298C332.588 372.298 332.751 373.091 333.682 372.985C334.818 372.856 334.696 371.996 334.696 371.996Z" fill="white"/>
<path d="M342.124 392.112C342.124 392.112 337.986 385.921 337.614 383.648C337.242 381.374 339.289 378.559 341.379 378.777C343.469 378.995 347.041 389.352 347.041 389.352L342.124 392.112Z" fill="#FFEA22"/>
<path d="M260.457 349.652C261.262 349.652 262.012 349.652 262.763 349.652C262.885 349.652 263.024 349.687 263.127 349.642C263.26 349.583 263.365 349.46 263.482 349.366C263.363 349.275 263.246 349.108 263.122 349.104C262.431 349.078 261.739 349.091 261.046 349.091C260.866 349.091 260.686 349.091 260.479 349.091C260.479 348.575 260.479 348.108 260.479 347.58C261.279 347.58 262.058 347.586 262.837 347.575C263.079 347.572 263.452 347.676 263.461 347.303C263.471 346.91 263.093 347.026 262.854 347.023C262.072 347.013 261.291 347.019 260.482 347.019C260.482 346.502 260.482 346.033 260.482 345.494C261.26 345.494 262.038 345.503 262.816 345.489C263.066 345.485 263.476 345.618 263.464 345.204C263.452 344.805 263.045 344.942 262.794 344.938C262.03 344.924 261.265 344.933 260.48 344.933C260.48 344.411 260.48 343.943 260.48 343.415C261.239 343.415 261.972 343.415 262.706 343.415C262.844 343.415 262.996 343.445 263.118 343.4C263.253 343.349 263.362 343.226 263.482 343.135C263.363 343.043 263.247 342.875 263.123 342.87C262.463 342.841 261.802 342.854 261.141 342.853C260.974 342.853 260.807 342.853 260.641 342.853C260.751 341.096 262.755 339.413 264.85 339.278C267.019 339.138 269.147 340.727 269.55 342.853C268.856 342.853 268.172 342.852 267.489 342.853C267.321 342.853 267.141 342.826 266.986 342.874C266.866 342.912 266.776 343.047 266.673 343.139C266.779 343.229 266.879 343.385 266.994 343.397C267.359 343.432 267.73 343.416 268.099 343.417C268.605 343.418 269.11 343.417 269.659 343.417C269.659 343.926 269.659 344.404 269.659 344.934C268.933 344.934 268.214 344.934 267.496 344.934C267.373 344.934 267.237 344.9 267.13 344.941C266.966 345.003 266.823 345.116 266.671 345.208C266.819 345.304 266.962 345.476 267.114 345.482C267.805 345.512 268.497 345.496 269.189 345.496C269.34 345.496 269.49 345.496 269.671 345.496C269.671 346.005 269.671 346.473 269.671 347.019C268.943 347.019 268.212 347.019 267.481 347.019C267.327 347.019 267.16 346.981 267.023 347.031C266.891 347.078 266.79 347.213 266.676 347.31C266.785 347.397 266.888 347.549 267.003 347.56C267.369 347.594 267.74 347.579 268.108 347.58C268.615 347.581 269.122 347.58 269.665 347.58C269.665 348.077 269.665 348.546 269.665 349.092C269.027 349.092 268.374 349.092 267.719 349.092C267.488 349.092 267.251 349.06 267.029 349.106C266.898 349.134 266.791 349.281 266.673 349.375C266.792 349.467 266.909 349.635 267.031 349.64C267.738 349.666 268.446 349.653 269.153 349.654C269.319 349.654 269.484 349.654 269.695 349.654C269.695 350.817 269.714 351.935 269.689 353.052C269.67 353.877 269.705 354.728 269.52 355.52C269.116 357.243 267.985 358.375 266.278 358.836C264.59 359.293 263.072 358.878 261.819 357.651C260.914 356.765 260.451 355.665 260.453 354.383C260.459 352.829 260.457 351.277 260.457 349.652Z" fill="white"/>
<path d="M262.421 362.183C262.951 362.367 263.506 362.479 264.048 362.623C264.048 364.554 264.048 368.362 264.048 370.27H266.104C266.104 368.351 266.104 364.539 266.104 362.589C266.361 362.538 266.574 362.507 266.783 362.455C270.029 361.635 272.137 359.643 273.01 356.389C273.44 354.787 273.228 353.148 273.261 351.524C273.273 350.877 272.865 350.463 272.299 350.461C271.721 350.459 271.346 350.852 271.334 351.513C271.32 352.204 271.325 352.895 271.342 353.587C271.383 355.272 271.099 356.853 270.037 358.235C268.479 360.265 265.806 361.166 263.366 360.449C260.854 359.711 259.047 357.523 258.881 354.95C258.814 353.909 258.854 352.861 258.834 351.815C258.829 351.556 258.828 351.284 258.747 351.044C258.605 350.623 258.157 350.403 257.704 350.471C257.248 350.54 256.909 350.923 256.901 351.452C256.884 352.467 256.886 353.482 256.897 354.496C256.931 357.99 259.123 361.045 262.421 362.183Z" fill="white"/>
<path d="M313.215 297.517L313.487 299.943C313.56 300.048 313.68 300.043 313.981 300.036C314.518 300.021 315.056 300.008 315.593 300.012C315.678 300.013 315.797 300.094 315.84 300.17C316.097 300.629 316.328 301.104 316.591 301.56C316.673 301.701 316.692 301.786 316.594 301.927C316.203 302.492 315.828 303.067 315.451 303.633C315.822 304.138 317.019 305.117 317.521 305.319C317.976 304.849 318.449 304.375 318.901 303.884C319.043 303.731 319.138 303.708 319.342 303.784C319.817 303.962 320.311 304.097 320.803 304.222C321.002 304.272 321.122 304.328 321.16 304.556C321.263 305.146 321.401 305.73 321.515 306.319C321.545 306.477 321.611 306.556 321.773 306.539C322.534 306.459 323.296 306.38 324.057 306.3C324.244 306.28 324.211 306.133 324.211 306.019C324.209 305.438 324.211 304.855 324.189 304.275C324.18 304.057 324.252 303.953 324.452 303.86C324.983 303.612 325.498 303.33 326.06 303.042C326.625 303.416 327.249 303.829 327.891 304.254C328.561 303.662 329.099 302.973 329.546 302.177C329.012 301.656 328.476 301.134 328.005 300.675C328.188 299.999 328.37 299.377 328.517 298.746C328.56 298.564 328.629 298.506 328.797 298.475C329.377 298.365 329.954 298.236 330.533 298.122C330.659 298.097 330.745 298.065 330.75 297.915C330.776 297.155 330.739 296.401 330.536 295.66C330.491 295.495 330.41 295.458 330.258 295.459C329.65 295.467 329.041 295.462 328.433 295.473C328.286 295.475 328.211 295.445 328.134 295.297C327.868 294.783 327.578 294.28 327.278 293.786C327.201 293.659 327.221 293.589 327.289 293.486C327.668 292.913 328.044 292.337 328.429 291.748C327.827 291.096 327.173 290.532 326.392 290.09C325.861 290.635 325.333 291.178 324.828 291.695C324.127 291.487 323.447 291.286 322.721 291.07C322.613 290.554 322.493 289.96 322.363 289.368C322.256 288.882 322.347 288.913 321.814 288.918C321.763 288.918 321.713 288.9 321.661 288.89C321.206 288.942 320.75 288.993 320.294 289.043C320.195 289.073 320.098 289.119 319.996 289.129C319.734 289.154 319.626 289.263 319.64 289.55C319.668 290.148 319.66 290.747 319.652 291.347C319.651 291.425 319.585 291.535 319.515 291.575C319.069 291.837 318.597 292.06 318.166 292.344C317.955 292.483 317.832 292.461 317.643 292.331C317.106 291.963 316.555 291.616 315.955 291.224C315.393 291.913 314.845 292.587 314.291 293.267C314.408 293.386 314.474 293.455 314.542 293.522C314.966 293.934 315.385 294.35 315.814 294.754C315.937 294.869 315.939 294.961 315.892 295.118C315.729 295.654 315.6 296.201 315.439 296.74C315.414 296.823 315.306 296.92 315.22 296.941C314.749 297.052 314.272 297.138 313.797 297.239C313.42 297.322 313.278 297.354 313.215 297.517ZM318.07 298.14C317.827 295.972 319.388 294.016 321.555 293.773C323.723 293.53 325.678 295.09 325.921 297.258C326.164 299.426 324.604 301.381 322.436 301.624C320.268 301.869 318.314 300.309 318.07 298.14Z" fill="#00A0D7"/>
<path d="M197.592 286.124L198.53 291.996L201.666 287.868L212.071 277.926L202.833 281.633C202.833 281.633 198.345 284.255 198.154 284.569C197.964 284.885 197.592 286.124 197.592 286.124Z" fill="#00A0D7"/>
<path d="M192.367 283.97L212.071 277.925L197.593 286.124L192.367 283.97Z" fill="#00A0D7"/>
<path d="M205.636 289.909L199.221 287.299L212.07 277.925L205.636 289.909Z" fill="#00A0D7"/>
<path d="M176.134 314.65C176.06 314.183 176.009 313.703 175.986 313.224C175.965 312.783 175.965 312.332 175.987 311.885L176.472 311.909C176.45 312.341 176.45 312.775 176.471 313.201C176.493 313.662 176.542 314.124 176.614 314.573C176.635 314.705 176.658 314.837 176.683 314.97L176.206 315.061C176.179 314.921 176.155 314.783 176.134 314.65ZM176.486 308.747C176.748 307.759 177.112 306.756 177.567 305.767L178.009 305.97C177.564 306.935 177.21 307.911 176.956 308.871L176.486 308.747ZM190.955 303.412C190.923 303.403 190.892 303.393 190.859 303.384L191.002 302.92C191.03 302.928 191.057 302.936 191.081 302.943C191.081 302.943 191.096 302.945 191.132 302.944C191.403 302.93 192.069 302.731 192.376 302.397C192.634 302.116 192.802 301.753 192.874 301.319L193.353 301.398C193.266 301.92 193.052 302.378 192.734 302.725C192.308 303.188 191.496 303.411 191.157 303.428C191.076 303.433 191.01 303.428 190.955 303.412ZM179.1 302.996C179.663 302.128 180.298 301.275 180.988 300.458L181.358 300.772C180.683 301.572 180.06 302.409 179.508 303.261L179.1 302.996ZM188.014 300.339C187.88 299.894 187.799 299.417 187.775 298.923C187.763 298.658 187.766 298.383 187.785 298.105L188.269 298.138C188.251 298.397 188.248 298.653 188.26 298.899C188.282 299.354 188.356 299.791 188.479 300.198C188.566 300.488 188.685 300.771 188.83 301.04L188.404 301.271C188.242 300.974 188.111 300.661 188.014 300.339ZM189.54 297.303L189.473 297.293L189.545 296.813L189.618 296.824C190.717 297.003 191.739 297.538 192.423 298.293L192.064 298.619C191.452 297.944 190.532 297.464 189.54 297.303ZM183.457 298.435C183.927 298.123 184.786 297.574 185.273 297.403C185.651 297.27 186.002 297.161 186.345 297.07L186.47 297.539C186.14 297.627 185.8 297.733 185.433 297.861C185.114 297.973 184.491 298.33 183.724 298.839L183.457 298.435ZM188.589 295.006C189.021 294.031 189.595 293.123 190.297 292.308L190.665 292.625C189.995 293.402 189.446 294.27 189.034 295.202L188.589 295.006Z" fill="#00A0D7"/>
<path d="M192.977 290.637C193.425 290.356 193.891 290.115 194.362 289.921L194.176 289.473C193.681 289.677 193.19 289.931 192.719 290.225L192.977 290.637Z" fill="#00A0D7"/>
<path opacity="0.2" d="M284.983 425.735H244.742C242.14 425.735 240.029 423.625 240.029 421.022C240.029 418.42 242.14 416.309 244.742 416.309H284.983C287.586 416.309 289.696 418.42 289.696 421.022C289.696 423.625 287.586 425.735 284.983 425.735Z" fill="#00A0D7"/>
<g opacity="0.5">
<g opacity="0.5">
<path opacity="0.5" d="M234.479 394.257H232.871V402.525H234.479V394.257Z" fill="#00A0D7"/>
<path opacity="0.5" d="M237.376 395.29H235.768V401.491H237.376V395.29Z" fill="#00A0D7"/>
<path opacity="0.5" d="M240.272 394.257H238.664V402.525H240.272V394.257Z" fill="#00A0D7"/>
<path opacity="0.5" d="M243.171 390.449H241.562V406.078H243.171V390.449Z" fill="#00A0D7"/>
<path opacity="0.5" d="M246.067 392.68H244.459V404.102H246.067V392.68Z" fill="#00A0D7"/>
<path opacity="0.5" d="M272.253 390.449H270.645V406.078H272.253V390.449Z" fill="#00A0D7"/>
<path opacity="0.5" d="M275.149 393.495H273.541V403.286H275.149V393.495Z" fill="#00A0D7"/>
<path opacity="0.5" d="M277.845 396.106H276.236V400.676H277.845V396.106Z" fill="#00A0D7"/>
<path opacity="0.5" d="M280.454 394.746H278.846V402.035H280.454V394.746Z" fill="#00A0D7"/>
<path opacity="0.5" d="M283.122 390.905H281.514V405.877H283.122V390.905Z" fill="#00A0D7"/>
<path opacity="0.5" d="M285.87 395.29H284.262V401.491H285.87V395.29Z" fill="#00A0D7"/>
<path opacity="0.5" d="M288.716 393.495H287.107V403.286H288.716V393.495Z" fill="#00A0D7"/>
<path opacity="0.5" d="M291.366 390.449H289.758V406.332H291.366V390.449Z" fill="#00A0D7"/>
<path opacity="0.5" d="M293.974 393.495H292.365V402.797H293.974V393.495Z" fill="#00A0D7"/>
<path opacity="0.5" d="M296.692 395.768H295.084V400.524H296.692V395.768Z" fill="#00A0D7"/>
<path opacity="0.5" d="M299.319 396.74H297.711V399.552H299.319V396.74Z" fill="#00A0D7"/>
<path opacity="0.5" d="M231.71 396.106H230.102V400.185H231.71V396.106Z" fill="#00A0D7"/>
<path opacity="0.5" d="M260.388 390.449H258.779V406.078H260.388V390.449Z" fill="#00A0D7"/>
<path opacity="0.5" d="M263.286 392.68H261.678V404.102H263.286V392.68Z" fill="#00A0D7"/>
<path opacity="0.5" d="M248.966 395.29H247.357V401.491H248.966V395.29Z" fill="#00A0D7"/>
<path opacity="0.5" d="M251.862 396.106H250.254V400.676H251.862V396.106Z" fill="#00A0D7"/>
<path opacity="0.5" d="M266.421 395.29H264.812V401.491H266.421V395.29Z" fill="#00A0D7"/>
<path opacity="0.5" d="M269.317 393.495H267.709V403.286H269.317V393.495Z" fill="#00A0D7"/>
<path opacity="0.5" d="M254.759 394.746H253.15V402.035H254.759V394.746Z" fill="#00A0D7"/>
<path opacity="0.5" d="M257.657 393.495H256.049V403.286H257.657V393.495Z" fill="#00A0D7"/>
</g>
</g>
<path d="M360.208 358.22L347.063 362.874C346.426 363.099 345.726 362.766 345.501 362.129L342.522 353.715C342.296 353.078 342.629 352.378 343.267 352.152L356.411 347.499C357.049 347.274 357.748 347.607 357.974 348.244L360.953 356.658C361.178 357.295 360.845 357.995 360.208 358.22Z" fill="#00A0D7"/>
<path d="M344.465 357.701L341.566 364.05L346.853 360.937L344.465 357.701Z" fill="#00A0D7"/>
<path d="M177.703 336.499H152.248C151.006 336.499 150 337.508 150 338.754V353.635C150 354.881 151.006 355.89 152.248 355.89H170.059C171.205 357.493 173.28 360.364 173.464 360.364C173.636 360.364 173.305 357.652 173.072 355.89H177.703C178.945 355.89 179.951 354.88 179.951 353.635V338.754C179.951 337.508 178.945 336.499 177.703 336.499Z" fill="#00A0D7"/>
<path d="M192.722 318.705H224.859C226.557 318.705 227.933 320.086 227.933 321.789V342.138C227.933 343.842 226.557 345.222 224.859 345.222H203.175C201.609 347.414 198.77 351.341 198.519 351.341C198.285 351.341 198.736 347.633 199.055 345.222H192.722C191.024 345.222 189.648 343.841 189.648 342.138V321.789C189.647 320.085 191.024 318.705 192.722 318.705Z" fill="#F45197"/>
<path d="M224.355 329.165H216.348H208.731C208.679 329.165 208.637 329.207 208.637 329.259V330.463C208.637 330.516 208.679 330.558 208.731 330.558H216.348H216.737H224.354C224.406 330.558 224.448 330.516 224.448 330.463V329.259C224.449 329.208 224.407 329.165 224.355 329.165Z" fill="white"/>
<path d="M193.276 330.559H206.312C206.361 330.559 206.402 330.519 206.402 330.469V329.254C206.402 329.205 206.362 329.164 206.312 329.164H193.276C193.226 329.164 193.186 329.204 193.186 329.254V330.469C193.186 330.519 193.225 330.559 193.276 330.559Z" fill="white"/>
<path d="M193.221 326.007H210.596C210.645 326.007 210.686 325.967 210.686 325.917V324.703C210.686 324.653 210.646 324.612 210.596 324.612H193.221C193.172 324.612 193.131 324.652 193.131 324.703V325.917C193.131 325.966 193.171 326.007 193.221 326.007Z" fill="white"/>
<path d="M213.744 326.007H224.359C224.408 326.007 224.449 325.967 224.449 325.917V324.703C224.449 324.653 224.409 324.612 224.359 324.612H213.744C213.695 324.612 213.654 324.652 213.654 324.703V325.917C213.654 325.966 213.695 326.007 213.744 326.007Z" fill="white"/>
<path d="M193.131 339.476H224.45V338.082H193.131V339.476Z" fill="white"/>
<path d="M209.554 335.07H224.449V333.676H209.554V335.07Z" fill="white"/>
<path d="M193.185 335.07H208.08V333.676H193.185V335.07Z" fill="white"/>
<path d="M163.238 348.943C163.238 349.596 164.093 350.126 165.148 350.126C166.204 350.126 167.059 349.596 167.059 348.943C167.059 348.289 166.204 347.76 165.148 347.76C164.094 347.76 163.238 348.289 163.238 348.943Z" fill="#ADAEB5"/>
<path d="M165.148 323.805C169.905 323.805 173.761 327.661 173.761 332.418C173.761 335.016 172.61 337.347 170.79 338.926C170.783 338.933 169.444 340.38 169.223 341.895L169.183 342.822C169.17 343.126 169.051 343.417 168.846 343.642C168.828 343.662 168.809 343.681 168.789 343.699H161.507C161.488 343.681 161.469 343.662 161.45 343.642C161.245 343.417 161.127 343.126 161.113 342.822L161.073 341.895C160.852 340.379 159.513 338.932 159.507 338.926C157.687 337.347 156.535 335.016 156.535 332.418C156.535 327.661 160.391 323.805 165.148 323.805Z" fill="#FFEA22"/>
<path d="M162.458 349.075H167.84C168.375 349.075 168.809 348.641 168.809 348.106V343.701H161.49V348.106C161.489 348.641 161.923 349.075 162.458 349.075Z" fill="#544C60"/>
<path opacity="0.3" d="M162.989 339.002C167.749 339.002 171.607 335.144 171.607 330.385C171.607 328.453 170.971 326.668 169.897 325.232C172.225 326.773 173.761 329.415 173.761 332.417C173.761 335.016 172.609 337.346 170.789 338.925C170.783 338.933 169.444 340.38 169.223 341.895L169.183 342.822C169.17 343.126 169.051 343.416 168.846 343.642C168.828 343.662 168.809 343.68 168.789 343.699H161.507C161.488 343.68 161.469 343.662 161.45 343.642C161.245 343.416 161.126 343.126 161.113 342.822L161.073 341.895C160.852 340.379 159.513 338.932 159.507 338.925C159.045 338.526 158.628 338.078 158.262 337.591C159.62 338.482 161.244 339.002 162.989 339.002Z" fill="#FFEA22"/>
<path d="M165.206 336.594L166.918 329.129L168.419 333.472L168.859 333.319L166.827 327.441L165.08 335.058L163.291 330.692L161.635 333.488L162.036 333.726L163.216 331.735L165.206 336.594Z" fill="white"/>
<path d="M167.367 344.823L167.408 344.827C167.623 344.849 167.817 344.692 167.839 344.476L169.036 332.918C169.058 332.703 168.901 332.509 168.685 332.487L168.644 332.483C168.428 332.461 168.234 332.618 168.212 332.834L167.016 344.391C166.994 344.607 167.151 344.801 167.367 344.823Z" fill="#544C60"/>
<path d="M162.905 344.825C162.678 344.849 162.474 344.684 162.451 344.455L161.258 332.94C161.234 332.712 161.4 332.508 161.628 332.485C161.855 332.462 162.06 332.626 162.083 332.855L163.275 344.371C163.298 344.598 163.133 344.802 162.905 344.825Z" fill="#544C60"/>
<path d="M161.283 344.51H169.009C169.069 344.51 169.116 344.462 169.116 344.404V343.807C169.116 343.748 169.068 343.701 169.009 343.701H161.283C161.223 343.701 161.176 343.749 161.176 343.807V344.404C161.175 344.462 161.223 344.51 161.283 344.51Z" fill="#ADAEB5"/>
<path d="M161.283 346.134H169.009C169.069 346.134 169.116 346.086 169.116 346.028V345.432C169.116 345.373 169.068 345.326 169.009 345.326H161.283C161.223 345.326 161.176 345.374 161.176 345.432V346.028C161.175 346.087 161.223 346.134 161.283 346.134Z" fill="#ADAEB5"/>
<path d="M161.283 347.953H169.009C169.069 347.953 169.116 347.904 169.116 347.846V347.249C169.116 347.191 169.068 347.143 169.009 347.143H161.283C161.223 347.143 161.176 347.191 161.176 347.249V347.846C161.175 347.904 161.223 347.953 161.283 347.953Z" fill="#ADAEB5"/>
</svg>
