<svg width="372" height="473" viewBox="0 0 372 473" fill="none" xmlns="http://www.w3.org/2000/svg">
<rect width="372" height="472.881" rx="32" fill="#FFEA22"/>
<mask id="mask0" style="mask-type:alpha" maskUnits="userSpaceOnUse" x="0" y="0" width="372" height="473">
<rect width="372" height="472.881" rx="32" fill="#5543A5"/>
</mask>
<g mask="url(#mask0)">
<circle opacity="0.5" cx="280.577" cy="412.983" r="193.881" fill="white"/>
</g>
<rect x="43" y="114" width="95" height="40" rx="10" fill="#00A0D7"/>
<path d="M79.45 135.382C79.45 135.838 79.372 136.294 79.216 136.75C79.06 137.194 78.796 137.596 78.424 137.956C78.064 138.304 77.578 138.592 76.966 138.82C76.366 139.036 75.616 139.144 74.716 139.144C74.032 139.144 73.438 139.114 72.934 139.054C72.43 138.994 71.962 138.916 71.53 138.82C71.434 138.796 71.35 138.754 71.278 138.694C71.218 138.634 71.188 138.556 71.188 138.46V137.164C71.188 137.068 71.218 136.99 71.278 136.93C71.35 136.858 71.434 136.822 71.53 136.822H71.566C71.746 136.846 71.98 136.87 72.268 136.894C72.568 136.906 72.874 136.924 73.186 136.948C73.498 136.96 73.792 136.972 74.068 136.984C74.356 136.996 74.584 137.002 74.752 137.002C75.556 137.002 76.102 136.864 76.39 136.588C76.69 136.312 76.84 135.91 76.84 135.382C76.84 135.202 76.816 135.046 76.768 134.914C76.72 134.77 76.636 134.632 76.516 134.5C76.396 134.368 76.24 134.236 76.048 134.104C75.856 133.96 75.61 133.798 75.31 133.618L72.934 132.196C72.514 131.944 72.166 131.692 71.89 131.44C71.626 131.188 71.41 130.93 71.242 130.666C71.086 130.39 70.972 130.108 70.9 129.82C70.84 129.52 70.81 129.214 70.81 128.902C70.81 128.41 70.888 127.954 71.044 127.534C71.2 127.114 71.452 126.754 71.8 126.454C72.16 126.142 72.622 125.902 73.186 125.734C73.762 125.566 74.47 125.482 75.31 125.482C75.61 125.482 75.928 125.494 76.264 125.518C76.6 125.53 76.93 125.554 77.254 125.59C77.578 125.626 77.872 125.662 78.136 125.698C78.4 125.734 78.61 125.77 78.766 125.806C78.862 125.83 78.94 125.872 79 125.932C79.06 125.98 79.09 126.052 79.09 126.148V127.48C79.09 127.576 79.06 127.654 79 127.714C78.952 127.774 78.88 127.804 78.784 127.804H78.748C78.148 127.744 77.554 127.702 76.966 127.678C76.378 127.642 75.79 127.624 75.202 127.624C74.53 127.624 74.044 127.738 73.744 127.966C73.456 128.182 73.312 128.494 73.312 128.902C73.312 129.046 73.33 129.184 73.366 129.316C73.414 129.436 73.492 129.562 73.6 129.694C73.72 129.814 73.876 129.94 74.068 130.072C74.26 130.204 74.5 130.348 74.788 130.504L76.948 131.71C77.44 131.986 77.848 132.268 78.172 132.556C78.496 132.832 78.748 133.12 78.928 133.42C79.12 133.72 79.252 134.032 79.324 134.356C79.408 134.68 79.45 135.022 79.45 135.382ZM86.4728 138.694C86.4728 138.874 86.3588 138.982 86.1308 139.018C85.9148 139.054 85.7048 139.084 85.5008 139.108C85.3088 139.132 85.1108 139.144 84.9068 139.144C84.4028 139.144 83.9648 139.108 83.5928 139.036C83.2328 138.964 82.9388 138.826 82.7108 138.622C82.4828 138.418 82.3148 138.13 82.2068 137.758C82.0988 137.374 82.0448 136.882 82.0448 136.282V130.63L80.3528 130.378C80.2568 130.354 80.1728 130.312 80.1008 130.252C80.0288 130.192 79.9928 130.114 79.9928 130.018V129.208C79.9928 129.112 80.0288 129.028 80.1008 128.956C80.1728 128.884 80.2568 128.848 80.3528 128.848H82.0448V127.372C82.0448 127.276 82.0808 127.198 82.1528 127.138C82.2248 127.078 82.3088 127.036 82.4048 127.012L84.0788 126.724H84.1508C84.3428 126.724 84.4388 126.814 84.4388 126.994V128.848H86.0588C86.1548 128.848 86.2388 128.884 86.3108 128.956C86.3828 129.028 86.4188 129.112 86.4188 129.208V130.27C86.4188 130.366 86.3828 130.45 86.3108 130.522C86.2388 130.594 86.1548 130.63 86.0588 130.63H84.4388V136.282C84.4388 136.51 84.4448 136.69 84.4568 136.822C84.4688 136.954 84.4988 137.056 84.5468 137.128C84.5948 137.2 84.6608 137.248 84.7448 137.272C84.8408 137.284 84.9728 137.29 85.1408 137.29H86.0948C86.3468 137.29 86.4728 137.38 86.4728 137.56V138.694ZM95.6217 138.64C95.6217 138.736 95.5857 138.82 95.5137 138.892C95.4417 138.964 95.3577 139 95.2617 139H93.7317C93.6357 139 93.5517 138.964 93.4797 138.892C93.4077 138.82 93.3717 138.736 93.3717 138.64V138.352C92.9517 138.604 92.5317 138.802 92.1117 138.946C91.6917 139.078 91.2657 139.144 90.8337 139.144C90.4617 139.144 90.0897 139.102 89.7177 139.018C89.3457 138.934 89.0097 138.778 88.7097 138.55C88.4217 138.322 88.1817 138.016 87.9897 137.632C87.8097 137.248 87.7197 136.75 87.7197 136.138V136.066C87.7197 135.55 87.7977 135.1 87.9537 134.716C88.1217 134.332 88.3797 134.008 88.7277 133.744C89.0877 133.48 89.5437 133.282 90.0957 133.15C90.6597 133.018 91.3317 132.952 92.1117 132.952H93.2457V132.16C93.2457 131.572 93.1137 131.182 92.8497 130.99C92.5977 130.798 92.2017 130.702 91.6617 130.702C91.0857 130.702 90.5277 130.72 89.9877 130.756C89.4477 130.78 89.0277 130.81 88.7277 130.846H88.6377C88.5417 130.846 88.4637 130.828 88.4037 130.792C88.3437 130.756 88.3137 130.672 88.3137 130.54V129.388C88.3137 129.184 88.4277 129.058 88.6557 129.01C89.0157 128.938 89.4477 128.872 89.9517 128.812C90.4677 128.752 91.0377 128.722 91.6617 128.722C92.9457 128.722 93.9237 129.004 94.5957 129.568C95.2797 130.132 95.6217 130.996 95.6217 132.16V138.64ZM93.2457 134.536H92.1117C91.7037 134.536 91.3677 134.572 91.1037 134.644C90.8517 134.704 90.6477 134.8 90.4917 134.932C90.3477 135.052 90.2457 135.208 90.1857 135.4C90.1377 135.592 90.1137 135.814 90.1137 136.066V136.138C90.1137 136.582 90.2157 136.882 90.4197 137.038C90.6237 137.182 90.9537 137.254 91.4097 137.254C91.7337 137.254 92.0517 137.206 92.3637 137.11C92.6877 137.014 92.9817 136.894 93.2457 136.75V134.536ZM103.179 130.378C103.179 130.474 103.143 130.558 103.071 130.63C102.999 130.702 102.915 130.738 102.819 130.738C102.327 130.738 101.883 130.798 101.487 130.918C101.103 131.026 100.719 131.182 100.335 131.386V138.622C100.335 138.718 100.299 138.808 100.227 138.892C100.155 138.964 100.071 139 99.9751 139H98.3191C98.2231 139 98.1391 138.964 98.0671 138.892C97.9951 138.808 97.9591 138.718 97.9591 138.622V129.208C97.9591 129.112 97.9951 129.028 98.0671 128.956C98.1391 128.884 98.2231 128.848 98.3191 128.848H99.8851C99.9811 128.848 100.065 128.884 100.137 128.956C100.209 129.028 100.245 129.112 100.245 129.208V129.586C100.689 129.238 101.139 129.01 101.595 128.902C102.051 128.782 102.459 128.722 102.819 128.722C102.915 128.722 102.999 128.758 103.071 128.83C103.143 128.902 103.179 128.986 103.179 129.082V130.378ZM110.379 138.694C110.379 138.874 110.265 138.982 110.037 139.018C109.821 139.054 109.611 139.084 109.407 139.108C109.215 139.132 109.017 139.144 108.813 139.144C108.309 139.144 107.871 139.108 107.499 139.036C107.139 138.964 106.845 138.826 106.617 138.622C106.389 138.418 106.221 138.13 106.113 137.758C106.005 137.374 105.951 136.882 105.951 136.282V130.63L104.259 130.378C104.163 130.354 104.079 130.312 104.007 130.252C103.935 130.192 103.899 130.114 103.899 130.018V129.208C103.899 129.112 103.935 129.028 104.007 128.956C104.079 128.884 104.163 128.848 104.259 128.848H105.951V127.372C105.951 127.276 105.987 127.198 106.059 127.138C106.131 127.078 106.215 127.036 106.311 127.012L107.985 126.724H108.057C108.249 126.724 108.345 126.814 108.345 126.994V128.848H109.965C110.061 128.848 110.145 128.884 110.217 128.956C110.289 129.028 110.325 129.112 110.325 129.208V130.27C110.325 130.366 110.289 130.45 110.217 130.522C110.145 130.594 110.061 130.63 109.965 130.63H108.345V136.282C108.345 136.51 108.351 136.69 108.363 136.822C108.375 136.954 108.405 137.056 108.453 137.128C108.501 137.2 108.567 137.248 108.651 137.272C108.747 137.284 108.879 137.29 109.047 137.29H110.001C110.253 137.29 110.379 137.38 110.379 137.56V138.694Z" fill="white"/>
<path d="M65.248 69.8093C65.248 71.4893 64.936 72.8933 64.312 74.0213C63.712 75.1253 62.908 76.0133 61.9 76.6853C60.892 77.3573 59.74 77.8373 58.444 78.1253C57.172 78.3893 55.864 78.5213 54.52 78.5213C54.088 78.5213 53.608 78.5093 53.08 78.4853C52.552 78.4613 52.06 78.4373 51.604 78.4133V87.1613C51.604 87.3533 51.532 87.5213 51.388 87.6653C51.244 87.8093 51.076 87.8813 50.884 87.8813H46.24C46.048 87.8813 45.88 87.8213 45.736 87.7013C45.592 87.5573 45.52 87.3893 45.52 87.1973V63.0053C45.52 62.3813 45.652 61.9613 45.916 61.7453C46.18 61.5293 46.588 61.3733 47.14 61.2773C48.052 61.1333 49.168 61.0253 50.488 60.9533C51.832 60.8573 53.152 60.8093 54.448 60.8093C55.816 60.8093 57.148 60.9413 58.444 61.2053C59.74 61.4693 60.892 61.9373 61.9 62.6093C62.908 63.2813 63.712 64.1813 64.312 65.3093C64.936 66.4133 65.248 67.8053 65.248 69.4853V69.8093ZM59.128 69.4853C59.128 68.1893 58.732 67.2773 57.94 66.7493C57.172 66.1973 56.032 65.9213 54.52 65.9213C54.4 65.9213 54.196 65.9333 53.908 65.9573C53.62 65.9573 53.32 65.9693 53.008 65.9933C52.72 65.9933 52.432 66.0053 52.144 66.0293C51.88 66.0293 51.7 66.0293 51.604 66.0293V73.3733C51.7 73.3733 51.88 73.3853 52.144 73.4093C52.432 73.4093 52.732 73.4213 53.044 73.4453C53.38 73.4453 53.68 73.4453 53.944 73.4453C54.232 73.4453 54.424 73.4453 54.52 73.4453C56.128 73.4453 57.292 73.1453 58.012 72.5453C58.756 71.9453 59.128 71.0333 59.128 69.8093V69.4853ZM79.9132 71.1053C79.9132 71.2733 79.8652 71.4293 79.7692 71.5733C79.6732 71.7173 79.5412 71.7893 79.3732 71.7893H79.0852C78.1972 71.7893 77.3692 71.9093 76.6012 72.1493C75.8332 72.3893 75.1132 72.6893 74.4412 73.0493V87.1253C74.4412 87.3173 74.3692 87.4973 74.2252 87.6653C74.0812 87.8093 73.9132 87.8813 73.7212 87.8813H69.3652C69.1732 87.8813 68.9932 87.8093 68.8252 87.6653C68.6812 87.4973 68.6092 87.3173 68.6092 87.1253V67.9733C68.6092 67.7813 68.6812 67.6133 68.8252 67.4693C68.9692 67.3253 69.1372 67.2533 69.3292 67.2533H73.6132C73.8052 67.2533 73.9732 67.3253 74.1172 67.4693C74.2612 67.6133 74.3332 67.7813 74.3332 67.9733V68.6933C75.0052 68.1413 75.7612 67.7213 76.6012 67.4333C77.4652 67.1213 78.3292 66.9653 79.1932 66.9653C79.3852 66.9653 79.5532 67.0373 79.6972 67.1813C79.8412 67.3253 79.9132 67.4933 79.9132 67.6853V71.1053ZM99.6747 78.8453C99.6747 80.2853 99.4707 81.5813 99.0627 82.7333C98.6787 83.8853 98.1027 84.8693 97.3347 85.6853C96.5907 86.4773 95.6547 87.1013 94.5267 87.5573C93.4227 87.9893 92.1387 88.2053 90.6747 88.2053C89.2107 88.2053 87.9147 87.9893 86.7867 87.5573C85.6827 87.1013 84.7467 86.4773 83.9787 85.6853C83.2107 84.8693 82.6227 83.8853 82.2147 82.7333C81.8307 81.5813 81.6387 80.2853 81.6387 78.8453V76.3253C81.6387 74.8853 81.8307 73.5893 82.2147 72.4373C82.6227 71.2853 83.2107 70.3133 83.9787 69.5213C84.7467 68.7053 85.6827 68.0813 86.7867 67.6493C87.9147 67.1933 89.2107 66.9653 90.6747 66.9653C92.1387 66.9653 93.4227 67.1933 94.5267 67.6493C95.6547 68.0813 96.5907 68.7053 97.3347 69.5213C98.1027 70.3133 98.6787 71.2853 99.0627 72.4373C99.4707 73.5893 99.6747 74.8853 99.6747 76.3253V78.8453ZM93.8787 76.3253C93.8787 73.3973 92.8107 71.9333 90.6747 71.9333C89.6187 71.9333 88.8147 72.3053 88.2627 73.0493C87.7107 73.7693 87.4347 74.8613 87.4347 76.3253V78.8453C87.4347 80.3093 87.7107 81.4133 88.2627 82.1573C88.8147 82.9013 89.6187 83.2733 90.6747 83.2733C92.8107 83.2733 93.8787 81.7973 93.8787 78.8453V76.3253ZM120.586 86.2253C120.586 86.5133 120.514 86.7293 120.37 86.8733C120.25 87.0173 119.95 87.1493 119.47 87.2693C118.438 87.5333 117.25 87.7493 115.906 87.9173C114.562 88.1093 113.194 88.2053 111.802 88.2053C108.874 88.2053 106.63 87.4013 105.07 85.7933C103.534 84.1853 102.766 81.9173 102.766 78.9893V76.1813C102.766 73.3493 103.51 71.1053 104.998 69.4493C106.486 67.7933 108.754 66.9653 111.802 66.9653C112.162 66.9653 112.606 66.9893 113.134 67.0373C113.686 67.0853 114.226 67.1453 114.754 67.2173V60.9893C114.754 60.7973 114.826 60.6293 114.97 60.4853C115.114 60.3413 115.282 60.2693 115.474 60.2693H119.83C120.022 60.2693 120.19 60.3413 120.334 60.4853C120.502 60.6293 120.586 60.7973 120.586 60.9893V86.2253ZM114.754 71.9693C114.322 71.9213 113.83 71.8853 113.278 71.8613C112.726 71.8133 112.234 71.7893 111.802 71.7893C111.154 71.7893 110.626 71.8973 110.218 72.1133C109.81 72.3293 109.486 72.6413 109.246 73.0493C109.006 73.4333 108.838 73.9013 108.742 74.4533C108.646 74.9813 108.598 75.5573 108.598 76.1813V78.9893C108.598 79.6373 108.646 80.2373 108.742 80.7893C108.838 81.3173 109.006 81.7853 109.246 82.1933C109.486 82.5773 109.81 82.8773 110.218 83.0933C110.626 83.3093 111.154 83.4173 111.802 83.4173C112.402 83.4173 112.954 83.3933 113.458 83.3453C113.986 83.2973 114.418 83.2493 114.754 83.2013V71.9693ZM142.606 87.1613C142.606 87.3533 142.534 87.5213 142.39 87.6653C142.246 87.8093 142.078 87.8813 141.886 87.8813H137.854C137.662 87.8813 137.494 87.8093 137.35 87.6653C137.206 87.5213 137.134 87.3533 137.134 87.1613V86.2973C136.15 86.9933 135.214 87.4853 134.326 87.7733C133.438 88.0373 132.418 88.1693 131.266 88.1693C129.97 88.1693 128.902 87.9653 128.062 87.5573C127.246 87.1253 126.598 86.5373 126.118 85.7933C125.662 85.0493 125.338 84.1853 125.146 83.2013C124.978 82.1933 124.894 81.1253 124.894 79.9973V68.0093C124.894 67.8173 124.966 67.6493 125.11 67.5053C125.278 67.3373 125.458 67.2533 125.65 67.2533H130.006C130.198 67.2533 130.366 67.3373 130.51 67.5053C130.654 67.6493 130.726 67.8173 130.726 68.0093V79.9973C130.726 80.6213 130.762 81.1493 130.834 81.5813C130.906 82.0133 131.038 82.3613 131.23 82.6253C131.422 82.8893 131.686 83.0813 132.022 83.2013C132.382 83.2973 132.838 83.3453 133.39 83.3453C133.918 83.3453 134.458 83.2373 135.01 83.0213C135.562 82.8053 136.15 82.5293 136.774 82.1933V68.0093C136.774 67.8173 136.846 67.6493 136.99 67.5053C137.134 67.3373 137.302 67.2533 137.494 67.2533H141.85C142.042 67.2533 142.21 67.3373 142.354 67.5053C142.522 67.6493 142.606 67.8173 142.606 68.0093V87.1613ZM160.329 86.8373C160.329 87.1013 160.269 87.2933 160.149 87.4133C160.029 87.5093 159.837 87.5933 159.573 87.6653C159.069 87.7853 158.409 87.9053 157.593 88.0253C156.801 88.1453 155.865 88.2053 154.785 88.2053C152.241 88.2053 150.201 87.4253 148.665 85.8653C147.153 84.3053 146.397 82.0493 146.397 79.0973V76.0733C146.397 73.1213 147.153 70.8653 148.665 69.3053C150.201 67.7453 152.241 66.9653 154.785 66.9653C155.865 66.9653 156.801 67.0253 157.593 67.1453C158.409 67.2653 159.069 67.3853 159.573 67.5053C159.837 67.5773 160.029 67.6733 160.149 67.7933C160.269 67.8893 160.329 68.0693 160.329 68.3333V71.5373C160.329 71.7293 160.257 71.8853 160.113 72.0053C159.993 72.1013 159.837 72.1493 159.645 72.1493H159.573C158.901 72.0773 158.253 72.0173 157.629 71.9693C157.029 71.9213 156.213 71.8973 155.181 71.8973C154.773 71.8973 154.389 71.9693 154.029 72.1133C153.669 72.2333 153.357 72.4613 153.093 72.7973C152.829 73.1093 152.613 73.5413 152.445 74.0933C152.301 74.6213 152.229 75.2813 152.229 76.0733V79.0973C152.229 79.8893 152.301 80.5613 152.445 81.1133C152.613 81.6413 152.829 82.0733 153.093 82.4093C153.357 82.7213 153.669 82.9493 154.029 83.0933C154.389 83.2133 154.773 83.2733 155.181 83.2733C156.213 83.2733 157.029 83.2493 157.629 83.2013C158.253 83.1533 158.901 83.0933 159.573 83.0213H159.645C159.837 83.0213 159.993 83.0813 160.113 83.2013C160.257 83.2973 160.329 83.4413 160.329 83.6333V86.8373ZM175.868 87.1973C175.868 87.6053 175.64 87.8453 175.184 87.9173C174.632 88.0133 174.152 88.0853 173.744 88.1333C173.336 88.1813 172.868 88.2053 172.34 88.2053C171.356 88.2053 170.48 88.1213 169.712 87.9533C168.968 87.8093 168.344 87.5093 167.84 87.0533C167.336 86.5973 166.952 85.9733 166.688 85.1813C166.424 84.3653 166.292 83.3213 166.292 82.0493V71.6093L163.412 71.1413C163.22 71.0933 163.04 71.0093 162.872 70.8893C162.728 70.7453 162.656 70.5773 162.656 70.3853V68.0093C162.656 67.8173 162.728 67.6493 162.872 67.5053C163.04 67.3373 163.22 67.2533 163.412 67.2533H166.292V64.3013C166.292 64.1093 166.364 63.9533 166.508 63.8333C166.652 63.7133 166.82 63.6293 167.012 63.5813L171.404 62.8253H171.512C171.704 62.8253 171.86 62.8853 171.98 63.0053C172.1 63.1013 172.16 63.2453 172.16 63.4373V67.2533H175.112C175.304 67.2533 175.472 67.3253 175.616 67.4693C175.76 67.6133 175.832 67.7813 175.832 67.9733V70.8893C175.832 71.0813 175.76 71.2493 175.616 71.3933C175.472 71.5373 175.304 71.6093 175.112 71.6093H172.16V82.0853C172.16 82.8053 172.22 83.2733 172.34 83.4893C172.46 83.6813 172.796 83.7773 173.348 83.7773H175.112C175.616 83.7773 175.868 83.9813 175.868 84.3893V87.1973ZM185.26 64.1933C185.26 64.3853 185.188 64.5533 185.044 64.6973C184.9 64.8413 184.732 64.9133 184.54 64.9133H179.86C179.668 64.9133 179.5 64.8413 179.356 64.6973C179.212 64.5533 179.14 64.3853 179.14 64.1933V60.8453C179.14 60.6533 179.212 60.4853 179.356 60.3413C179.5 60.1973 179.668 60.1253 179.86 60.1253H184.54C184.732 60.1253 184.9 60.1973 185.044 60.3413C185.188 60.4853 185.26 60.6533 185.26 60.8453V64.1933ZM185.116 87.1613C185.116 87.3533 185.044 87.5213 184.9 87.6653C184.756 87.8093 184.588 87.8813 184.396 87.8813H180.004C179.812 87.8813 179.644 87.8093 179.5 87.6653C179.356 87.5213 179.284 87.3533 179.284 87.1613V67.9733C179.284 67.7813 179.356 67.6133 179.5 67.4693C179.644 67.3253 179.812 67.2533 180.004 67.2533H184.396C184.588 67.2533 184.756 67.3253 184.9 67.4693C185.044 67.6133 185.116 67.7813 185.116 67.9733V87.1613ZM207.726 67.8653C207.726 67.9613 207.714 68.0333 207.69 68.0813L203.154 84.4253C202.938 85.2173 202.638 85.8653 202.254 86.3693C201.894 86.8733 201.474 87.2573 200.994 87.5213C200.538 87.7853 200.046 87.9653 199.518 88.0613C198.99 88.1573 198.462 88.2053 197.934 88.2053C197.406 88.2053 196.878 88.1573 196.35 88.0613C195.822 87.9653 195.33 87.7853 194.874 87.5213C194.418 87.2573 193.998 86.8733 193.614 86.3693C193.254 85.8653 192.966 85.2173 192.75 84.4253L188.25 68.0813C188.226 68.0333 188.214 67.9613 188.214 67.8653C188.214 67.4573 188.406 67.2533 188.79 67.2533H193.542C193.734 67.2533 193.89 67.3253 194.01 67.4693C194.154 67.6133 194.25 67.7933 194.298 68.0093L197.394 82.1213C197.49 82.6253 197.67 82.8773 197.934 82.8773C198.222 82.8773 198.414 82.6253 198.51 82.1213L201.606 68.0093C201.654 67.7933 201.738 67.6133 201.858 67.4693C202.002 67.3253 202.17 67.2533 202.362 67.2533H207.114C207.282 67.2533 207.426 67.3133 207.546 67.4333C207.666 67.5293 207.726 67.6733 207.726 67.8653ZM216.76 64.1933C216.76 64.3853 216.688 64.5533 216.544 64.6973C216.4 64.8413 216.232 64.9133 216.04 64.9133H211.36C211.168 64.9133 211 64.8413 210.856 64.6973C210.712 64.5533 210.64 64.3853 210.64 64.1933V60.8453C210.64 60.6533 210.712 60.4853 210.856 60.3413C211 60.1973 211.168 60.1253 211.36 60.1253H216.04C216.232 60.1253 216.4 60.1973 216.544 60.3413C216.688 60.4853 216.76 60.6533 216.76 60.8453V64.1933ZM216.616 87.1613C216.616 87.3533 216.544 87.5213 216.4 87.6653C216.256 87.8093 216.088 87.8813 215.896 87.8813H211.504C211.312 87.8813 211.144 87.8093 211 87.6653C210.856 87.5213 210.784 87.3533 210.784 87.1613V67.9733C210.784 67.7813 210.856 67.6133 211 67.4693C211.144 67.3253 211.312 67.2533 211.504 67.2533H215.896C216.088 67.2533 216.256 67.3253 216.4 67.4693C216.544 67.6133 216.616 67.7813 216.616 67.9733V87.1613ZM232.962 87.1973C232.962 87.6053 232.734 87.8453 232.278 87.9173C231.726 88.0133 231.246 88.0853 230.838 88.1333C230.43 88.1813 229.962 88.2053 229.434 88.2053C228.45 88.2053 227.574 88.1213 226.806 87.9533C226.062 87.8093 225.438 87.5093 224.934 87.0533C224.43 86.5973 224.046 85.9733 223.782 85.1813C223.518 84.3653 223.386 83.3213 223.386 82.0493V71.6093L220.506 71.1413C220.314 71.0933 220.134 71.0093 219.966 70.8893C219.822 70.7453 219.75 70.5773 219.75 70.3853V68.0093C219.75 67.8173 219.822 67.6493 219.966 67.5053C220.134 67.3373 220.314 67.2533 220.506 67.2533H223.386V64.3013C223.386 64.1093 223.458 63.9533 223.602 63.8333C223.746 63.7133 223.914 63.6293 224.106 63.5813L228.498 62.8253H228.606C228.798 62.8253 228.954 62.8853 229.074 63.0053C229.194 63.1013 229.254 63.2453 229.254 63.4373V67.2533H232.206C232.398 67.2533 232.566 67.3253 232.71 67.4693C232.854 67.6133 232.926 67.7813 232.926 67.9733V70.8893C232.926 71.0813 232.854 71.2493 232.71 71.3933C232.566 71.5373 232.398 71.6093 232.206 71.6093H229.254V82.0853C229.254 82.8053 229.314 83.2733 229.434 83.4893C229.554 83.6813 229.89 83.7773 230.442 83.7773H232.206C232.71 83.7773 232.962 83.9813 232.962 84.3893V87.1973ZM254.594 67.9013C254.594 67.9493 254.582 67.9853 254.558 68.0093C254.558 68.0093 254.558 68.0333 254.558 68.0813L248.51 89.2853C248.222 90.2693 247.898 91.1213 247.538 91.8413C247.178 92.5853 246.71 93.1973 246.134 93.6773C245.558 94.1573 244.826 94.5173 243.938 94.7573C243.05 95.0213 241.946 95.1533 240.626 95.1533C240.29 95.1533 239.918 95.1293 239.51 95.0813C239.102 95.0573 238.694 95.0213 238.286 94.9733C237.878 94.9253 237.494 94.8653 237.134 94.7933C236.774 94.7213 236.486 94.6493 236.27 94.5773C236.078 94.5053 235.898 94.4213 235.73 94.3253C235.586 94.2533 235.514 94.1213 235.514 93.9293V91.0133C235.514 90.8213 235.586 90.6533 235.73 90.5093C235.874 90.3893 236.042 90.3293 236.234 90.3293H236.306C236.594 90.3533 236.93 90.3773 237.314 90.4013C237.722 90.4253 238.13 90.4493 238.538 90.4733C238.97 90.5213 239.378 90.5573 239.762 90.5813C240.17 90.6053 240.518 90.6173 240.806 90.6173C241.454 90.6173 241.958 90.4853 242.318 90.2213C242.678 89.9573 242.966 89.4653 243.182 88.7453L243.506 87.6293H242.966C242.63 87.6293 242.306 87.6053 241.994 87.5573C241.706 87.4853 241.418 87.3413 241.13 87.1253C240.842 86.9093 240.566 86.5853 240.302 86.1533C240.062 85.6973 239.834 85.0733 239.618 84.2813L234.866 68.0813C234.842 68.0093 234.83 67.9253 234.83 67.8293C234.83 67.4453 235.07 67.2533 235.55 67.2533H240.338C240.53 67.2533 240.674 67.3253 240.77 67.4693C240.89 67.5893 240.974 67.7453 241.022 67.9373L244.262 81.4733C244.358 81.9293 244.502 82.1573 244.694 82.1573H245.018L248.366 67.9373C248.414 67.7453 248.498 67.5893 248.618 67.4693C248.762 67.3253 248.93 67.2533 249.122 67.2533H253.91C254.102 67.2533 254.258 67.3133 254.378 67.4333C254.522 67.5533 254.594 67.7093 254.594 67.9013Z" fill="#00A0D7"/>
<path opacity="0.2" d="M314.846 445.471L215.242 387.969L233.811 378.341L333.415 435.843L314.846 445.471Z" fill="#92B4D1"/>
<path opacity="0.2" d="M297.201 444.558L200.369 388.646L218.422 379.287L315.254 435.198L297.201 444.558Z" fill="#92B4D1"/>
<path opacity="0.2" d="M293.361 434.714C293.361 437.541 290.449 440.109 285.689 442.043C280.38 444.192 272.761 445.536 264.293 445.536C248.239 445.536 235.236 440.689 235.236 434.714C235.236 428.74 248.25 423.893 264.293 423.893C280.348 423.882 293.361 428.729 293.361 434.714Z" fill="#92B4D1"/>
<path d="M311.942 444.525L215.583 388.861C211.855 386.712 208.824 380.931 208.824 375.956V288.301C208.824 283.325 211.844 281.037 215.583 283.197L311.942 338.861C315.671 341.01 318.701 346.791 318.701 351.766V439.421C318.691 444.386 315.671 446.675 311.942 444.525Z" fill="#D1EBFF"/>
<path d="M314.608 337.474L218.26 281.81C216.788 280.961 215.423 280.8 214.306 281.23C214.166 281.284 211.523 282.648 211.394 282.724H211.383C212.533 282.165 213.994 282.272 215.584 283.186L311.943 338.85C315.672 340.999 318.703 346.78 318.703 351.756V439.41C318.703 442.516 317.521 444.568 315.737 445.159C315.887 445.17 316.07 445.106 316.328 444.955C316.414 444.901 319.218 443.386 319.294 443.333C320.572 442.43 321.378 440.592 321.378 438.035V350.38C321.368 345.405 318.337 339.634 314.608 337.474Z" fill="#3F92D1"/>
<path d="M313.855 337.84L217.496 282.176C216.024 281.327 214.659 281.166 213.542 281.595C213.402 281.649 211.522 282.648 211.382 282.724H211.371C212.521 282.165 213.982 282.272 215.573 283.186L311.932 338.85L313.855 337.84Z" fill="#4F9FDB"/>
<path d="M312.266 338.699L215.907 283.035C214.381 282.154 212.973 282.025 211.834 282.52C212.801 282.369 213.908 282.605 215.09 283.282L311.449 338.946C315.178 341.096 318.208 346.877 318.208 351.852V439.507C318.208 442.441 317.155 444.429 315.522 445.138C317.606 444.805 319.014 442.666 319.014 439.271V351.605C319.014 346.63 315.994 340.848 312.266 338.699Z" fill="white"/>
<path d="M212.627 296.092V375.956C212.627 379.856 214.486 383.671 217.484 385.573L312.811 440.635C312.844 440.657 312.897 440.689 312.973 440.721C313.832 441.216 314.907 440.592 314.907 439.604V355.173L212.627 296.092Z" fill="#084C94"/>
<path d="M314.756 440.012C314.692 439.969 314.638 439.948 314.595 439.926L219.279 384.853C216.281 382.94 214.422 379.136 214.422 375.236V297.134L212.627 296.092V375.956C212.627 379.856 214.486 383.671 217.484 385.573L312.811 440.635C312.844 440.657 312.897 440.689 312.973 440.721C313.703 441.14 314.574 440.754 314.832 440.023C314.799 440.023 314.778 440.023 314.756 440.012Z" fill="#001A46"/>
<path d="M309.533 345.587C309.533 346.77 310.361 348.199 311.392 348.79C312.424 349.381 313.251 348.908 313.251 347.726C313.251 346.544 312.424 345.115 311.392 344.524C310.361 343.933 309.533 344.405 309.533 345.587Z" fill="#FFEA22"/>
<path d="M304.742 342.804C304.742 343.986 305.57 345.416 306.601 346.007C307.633 346.598 308.46 346.125 308.46 344.943C308.46 343.761 307.633 342.331 306.601 341.74C305.57 341.149 304.742 341.622 304.742 342.804Z" fill="#F45197"/>
<path d="M299.938 340.021C299.938 341.203 300.765 342.632 301.797 343.223C302.828 343.814 303.656 343.342 303.656 342.16C303.656 340.977 302.828 339.548 301.797 338.957C300.776 338.366 299.938 338.839 299.938 340.021Z" fill="#80BC00"/>
<path opacity="0.1" d="M209.469 302.195L301.744 356.183C306.365 357.73 310.105 364.876 310.105 371.034V431.469C310.105 437.626 306.365 440.453 301.744 437.788L209.469 386.046V302.195Z" fill="#F1F2F2"/>
<path opacity="0.1429" d="M209.928 302.862L301.139 356.183C305.685 357.741 309.371 364.78 309.371 370.84V430.835C309.371 436.896 305.685 439.679 301.139 437.057L209.928 385.874V302.862Z" fill="#ECEFF0"/>
<path opacity="0.1857" d="M210.391 303.528L300.528 356.172C304.998 357.741 308.63 364.662 308.63 370.626V430.19C308.63 436.154 305.009 438.895 300.528 436.315L210.391 385.702V303.528Z" fill="#E7EBEE"/>
<path opacity="0.2286" d="M210.852 304.194L299.925 356.172C304.331 357.752 307.887 364.565 307.887 370.432V429.556C307.887 435.424 304.32 438.121 299.925 435.585L210.852 385.541V304.194Z" fill="#E2E8EC"/>
<path opacity="0.2714" d="M211.316 304.86L299.326 356.172C303.656 357.763 307.159 364.468 307.159 370.239V428.933C307.159 434.704 303.646 437.358 299.326 434.854L211.316 385.369V304.86Z" fill="#DEE5EA"/>
<path opacity="0.3143" d="M211.779 305.527L298.714 356.172C302.969 357.773 306.419 364.371 306.419 370.045V428.299C306.419 433.973 302.969 436.584 298.714 434.123L211.779 385.186V305.527Z" fill="#D9E1E8"/>
<path opacity="0.3571" d="M212.238 306.193L298.109 356.172C302.289 357.784 305.685 364.264 305.685 369.852V427.676C305.685 433.253 302.289 435.821 298.109 433.403L212.238 385.025V306.193Z" fill="#D4DEE6"/>
<path opacity="0.4" d="M212.701 306.859L297.508 356.161C301.624 357.784 304.955 364.156 304.955 369.648V427.042C304.955 432.522 301.624 435.047 297.508 432.673L212.701 384.864V306.859Z" fill="#CFDBE4"/>
<path opacity="0.4429" d="M213.164 307.525L296.896 356.161C300.937 357.795 304.214 364.06 304.214 369.443V426.397C304.214 431.781 300.937 434.263 296.896 431.931L213.164 384.692V307.525Z" fill="#CAD7E2"/>
<path opacity="0.4857" d="M213.627 308.192L296.296 356.161C300.261 357.816 303.485 363.963 303.485 369.25V425.774C303.485 431.061 300.272 433.5 296.296 431.211L213.627 384.52V308.192Z" fill="#C5D4E0"/>
<path opacity="0.5286" d="M214.09 308.858L295.695 356.161C299.595 357.827 302.755 363.856 302.755 369.057V425.14C302.755 430.341 299.595 432.726 295.695 430.47L214.09 384.348V308.858Z" fill="#C0D1DE"/>
<path opacity="0.5714" d="M214.553 309.524L295.083 356.161C298.908 357.838 302.014 363.759 302.014 368.863V424.516C302.014 429.621 298.908 431.963 295.083 429.75L214.553 384.187V309.524Z" fill="#BCCDDB"/>
<path opacity="0.6143" d="M215.014 310.19L294.48 356.161C298.23 357.849 301.271 363.662 301.271 368.67V423.893C301.271 428.901 298.23 431.2 294.48 429.03L215.014 384.015V310.19Z" fill="#B7CAD9"/>
<path opacity="0.6571" d="M215.475 310.857L293.877 356.151C297.563 357.849 300.54 363.555 300.54 368.455V423.238C300.54 428.149 297.552 430.405 293.877 428.278L215.475 383.843V310.857Z" fill="#B2C7D7"/>
<path opacity="0.7" d="M215.938 311.523L293.265 356.151C296.876 357.859 299.799 363.447 299.799 368.261V422.614C299.799 427.429 296.876 429.642 293.265 427.558L215.938 383.682V311.523Z" fill="#ADC3D5"/>
<path opacity="0.7429" d="M216.398 312.189L292.662 356.151C296.198 357.87 299.067 363.35 299.067 368.068V421.98C299.067 426.698 296.198 428.869 292.662 426.827L216.398 383.51V312.189Z" fill="#A8C0D3"/>
<path opacity="0.7857" d="M216.863 312.855L292.063 356.151C295.534 357.881 298.339 363.254 298.339 367.875V421.357C298.339 425.978 295.534 428.106 292.063 426.096L216.863 383.338V312.855Z" fill="#A3BDD1"/>
<path opacity="0.8286" d="M217.312 313.522L291.438 356.151C294.834 357.892 297.585 363.157 297.585 367.681V420.723C297.585 425.247 294.834 427.332 291.438 425.365L217.312 383.166V313.522Z" fill="#9EB9CF"/>
<path opacity="0.8714" d="M217.775 314.188L290.837 356.14C294.158 357.902 296.855 363.039 296.855 367.477V420.089C296.855 424.516 294.158 426.558 290.837 424.635L217.775 383.005V314.188Z" fill="#9AB6CD"/>
<path opacity="0.9143" d="M218.238 314.854L290.236 356.14C293.481 357.913 296.125 362.942 296.125 367.273V419.455C296.125 423.786 293.492 425.784 290.236 423.904L218.238 382.833V314.854Z" fill="#95B3CB"/>
<path opacity="0.9571" d="M218.699 315.52L289.622 356.14C292.803 357.924 295.382 362.845 295.382 367.079V418.821C295.382 423.055 292.803 425.011 289.622 423.173L218.699 382.661V315.52Z" fill="#90AFC9"/>
<path d="M219.16 316.187L289.02 356.14C292.125 357.935 294.64 362.749 294.64 366.886V418.198C294.64 422.335 292.125 424.248 289.02 422.453L219.16 382.489V316.187Z" fill="#8BACC7"/>
<path d="M296.524 444.353L200.713 389.227V304.033L296.524 359.149V444.353Z" fill="#2672AB"/>
<path d="M202.398 388.249V306.956L294.824 360.137V441.42L202.398 388.249Z" fill="white"/>
<path d="M202.398 316.154V306.956L294.824 360.137V369.325L202.398 316.154Z" fill="#00A0D7"/>
<path d="M201.647 315.279L201.115 316.213L295.637 370.043L296.169 369.109L201.647 315.279Z" fill="#2672AB"/>
<path d="M201.641 324.318L201.109 325.252L295.631 379.083L296.163 378.149L201.641 324.318Z" fill="#2672AB"/>
<path d="M201.637 333.358L201.105 334.292L295.627 388.122L296.159 387.189L201.637 333.358Z" fill="#2672AB"/>
<path d="M201.643 342.403L201.111 343.337L295.633 397.168L296.165 396.234L201.643 342.403Z" fill="#2672AB"/>
<path d="M201.639 351.443L201.107 352.377L295.629 406.207L296.161 405.273L201.639 351.443Z" fill="#2672AB"/>
<path d="M201.643 360.488L201.111 361.422L295.633 415.252L296.165 414.319L201.643 360.488Z" fill="#2672AB"/>
<path d="M201.641 369.528L201.109 370.462L295.631 424.292L296.163 423.358L201.641 369.528Z" fill="#2672AB"/>
<path d="M201.639 378.567L201.107 379.501L295.629 433.332L296.161 432.398L201.639 378.567Z" fill="#2672AB"/>
<path d="M201.643 387.613L201.111 388.546L295.633 442.377L296.165 441.443L201.643 387.613Z" fill="#2672AB"/>
<path d="M220.774 316.81H219.699V399.059H220.774V316.81Z" fill="#2672AB"/>
<path d="M239.989 327.824H238.914V410.074H239.989V327.824Z" fill="#2672AB"/>
<path d="M259.202 338.85H258.127V421.099H259.202V338.85Z" fill="#2672AB"/>
<path d="M278.416 349.864H277.342V432.114H278.416V349.864Z" fill="#2672AB"/>
<path d="M202.551 324.944V316.928L234.294 334.874V342.89L202.551 324.944Z" fill="#FFEA22"/>
<path d="M220.668 344.341V336.314L268.917 363.877V371.894L220.668 344.341Z" fill="#FFEA22"/>
<path d="M258.512 410.955V402.939L290.255 420.884V428.901L258.512 410.955Z" fill="#FFEA22"/>
<path d="M202.334 351.971V343.943L234.088 361.889V369.916L202.334 351.971Z" fill="#FFEA22"/>
<path d="M202.334 369.981V361.954L219.807 371.722V379.749L202.334 369.981Z" fill="#FFEA22"/>
<path d="M252.441 371.668V363.651L284.185 381.597V389.614L252.441 371.668Z" fill="#FFEA22"/>
<path d="M216.529 368.014C216.529 394.793 235.453 427.429 258.793 440.904C282.133 454.379 301.057 443.59 301.057 416.812C301.057 390.033 282.133 357.397 258.793 343.922C235.453 330.446 216.529 341.235 216.529 368.014Z" fill="url(#paint0_radial)"/>
<path d="M248.207 354.388C238.902 349.015 230.434 348.209 224.072 351.218L218.957 354.12V354.141C225.297 351.197 233.733 352.024 242.974 357.365C262.715 368.756 278.715 396.362 278.715 419.004C278.715 429.997 274.943 437.798 268.807 441.624L272.235 439.625C279.424 436.273 283.948 428.063 283.948 416.027C283.948 393.375 267.948 365.779 248.207 354.388Z" fill="#03336E"/>
<path d="M242.975 357.365C223.235 345.974 207.234 355.087 207.234 377.739C207.234 400.392 223.235 427.987 242.975 439.378C262.716 450.769 278.716 441.656 278.716 419.004C278.716 396.362 262.716 368.756 242.975 357.365Z" fill="url(#paint1_linear)"/>
<path d="M243.512 357.064C233.497 351.283 224.459 350.789 217.969 354.646C224.416 351.122 233.239 351.745 242.985 357.365C262.726 368.756 278.726 396.362 278.726 419.004C278.726 430.169 274.836 438.046 268.528 441.796C275.148 438.175 279.253 430.169 279.253 418.703C279.253 396.05 263.252 368.455 243.512 357.064Z" fill="#2672AB"/>
<path d="M195.606 403.422C195.38 403.422 195.176 403.282 195.101 403.057C194.864 402.369 194.638 401.692 194.424 401.004C194.338 400.725 194.488 400.424 194.778 400.327C195.058 400.241 195.358 400.392 195.455 400.682C195.67 401.359 195.896 402.036 196.121 402.713C196.218 402.992 196.068 403.304 195.788 403.39C195.724 403.422 195.67 403.422 195.606 403.422ZM194.015 398.296C193.779 398.296 193.564 398.146 193.499 397.899C193.306 397.2 193.123 396.502 192.941 395.803C192.865 395.513 193.048 395.223 193.327 395.148C193.618 395.073 193.908 395.255 193.983 395.535C194.155 396.222 194.338 396.91 194.531 397.598C194.606 397.888 194.445 398.178 194.155 398.264C194.112 398.286 194.069 398.296 194.015 398.296ZM192.736 393.074C192.489 393.074 192.264 392.902 192.21 392.644C192.059 391.935 191.92 391.226 191.791 390.516C191.737 390.226 191.931 389.947 192.221 389.893C192.511 389.85 192.79 390.033 192.844 390.323C192.973 391.021 193.113 391.72 193.252 392.418C193.317 392.708 193.123 392.999 192.833 393.052C192.812 393.074 192.779 393.074 192.736 393.074ZM191.802 387.787C191.533 387.787 191.307 387.593 191.275 387.325C191.178 386.605 191.082 385.896 191.006 385.176C190.974 384.885 191.189 384.617 191.479 384.585C191.769 384.552 192.038 384.767 192.07 385.057C192.145 385.756 192.242 386.465 192.339 387.174C192.382 387.464 192.178 387.744 191.888 387.787C191.855 387.787 191.834 387.787 191.802 387.787ZM191.254 382.435C190.974 382.435 190.738 382.22 190.716 381.93C190.673 381.21 190.63 380.48 190.609 379.77C190.598 379.469 190.834 379.222 191.125 379.212C191.447 379.222 191.673 379.437 191.683 379.727C191.705 380.437 191.737 381.146 191.791 381.855C191.812 382.156 191.587 382.403 191.286 382.425C191.275 382.435 191.264 382.435 191.254 382.435ZM191.135 377.073C191.135 377.073 191.125 377.073 191.135 377.073C190.824 377.062 190.587 376.826 190.598 376.525C190.609 375.794 190.641 375.074 190.684 374.354C190.705 374.054 190.92 373.828 191.254 373.849C191.554 373.871 191.78 374.118 191.759 374.419C191.716 375.117 191.694 375.827 191.673 376.547C191.662 376.837 191.425 377.073 191.135 377.073ZM191.49 371.711C191.468 371.711 191.447 371.711 191.425 371.711C191.135 371.679 190.92 371.41 190.953 371.12C191.039 370.4 191.135 369.68 191.243 368.971C191.286 368.681 191.565 368.476 191.855 368.519C192.145 368.562 192.35 368.842 192.307 369.132C192.199 369.83 192.102 370.529 192.016 371.238C191.995 371.507 191.759 371.711 191.49 371.711ZM192.382 366.413C192.339 366.413 192.307 366.413 192.264 366.402C191.973 366.338 191.791 366.048 191.855 365.758C192.016 365.048 192.188 364.339 192.382 363.651C192.457 363.361 192.747 363.2 193.037 363.275C193.327 363.351 193.489 363.651 193.413 363.931C193.231 364.608 193.059 365.296 192.908 365.994C192.855 366.241 192.629 366.413 192.382 366.413ZM193.843 361.244C193.79 361.244 193.725 361.234 193.671 361.212C193.392 361.115 193.242 360.804 193.338 360.524C193.575 359.837 193.833 359.16 194.101 358.483C194.209 358.203 194.531 358.074 194.8 358.182C195.079 358.289 195.208 358.612 195.101 358.88C194.832 359.536 194.585 360.191 194.359 360.868C194.273 361.105 194.069 361.244 193.843 361.244ZM195.917 356.29C195.831 356.29 195.756 356.269 195.681 356.237C195.412 356.108 195.305 355.785 195.434 355.517C195.756 354.861 196.1 354.216 196.455 353.593C196.605 353.335 196.927 353.249 197.185 353.389C197.443 353.54 197.54 353.862 197.389 354.12C197.046 354.732 196.712 355.356 196.39 356C196.304 356.183 196.121 356.29 195.917 356.29Z" fill="#00A0D7"/>
<path d="M268.406 441.873C282.275 433.765 282.133 407.716 268.088 383.692C254.043 359.668 231.414 346.765 217.544 354.874C203.675 362.982 203.817 389.03 217.862 413.055C231.907 437.079 254.536 449.981 268.406 441.873Z" fill="#084C94"/>
<path d="M267.029 439.517C280.145 431.849 280.009 407.212 266.725 384.49C253.441 361.767 232.039 349.562 218.923 357.23C205.807 364.898 205.943 389.535 219.227 412.258C232.511 434.981 253.913 447.185 267.029 439.517Z" fill="#F0F8FF"/>
<path d="M263.561 433.589C274.787 427.026 274.67 405.94 263.3 386.491C251.93 367.042 233.612 356.596 222.386 363.158C211.161 369.721 211.278 390.808 222.648 410.257C234.018 429.705 252.336 440.152 263.561 433.589Z" fill="#00A0D7"/>
<path d="M259.659 426.91C268.759 421.59 268.666 404.502 259.453 388.742C250.239 372.982 235.394 364.518 226.294 369.838C217.195 375.157 217.287 392.246 226.501 408.006C235.715 423.766 250.56 432.229 259.659 426.91Z" fill="#F0F8FF"/>
<path d="M255.974 420.611C263.065 416.465 262.993 403.149 255.814 390.868C248.634 378.587 237.065 371.991 229.974 376.137C222.883 380.282 222.955 393.599 230.135 405.88C237.315 418.161 248.883 424.756 255.974 420.611Z" fill="#00A0D7"/>
<path d="M252.507 414.682C257.707 411.642 257.654 401.876 252.388 392.869C247.122 383.861 238.638 379.024 233.438 382.064C228.237 385.105 228.29 394.871 233.556 403.878C238.822 412.885 247.306 417.723 252.507 414.682Z" fill="#F0F8FF"/>
<path d="M243.5 436.842C224.835 426.064 209.694 399.962 209.694 378.535C209.694 368.304 213.143 360.997 218.785 357.322C212.842 360.879 209.178 368.326 209.178 378.857C209.178 400.284 224.308 426.386 242.984 437.164C252.742 442.795 261.532 443.128 267.7 439.099C261.553 442.774 252.989 442.312 243.5 436.842Z" fill="#00A0D7"/>
<path d="M243.5 424.957C230.551 417.478 220.052 399.371 220.052 384.509C220.052 377.385 222.47 372.313 226.403 369.766C222.158 372.184 219.525 377.395 219.525 384.832C219.525 399.693 230.024 417.8 242.973 425.279C249.721 429.169 255.793 429.406 260.07 426.644C255.836 429.062 249.969 428.697 243.5 424.957Z" fill="#00A0D7"/>
<path d="M243.502 413.427C236.098 409.15 230.102 398.801 230.102 390.312C230.102 386.358 231.402 383.499 233.551 382.005C231.101 383.381 229.586 386.368 229.586 390.634C229.586 399.124 235.582 409.472 242.986 413.749C246.941 416.027 250.487 416.113 252.937 414.415C250.508 415.769 247.177 415.544 243.502 413.427Z" fill="#00A0D7"/>
<path d="M248.279 407.447C251.174 405.754 251.146 400.32 248.217 395.31C245.287 390.299 240.566 387.609 237.671 389.301C234.776 390.993 234.804 396.427 237.734 401.438C240.663 406.449 245.385 409.139 248.279 407.447Z" fill="#F45197"/>
<path opacity="0.5" d="M243.78 398.544C243.78 398.92 243.522 399.07 243.189 398.877C242.866 398.694 242.598 398.232 242.598 397.867C242.598 397.49 242.856 397.34 243.189 397.533C243.511 397.716 243.78 398.167 243.78 398.544Z" fill="#231F20"/>
<path d="M242.975 389.818C241.116 388.743 239.408 388.55 238.107 389.087C239.332 388.775 240.848 389.044 242.481 389.979C246.597 392.354 249.939 398.114 249.939 402.842C249.939 405.432 248.939 407.173 247.349 407.828C249.219 407.355 250.433 405.528 250.433 402.681C250.433 397.952 247.102 392.193 242.975 389.818Z" fill="#F45197"/>
<path d="M182.613 433.736L179.411 433.307C177.659 433.07 177.498 430.599 179.196 430.137L197.142 425.226L182.613 433.736Z" fill="#80BC00"/>
<path d="M182.731 433.414L179.529 432.984C178.422 432.834 177.949 431.791 178.185 430.921C177.713 431.824 178.153 433.124 179.4 433.296L182.602 433.726L197.141 425.215L196.368 425.43L182.731 433.414Z" fill="#80BC00"/>
<path opacity="0.7" d="M179.485 433.081L182.688 433.511L196.582 425.376L196.378 425.43L182.731 433.414L179.528 432.984C178.422 432.834 177.949 431.791 178.185 430.921C178.164 430.953 178.153 430.996 178.131 431.028C177.916 431.899 178.379 432.931 179.485 433.081Z" fill="white"/>
<path d="M243.443 398.329C243.443 398.404 243.422 398.447 243.379 398.479C243.379 398.479 241.563 400.961 237.103 403.54C230.742 407.226 229.721 407.473 229.721 407.473C229.549 407.57 229.656 407.355 229.399 407.205C228.883 406.904 228.464 406.184 228.464 405.593C228.464 405.303 228.195 405.303 228.356 405.206C228.356 405.206 229.098 404.486 235.47 400.8C239.94 398.21 243.046 397.909 243.046 397.909C243.089 397.888 243.143 397.888 243.207 397.931C243.336 397.995 243.443 398.178 243.443 398.329Z" fill="#FFEA22"/>
<path d="M229.96 406.882C229.96 407.473 229.541 407.71 229.025 407.409C228.509 407.108 228.09 406.388 228.09 405.797C228.09 405.206 228.509 404.97 229.025 405.27C229.541 405.571 229.96 406.291 229.96 406.882Z" fill="#FFEA22"/>
<path d="M229.766 406.904C229.766 407.183 229.669 407.377 229.518 407.473L181.624 435.606C181.463 435.692 181.57 435.488 181.323 435.348C180.829 435.069 180.431 434.381 180.431 433.812C180.431 433.532 180.173 433.532 180.334 433.436C180.334 433.436 228.261 405.303 228.261 405.292C228.422 405.206 228.637 405.217 228.884 405.356C229.368 405.657 229.766 406.345 229.766 406.904Z" fill="#2672AB"/>
<path d="M181.594 435.618C181.937 435.417 181.931 434.769 181.581 434.169C181.23 433.57 180.668 433.247 180.325 433.447C179.981 433.648 179.987 434.297 180.338 434.896C180.688 435.496 181.25 435.819 181.594 435.618Z" fill="#3F92D1"/>
<path d="M182.076 432.554L196.927 424.001L185.343 423.055C181.002 422.7 178.305 427.665 180.97 431.114L182.076 432.554Z" fill="#80BC00"/>
<path d="M182.313 432.511L197.164 423.958L185.579 423.012C181.238 422.657 178.541 427.622 181.206 431.071L182.313 432.511Z" fill="#80BC00"/>
<path opacity="0.7" d="M181.407 431.157C178.742 427.708 181.439 422.743 185.781 423.098L197.032 424.022L197.15 423.958L185.566 423.012C181.224 422.657 178.527 427.622 181.192 431.071L182.31 432.511L182.406 432.458L181.407 431.157Z" fill="white"/>
<path d="M183.012 434.295L183.377 435.606C184.344 439.099 188.997 439.797 190.953 436.735L197.863 425.881L183.012 434.295Z" fill="#80BC00"/>
<path d="M183.246 434.113L183.611 435.424C184.579 438.916 189.232 439.614 191.187 436.552L198.097 425.698L183.246 434.113Z" fill="#80BC00"/>
<path opacity="0.7" d="M191.308 436.326C189.363 439.389 184.71 438.69 183.733 435.198L183.399 434.016L183.238 434.102L183.604 435.413C184.571 438.905 189.224 439.604 191.18 436.541L198.089 425.688L198.068 425.698L191.308 436.326Z" fill="white"/>
<path d="M194.415 417.918C194.232 417.918 194.05 417.822 193.953 417.65C193.802 417.392 193.888 417.069 194.146 416.919L196.005 415.834C196.263 415.683 196.586 415.769 196.736 416.027C196.887 416.285 196.801 416.607 196.543 416.758L194.684 417.843C194.598 417.897 194.501 417.918 194.415 417.918ZM199.057 415.21C198.875 415.21 198.692 415.114 198.595 414.942C198.445 414.684 198.531 414.362 198.789 414.211L200.648 413.126C200.906 412.975 201.228 413.061 201.378 413.319C201.529 413.577 201.443 413.899 201.185 414.05L199.326 415.135C199.24 415.189 199.143 415.21 199.057 415.21ZM203.689 412.502C203.506 412.502 203.323 412.406 203.227 412.234C203.076 411.976 203.162 411.654 203.42 411.503L205.279 410.418C205.537 410.267 205.859 410.353 206.01 410.611C206.16 410.869 206.074 411.191 205.816 411.342L203.957 412.427C203.882 412.481 203.785 412.502 203.689 412.502ZM208.331 409.794C208.148 409.794 207.966 409.698 207.869 409.526C207.718 409.268 207.804 408.946 208.062 408.795L209.921 407.71C210.179 407.559 210.502 407.645 210.652 407.903C210.803 408.161 210.717 408.483 210.459 408.634L208.6 409.719C208.524 409.773 208.428 409.794 208.331 409.794Z" fill="#80BC00"/>
<defs>
<radialGradient id="paint0_radial" cx="0" cy="0" r="1" gradientUnits="userSpaceOnUse" gradientTransform="translate(258.789 392.411) rotate(-149.999) scale(36.9913 31.8373)">
<stop offset="0.0562" stop-color="#7F9BB0"/>
<stop offset="1" stop-color="white"/>
</radialGradient>
<linearGradient id="paint1_linear" x1="207.242" y1="377.739" x2="278.719" y2="377.739" gradientUnits="userSpaceOnUse">
<stop stop-color="#311B61"/>
<stop offset="0.2031" stop-color="#290F52"/>
<stop offset="0.4949" stop-color="#200041"/>
<stop offset="1" stop-color="#0F001F"/>
</linearGradient>
</defs>
</svg>
