<svg width="1195" height="844" viewBox="0 0 1195 844" fill="none" xmlns="http://www.w3.org/2000/svg">
<path d="M0 27C0 12.0883 12.0883 0 27 0H1168C1182.91 0 1195 12.0883 1195 27V817C1195 831.912 1182.91 844 1168 844H27C12.0883 844 0 831.912 0 817V27Z" fill="#F5F5F5"/>
<rect x="473" y="723" width="250" height="60" rx="10" fill="#F45197"/>
<path d="M552.288 754.5C552.288 755.2 552.155 755.892 551.888 756.575C551.638 757.258 551.23 757.875 550.663 758.425C550.113 758.958 549.388 759.392 548.488 759.725C547.588 760.058 546.496 760.225 545.213 760.225C544.18 760.225 543.246 760.158 542.413 760.025C541.58 759.908 540.83 759.758 540.163 759.575C540.03 759.542 539.905 759.483 539.788 759.4C539.688 759.317 539.638 759.208 539.638 759.075V756C539.638 755.65 539.813 755.483 540.163 755.5C540.43 755.533 540.78 755.575 541.213 755.625C541.663 755.658 542.13 755.692 542.613 755.725C543.096 755.758 543.571 755.792 544.038 755.825C544.505 755.858 544.905 755.875 545.238 755.875C545.855 755.875 546.271 755.767 546.488 755.55C546.705 755.317 546.813 755 546.813 754.6C546.813 754.35 546.73 754.142 546.563 753.975C546.413 753.792 546.105 753.558 545.638 753.275L542.038 751.15C541.455 750.8 540.971 750.433 540.588 750.05C540.205 749.667 539.896 749.267 539.663 748.85C539.446 748.433 539.288 748 539.188 747.55C539.105 747.1 539.063 746.633 539.063 746.15C539.063 745.467 539.163 744.825 539.363 744.225C539.58 743.625 539.938 743.1 540.438 742.65C540.938 742.2 541.605 741.842 542.438 741.575C543.288 741.308 544.346 741.175 545.613 741.175C546.113 741.175 546.638 741.192 547.188 741.225C547.738 741.258 548.271 741.308 548.788 741.375C549.321 741.442 549.805 741.517 550.238 741.6C550.688 741.667 551.038 741.733 551.288 741.8C551.405 741.833 551.505 741.892 551.588 741.975C551.688 742.042 551.738 742.142 551.738 742.275V745.4C551.738 745.533 551.705 745.65 551.638 745.75C551.571 745.85 551.438 745.892 551.238 745.875C550.988 745.858 550.63 745.833 550.163 745.8C549.713 745.767 549.221 745.733 548.688 745.7C548.155 745.65 547.613 745.617 547.063 745.6C546.513 745.567 546.013 745.55 545.563 745.55C545.096 745.55 544.771 745.625 544.588 745.775C544.405 745.925 544.313 746.133 544.313 746.4C544.313 746.633 544.396 746.833 544.563 747C544.73 747.167 545.08 747.392 545.613 747.675L548.988 749.475C550.205 750.125 551.055 750.867 551.538 751.7C552.038 752.517 552.288 753.45 552.288 754.5ZM563.126 748.5C563.126 748.633 563.076 748.75 562.976 748.85C562.876 748.95 562.76 749 562.626 749H560.726V755.725C560.726 756.108 560.76 756.367 560.826 756.5C560.91 756.617 561.11 756.675 561.426 756.675H562.576C562.726 756.675 562.851 756.725 562.951 756.825C563.051 756.908 563.101 757.017 563.101 757.15V759.5C563.101 759.633 563.051 759.742 562.951 759.825C562.851 759.908 562.726 759.967 562.576 760C562.16 760.083 561.76 760.142 561.376 760.175C561.01 760.208 560.668 760.225 560.351 760.225C559.685 760.225 559.076 760.158 558.526 760.025C557.993 759.908 557.526 759.683 557.126 759.35C556.743 759.017 556.443 758.558 556.226 757.975C556.026 757.375 555.926 756.608 555.926 755.675V749L554.276 748.625C554.143 748.592 554.018 748.525 553.901 748.425C553.801 748.325 553.751 748.208 553.751 748.075V745.975C553.751 745.842 553.801 745.725 553.901 745.625C554.001 745.508 554.126 745.45 554.276 745.45H555.926V743.425C555.926 743.292 555.976 743.183 556.076 743.1C556.193 743 556.318 742.933 556.451 742.9L560.176 742.25C560.41 742.217 560.56 742.258 560.626 742.375C560.693 742.475 560.726 742.592 560.726 742.725V745.45H562.626C562.76 745.45 562.876 745.5 562.976 745.6C563.076 745.7 563.126 745.817 563.126 745.95V748.5ZM577.067 759.5C577.067 759.633 577.017 759.75 576.917 759.85C576.817 759.95 576.701 760 576.567 760H573.092C572.959 760 572.842 759.95 572.742 759.85C572.642 759.75 572.592 759.633 572.592 759.5V758.975C572.109 759.325 571.567 759.625 570.967 759.875C570.367 760.108 569.717 760.225 569.017 760.225C568.517 760.225 568.017 760.15 567.517 760C567.017 759.85 566.559 759.6 566.142 759.25C565.726 758.9 565.384 758.442 565.117 757.875C564.867 757.308 564.742 756.6 564.742 755.75V755.45C564.742 753.95 565.292 752.9 566.392 752.3C567.509 751.683 569.109 751.375 571.192 751.375H572.267V750.65C572.267 750.033 572.151 749.642 571.917 749.475C571.684 749.292 571.251 749.2 570.617 749.2C570.267 749.2 569.876 749.208 569.442 749.225C569.009 749.242 568.584 749.258 568.167 749.275C567.767 749.292 567.392 749.308 567.042 749.325C566.692 749.342 566.434 749.358 566.267 749.375C566.051 749.392 565.901 749.35 565.817 749.25C565.751 749.15 565.717 749.025 565.717 748.875V746.45C565.717 746.267 565.759 746.133 565.842 746.05C565.942 745.967 566.067 745.9 566.217 745.85C566.417 745.783 566.692 745.717 567.042 745.65C567.409 745.583 567.801 745.525 568.217 745.475C568.634 745.408 569.067 745.358 569.517 745.325C569.967 745.275 570.392 745.25 570.792 745.25C571.692 745.25 572.526 745.342 573.292 745.525C574.059 745.692 574.717 745.992 575.267 746.425C575.834 746.842 576.276 747.4 576.592 748.1C576.909 748.783 577.067 749.633 577.067 750.65V759.5ZM572.417 753.975H571.192C570.559 753.975 570.109 754.083 569.842 754.3C569.576 754.517 569.442 754.892 569.442 755.425V755.675C569.442 756.108 569.567 756.4 569.817 756.55C570.067 756.7 570.367 756.775 570.717 756.775C571.017 756.775 571.317 756.742 571.617 756.675C571.934 756.592 572.201 756.5 572.417 756.4V753.975ZM588.147 748.8C588.147 748.95 588.114 749.05 588.047 749.1C587.997 749.15 587.889 749.175 587.722 749.175H587.372C586.839 749.175 586.322 749.217 585.822 749.3C585.322 749.383 584.881 749.533 584.497 749.75V759.45C584.497 759.583 584.447 759.708 584.347 759.825C584.264 759.942 584.147 760 583.997 760H580.247C580.097 760 579.964 759.942 579.847 759.825C579.747 759.708 579.697 759.583 579.697 759.45V745.95C579.697 745.817 579.731 745.7 579.797 745.6C579.881 745.5 580.014 745.45 580.197 745.45H583.797C584.131 745.45 584.297 745.617 584.297 745.95V746.55C584.581 746.25 584.847 746.017 585.097 745.85C585.364 745.683 585.631 745.558 585.897 745.475C586.164 745.375 586.439 745.317 586.722 745.3C587.006 745.267 587.314 745.25 587.647 745.25C587.864 745.25 587.997 745.283 588.047 745.35C588.114 745.417 588.147 745.55 588.147 745.75V748.8ZM598.722 748.5C598.722 748.633 598.672 748.75 598.572 748.85C598.472 748.95 598.355 749 598.222 749H596.322V755.725C596.322 756.108 596.355 756.367 596.422 756.5C596.505 756.617 596.705 756.675 597.022 756.675H598.172C598.322 756.675 598.447 756.725 598.547 756.825C598.647 756.908 598.697 757.017 598.697 757.15V759.5C598.697 759.633 598.647 759.742 598.547 759.825C598.447 759.908 598.322 759.967 598.172 760C597.755 760.083 597.355 760.142 596.972 760.175C596.605 760.208 596.264 760.225 595.947 760.225C595.28 760.225 594.672 760.158 594.122 760.025C593.589 759.908 593.122 759.683 592.722 759.35C592.339 759.017 592.039 758.558 591.822 757.975C591.622 757.375 591.522 756.608 591.522 755.675V749L589.872 748.625C589.739 748.592 589.614 748.525 589.497 748.425C589.397 748.325 589.347 748.208 589.347 748.075V745.975C589.347 745.842 589.397 745.725 589.497 745.625C589.597 745.508 589.722 745.45 589.872 745.45H591.522V743.425C591.522 743.292 591.572 743.183 591.672 743.1C591.789 743 591.914 742.933 592.047 742.9L595.772 742.25C596.005 742.217 596.155 742.258 596.222 742.375C596.289 742.475 596.322 742.592 596.322 742.725V745.45H598.222C598.355 745.45 598.472 745.5 598.572 745.6C598.672 745.7 598.722 745.817 598.722 745.95V748.5ZM620.237 759.45C620.237 759.583 620.187 759.708 620.087 759.825C620.004 759.942 619.887 760 619.737 760H615.987C615.837 760 615.704 759.942 615.587 759.825C615.487 759.708 615.437 759.583 615.437 759.45V750.975C615.437 750.308 615.32 749.85 615.087 749.6C614.854 749.35 614.454 749.225 613.887 749.225C613.604 749.225 613.287 749.275 612.937 749.375C612.604 749.475 612.295 749.6 612.012 749.75V759.45C612.012 759.583 611.962 759.708 611.862 759.825C611.779 759.942 611.662 760 611.512 760H607.762C607.612 760 607.479 759.942 607.362 759.825C607.262 759.708 607.212 759.583 607.212 759.45V745.95C607.212 745.817 607.262 745.7 607.362 745.6C607.462 745.5 607.579 745.45 607.712 745.45H611.187C611.32 745.45 611.437 745.5 611.537 745.6C611.637 745.7 611.687 745.817 611.687 745.95V746.525C612.354 746.025 613.029 745.692 613.712 745.525C614.412 745.342 615.112 745.25 615.812 745.25C616.795 745.25 617.579 745.408 618.162 745.725C618.745 746.042 619.187 746.467 619.487 747C619.804 747.533 620.004 748.142 620.087 748.825C620.187 749.508 620.237 750.225 620.237 750.975V759.45ZM635.733 753.45C635.733 755.667 635.167 757.35 634.033 758.5C632.9 759.65 631.283 760.225 629.183 760.225C627.083 760.225 625.458 759.65 624.308 758.5C623.175 757.35 622.608 755.667 622.608 753.45V752C622.608 749.783 623.175 748.1 624.308 746.95C625.458 745.8 627.083 745.225 629.183 745.225C631.283 745.225 632.9 745.8 634.033 746.95C635.167 748.1 635.733 749.783 635.733 752V753.45ZM630.958 752C630.958 751 630.808 750.292 630.508 749.875C630.208 749.458 629.767 749.25 629.183 749.25C628.6 749.25 628.15 749.458 627.833 749.875C627.533 750.292 627.383 751 627.383 752V753.45C627.383 754.45 627.533 755.167 627.833 755.6C628.15 756.017 628.6 756.225 629.183 756.225C629.767 756.225 630.208 756.017 630.508 755.6C630.808 755.167 630.958 754.45 630.958 753.45V752ZM656.91 745.45C657.026 745.45 657.126 745.492 657.21 745.575C657.293 745.642 657.318 745.75 657.285 745.9L655.085 757.775C654.935 758.592 654.685 759.167 654.335 759.5C653.985 759.833 653.526 760 652.96 760H650.685C650.118 760 649.668 759.817 649.335 759.45C649.018 759.067 648.76 758.533 648.56 757.85L647.21 753.275C647.193 753.158 647.135 753.1 647.035 753.1C646.935 753.1 646.876 753.158 646.86 753.275L645.51 757.85C645.31 758.533 645.051 759.067 644.735 759.45C644.418 759.817 643.968 760 643.385 760H641.11C640.543 760 640.085 759.833 639.735 759.5C639.385 759.167 639.135 758.592 638.985 757.775L636.785 745.9C636.751 745.733 636.776 745.617 636.86 745.55C636.943 745.483 637.043 745.45 637.16 745.45H641.16C641.393 745.45 641.535 745.592 641.585 745.875L642.81 754.45C642.826 754.583 642.885 754.65 642.985 754.65C643.068 754.65 643.135 754.583 643.185 754.45L644.635 749.325C644.718 749.025 644.851 748.783 645.035 748.6C645.218 748.4 645.551 748.3 646.035 748.3H648.035C648.518 748.3 648.851 748.4 649.035 748.6C649.218 748.783 649.351 749.025 649.435 749.325L650.885 754.45C650.935 754.583 651.001 754.65 651.085 754.65C651.185 754.65 651.243 754.583 651.26 754.45L652.485 745.875C652.535 745.592 652.676 745.45 652.91 745.45H656.91Z" fill="white"/>
<path d="M737.342 170.371C730.146 167.966 722.911 165.599 715.754 163.021C680.198 150.194 644.436 137.95 608.469 126.291C575.465 115.529 542.327 105.216 509.053 95.352C492.641 90.4841 475.998 86.2704 459.682 81.0755C448.311 77.4775 433.457 76.8234 424.568 86.5783C419.566 91.9271 417.603 99.3925 416.237 106.588C408.945 145.473 404.558 184.801 399.883 224.052C396.708 250.584 384.971 287.545 410.561 306.959C424.472 317.522 440.692 314.771 456.738 312.269C500.01 305.497 543.321 299.205 586.573 292.009C628.902 284.948 670.731 274.5 712.887 267.728C737.072 263.879 768.03 256.029 787.425 240.252C794.158 235.121 798.751 227.676 800.316 219.357C802.567 204.388 789.368 191.747 777.054 185.725C764.167 179.742 750.901 174.613 737.342 170.371Z" fill="#00A0D7"/>
<path d="M529.216 74.0144L661.86 44.3263C673.847 41.6518 685.102 51.8685 684.506 64.9136L672.75 329.182C672.677 333.738 670.967 338.115 667.932 341.513C664.897 344.912 660.741 347.105 656.222 347.691L581.492 355.522C576.717 355.891 571.977 354.449 568.216 351.483C564.455 348.517 561.948 344.244 561.194 339.514L515.016 97.0837C513.015 86.4822 519.326 76.227 529.216 74.0144Z" stroke="#F45197" stroke-width="5" stroke-linecap="round" stroke-linejoin="round"/>
<path d="M504.341 354.81H424.205C422.472 354.81 421.068 356.214 421.068 357.946V384.864C421.068 386.596 422.472 388 424.205 388H504.341C506.073 388 507.477 386.596 507.477 384.864V357.946C507.477 356.214 506.073 354.81 504.341 354.81Z" fill="#FFEA22"/>
<path d="M512.611 346.537H432.474C430.742 346.537 429.338 347.941 429.338 349.673V376.59C429.338 378.322 430.742 379.727 432.474 379.727H512.611C514.343 379.727 515.747 378.322 515.747 376.59V349.673C515.747 347.941 514.343 346.537 512.611 346.537Z" fill="white" stroke="#F45197" stroke-width="5" stroke-linejoin="round"/>
<path d="M735.725 35.7449L729.395 52.0416" stroke="#F45197" stroke-width="5" stroke-linecap="round" stroke-linejoin="round"/>
<path d="M774.668 48.3861L763.586 61.9121" stroke="#F45197" stroke-width="5" stroke-linecap="round" stroke-linejoin="round"/>
<path d="M793.277 86.6744L778.924 96.6603" stroke="#F45197" stroke-width="5" stroke-linecap="round" stroke-linejoin="round"/>
<path d="M500.777 71.5707C499.113 71.5707 497.487 71.0771 496.104 70.1524C494.721 69.2276 493.643 67.9133 493.007 66.3758C492.372 64.8383 492.206 63.1467 492.532 61.5152C492.858 59.8837 493.661 58.3855 494.839 57.2104C496.016 56.0353 497.516 55.236 499.149 54.9137C500.781 54.5915 502.472 54.7607 504.008 55.4001C505.544 56.0394 506.856 57.1201 507.778 58.5053C508.699 59.8906 509.189 61.5181 509.185 63.1819C509.18 65.4085 508.292 67.5422 506.716 69.1149C505.14 70.6875 503.004 71.5707 500.777 71.5707Z" fill="#FFEA22"/>
<path d="M739.055 344.401C739.055 343.115 739.436 341.857 740.151 340.788C740.865 339.718 741.881 338.885 743.069 338.393C744.258 337.901 745.565 337.772 746.827 338.023C748.088 338.274 749.247 338.893 750.156 339.802C751.066 340.712 751.685 341.871 751.936 343.132C752.187 344.394 752.058 345.701 751.566 346.89C751.074 348.078 750.24 349.094 749.171 349.808C748.102 350.523 746.844 350.904 745.558 350.904C743.833 350.904 742.179 350.219 740.959 349C739.74 347.78 739.055 346.126 739.055 344.401Z" stroke="#F45197" stroke-width="5" stroke-linejoin="round"/>
<path d="M769.32 142.838C769.32 141.551 769.702 140.294 770.416 139.225C771.131 138.155 772.147 137.322 773.335 136.829C774.523 136.337 775.831 136.208 777.092 136.459C778.354 136.71 779.513 137.33 780.422 138.239C781.332 139.149 781.951 140.307 782.202 141.569C782.453 142.83 782.324 144.138 781.832 145.326C781.34 146.515 780.506 147.53 779.437 148.245C778.367 148.96 777.11 149.341 775.824 149.341C774.099 149.341 772.445 148.656 771.225 147.436C770.005 146.217 769.32 144.562 769.32 142.838Z" stroke="#F45197" stroke-width="5" stroke-linejoin="round"/>
<path d="M396.363 206.139C396.363 204.853 396.745 203.595 397.459 202.526C398.174 201.456 399.19 200.623 400.378 200.131C401.566 199.638 402.874 199.51 404.135 199.761C405.397 200.011 406.556 200.631 407.465 201.54C408.375 202.45 408.994 203.609 409.245 204.87C409.496 206.132 409.367 207.439 408.875 208.628C408.383 209.816 407.549 210.832 406.48 211.546C405.41 212.261 404.153 212.642 402.867 212.642C401.142 212.642 399.488 211.957 398.268 210.737C397.048 209.518 396.363 207.864 396.363 206.139Z" stroke="#F45197" stroke-width="5" stroke-linejoin="round"/>
<path d="M579.006 38.6936L570.312 30L561.619 38.6936L570.312 47.3873L579.006 38.6936Z" stroke="#F45197" stroke-width="5" stroke-linecap="round" stroke-linejoin="round"/>
<path d="M769.147 294.934C768.642 294.931 768.158 294.731 767.8 294.376L759.103 285.679C758.756 285.32 758.562 284.841 758.562 284.342C758.562 283.843 758.756 283.363 759.103 283.004L767.8 274.308C768.159 273.961 768.638 273.767 769.137 273.767C769.636 273.767 770.116 273.961 770.474 274.308L779.171 283.004C779.518 283.363 779.712 283.843 779.712 284.342C779.712 284.841 779.518 285.32 779.171 285.679L770.474 294.376C770.121 294.726 769.645 294.926 769.147 294.934Z" fill="#FFEA22"/>
<path d="M770.531 322.698C773.244 324.429 771.185 327.623 773.898 329.355C776.611 331.087 778.651 327.931 781.364 329.682C784.077 331.433 782.018 334.608 784.731 336.358C787.444 338.109 789.483 334.915 792.196 336.666" stroke="#F45197" stroke-width="5" stroke-linecap="round" stroke-linejoin="round"/>
<path d="M397.672 294.741C400.519 293.24 402.29 296.665 405.137 295.087C407.985 293.51 406.215 290.239 408.985 288.738C411.756 287.237 413.603 290.662 416.47 289.065C419.337 287.468 417.547 284.217 420.318 282.716" stroke="#F45197" stroke-width="5" stroke-linecap="round" stroke-linejoin="round"/>
<path d="M705.516 350.577C706.248 353.713 702.573 354.579 703.304 357.715C704.035 360.852 707.71 359.986 708.441 363.122C709.172 366.258 705.497 367.124 706.228 370.26C706.96 373.396 710.654 372.55 711.385 375.686" stroke="#F45197" stroke-width="5" stroke-linecap="round" stroke-linejoin="round"/>
<path d="M741.977 67.6264L454.312 98.6036C452.527 98.7983 450.799 99.348 449.23 100.22C447.66 101.093 446.281 102.27 445.173 103.683C441.851 107.836 438.076 111.605 433.917 114.92C432.133 116.326 430.733 118.16 429.849 120.253C428.964 122.345 428.623 124.627 428.857 126.887L448.694 317.888C449.033 321.218 450.601 324.302 453.091 326.54C455.581 328.777 458.815 330.007 462.162 329.99H716.137C718.082 329.948 719.997 329.504 721.761 328.686C723.526 327.868 725.103 326.694 726.392 325.237C729.987 321.145 733.843 317.288 737.936 313.693C739.438 312.521 740.674 311.044 741.563 309.359C742.452 307.674 742.973 305.82 743.093 303.919L757.023 81.9414C757.162 79.962 756.862 77.9764 756.144 76.1265C755.426 74.2766 754.309 72.6081 752.871 71.2404C751.434 69.8727 749.712 68.8395 747.828 68.2148C745.945 67.59 743.947 67.3891 741.977 67.6264Z" fill="#FFEA22"/>
<path d="M729.492 316.502H475.517C472.17 316.519 468.936 315.289 466.446 313.052C463.956 310.815 462.389 307.73 462.049 304.4L442.347 113.399C441.975 109.851 443.026 106.3 445.27 103.526C447.514 100.752 450.767 98.9817 454.314 98.6036L741.979 67.6264C743.933 67.4116 745.911 67.6273 747.773 68.2584C749.635 68.8895 751.337 69.9207 752.758 71.2794C754.179 72.6382 755.285 74.2916 755.999 76.1235C756.713 77.9555 757.017 79.9215 756.89 81.8836L742.96 303.861C742.749 307.288 741.238 310.505 738.735 312.854C736.231 315.204 732.925 316.509 729.492 316.502Z" fill="white" stroke="#F45197" stroke-width="5" stroke-linejoin="round"/>
<path d="M574.339 157.793C574.339 161.249 573.956 164.316 573.189 166.995C572.421 169.625 571.343 171.887 569.953 173.78C568.61 175.672 566.98 177.217 565.063 178.417C563.193 179.614 561.132 180.509 558.878 181.102V182.542C558.878 183.31 559.046 183.782 559.382 183.957C559.717 184.18 560.149 184.279 560.676 184.252L567.148 183.929C567.675 183.902 568.083 183.978 568.371 184.155C568.706 184.331 568.874 184.61 568.874 184.994V190.898C568.874 191.666 568.323 192.222 567.22 192.565C566.213 192.855 564.967 193.134 563.481 193.4C562.042 193.664 560.628 193.831 559.238 193.9C557.56 193.984 556.002 193.87 554.564 193.558C553.126 193.246 551.855 192.661 550.753 191.804C549.698 190.993 548.859 189.883 548.236 188.474C547.612 187.065 547.301 185.305 547.301 183.193V181.681C545.048 181.314 542.962 180.626 541.045 179.618C539.175 178.607 537.545 177.225 536.155 175.47C534.765 173.716 533.686 171.562 532.919 169.008C532.152 166.406 531.768 163.378 531.768 159.922V151.354C531.768 147.178 532.32 143.598 533.422 140.615C534.525 137.632 536.035 135.18 537.953 133.26C539.87 131.293 542.123 129.836 544.712 128.89C547.301 127.897 550.081 127.326 553.054 127.177C556.026 127.029 558.806 127.322 561.395 128.056C563.984 128.743 566.237 129.974 568.155 131.75C570.072 133.478 571.583 135.779 572.685 138.652C573.788 141.525 574.339 145.049 574.339 149.225V157.793ZM561.971 149.843C561.971 145.475 561.227 142.369 559.741 140.523C558.303 138.675 556.074 137.826 553.054 137.977C550.033 138.128 547.804 139.2 546.366 141.192C544.928 143.184 544.209 146.364 544.209 150.732V159.3C544.209 163.668 544.928 166.776 546.366 168.624C547.804 170.472 550.033 171.32 553.054 171.169C556.074 171.018 558.303 169.947 559.741 167.955C561.227 165.961 561.971 162.779 561.971 158.411V149.843ZM617.862 176.641C617.862 177.025 617.718 177.368 617.431 177.67C617.143 177.973 616.807 178.134 616.424 178.153L608.37 178.556C607.986 178.575 607.651 178.447 607.363 178.174C607.076 177.9 606.932 177.571 606.932 177.187V175.459C604.966 176.95 603.097 178.027 601.323 178.692C599.549 179.309 597.512 179.674 595.21 179.79C592.622 179.919 590.488 179.618 588.81 178.886C587.18 178.103 585.886 176.992 584.927 175.552C584.016 174.109 583.369 172.414 582.986 170.465C582.65 168.466 582.482 166.338 582.482 164.082V140.106C582.482 139.722 582.626 139.379 582.914 139.076C583.249 138.724 583.609 138.538 583.992 138.518L592.694 138.083C593.077 138.064 593.413 138.215 593.7 138.537C593.988 138.811 594.132 139.139 594.132 139.523V163.499C594.132 164.747 594.204 165.8 594.348 166.657C594.491 167.513 594.755 168.196 595.139 168.705C595.522 169.214 596.049 169.572 596.721 169.778C597.44 169.934 598.351 169.984 599.453 169.929C600.508 169.877 601.586 169.607 602.689 169.12C603.792 168.632 604.966 168.022 606.213 167.287V138.919C606.213 138.535 606.357 138.192 606.644 137.89C606.932 137.539 607.267 137.355 607.651 137.335L616.352 136.9C616.736 136.881 617.071 137.032 617.359 137.354C617.694 137.625 617.862 137.953 617.862 138.337V176.641ZM638.738 129.661C638.738 130.045 638.594 130.388 638.307 130.691C638.019 130.993 637.683 131.154 637.3 131.173L627.951 131.64C627.568 131.66 627.232 131.532 626.945 131.259C626.657 130.985 626.513 130.656 626.513 130.272V123.576C626.513 123.192 626.657 122.849 626.945 122.547C627.232 122.244 627.568 122.084 627.951 122.064L637.3 121.597C637.683 121.578 638.019 121.705 638.307 121.979C638.594 122.252 638.738 122.581 638.738 122.965V129.661ZM638.45 175.612C638.45 175.996 638.307 176.339 638.019 176.641C637.731 176.943 637.396 177.104 637.012 177.123L628.239 177.562C627.856 177.581 627.52 177.454 627.232 177.18C626.945 176.907 626.801 176.578 626.801 176.194V137.818C626.801 137.434 626.945 137.091 627.232 136.788C627.52 136.486 627.856 136.325 628.239 136.306L637.012 135.867C637.396 135.848 637.731 135.975 638.019 136.249C638.307 136.523 638.45 136.852 638.45 137.236V175.612ZM676.997 173.684C676.997 174.068 676.853 174.411 676.566 174.714C676.278 175.016 675.942 175.177 675.559 175.196L648.593 176.544C647.921 176.578 647.346 176.391 646.867 175.983C646.387 175.527 646.148 174.963 646.148 174.291V169.683C646.148 169.155 646.219 168.695 646.363 168.304C646.507 167.913 646.771 167.443 647.154 166.896L662.759 144.804C662.903 144.605 662.975 144.433 662.975 144.289C662.975 144.049 662.807 143.938 662.471 143.954L648.017 144.677C647.202 144.718 646.795 144.354 646.795 143.586V136.818C646.795 136.434 646.939 136.091 647.226 135.789C647.514 135.486 647.849 135.326 648.233 135.306L674.48 133.994C675.151 133.96 675.703 134.173 676.134 134.631C676.614 135.087 676.853 135.651 676.853 136.323V141.651C676.853 142.035 676.805 142.446 676.709 142.883C676.614 143.271 676.398 143.714 676.062 144.211L661.177 165.331C661.033 165.578 660.961 165.75 660.961 165.846C660.961 166.038 661.129 166.126 661.464 166.109L675.703 165.397C676.086 165.378 676.398 165.458 676.637 165.638C676.877 165.818 676.997 166.1 676.997 166.484V173.684Z" fill="#00A0D7"/>
<path d="M560.807 249.649C560.807 250.465 560.519 251.175 559.944 251.78C559.417 252.334 558.745 252.632 557.93 252.672L550.667 253.036C549.805 253.079 548.99 253.023 548.222 252.87C547.503 252.666 546.856 251.93 546.281 250.663L530.317 216.397C530.125 216.023 529.909 215.841 529.67 215.853C529.43 215.865 529.31 216.063 529.31 216.447V252.663C529.31 253.047 529.166 253.391 528.879 253.693C528.639 253.993 528.327 254.153 527.944 254.172L521.831 254.477C521.448 254.497 521.112 254.369 520.825 254.096C520.537 253.822 520.393 253.493 520.393 253.109V203.933C520.393 203.117 520.657 202.432 521.184 201.878C521.76 201.273 522.455 200.95 523.27 200.909L531.036 200.521C531.803 200.483 532.402 200.597 532.834 200.863C533.313 201.127 533.769 201.729 534.2 202.667L550.955 238.837C551.099 239.214 551.291 239.396 551.53 239.384C551.77 239.372 551.89 239.15 551.89 238.718V200.846C551.89 199.934 552.345 199.456 553.256 199.41L559.44 199.101C560.351 199.055 560.807 199.489 560.807 200.401V249.649ZM580.792 204.081C580.792 204.465 580.648 204.809 580.36 205.111C580.073 205.413 579.737 205.574 579.353 205.593L572.378 205.942C571.995 205.961 571.635 205.835 571.299 205.564C571.012 205.29 570.868 204.962 570.868 204.578V198.242C570.868 197.858 571.012 197.514 571.299 197.212C571.635 196.907 571.995 196.745 572.378 196.726L579.353 196.377C579.737 196.358 580.073 196.485 580.36 196.759C580.648 197.033 580.792 197.361 580.792 197.745V204.081ZM580.576 250.028C580.576 250.412 580.432 250.779 580.144 251.13C579.857 251.432 579.521 251.593 579.138 251.612L572.522 251.943C572.138 251.962 571.803 251.835 571.515 251.561C571.228 251.24 571.084 250.887 571.084 250.503V212.847C571.084 212.463 571.228 212.12 571.515 211.817C571.803 211.515 572.138 211.354 572.522 211.335L579.138 211.004C579.521 210.985 579.857 211.112 580.144 211.386C580.432 211.659 580.576 211.988 580.576 212.372V250.028ZM625.418 213.658C625.418 214.186 625.322 214.551 625.13 214.752C624.986 214.904 624.698 215.086 624.267 215.3L621.894 216.354C622.469 217.142 622.901 217.984 623.188 218.882C623.524 219.729 623.692 220.776 623.692 222.024V222.528C623.692 227.04 622.206 230.427 619.233 232.687C616.309 234.946 612.114 236.211 606.649 236.485C604.731 236.58 603.125 236.541 601.831 236.365C600.537 236.142 599.53 235.904 598.811 235.652C597.996 236.221 597.588 236.866 597.588 237.586C597.588 238.306 597.78 238.824 598.164 239.141C598.595 239.455 599.218 239.688 600.033 239.839L608.519 241.431C610.964 241.885 613.169 242.351 615.134 242.828C617.148 243.256 618.85 243.842 620.24 244.589C621.63 245.335 622.709 246.314 623.476 247.523C624.243 248.685 624.626 250.226 624.626 252.146V252.65C624.626 256.346 623.212 259.224 620.384 261.286C617.603 263.345 613.145 264.528 607.009 264.835C601.16 265.127 596.725 264.293 593.705 262.332C590.685 260.419 589.175 257.566 589.175 253.774V253.126C589.175 251.638 589.486 250.207 590.11 248.831C590.781 247.406 591.692 246.136 592.842 245.023C591.835 244.305 591.044 243.385 590.469 242.262C589.894 241.09 589.606 239.857 589.606 238.561V238.489C589.606 237.385 589.846 236.293 590.325 235.213C590.805 234.133 591.524 233.233 592.483 232.513C591.38 231.464 590.613 230.278 590.182 228.956C589.75 227.633 589.534 226.06 589.534 224.236V223.732C589.534 221.956 589.846 220.261 590.469 218.646C591.092 216.982 592.075 215.517 593.417 214.25C594.808 212.933 596.582 211.884 598.739 211.104C600.896 210.276 603.533 209.784 606.649 209.629L623.476 208.787C624.003 208.761 624.459 208.93 624.842 209.295C625.226 209.66 625.418 210.106 625.418 210.634V213.658ZM614.343 222.636C614.343 221.772 614.223 220.986 613.984 220.278C613.792 219.519 613.409 218.891 612.833 218.391C612.258 217.844 611.467 217.452 610.46 217.214C609.453 216.928 608.183 216.824 606.649 216.901C605.115 216.977 603.844 217.209 602.838 217.595C601.831 217.933 601.04 218.405 600.465 219.01C599.889 219.566 599.482 220.235 599.242 221.015C599.003 221.747 598.883 222.545 598.883 223.409V223.985C598.883 224.657 598.979 225.324 599.17 225.986C599.362 226.649 599.722 227.255 600.249 227.805C600.824 228.304 601.615 228.696 602.622 228.982C603.629 229.268 604.971 229.368 606.649 229.285C609.621 229.136 611.635 228.555 612.689 227.542C613.792 226.479 614.343 225.036 614.343 223.212V222.636ZM615.134 252.62C615.134 252.236 615.038 251.881 614.847 251.555C614.703 251.226 614.319 250.909 613.696 250.604C613.121 250.297 612.258 250.004 611.107 249.726C610.005 249.397 608.519 249.063 606.649 248.725L600.249 247.533C599.722 248.327 599.29 249.068 598.955 249.757C598.619 250.398 598.451 251.366 598.451 252.662V253.31C598.451 254.03 598.571 254.672 598.811 255.236C599.098 255.846 599.554 256.327 600.177 256.68C600.848 257.079 601.735 257.346 602.838 257.483C603.94 257.668 605.331 257.718 607.009 257.635C608.734 257.548 610.125 257.383 611.179 257.138C612.234 256.893 613.049 256.589 613.624 256.224C614.247 255.857 614.655 255.404 614.847 254.867C615.038 254.377 615.134 253.796 615.134 253.124V252.62ZM665.327 245.791C665.327 246.175 665.183 246.542 664.895 246.892C664.607 247.195 664.272 247.355 663.888 247.375L657.273 247.705C656.889 247.725 656.553 247.597 656.266 247.324C655.978 247.002 655.834 246.649 655.834 246.265V222.577C655.834 220.993 655.739 219.702 655.547 218.704C655.403 217.703 655.115 216.925 654.684 216.371C654.252 215.816 653.653 215.438 652.886 215.237C652.119 215.035 651.136 214.964 649.938 215.024C647.493 215.146 644.712 216.101 641.596 217.889V246.977C641.596 247.361 641.452 247.728 641.165 248.079C640.877 248.381 640.541 248.542 640.158 248.561L633.542 248.892C633.159 248.911 632.823 248.784 632.535 248.51C632.248 248.189 632.104 247.836 632.104 247.452V195.612C632.104 195.228 632.248 194.885 632.535 194.582C632.823 194.28 633.159 194.119 633.542 194.1L640.158 193.769C640.541 193.75 640.877 193.877 641.165 194.151C641.452 194.424 641.596 194.753 641.596 195.137V210.041C642.986 209.156 644.497 208.432 646.127 207.871C647.756 207.309 649.866 206.964 652.455 206.834C654.947 206.71 657.009 207.015 658.639 207.749C660.317 208.481 661.635 209.543 662.594 210.935C663.601 212.325 664.296 213.994 664.679 215.943C665.111 217.841 665.327 219.895 665.327 222.103V245.791ZM695.907 244.55C695.907 245.27 695.452 245.724 694.541 245.914C693.678 246.101 692.839 246.263 692.024 246.4C691.257 246.534 690.466 246.622 689.651 246.662C687.638 246.763 685.888 246.707 684.402 246.493C682.964 246.277 681.789 245.784 680.878 245.013C679.967 244.243 679.296 243.124 678.865 241.658C678.433 240.143 678.218 238.186 678.218 235.786V213.178L671.458 212.508C671.074 212.431 670.739 212.28 670.451 212.054C670.164 211.829 670.02 211.524 670.02 211.14V207.9C670.02 207.516 670.164 207.173 670.451 206.87C670.739 206.568 671.074 206.407 671.458 206.388L678.218 206.05V200.146C678.218 199.762 678.361 199.443 678.649 199.189C678.937 198.934 679.272 198.749 679.656 198.634L686.343 197.148L686.631 197.133C687.398 197.095 687.782 197.436 687.782 198.156V205.572L694.254 205.248C694.637 205.229 694.973 205.356 695.26 205.63C695.548 205.904 695.692 206.232 695.692 206.616V210.864C695.692 211.248 695.548 211.592 695.26 211.894C694.973 212.196 694.637 212.357 694.254 212.376L687.782 212.7V235.308C687.782 236.22 687.806 236.939 687.854 237.464C687.901 237.99 688.021 238.392 688.213 238.67C688.405 238.949 688.668 239.128 689.004 239.207C689.388 239.236 689.915 239.233 690.586 239.2L694.397 239.009C695.404 238.959 695.907 239.294 695.907 240.014V244.55Z" fill="#F45197"/>
</svg>
