<svg width="1195" height="844" viewBox="0 0 1195 844" fill="none" xmlns="http://www.w3.org/2000/svg">
<path d="M0 27C0 12.0883 12.0883 0 27 0H1168C1182.91 0 1195 12.0883 1195 27V817C1195 831.912 1182.91 844 1168 844H27C12.0883 844 0 831.912 0 817V27Z" fill="#F5F5F5"/>
<path d="M426.124 433.45C426.124 433.817 426.024 434.083 425.824 434.25C425.657 434.383 425.391 434.5 425.024 434.6C424.491 434.767 423.557 434.95 422.224 435.15C420.891 435.35 419.341 435.45 417.574 435.45C415.674 435.45 413.824 435.183 412.024 434.65C410.257 434.117 408.691 433.233 407.324 432C405.957 430.733 404.857 429.083 404.024 427.05C403.191 425.017 402.774 422.517 402.774 419.55V413.25C402.774 410.283 403.191 407.783 404.024 405.75C404.857 403.717 405.957 402.083 407.324 400.85C408.691 399.617 410.257 398.733 412.024 398.2C413.824 397.667 415.674 397.4 417.574 397.4C419.341 397.4 420.891 397.5 422.224 397.7C423.557 397.9 424.491 398.083 425.024 398.25C425.391 398.35 425.657 398.467 425.824 398.6C426.024 398.733 426.124 398.983 426.124 399.35V404.2C426.124 404.867 425.807 405.2 425.174 405.2H425.024C424.057 405.133 422.924 405.05 421.624 404.95C420.357 404.85 419.024 404.8 417.624 404.8C416.757 404.8 415.941 404.933 415.174 405.2C414.441 405.433 413.791 405.883 413.224 406.55C412.657 407.183 412.207 408.05 411.874 409.15C411.574 410.217 411.424 411.583 411.424 413.25V419.55C411.424 421.217 411.574 422.6 411.874 423.7C412.207 424.767 412.657 425.633 413.224 426.3C413.791 426.933 414.441 427.383 415.174 427.65C415.941 427.883 416.757 428 417.624 428C419.024 428 420.357 427.95 421.624 427.85C422.924 427.75 424.057 427.667 425.024 427.6H425.174C425.807 427.6 426.124 427.933 426.124 428.6V433.45ZM455.401 422.45C455.401 424.45 455.118 426.25 454.551 427.85C454.018 429.45 453.218 430.817 452.151 431.95C451.118 433.05 449.818 433.917 448.251 434.55C446.718 435.15 444.935 435.45 442.901 435.45C440.868 435.45 439.068 435.15 437.501 434.55C435.968 433.917 434.668 433.05 433.601 431.95C432.535 430.817 431.718 429.45 431.151 427.85C430.618 426.25 430.351 424.45 430.351 422.45V418.95C430.351 416.95 430.618 415.15 431.151 413.55C431.718 411.95 432.535 410.6 433.601 409.5C434.668 408.367 435.968 407.5 437.501 406.9C439.068 406.267 440.868 405.95 442.901 405.95C444.935 405.95 446.718 406.267 448.251 406.9C449.818 407.5 451.118 408.367 452.151 409.5C453.218 410.6 454.018 411.95 454.551 413.55C455.118 415.15 455.401 416.95 455.401 418.95V422.45ZM447.351 418.95C447.351 414.883 445.868 412.85 442.901 412.85C441.435 412.85 440.318 413.367 439.551 414.4C438.785 415.4 438.401 416.917 438.401 418.95V422.45C438.401 424.483 438.785 426.017 439.551 427.05C440.318 428.083 441.435 428.6 442.901 428.6C445.868 428.6 447.351 426.55 447.351 422.45V418.95ZM485.195 433.95C485.195 434.217 485.078 434.467 484.845 434.7C484.645 434.9 484.411 435 484.145 435H478.095C477.828 435 477.595 434.9 477.395 434.7C477.195 434.467 477.095 434.217 477.095 433.95V417.3C477.095 416.433 477.045 415.7 476.945 415.1C476.845 414.5 476.661 414.017 476.395 413.65C476.128 413.283 475.745 413.033 475.245 412.9C474.778 412.733 474.161 412.65 473.395 412.65C472.661 412.65 471.911 412.8 471.145 413.1C470.378 413.4 469.561 413.783 468.695 414.25V433.95C468.695 434.217 468.595 434.467 468.395 434.7C468.195 434.9 467.961 435 467.695 435H461.645C461.378 435 461.128 434.9 460.895 434.7C460.695 434.467 460.595 434.217 460.595 433.95V407.35C460.595 407.083 460.695 406.85 460.895 406.65C461.095 406.45 461.328 406.35 461.595 406.35H467.195C467.461 406.35 467.695 406.45 467.895 406.65C468.095 406.85 468.195 407.083 468.195 407.35V408.55C469.561 407.583 470.861 406.917 472.095 406.55C473.328 406.15 474.745 405.95 476.345 405.95C478.145 405.95 479.611 406.25 480.745 406.85C481.911 407.45 482.811 408.267 483.445 409.3C484.111 410.3 484.561 411.5 484.795 412.9C485.061 414.267 485.195 415.733 485.195 417.3V433.95ZM517.06 410.5C517.06 410.867 516.977 411.117 516.81 411.25C516.677 411.383 516.46 411.5 516.16 411.6L514.61 412.1C514.91 412.567 515.16 413.15 515.36 413.85C515.593 414.55 515.71 415.2 515.71 415.8V416.2C515.71 419.467 514.627 421.85 512.46 423.35C510.327 424.817 507.293 425.55 503.36 425.55C502.193 425.55 501.16 425.483 500.26 425.35C499.36 425.183 498.66 425 498.16 424.8C497.893 424.967 497.71 425.15 497.61 425.35C497.51 425.517 497.46 425.717 497.46 425.95C497.46 426.35 497.56 426.65 497.76 426.85C497.96 427.05 498.36 427.217 498.96 427.35L504.61 428.6C506.777 429.067 508.61 429.533 510.11 430C511.61 430.433 512.81 430.95 513.71 431.55C514.643 432.117 515.31 432.817 515.71 433.65C516.11 434.45 516.31 435.45 516.31 436.65V437.05C516.31 442.483 511.943 445.2 503.21 445.2C499.043 445.2 495.877 444.5 493.71 443.1C491.577 441.7 490.51 439.683 490.51 437.05V436.65C490.51 435.617 490.743 434.633 491.21 433.7C491.677 432.767 492.443 431.883 493.51 431.05C492.61 430.55 491.96 429.867 491.56 429C491.16 428.1 490.96 427.233 490.96 426.4C490.96 425.467 491.16 424.65 491.56 423.95C491.993 423.25 492.527 422.65 493.16 422.15C492.36 421.45 491.777 420.533 491.41 419.4C491.043 418.267 490.86 417.2 490.86 416.2V415.8C490.86 412.967 491.843 410.683 493.81 408.95C495.81 407.217 498.993 406.35 503.36 406.35H515.81C516.177 406.35 516.477 406.483 516.71 406.75C516.943 406.983 517.06 407.283 517.06 407.65V410.5ZM507.81 415.8C507.81 414.767 507.51 413.917 506.91 413.25C506.31 412.55 505.127 412.2 503.36 412.2C501.593 412.2 500.393 412.55 499.76 413.25C499.127 413.917 498.81 414.767 498.81 415.8V416.2C498.81 416.633 498.86 417.067 498.96 417.5C499.093 417.9 499.327 418.267 499.66 418.6C499.993 418.933 500.443 419.2 501.01 419.4C501.61 419.6 502.393 419.7 503.36 419.7C505.127 419.7 506.31 419.383 506.91 418.75C507.51 418.117 507.81 417.267 507.81 416.2V415.8ZM508.06 436.65C508.06 436.417 507.993 436.183 507.86 435.95C507.76 435.75 507.527 435.55 507.16 435.35C506.793 435.15 506.277 434.95 505.61 434.75C504.943 434.55 504.043 434.317 502.91 434.05L499.21 433.25C498.91 433.683 498.66 434.15 498.46 434.65C498.293 435.117 498.21 435.783 498.21 436.65V437.05C498.21 437.917 498.56 438.55 499.26 438.95C499.96 439.383 501.277 439.6 503.21 439.6C504.243 439.6 505.077 439.533 505.71 439.4C506.343 439.3 506.827 439.133 507.16 438.9C507.527 438.667 507.76 438.383 507.86 438.05C507.993 437.75 508.06 437.417 508.06 437.05V436.65ZM536.842 411.7C536.842 411.933 536.775 412.15 536.642 412.35C536.508 412.55 536.325 412.65 536.092 412.65H535.692C534.458 412.65 533.308 412.817 532.242 413.15C531.175 413.483 530.175 413.9 529.242 414.4V433.95C529.242 434.217 529.142 434.467 528.942 434.7C528.742 434.9 528.508 435 528.242 435H522.192C521.925 435 521.675 434.9 521.442 434.7C521.242 434.467 521.142 434.217 521.142 433.95V407.35C521.142 407.083 521.242 406.85 521.442 406.65C521.642 406.45 521.875 406.35 522.142 406.35H528.092C528.358 406.35 528.592 406.45 528.792 406.65C528.992 406.85 529.092 407.083 529.092 407.35V408.35C530.025 407.583 531.075 407 532.242 406.6C533.442 406.167 534.642 405.95 535.842 405.95C536.108 405.95 536.342 406.05 536.542 406.25C536.742 406.45 536.842 406.683 536.842 406.95V411.7ZM561.894 434C561.894 434.267 561.794 434.5 561.594 434.7C561.394 434.9 561.161 435 560.894 435H555.294C555.027 435 554.794 434.9 554.594 434.7C554.394 434.5 554.294 434.267 554.294 434V433.2C553.327 433.9 552.294 434.45 551.194 434.85C550.127 435.25 548.844 435.45 547.344 435.45C546.244 435.45 545.177 435.3 544.144 435C543.144 434.733 542.244 434.267 541.444 433.6C540.644 432.933 539.994 432.05 539.494 430.95C539.027 429.85 538.794 428.483 538.794 426.85V426.4C538.794 423.467 539.761 421.333 541.694 420C543.661 418.633 546.794 417.95 551.094 417.95H553.794V416.15C553.794 414.717 553.461 413.783 552.794 413.35C552.127 412.917 551.211 412.7 550.044 412.7C549.244 412.7 548.427 412.717 547.594 412.75C546.794 412.75 546.011 412.767 545.244 412.8C544.511 412.833 543.844 412.883 543.244 412.95C542.644 412.983 542.144 413.017 541.744 413.05H541.494C541.227 413.05 541.011 412.983 540.844 412.85C540.677 412.717 540.594 412.483 540.594 412.15V408.1C540.594 407.533 540.911 407.167 541.544 407C542.477 406.767 543.727 406.533 545.294 406.3C546.894 406.067 548.527 405.95 550.194 405.95C551.994 405.95 553.611 406.15 555.044 406.55C556.511 406.917 557.744 407.517 558.744 408.35C559.744 409.15 560.511 410.2 561.044 411.5C561.611 412.767 561.894 414.317 561.894 416.15V434ZM553.944 422.75H551.094C550.227 422.75 549.511 422.833 548.944 423C548.377 423.133 547.927 423.35 547.594 423.65C547.261 423.95 547.027 424.333 546.894 424.8C546.761 425.267 546.694 425.8 546.694 426.4V426.85C546.694 427.917 546.944 428.6 547.444 428.9C547.977 429.2 548.777 429.35 549.844 429.35C550.611 429.35 551.327 429.25 551.994 429.05C552.694 428.817 553.344 428.55 553.944 428.25V422.75ZM583.198 434.05C583.198 434.617 582.882 434.95 582.248 435.05C581.482 435.183 580.815 435.283 580.248 435.35C579.682 435.417 579.032 435.45 578.298 435.45C576.932 435.45 575.715 435.333 574.648 435.1C573.615 434.9 572.748 434.483 572.048 433.85C571.348 433.217 570.815 432.35 570.448 431.25C570.082 430.117 569.898 428.667 569.898 426.9V412.4L565.898 411.75C565.632 411.683 565.382 411.567 565.148 411.4C564.948 411.2 564.848 410.967 564.848 410.7V407.4C564.848 407.133 564.948 406.9 565.148 406.7C565.382 406.467 565.632 406.35 565.898 406.35H569.898V402.25C569.898 401.983 569.998 401.767 570.198 401.6C570.398 401.433 570.632 401.317 570.898 401.25L576.998 400.2H577.148C577.415 400.2 577.632 400.283 577.798 400.45C577.965 400.583 578.048 400.783 578.048 401.05V406.35H582.148C582.415 406.35 582.648 406.45 582.848 406.65C583.048 406.85 583.148 407.083 583.148 407.35V411.4C583.148 411.667 583.048 411.9 582.848 412.1C582.648 412.3 582.415 412.4 582.148 412.4H578.048V426.95C578.048 427.95 578.132 428.6 578.298 428.9C578.465 429.167 578.932 429.3 579.698 429.3H582.148C582.848 429.3 583.198 429.583 583.198 430.15V434.05ZM612.343 434C612.343 434.267 612.243 434.5 612.043 434.7C611.843 434.9 611.61 435 611.343 435H605.743C605.476 435 605.243 434.9 605.043 434.7C604.843 434.5 604.743 434.267 604.743 434V432.8C603.376 433.767 602.076 434.45 600.843 434.85C599.61 435.217 598.193 435.4 596.593 435.4C594.793 435.4 593.31 435.117 592.143 434.55C591.01 433.95 590.11 433.133 589.443 432.1C588.81 431.067 588.36 429.867 588.093 428.5C587.86 427.1 587.743 425.617 587.743 424.05V407.4C587.743 407.133 587.843 406.9 588.043 406.7C588.276 406.467 588.526 406.35 588.793 406.35H594.843C595.11 406.35 595.343 406.467 595.543 406.7C595.743 406.9 595.843 407.133 595.843 407.4V424.05C595.843 424.917 595.893 425.65 595.993 426.25C596.093 426.85 596.276 427.333 596.543 427.7C596.81 428.067 597.176 428.333 597.643 428.5C598.143 428.633 598.776 428.7 599.543 428.7C600.276 428.7 601.026 428.55 601.793 428.25C602.56 427.95 603.376 427.567 604.243 427.1V407.4C604.243 407.133 604.343 406.9 604.543 406.7C604.743 406.467 604.976 406.35 605.243 406.35H611.293C611.56 406.35 611.793 406.467 611.993 406.7C612.226 406.9 612.343 407.133 612.343 407.4V434ZM626.458 433.95C626.458 434.217 626.358 434.467 626.158 434.7C625.992 434.9 625.775 435 625.508 435H619.408C619.142 435 618.892 434.9 618.658 434.7C618.458 434.467 618.358 434.217 618.358 433.95V397.65C618.358 397.383 618.458 397.15 618.658 396.95C618.892 396.75 619.142 396.65 619.408 396.65H625.508C625.775 396.65 625.992 396.75 626.158 396.95C626.358 397.15 626.458 397.383 626.458 397.65V433.95ZM654.57 434C654.57 434.267 654.47 434.5 654.27 434.7C654.07 434.9 653.836 435 653.57 435H647.97C647.703 435 647.47 434.9 647.27 434.7C647.07 434.5 646.97 434.267 646.97 434V433.2C646.003 433.9 644.97 434.45 643.87 434.85C642.803 435.25 641.52 435.45 640.02 435.45C638.92 435.45 637.853 435.3 636.82 435C635.82 434.733 634.92 434.267 634.12 433.6C633.32 432.933 632.67 432.05 632.17 430.95C631.703 429.85 631.47 428.483 631.47 426.85V426.4C631.47 423.467 632.436 421.333 634.37 420C636.336 418.633 639.47 417.95 643.77 417.95H646.47V416.15C646.47 414.717 646.136 413.783 645.47 413.35C644.803 412.917 643.886 412.7 642.72 412.7C641.92 412.7 641.103 412.717 640.27 412.75C639.47 412.75 638.686 412.767 637.92 412.8C637.186 412.833 636.52 412.883 635.92 412.95C635.32 412.983 634.82 413.017 634.42 413.05H634.17C633.903 413.05 633.686 412.983 633.52 412.85C633.353 412.717 633.27 412.483 633.27 412.15V408.1C633.27 407.533 633.586 407.167 634.22 407C635.153 406.767 636.403 406.533 637.97 406.3C639.57 406.067 641.203 405.95 642.87 405.95C644.67 405.95 646.286 406.15 647.72 406.55C649.186 406.917 650.42 407.517 651.42 408.35C652.42 409.15 653.186 410.2 653.72 411.5C654.286 412.767 654.57 414.317 654.57 416.15V434ZM646.62 422.75H643.77C642.903 422.75 642.186 422.833 641.62 423C641.053 423.133 640.603 423.35 640.27 423.65C639.936 423.95 639.703 424.333 639.57 424.8C639.436 425.267 639.37 425.8 639.37 426.4V426.85C639.37 427.917 639.62 428.6 640.12 428.9C640.653 429.2 641.453 429.35 642.52 429.35C643.286 429.35 644.003 429.25 644.67 429.05C645.37 428.817 646.02 428.55 646.62 428.25V422.75ZM675.874 434.05C675.874 434.617 675.557 434.95 674.924 435.05C674.157 435.183 673.491 435.283 672.924 435.35C672.357 435.417 671.707 435.45 670.974 435.45C669.607 435.45 668.391 435.333 667.324 435.1C666.291 434.9 665.424 434.483 664.724 433.85C664.024 433.217 663.491 432.35 663.124 431.25C662.757 430.117 662.574 428.667 662.574 426.9V412.4L658.574 411.75C658.307 411.683 658.057 411.567 657.824 411.4C657.624 411.2 657.524 410.967 657.524 410.7V407.4C657.524 407.133 657.624 406.9 657.824 406.7C658.057 406.467 658.307 406.35 658.574 406.35H662.574V402.25C662.574 401.983 662.674 401.767 662.874 401.6C663.074 401.433 663.307 401.317 663.574 401.25L669.674 400.2H669.824C670.091 400.2 670.307 400.283 670.474 400.45C670.641 400.583 670.724 400.783 670.724 401.05V406.35H674.824C675.091 406.35 675.324 406.45 675.524 406.65C675.724 406.85 675.824 407.083 675.824 407.35V411.4C675.824 411.667 675.724 411.9 675.524 412.1C675.324 412.3 675.091 412.4 674.824 412.4H670.724V426.95C670.724 427.95 670.807 428.6 670.974 428.9C671.141 429.167 671.607 429.3 672.374 429.3H674.824C675.524 429.3 675.874 429.583 675.874 430.15V434.05ZM688.919 402.1C688.919 402.367 688.819 402.6 688.619 402.8C688.419 403 688.186 403.1 687.919 403.1H681.419C681.152 403.1 680.919 403 680.719 402.8C680.519 402.6 680.419 402.367 680.419 402.1V397.45C680.419 397.183 680.519 396.95 680.719 396.75C680.919 396.55 681.152 396.45 681.419 396.45H687.919C688.186 396.45 688.419 396.55 688.619 396.75C688.819 396.95 688.919 397.183 688.919 397.45V402.1ZM688.719 434C688.719 434.267 688.619 434.5 688.419 434.7C688.219 434.9 687.986 435 687.719 435H681.619C681.352 435 681.119 434.9 680.919 434.7C680.719 434.5 680.619 434.267 680.619 434V407.35C680.619 407.083 680.719 406.85 680.919 406.65C681.119 406.45 681.352 406.35 681.619 406.35H687.719C687.986 406.35 688.219 406.45 688.419 406.65C688.619 406.85 688.719 407.083 688.719 407.35V434ZM719.171 422.45C719.171 424.45 718.888 426.25 718.321 427.85C717.788 429.45 716.988 430.817 715.921 431.95C714.888 433.05 713.588 433.917 712.021 434.55C710.488 435.15 708.704 435.45 706.671 435.45C704.638 435.45 702.838 435.15 701.271 434.55C699.738 433.917 698.438 433.05 697.371 431.95C696.304 430.817 695.488 429.45 694.921 427.85C694.388 426.25 694.121 424.45 694.121 422.45V418.95C694.121 416.95 694.388 415.15 694.921 413.55C695.488 411.95 696.304 410.6 697.371 409.5C698.438 408.367 699.738 407.5 701.271 406.9C702.838 406.267 704.638 405.95 706.671 405.95C708.704 405.95 710.488 406.267 712.021 406.9C713.588 407.5 714.888 408.367 715.921 409.5C716.988 410.6 717.788 411.95 718.321 413.55C718.888 415.15 719.171 416.95 719.171 418.95V422.45ZM711.121 418.95C711.121 414.883 709.638 412.85 706.671 412.85C705.204 412.85 704.088 413.367 703.321 414.4C702.554 415.4 702.171 416.917 702.171 418.95V422.45C702.171 424.483 702.554 426.017 703.321 427.05C704.088 428.083 705.204 428.6 706.671 428.6C709.638 428.6 711.121 426.55 711.121 422.45V418.95ZM748.964 433.95C748.964 434.217 748.848 434.467 748.614 434.7C748.414 434.9 748.181 435 747.914 435H741.864C741.598 435 741.364 434.9 741.164 434.7C740.964 434.467 740.864 434.217 740.864 433.95V417.3C740.864 416.433 740.814 415.7 740.714 415.1C740.614 414.5 740.431 414.017 740.164 413.65C739.898 413.283 739.514 413.033 739.014 412.9C738.548 412.733 737.931 412.65 737.164 412.65C736.431 412.65 735.681 412.8 734.914 413.1C734.148 413.4 733.331 413.783 732.464 414.25V433.95C732.464 434.217 732.364 434.467 732.164 434.7C731.964 434.9 731.731 435 731.464 435H725.414C725.148 435 724.898 434.9 724.664 434.7C724.464 434.467 724.364 434.217 724.364 433.95V407.35C724.364 407.083 724.464 406.85 724.664 406.65C724.864 406.45 725.098 406.35 725.364 406.35H730.964C731.231 406.35 731.464 406.45 731.664 406.65C731.864 406.85 731.964 407.083 731.964 407.35V408.55C733.331 407.583 734.631 406.917 735.864 406.55C737.098 406.15 738.514 405.95 740.114 405.95C741.914 405.95 743.381 406.25 744.514 406.85C745.681 407.45 746.581 408.267 747.214 409.3C747.881 410.3 748.331 411.5 748.564 412.9C748.831 414.267 748.964 415.733 748.964 417.3V433.95ZM775.029 427.05C775.029 428.217 774.813 429.317 774.379 430.35C773.946 431.383 773.279 432.283 772.379 433.05C771.513 433.783 770.413 434.367 769.079 434.8C767.746 435.233 766.163 435.45 764.329 435.45C763.629 435.45 762.879 435.417 762.079 435.35C761.313 435.317 760.513 435.25 759.679 435.15C758.879 435.05 758.096 434.933 757.329 434.8C756.563 434.667 755.863 434.517 755.229 434.35C754.596 434.183 754.279 433.8 754.279 433.2V429.15C754.279 428.883 754.363 428.667 754.529 428.5C754.696 428.3 754.929 428.2 755.229 428.2H755.429C756.096 428.3 756.829 428.4 757.629 428.5C758.463 428.567 759.279 428.633 760.079 428.7C760.879 428.767 761.613 428.817 762.279 428.85C762.979 428.883 763.529 428.9 763.929 428.9C765.129 428.9 765.913 428.75 766.279 428.45C766.679 428.117 766.879 427.617 766.879 426.95C766.879 426.583 766.746 426.25 766.479 425.95C766.213 425.617 765.729 425.25 765.029 424.85L758.529 421.1C757.129 420.3 756.029 419.283 755.229 418.05C754.463 416.783 754.079 415.333 754.079 413.7C754.079 411.167 754.913 409.25 756.579 407.95C758.279 406.617 760.863 405.95 764.329 405.95C766.296 405.95 767.946 406.067 769.279 406.3C770.646 406.5 771.963 406.767 773.229 407.1C773.863 407.267 774.179 407.65 774.179 408.25V412.3C774.179 412.933 773.896 413.25 773.329 413.25H773.179C772.813 413.217 772.296 413.167 771.629 413.1C770.963 413 770.229 412.917 769.429 412.85C768.663 412.783 767.863 412.733 767.029 412.7C766.229 412.633 765.513 412.6 764.879 412.6C763.913 412.6 763.229 412.7 762.829 412.9C762.429 413.1 762.229 413.483 762.229 414.05C762.229 414.417 762.363 414.733 762.629 415C762.896 415.233 763.279 415.5 763.779 415.8L769.979 419.35C771.013 419.95 771.846 420.567 772.479 421.2C773.146 421.8 773.663 422.433 774.029 423.1C774.429 423.733 774.696 424.383 774.829 425.05C774.963 425.717 775.029 426.383 775.029 427.05ZM790.676 397.65L789.676 422.6C789.676 422.867 789.576 423.117 789.376 423.35C789.176 423.55 788.943 423.65 788.676 423.65H784.426C784.159 423.65 783.909 423.55 783.676 423.35C783.443 423.117 783.326 422.867 783.326 422.6L782.326 397.65V397.6C782.326 397.333 782.443 397.117 782.676 396.95C782.909 396.75 783.159 396.65 783.426 396.65H789.676C789.943 396.65 790.176 396.75 790.376 396.95C790.576 397.117 790.676 397.333 790.676 397.6V397.65ZM790.426 434C790.426 434.267 790.326 434.5 790.126 434.7C789.959 434.9 789.743 435 789.476 435H783.576C783.309 435 783.076 434.9 782.876 434.7C782.676 434.5 782.576 434.267 782.576 434V427.7C782.576 427.433 782.676 427.217 782.876 427.05C783.076 426.85 783.309 426.75 783.576 426.75H789.476C790.109 426.75 790.426 427.067 790.426 427.7V434Z" fill="#F45197"/>
</svg>
