<svg width="58" height="129" viewBox="0 0 58 129" fill="none" xmlns="http://www.w3.org/2000/svg">
<path d="M23.84 20.4831C21.0554 49.7104 27.4492 79.5695 41.7469 105.198C45.7738 112.406 50.4004 119.271 55.6162 125.665C56.912 127.25 54.6523 129.542 53.3457 127.935C43.846 116.294 36.2206 103.26 30.6514 89.3048C25.1037 75.4248 21.6659 60.7308 20.4449 45.8334C19.7595 37.394 19.813 28.9118 20.6163 20.4831C20.8198 18.4376 24.0434 18.4161 23.84 20.4831Z" fill="#EAA737"/>
<path d="M30.6411 10.1903C33.3185 7.44852 33.8754 7.59846 36.1245 3.49658C34.85 7.23433 35.1178 13.521 33.2328 16.991C30.7482 21.5641 26.3785 25.409 22.2766 25.409C22.2766 22.0782 22.4266 18.8117 22.9621 16.7447C23.6689 14.0137 28.6812 12.2037 30.6411 10.1903Z" fill="#EAA737"/>
<path d="M25.4355 27.98C29.6017 23.8031 35.8883 22.8178 40.1509 18.748C39.0049 33.6883 24.9857 39.4609 21.7727 39.3753C21.1409 39.3645 22.501 30.9252 25.4355 27.98Z" fill="#EAA737"/>
<path d="M19.1172 8.33791C17.4358 4.88933 16.8682 4.8572 16.0221 0.251953C16.0542 4.2039 13.8159 10.0836 14.512 13.9713C15.433 19.1013 18.3675 24.1135 22.2659 25.4094C23.3155 22.25 24.2044 19.1013 24.3437 16.9701C24.5364 14.1534 20.3489 10.8547 19.1172 8.33791Z" fill="#EAA737"/>
<path d="M35.332 39.054C39.0483 35.9695 39.723 36.2266 43.0859 31.375C40.9868 35.8946 40.5156 43.8092 37.6989 47.9218C33.9825 53.3302 28.0064 57.5713 22.855 57.0359C23.2941 52.8697 23.9046 48.7893 24.847 46.2724C26.0894 42.931 32.601 41.3138 35.332 39.054Z" fill="#EAA737"/>
<path d="M8.40701 40.1035C4.43365 37.3618 3.79106 37.6724 0.0104733 33.1421C2.49516 37.4689 3.66254 45.2978 6.83266 49.1426C11.0095 54.2084 17.3283 57.9033 22.4155 56.918C21.6123 52.8054 20.6484 48.7892 19.481 46.3688C17.9388 43.1558 11.3094 42.117 8.40701 40.1035Z" fill="#EAA737"/>
<path d="M42.2608 71.3976C45.3666 68.8165 45.9342 69.0307 48.7402 64.9717C46.9838 68.7523 46.5876 75.371 44.2314 78.8088C41.1255 83.3391 36.124 86.8841 31.8186 86.4343C32.1828 82.9428 32.6968 79.5371 33.4894 77.4273C34.5282 74.6427 39.9796 73.2933 42.2608 71.3976Z" fill="#EAA737"/>
<path d="M52.2104 100.518C54.6844 98.4615 55.1342 98.6328 57.3726 95.3984C55.9803 98.4079 55.659 103.688 53.7848 106.419C51.3108 110.028 47.3267 112.856 43.8995 112.491C44.1887 109.718 44.5957 106.997 45.2276 105.316C46.0522 103.099 50.3897 102.017 52.2104 100.518Z" fill="#EAA737"/>
<path d="M13.2377 74.3212C9.08232 73.2395 8.64321 73.7001 4.11294 71.0654C7.49726 73.9143 10.8709 80.0939 14.6836 82.3429C19.7065 85.2988 26.111 86.4555 30.0522 84.0779C28.1352 80.8864 26.1003 77.8341 24.3974 76.1633C22.1269 73.9571 16.2794 75.1138 13.2377 74.3212Z" fill="#EAA737"/>
<path d="M29.3443 108.529C25.9172 108.507 25.6708 108.947 21.6439 107.79C24.8248 109.332 28.6268 113.466 32.0218 114.451C36.4878 115.758 41.6714 115.405 44.2632 112.802C42.1533 110.703 39.9899 108.743 38.3406 107.779C36.1558 106.515 31.8504 108.54 29.3443 108.529Z" fill="#EAA737"/>
<path d="M17.5533 27.98C13.3872 23.8031 7.10052 22.8178 2.83799 18.748C3.98394 33.6883 18.0032 39.4609 21.2161 39.3753C21.848 39.3645 20.4879 30.9252 17.5533 27.98Z" fill="#EAA737"/>
<path d="M30.9513 60.2703C35.2246 55.9863 41.6719 54.9796 46.0522 50.8027C44.8742 66.1393 30.4908 72.0511 27.1922 71.9654C26.5389 71.944 27.9419 63.2797 30.9513 60.2703Z" fill="#EAA737"/>
<path d="M17.3926 59.2744C11.9306 56.6612 5.5261 57.8607 -0.000192642 55.376C6.22224 69.438 21.7516 70.2306 24.836 69.0418C25.4358 68.8169 21.2375 61.1165 17.3926 59.2744Z" fill="#EAA737"/>
<path d="M40.1404 91.95C43.5997 88.4908 48.8154 87.6661 52.3604 84.2925C51.4072 96.6945 39.7763 101.482 37.0988 101.418C36.574 101.396 37.6985 94.3812 40.1404 91.95Z" fill="#EAA737"/>
<path d="M28.5632 92.8501C23.626 91.822 18.6673 94.0604 13.7086 93.15C21.5375 103.303 34.2716 100.85 36.5314 99.2761C36.9812 98.9762 32.0439 93.5784 28.5632 92.8501Z" fill="#EAA737"/>
</svg>
