<svg width="58" height="129" viewBox="0 0 58 129" fill="none" xmlns="http://www.w3.org/2000/svg">
<path d="M34.1596 20.2317C36.9443 49.4599 30.5503 79.32 16.2521 104.95C12.2251 112.158 7.59827 119.023 2.3824 125.417C1.08646 127.002 3.34632 129.294 4.65296 127.687C14.1529 116.045 21.7786 103.011 27.3479 89.0556C32.8958 75.1752 36.3338 60.4807 37.5548 45.5828C38.2402 37.1432 38.1867 28.6607 37.3834 20.2317C37.1799 18.1861 33.9561 18.1647 34.1596 20.2317Z" fill="#EAA737"/>
<path d="M27.3586 9.939C24.6811 7.19719 24.1241 7.34713 21.875 3.24512C23.1495 6.98298 22.8818 13.2699 24.7668 16.74C27.2515 21.3133 31.6213 25.1582 35.7233 25.1582C35.7233 21.8273 35.5734 18.5607 35.0379 16.4937C34.331 13.7626 29.3186 11.9525 27.3586 9.939Z" fill="#EAA737"/>
<path d="M32.564 27.7288C28.3977 23.5518 22.1108 22.5665 17.8481 18.4966C18.9941 33.4373 33.0138 39.2101 36.2269 39.1245C36.8588 39.1138 35.4986 30.6741 32.564 27.7288Z" fill="#EAA737"/>
<path d="M38.8829 8.08622C40.5644 4.63753 41.1321 4.60539 41.9782 0C41.9461 3.95207 44.1845 9.83198 43.4883 13.7198C42.5673 18.85 39.6326 23.8624 35.7341 25.1583C34.6845 21.9988 33.7956 18.85 33.6563 16.7187C33.4636 13.9019 37.6513 10.6031 38.8829 8.08622Z" fill="#EAA737"/>
<path d="M22.6673 38.8033C18.9508 35.7187 18.2761 35.9758 14.9131 31.124C17.0123 35.6437 17.4835 43.5586 20.3003 47.6713C24.0168 53.08 29.9931 57.3212 35.1447 56.7857C34.7056 52.6194 34.0951 48.5388 33.1526 46.0219C31.9102 42.6804 25.3984 41.0631 22.6673 38.8033Z" fill="#EAA737"/>
<path d="M49.593 39.8528C53.5664 37.1109 54.2091 37.4215 57.9898 32.8911C55.505 37.218 54.3376 45.0472 51.1674 48.8922C46.9904 53.9581 40.6713 57.6531 35.584 56.6678C36.3873 52.5551 37.3512 48.5387 38.5186 46.1182C40.0609 42.9052 46.6905 41.8663 49.593 39.8528Z" fill="#EAA737"/>
<path d="M15.7385 71.1483C12.6325 68.5671 12.0649 68.7813 9.25879 64.7222C11.0153 68.5029 11.4115 75.1218 13.7678 78.5598C16.8738 83.0902 21.8754 86.6353 26.1809 86.1854C25.8168 82.6939 25.3027 79.2881 24.5101 77.1782C23.4713 74.3935 18.0197 73.044 15.7385 71.1483Z" fill="#EAA737"/>
<path d="M5.7883 100.269C3.31424 98.2125 2.86441 98.3839 0.625977 95.1494C2.01831 98.159 2.33961 103.439 4.2139 106.17C6.68796 109.78 10.6722 112.607 14.0994 112.243C13.8103 109.469 13.4033 106.749 12.7714 105.067C11.9467 102.85 7.60904 101.768 5.7883 100.269Z" fill="#EAA737"/>
<path d="M44.7623 74.0718C48.9179 72.9901 49.357 73.4506 53.8874 70.8159C50.503 73.6648 47.1293 79.8446 43.3164 82.0938C38.2933 85.0498 31.8886 86.2065 27.9473 83.8288C29.8644 80.6372 31.8993 77.5848 33.6023 75.914C35.8728 73.7077 41.7206 74.8644 44.7623 74.0718Z" fill="#EAA737"/>
<path d="M28.6552 108.28C32.0824 108.259 32.3288 108.698 36.3558 107.541C33.1749 109.084 29.3728 113.218 25.9776 114.203C21.5115 115.51 16.3277 115.156 13.7358 112.554C15.8458 110.454 18.0092 108.495 19.6586 107.531C21.8435 106.267 26.149 108.291 28.6552 108.28Z" fill="#EAA737"/>
<path d="M40.4468 27.7288C44.6131 23.5518 50.8999 22.5665 55.1626 18.4966C54.0166 33.4373 39.9969 39.2101 36.7839 39.1245C36.152 39.1138 37.5122 30.6741 40.4468 27.7288Z" fill="#EAA737"/>
<path d="M27.0482 60.0201C22.7748 55.736 16.3273 54.7292 11.9468 50.5522C13.1249 65.8893 27.5087 71.8013 30.8075 71.7156C31.4608 71.6942 30.0578 63.0297 27.0482 60.0201Z" fill="#EAA737"/>
<path d="M40.6071 59.024C46.0693 56.4107 52.474 57.6103 58.0005 55.1255C51.7779 69.188 36.2481 69.9806 33.1635 68.7917C32.5637 68.5668 36.7621 60.8662 40.6071 59.024Z" fill="#EAA737"/>
<path d="M17.859 91.7013C14.3996 88.2419 9.18375 87.4172 5.63867 84.0435C6.59188 96.4459 18.2232 101.233 20.9007 101.169C21.4255 101.148 20.301 94.1325 17.859 91.7013Z" fill="#EAA737"/>
<path d="M29.4365 92.6011C34.374 91.5729 39.3328 93.8114 44.2916 92.901C36.4625 103.054 23.728 100.602 21.4681 99.0273C21.0183 98.7274 25.9557 93.3294 29.4365 92.6011Z" fill="#EAA737"/>
</svg>
