<svg width="376" height="292" viewBox="0 0 376 292" fill="none" xmlns="http://www.w3.org/2000/svg">
<path d="M202.954 42.3507L207.832 47.9208C208.193 48.0593 208.488 47.8384 209.221 47.2977C210.535 46.3317 211.851 45.3657 213.196 44.4459C213.408 44.3008 213.844 44.2958 214.084 44.4129C215.522 45.1085 216.916 45.8915 218.36 46.5724C218.807 46.7834 219.003 46.963 219.005 47.484C219.008 49.5676 219.071 51.6512 219.11 53.7118C220.907 54.3283 225.586 54.6926 227.188 54.325C227.506 52.365 227.862 50.3687 228.137 48.3609C228.223 47.7362 228.421 47.5136 229.064 47.3504C230.556 46.9713 232.018 46.4553 233.46 45.913C234.044 45.6937 234.436 45.6261 234.929 46.1256C236.206 47.418 237.563 48.6313 238.864 49.9022C239.213 50.2435 239.515 50.3259 239.887 50.0028C241.646 48.4879 243.402 46.9696 245.159 45.4531C245.591 45.0805 245.256 44.7706 245.055 44.4854C244.043 43.0397 243.039 41.5874 241.979 40.1764C241.582 39.6472 241.579 39.2681 241.917 38.6878C242.812 37.1515 243.608 35.5574 244.508 33.8661C246.564 33.8183 248.832 33.7656 251.165 33.7112C251.807 31.0753 251.956 28.4312 251.69 25.6733C249.457 25.3024 247.223 24.9299 245.253 24.6018C244.539 22.6022 243.918 20.7362 243.191 18.9114C242.98 18.3839 243.056 18.1201 243.418 17.7509C244.673 16.4717 245.886 15.1529 247.132 13.8655C247.401 13.5869 247.561 13.3594 247.314 12.9753C246.061 11.0351 244.661 9.22507 242.876 7.73157C242.477 7.39858 242.208 7.44639 241.836 7.71344C240.334 8.78493 238.813 9.8284 237.316 10.9048C236.953 11.1653 236.713 11.2197 236.264 10.984C234.711 10.1663 233.122 9.41299 231.517 8.70416C231.106 8.52283 231.035 8.31183 231.027 7.93763C230.979 5.85399 230.915 3.77034 230.856 1.63395C228.228 1.0537 225.622 0.781704 222.913 1.03227C222.534 3.31043 222.158 5.57375 221.797 7.73981C219.691 8.43546 217.65 9.10968 215.466 9.8317C214.305 8.73548 212.978 7.46287 211.63 6.21335C210.524 5.18801 210.801 5.11053 209.482 6.04191C209.357 6.13093 209.198 6.17379 209.055 6.23808C208.008 7.15461 206.963 8.07115 205.916 8.98604C205.722 9.23166 205.559 9.51519 205.324 9.71466C204.714 10.2323 204.634 10.6889 205.165 11.3796C206.271 12.8187 207.288 14.3287 208.305 15.8337C208.438 16.0315 208.463 16.4189 208.361 16.6381C207.701 18.0641 206.917 19.4356 206.333 20.8895C206.048 21.6016 205.705 21.7615 205.01 21.7648C203.035 21.7747 201.062 21.8654 198.889 21.9313C198.684 24.6216 198.485 27.2459 198.284 29.8999C198.78 29.9922 199.065 30.0499 199.352 30.0977C201.119 30.3912 202.883 30.7011 204.653 30.9632C205.156 31.0374 205.323 31.2649 205.476 31.7363C205.999 33.3567 206.625 34.9425 207.159 36.558C207.242 36.8086 207.141 37.2372 206.963 37.4366C205.982 38.5296 204.94 39.5697 203.938 40.6429C203.125 41.51 202.827 41.8347 202.954 42.3507ZM216.123 35.4931C211.763 30.5148 212.266 22.9451 217.243 18.585C222.221 14.2248 229.791 14.7276 234.151 19.7059C238.511 24.6842 238.008 32.2539 233.03 36.6141C228.052 40.9726 220.482 40.4714 216.123 35.4931Z" fill="#FFEA22"/>
<path d="M222.175 62.9679L212.902 72.4086C212.705 73.0713 213.138 73.5658 214.2 74.8038C216.097 77.016 217.996 79.2299 219.814 81.5064C220.101 81.8641 220.167 82.6406 219.991 83.0856C218.944 85.7396 217.736 88.331 216.715 90.9949C216.399 91.8208 216.107 92.1933 215.177 92.2659C211.465 92.551 207.759 92.9417 204.091 93.2895C203.234 96.5749 203.213 104.962 204.081 107.768C207.617 108.073 211.224 108.439 214.839 108.661C215.965 108.731 216.389 109.054 216.766 110.178C217.642 112.786 218.758 115.323 219.918 117.822C220.388 118.834 220.559 119.523 219.737 120.469C217.605 122.92 215.624 125.5 213.534 127.988C212.972 128.657 212.868 129.204 213.491 129.827C216.427 132.758 219.368 135.684 222.305 138.615C223.027 139.336 223.533 138.696 224.016 138.302C226.458 136.306 228.912 134.321 231.284 132.244C232.174 131.464 232.849 131.408 233.928 131.933C236.787 133.324 239.734 134.527 242.871 135.904C243.232 139.56 243.629 143.597 244.038 147.746C248.822 148.539 253.555 148.45 258.436 147.606C258.799 143.576 259.161 139.543 259.481 135.989C262.949 134.448 266.193 133.09 269.347 131.55C270.26 131.103 270.74 131.204 271.444 131.799C273.892 133.863 276.404 135.851 278.867 137.897C279.399 138.338 279.826 138.594 280.477 138.101C283.768 135.609 286.806 132.872 289.229 129.49C289.77 128.736 289.646 128.261 289.122 127.632C287.01 125.1 284.948 122.526 282.826 120.003C282.312 119.391 282.185 118.969 282.544 118.14C283.794 115.263 284.922 112.327 285.972 109.37C286.24 108.615 286.606 108.459 287.272 108.394C290.98 108.028 294.685 107.636 298.485 107.244C299.166 102.481 299.303 97.8014 298.492 93.006C294.38 92.6351 290.295 92.2675 286.385 91.9164C284.862 88.2535 283.387 84.7077 281.809 80.9113C283.608 78.6975 285.696 76.1605 287.744 73.5906C289.423 71.4805 289.597 71.9652 287.762 69.7381C287.587 69.5255 287.488 69.2502 287.355 69.0029C285.581 67.2605 283.809 65.5181 282.035 63.7773C281.572 63.4625 281.044 63.2119 280.659 62.8212C279.653 61.8041 278.83 61.7217 277.67 62.7602C275.253 64.9247 272.698 66.9391 270.153 68.9551C269.82 69.2189 269.129 69.3145 268.727 69.1628C266.098 68.1787 263.546 66.9621 260.876 66.1198C259.568 65.7077 259.239 65.1175 259.138 63.8762C258.856 60.3584 258.429 56.8522 258.022 52.9899C253.199 52.9866 248.496 52.9833 243.738 52.98C243.641 53.8767 243.575 54.3927 243.529 54.9087C243.242 58.0968 242.927 61.2832 242.698 64.4746C242.632 65.3813 242.251 65.7093 241.43 66.0423C238.613 67.1913 235.87 68.5199 233.061 69.687C232.626 69.8684 231.848 69.7464 231.467 69.4546C229.387 67.8523 227.396 66.1363 225.346 64.4928C223.698 63.1608 223.077 62.6729 222.175 62.9679ZM236.162 85.5204C244.45 77.082 258.011 76.9616 266.447 85.25C274.886 93.5385 275.006 107.099 266.718 115.535C258.429 123.974 244.869 124.094 236.432 115.806C227.994 107.517 227.874 93.9588 236.162 85.5204Z" fill="#F45197"/>
<path d="M241.379 33.4096C241.369 33.4063 241.358 33.403 241.348 33.398C241.048 33.2892 240.743 33.1936 240.433 33.1046C240.328 33.0733 240.222 33.042 240.117 33.0139C240.004 32.9843 239.892 32.9579 239.779 32.9315C239.665 32.9035 239.549 32.8771 239.434 32.8524C239.325 32.8293 239.215 32.8079 239.106 32.7865C238.982 32.7634 238.86 32.7403 238.735 32.7205C238.63 32.7024 238.524 32.6859 238.419 32.6711C238.285 32.6513 238.15 32.6348 238.015 32.62C237.916 32.6084 237.819 32.5969 237.72 32.587C237.565 32.5722 237.41 32.5623 237.255 32.5507C237.172 32.5458 237.092 32.5392 237.009 32.5342C236.77 32.5227 236.53 32.5161 236.287 32.5161H125.345C125.086 32.5161 124.831 32.5227 124.575 32.5359C124.066 32.5623 123.561 32.6134 123.067 32.6892C122.819 32.7271 122.574 32.7716 122.33 32.8211C116 34.1201 111.125 39.4314 110.463 45.9922C110.412 46.4966 110.385 47.0093 110.385 47.5269V232.775V275.038C110.385 281.534 114.498 287.065 120.254 289.155C120.279 289.165 120.306 289.172 120.332 289.182C120.617 289.284 120.907 289.374 121.201 289.46C121.306 289.491 121.412 289.523 121.519 289.551C121.631 289.58 121.743 289.607 121.857 289.633C121.97 289.661 122.086 289.688 122.201 289.712C122.31 289.735 122.419 289.757 122.529 289.778C122.653 289.801 122.777 289.824 122.9 289.844C123.006 289.862 123.111 289.879 123.217 289.894C123.35 289.913 123.485 289.93 123.621 289.945C123.719 289.956 123.817 289.968 123.916 289.978C124.071 289.993 124.226 290.004 124.38 290.014C124.463 290.019 124.544 290.025 124.626 290.03C124.865 290.042 125.106 290.049 125.348 290.049H236.292C236.808 290.049 237.319 290.022 237.822 289.971C244.862 289.254 250.461 283.638 251.174 276.573C251.225 276.068 251.252 275.555 251.252 275.038V89.7915V47.5286C251.249 41.032 247.136 35.4998 241.379 33.4096Z" fill="black"/>
<path d="M243.995 52.9751H117.637V269.59H243.995V52.9751Z" fill="white"/>
<path opacity="0.2" d="M213.131 159.058C230.847 141.342 230.847 112.619 213.131 94.9026C195.414 77.1865 166.691 77.1865 148.975 94.9026C131.259 112.619 131.259 141.342 148.975 159.058C166.691 176.774 195.414 176.774 213.131 159.058Z" fill="#00A0D7"/>
<path opacity="0.3" d="M206.597 46.1684H155.241C154.491 46.1684 153.885 45.5602 153.885 44.8118C153.885 44.0617 154.493 43.4551 155.241 43.4551H206.597C207.347 43.4551 207.954 44.0634 207.954 44.8118C207.955 45.5602 207.347 46.1684 206.597 46.1684Z" fill="#00A0D7"/>
<path opacity="0.2" d="M209.304 155.232C224.907 139.629 224.907 114.332 209.304 98.7294C193.701 83.1267 168.404 83.1267 152.802 98.7294C137.199 114.332 137.199 139.629 152.802 155.232C168.404 170.834 193.701 170.834 209.304 155.232Z" fill="#00A0D7"/>
<path opacity="0.2" d="M204.268 150.196C217.09 137.374 217.09 116.586 204.268 103.765C191.447 90.9432 170.659 90.9432 157.837 103.765C145.015 116.586 145.015 137.374 157.837 150.196C170.659 163.018 191.447 163.018 204.268 150.196Z" fill="#00A0D7"/>
<path opacity="0.3" d="M186.951 280.026C186.951 283.464 184.173 286.253 180.744 286.253C177.316 286.253 174.538 283.466 174.538 280.026C174.538 276.585 177.316 273.799 180.744 273.799C184.173 273.799 186.951 276.587 186.951 280.026Z" fill="#00A0D7"/>
<path opacity="0.2" d="M243.995 260.501H117.637V269.589H243.995V260.501Z" fill="#00A0D7"/>
<path opacity="0.2" d="M243.995 52.9751H117.637V64.4697H243.995V52.9751Z" fill="#00A0D7"/>
<path d="M91.7906 175.511L92.234 175.908C92.4615 176.113 92.8044 176.104 93.0005 175.888L100.864 167.214C101.058 166.998 101.032 166.659 100.804 166.454L100.361 166.057C100.133 165.853 99.7905 165.861 99.5943 166.077L91.7312 174.751C91.5351 174.965 91.5631 175.307 91.7906 175.511Z" fill="black"/>
<path d="M65.1318 168.464C66.1835 167.607 74.3104 171.186 74.2065 172.43C74.1027 173.677 79.8772 185.753 79.8772 185.753L89.8553 177.77L89.8586 177.771C89.9476 177.483 90.8922 174.377 90.9383 173.822C90.9861 173.24 92.6725 172.219 93.4555 172.369C94.2385 172.519 92.7862 173.505 92.6906 173.686C92.4302 174.179 93.4341 174.364 93.4341 174.364C93.4341 174.364 96.3172 172.776 96.3782 171.842C96.4392 170.909 97.0343 168.95 97.6574 169.361C97.9789 169.572 97.9756 170.962 97.875 171.619C98.0596 170.871 98.3217 170.027 98.5772 169.943C99.0438 169.789 99.2762 170.385 99.1905 170.678C99.1064 170.97 98.3531 174.146 98.1239 174.502C97.8997 174.852 93.2445 178.615 92.5736 179.433C92.5736 179.433 79.6662 194.238 78.748 194.625C77.9419 194.965 75.067 189.863 72.3504 186.475C69.6387 183.091 61.8481 171.145 65.1318 168.464Z" fill="#F7A491"/>
<path d="M39.088 277.329C39.088 277.329 37.3143 279.065 37.2747 279.703C37.2352 280.341 37.1181 287.167 37.8418 287.805C38.5655 288.443 40.692 288.895 40.0095 289.612C39.4935 290.154 35.5175 290.037 32.8816 289.892C32.1118 289.849 31.1474 283.692 30.8425 282.787C30.4007 281.474 29.3242 278.511 29.7265 277.596C29.9226 277.15 30.8606 276.233 32.181 275.376C33.5707 274.476 34.901 272.47 34.901 272.47L39.088 277.329Z" fill="#F79C8D"/>
<path d="M57.4616 281.373C57.4616 281.373 55.8741 285.872 55.8725 285.883C55.7538 286.595 55.2906 288.358 55.2906 289.005C55.2906 291.44 66.2314 286.938 63.7801 285.86C63.5576 285.763 62.8619 284.983 62.7894 284.154C62.6773 282.878 63.7109 281.276 63.7109 281.276L57.4616 281.373Z" fill="#F7A491"/>
<path d="M74.6253 197.594C74.6253 197.594 75.4232 205.66 75.4232 205.78C75.4232 218.828 78.0014 244.313 77.5101 246.766C76.315 252.748 63.4439 283.269 63.4439 283.269L56.4874 282.435L65.5523 245.892L62.2158 231.183L57.4963 202.109L74.6253 197.594Z" fill="black"/>
<path d="M51.28 204.729L49.9596 212.373L46.389 243.835L32.7893 274.584C32.7893 274.584 34.7032 279.057 37.5253 279.686L59.1711 248.116L72.6175 207.721L72.1461 198.747L51.28 204.729Z" fill="black"/>
<path d="M77.3996 178.389L67.7545 179.376C67.7545 179.376 67.3127 171.442 67.3127 167.658C67.3127 163.065 67.7018 157.15 68.2557 157.279C69.8069 157.637 71.8954 158.495 73.14 160.21C77.4408 166.143 77.3996 178.389 77.3996 178.389Z" fill="#F45197"/>
<path d="M72.662 166.848C72.8647 168.248 76.5721 206.31 76.5721 206.31C59.0095 214.821 49.3183 207.827 49.3183 207.827C49.3183 207.827 49.8936 181.099 49.2045 177.461C48.7496 175.054 48.1808 159.061 49.7353 158.613C51.7299 158.037 54.0164 157.427 56.5105 157.169C58.6386 156.948 66.9056 156.819 68.3842 157.317C68.381 157.315 71.8114 160.96 72.662 166.848Z" fill="#F45197"/>
<path d="M32.2684 275.331C32.2684 275.331 36.3565 286.88 37.9555 287.437C38.3808 287.586 40.4183 287.961 40.804 288.865C40.9194 289.137 40.804 290.048 40.804 290.048H32.2832C32.2832 290.048 31.2051 284.96 30.7798 282.724C30.7798 282.724 28.5247 277.261 28.7753 276.765C29.0259 276.269 32.2684 275.331 32.2684 275.331Z" fill="black"/>
<path d="M54.6675 289.809L55.9203 285.837C55.9203 285.837 58.5512 286.955 59.8667 286.769C61.1822 286.582 63.7504 285.837 63.7504 285.837C69.0024 287.572 73.3049 288.414 72.5218 289.809H54.6675Z" fill="black"/>
<path d="M78.7531 194.626C78.7926 194.61 78.9361 194.498 79.0185 194.428C78.7069 190.7 78.763 187.086 79.9284 185.865C79.9004 185.807 79.6449 185.263 79.3795 184.699C78.0278 185.748 77.3849 188.535 77.6371 193.059C77.6552 193.37 77.7442 193.607 77.8151 193.995C78.2074 194.428 78.5635 194.707 78.7531 194.626Z" fill="#F7A491"/>
<path d="M31.9222 206.713C31.9107 206.63 31.9107 206.55 31.9173 206.467C32.1761 203.831 34.357 181.698 34.7246 180.756C35.0559 179.907 44.8378 165.869 44.8378 165.869L49.6464 172.442L40.2387 185.032C40.0277 185.832 36.6335 200.773 36.6335 200.773C36.6335 200.773 35.9378 203.497 35.6263 205.129C35.7681 205.521 35.9082 205.894 36.0318 206.197C36.3434 206.848 36.711 207.382 37.0456 207.832C37.466 208.398 38.1616 209.634 38.2473 209.964C38.3462 210.348 38.5259 211.147 38.6281 211.628C38.7303 212.11 38.8688 212.672 38.8919 212.934C38.9067 213.094 39.0699 213.41 39.1952 213.635C39.3831 213.969 39.0633 214.363 38.699 214.243C38.3578 214.129 38.0907 213.686 37.9275 213.409C37.4643 212.627 37.217 211.202 37.1033 211.277C36.9879 211.353 36.5824 213.771 36.5181 214.045C36.4538 214.319 35.9675 217.128 35.6922 217.64C35.4169 218.153 35.0543 218.067 34.9587 217.746C34.8762 217.469 35.262 213.539 35.262 213.539C35.262 213.539 35.3098 213.038 35.0905 213.195C34.8713 213.351 34.5136 216.918 34.3619 217.441C34.2103 217.963 33.8624 218.24 33.569 217.82C33.2113 217.309 33.8262 213.526 33.8262 213.526C33.8262 213.526 33.8954 213.049 33.6927 213.094C33.4899 213.138 33.236 216.178 33.0794 216.442C32.9212 216.704 32.5239 216.8 32.3343 216.361C32.1101 215.845 32.6904 212.471 32.6904 212.471C32.6904 212.471 32.6624 212.202 32.5354 212.291C32.4085 212.38 32.0079 214.957 31.7475 215.196C31.5282 215.395 31.3453 215.202 31.3453 215.202C30.8656 214.874 31.6008 212.423 31.5942 211.205C31.5876 209.987 32.1497 208.617 31.9816 207.166C31.97 207.077 31.9404 206.853 31.9222 206.713Z" fill="#F8A492"/>
<path d="M37.1973 174.761L45.5533 180.39C45.5533 180.39 50.2629 173.358 52.7916 170.854C55.9583 167.719 51.6377 158.11 49.5969 158.654C45.0324 159.871 37.1973 174.761 37.1973 174.761Z" fill="#F45197"/>
<path d="M57.122 148.94L55.8725 157.205C55.8725 157.205 60.4371 167.046 63.1619 166.194C65.4483 165.479 64.0422 156.77 64.0422 156.77C64.0422 156.77 62.796 152.093 63.1702 149.752C63.5427 147.412 57.122 148.94 57.122 148.94Z" fill="#F7A491"/>
<path d="M63.1686 149.752C63.5428 147.412 57.1221 148.94 57.1221 148.94L57.0182 149.625C57.2062 150.084 57.4353 150.476 57.7139 150.778C59.148 152.326 61.3899 153.257 63.3285 153.326C63.1356 152.064 63.0153 150.712 63.1686 149.752Z" fill="#F45197"/>
<path d="M56.0687 137.246C55.8874 137.18 54.6148 146.66 57.0298 149.268C59.4464 151.876 64.1527 152.73 65.8408 150.676C67.7085 148.403 67.6145 138.214 63.8577 135.53C60.1025 132.848 56.0687 137.246 56.0687 137.246Z" fill="#F7A491"/>
<path d="M62.4284 130.459C59.5255 131.052 57.6446 132.833 56.9539 133.593C55.6351 133.749 53.8433 134.479 51.9937 137.554C49.7189 141.334 51.3986 145.521 54.0477 147.575C56.6951 149.629 56.6588 152.003 56.6588 152.003L57.0775 150.774C57.3858 149.845 57.5127 148.859 57.4089 147.883C57.3462 147.298 57.2226 146.665 56.9803 146.144C56.344 144.772 58.3485 143.861 58.9106 142.718C59.3442 141.84 59.3639 139.829 60.0464 138.376L60.8607 137.267C60.8607 137.267 62.74 135.8 64.578 136.214C66.4193 136.629 66.1539 129.697 62.4284 130.459Z" fill="black"/>
<path d="M58.7887 144.407C58.8085 145.564 58.2843 146.51 57.6183 146.522C56.9524 146.533 56.3985 145.605 56.3787 144.448C56.3589 143.291 56.8831 142.345 57.5491 142.333C58.2134 142.323 58.769 143.251 58.7887 144.407Z" fill="#F7A491"/>
<path d="M62.712 147.081L66.3534 146.891C66.3534 146.891 66.3419 148.284 64.7429 148.413C62.7911 148.571 62.712 147.081 62.712 147.081Z" fill="white"/>
<path d="M298.605 179.016C298.605 179.016 305.619 194.409 307.106 197.271C308.593 200.132 311.361 208.951 311.488 209.388C311.615 209.825 307.949 214.749 308.643 215.001C309.335 215.253 310.311 212.519 311.039 212.941C311.768 213.363 313.492 220.407 313.944 220.116C314.79 219.576 313.052 215.768 313.496 215.59C313.939 215.412 314.943 219.727 315.792 219.699C316.639 219.671 314.462 215.697 314.719 215.397C314.976 215.097 317.262 218.867 317.772 218.176C318.049 217.8 315.658 214.871 316.169 214.68C316.68 214.489 318.851 216.45 319.128 215.987C319.405 215.524 317.093 214.584 316.479 213.18C315.866 211.775 314.704 211.068 314.376 208.559C314.048 206.05 313.918 197.093 311.671 192.376C309.422 187.66 304.484 177.227 304.484 177.227L298.605 179.016Z" fill="#F7A491"/>
<path d="M300.836 161.873C300.992 158.073 300.435 154.323 298.744 150.787C297.288 147.744 293.685 146.018 290.399 146.013C279.966 146 278.641 159.842 271.999 165.183C269.97 166.815 267.702 168.144 265.781 169.903C258.691 176.399 261.884 188.426 268.396 194.123C272.914 198.076 280.014 200.321 285.582 197.232C288.489 195.618 290.696 192.938 292.267 190C294.497 185.832 295.936 181.021 297.522 176.577C299.212 171.846 300.626 166.922 300.836 161.873Z" fill="black"/>
<path d="M263.556 147.092C264.037 146.742 265.257 149.228 265.842 149.203C266.427 149.179 265.438 145.725 265.879 145.46C266.691 144.968 267.196 149.175 267.583 148.974C267.97 148.771 267.664 144.408 268.503 144.637C269.342 144.868 268.35 149.195 268.862 149.164C269.375 149.132 269.423 145.056 270.494 144.807C271.066 144.673 269.528 151.763 270.046 152.377C270.563 152.99 272.764 150.735 273.323 151.178C273.883 151.622 269.012 154.935 268.936 155.38C268.861 155.824 267.853 165.343 267.985 168.49C269.072 168.551 275.212 169.768 276.231 169.802C275.555 171.792 277.215 173.849 276.659 175.862C273.217 175.557 262.981 174.777 262.338 174.039C260.383 171.79 263.966 157.892 264.792 155.456C265.618 153.018 264.81 152.006 264.853 150.511C264.898 149.015 263.073 147.441 263.556 147.092Z" fill="#F7A491"/>
<path d="M279.51 289.229C280.377 288.589 281.077 288.167 283.848 286.824C284.03 286.736 284.687 286.316 284.925 286.171C285.526 285.803 286.13 285.223 286.651 284.643C287.147 284.089 287.384 282.312 287.496 280.896C287.211 277.734 282.63 227.021 281.663 221.532C280.665 215.865 282.185 207.222 282.185 207.222L285.723 205.888L292.437 229.161L291.908 246.877C291.908 246.877 293.487 251.984 293.686 255.035C293.886 258.086 291.403 282.856 291.403 282.856C291.403 283.741 291.438 284.542 291.537 285.043C291.72 285.97 292.733 287.877 292.269 288.749C291.804 289.621 291.271 289.839 291.271 289.839L279.206 290.033C278.545 290.043 278.979 289.62 279.51 289.229Z" fill="#F79C8D"/>
<path d="M297.821 205.404C297.821 205.404 302.011 211.724 303.008 216.956C304.006 222.188 302.276 238.262 304.195 245.118C305.234 248.829 309.172 254.559 309.77 259.354C310.369 264.15 312.451 277.988 312.451 277.988C312.765 279.441 313.26 281.237 313.9 282.073C314.292 282.584 315.007 283.232 315.479 284.155C316.211 285.594 315.807 287.736 315.266 288.916C314.989 289.521 315.286 289.519 314.655 289.715C312.785 290.292 310.797 289.32 310.003 287.526C309.558 286.524 309.168 285.187 309.089 283.502C309.007 281.717 308.727 280.298 308.43 279.249L295.038 246.396L285.342 218.042L282.858 203.44L297.821 205.404Z" fill="#F79C8D"/>
<path d="M309.64 286.583C312.538 287.112 314.468 285.413 315.471 284.142C316.207 285.582 316.567 287.734 316.024 288.917C315.548 289.961 314.152 289.929 313.054 289.971C311.893 290.013 310.993 289.367 310.418 288.353C310.149 287.88 309.872 287.29 309.64 286.583Z" fill="black"/>
<path d="M284.925 286.171C288.116 286.992 290.475 286.433 291.794 285.9C292.133 286.866 292.585 288.08 292.346 288.779C292.053 289.634 291.636 289.829 291.268 289.839C288.354 289.914 280.591 290.02 278.369 290.048C278.059 290.051 277.887 289.689 278.087 289.449C278.638 288.79 284.687 286.316 284.925 286.171Z" fill="black"/>
<path d="M295.104 245.777C294.853 245.794 294.601 245.81 294.347 245.825C294.334 245.825 294.321 245.827 294.308 245.827C294.059 245.842 293.81 245.857 293.559 245.868C293.544 245.87 293.53 245.87 293.513 245.87C293.263 245.883 293.01 245.894 292.758 245.906C292.745 245.906 292.732 245.908 292.72 245.908C292.463 245.919 292.206 245.929 291.95 245.937C289.09 246.031 285.558 245.995 283.291 245.609C282.136 234.04 281.705 223.484 281.277 221.146C280.24 215.479 282.18 206.534 282.18 206.534L282.023 204.411L282.52 203.056L298.081 205.018C298.081 205.018 302.438 211.338 303.475 216.57C304.512 221.801 302.713 237.876 304.709 244.732C304.713 244.734 300.27 245.426 295.104 245.777Z" fill="black"/>
<path d="M273.913 168.936C273.913 168.936 285.564 167.717 289.001 168.866C292.44 170.017 294.855 174.929 293.019 177.677C291.184 180.425 274.648 176.827 274.648 176.827L273.913 168.936Z" fill="#FFEA22"/>
<path d="M294.461 167.853C294.461 167.853 300.224 167.497 302.504 169.912C304.784 172.327 297.446 191.429 297.031 194.503C296.616 197.578 299.144 205.749 299.144 205.749C299.144 205.749 285.607 208.397 281.737 205.907C281.737 205.907 281.026 183.592 281.44 181.398C281.854 179.203 285.606 170.489 286.435 169.61C287.266 168.73 294.461 167.853 294.461 167.853Z" fill="#FFEA22"/>
<path d="M292.542 160.369C292.542 160.369 292.572 160.534 292.626 160.814C292.883 162.161 293.872 166.626 294.542 167.855C295.349 169.338 291.776 174.071 288.337 173.494C287.313 173.322 289.202 169.145 289.112 168.703C288.939 167.856 288.703 166.701 288.461 165.517C288.324 164.849 288.187 164.172 288.057 163.534C287.689 161.724 287.389 160.244 287.389 160.244L292.542 160.369Z" fill="#F7A491"/>
<path opacity="0.5" d="M292.626 160.815C292.572 160.535 292.542 160.37 292.542 160.37L287.389 160.245C287.389 160.245 287.689 161.725 288.057 163.535C288.185 164.168 288.322 164.842 288.457 165.506C289.253 165.393 290.084 165.017 290.918 164.308C291.827 163.535 292.423 162.605 292.783 161.614C292.719 161.296 292.666 161.023 292.626 160.815Z" fill="#F45197"/>
<path d="M289.074 148.984C289.074 148.984 291.504 148.712 293.025 150.626C294.548 152.54 296.189 158.458 292.407 161.675C288.624 164.893 284.887 161.25 284.333 157.389C283.779 153.527 283.563 148.846 289.074 148.984Z" fill="#F7A491"/>
<path d="M283.214 157.331C283.665 158.184 284.424 158.657 284.907 158.386C285.39 158.116 285.416 157.206 284.964 156.352C284.513 155.5 283.754 155.027 283.271 155.297C282.788 155.568 282.762 156.479 283.214 157.331Z" fill="#F7A491"/>
<path d="M288.802 148.353C288.802 148.353 292.048 153.981 294.369 154.241C296.69 154.501 296.995 157.492 296.995 157.492C296.995 157.492 296.164 150.601 293.866 149.273C291.568 147.942 288.802 148.353 288.802 148.353Z" fill="black"/>
<path d="M293.76 155.653C293.571 156.652 293.952 157.569 294.609 157.701C295.267 157.833 295.953 157.129 296.141 156.128C296.33 155.129 295.95 154.213 295.292 154.081C294.634 153.949 293.948 154.654 293.76 155.653Z" fill="#F7A491"/>
<path d="M290.571 158.255L287.254 158.73C287.254 158.73 287.511 159.978 288.975 159.812C290.762 159.609 290.571 158.255 290.571 158.255Z" fill="white"/>
<path d="M302.255 189.902C302.255 189.902 295.745 180.163 295.16 176.586C294.575 173.008 297.794 168.581 301.083 168.924C304.37 169.266 309.989 185.56 309.989 185.56L302.255 189.902Z" fill="#FFEA22"/>
<path d="M173.773 123.103C175.039 123.103 176.219 123.103 177.4 123.103C177.593 123.103 177.812 123.157 177.973 123.086C178.183 122.994 178.348 122.801 178.532 122.653C178.344 122.509 178.16 122.247 177.965 122.241C176.879 122.199 175.789 122.219 174.7 122.219C174.416 122.219 174.133 122.219 173.808 122.219C173.808 121.408 173.808 120.673 173.808 119.842C175.066 119.842 176.292 119.852 177.517 119.836C177.898 119.831 178.484 119.994 178.499 119.407C178.514 118.789 177.919 118.972 177.543 118.967C176.313 118.95 175.085 118.96 173.813 118.96C173.813 118.148 173.813 117.409 173.813 116.562C175.036 116.562 176.261 116.575 177.484 116.553C177.878 116.547 178.522 116.756 178.503 116.105C178.484 115.477 177.845 115.693 177.449 115.686C176.247 115.665 175.044 115.678 173.809 115.678C173.809 114.857 173.809 114.12 173.809 113.29C175.003 113.29 176.157 113.29 177.311 113.29C177.528 113.29 177.767 113.337 177.959 113.266C178.171 113.186 178.343 112.993 178.532 112.849C178.344 112.704 178.161 112.441 177.967 112.432C176.928 112.388 175.888 112.408 174.848 112.406C174.586 112.406 174.324 112.406 174.062 112.406C174.235 109.642 177.388 106.994 180.683 106.781C184.096 106.562 187.444 109.061 188.078 112.406C186.985 112.406 185.911 112.404 184.836 112.406C184.571 112.406 184.289 112.363 184.045 112.439C183.855 112.498 183.713 112.711 183.552 112.856C183.718 112.998 183.877 113.243 184.056 113.262C184.631 113.318 185.215 113.291 185.795 113.293C186.591 113.294 187.386 113.293 188.25 113.293C188.25 114.094 188.25 114.846 188.25 115.68C187.107 115.68 185.977 115.68 184.846 115.68C184.653 115.68 184.439 115.627 184.27 115.691C184.013 115.789 183.787 115.967 183.548 116.112C183.781 116.262 184.007 116.532 184.246 116.542C185.332 116.59 186.422 116.563 187.51 116.563C187.747 116.563 187.983 116.563 188.268 116.563C188.268 117.365 188.268 118.101 188.268 118.96C187.122 118.96 185.973 118.96 184.823 118.96C184.58 118.96 184.318 118.901 184.102 118.978C183.895 119.053 183.736 119.265 183.557 119.418C183.728 119.555 183.89 119.794 184.071 119.811C184.646 119.865 185.23 119.84 185.81 119.842C186.606 119.844 187.404 119.842 188.258 119.842C188.258 120.625 188.258 121.362 188.258 122.221C187.256 122.221 186.227 122.221 185.197 122.221C184.834 122.221 184.462 122.171 184.112 122.244C183.906 122.287 183.738 122.519 183.552 122.666C183.74 122.811 183.923 123.076 184.116 123.083C185.227 123.124 186.341 123.104 187.454 123.106C187.714 123.106 187.975 123.106 188.306 123.106C188.306 124.936 188.336 126.695 188.296 128.452C188.266 129.749 188.322 131.088 188.031 132.334C187.396 135.044 185.616 136.826 182.93 137.551C180.275 138.27 177.886 137.617 175.916 135.687C174.492 134.292 173.763 132.562 173.767 130.546C173.776 128.101 173.773 125.66 173.773 123.103Z" fill="white"/>
<path d="M176.862 142.817C177.696 143.105 178.57 143.282 179.422 143.509C179.422 146.547 179.422 152.538 179.422 155.539H182.657C182.657 152.519 182.657 146.522 182.657 143.455C183.06 143.376 183.397 143.326 183.725 143.244C188.832 141.955 192.148 138.821 193.522 133.701C194.197 131.18 193.864 128.602 193.916 126.047C193.935 125.03 193.292 124.379 192.402 124.375C191.494 124.372 190.904 124.99 190.884 126.031C190.863 127.117 190.871 128.205 190.897 129.293C190.962 131.944 190.515 134.431 188.845 136.605C186.394 139.798 182.188 141.216 178.349 140.089C174.398 138.928 171.554 135.486 171.294 131.437C171.188 129.799 171.251 128.15 171.22 126.505C171.211 126.098 171.21 125.67 171.083 125.292C170.859 124.629 170.155 124.283 169.441 124.39C168.724 124.499 168.191 125.102 168.178 125.935C168.152 127.531 168.155 129.128 168.172 130.724C168.226 136.22 171.675 141.026 176.862 142.817Z" fill="white"/>
<path d="M256.774 41.0829L257.203 44.8991C257.317 45.0639 257.506 45.0573 257.979 45.0458C258.825 45.0227 259.671 45.0013 260.516 45.0079C260.65 45.0095 260.836 45.1365 260.904 45.2568C261.309 45.9788 261.672 46.7256 262.086 47.4426C262.214 47.6652 262.244 47.7987 262.09 48.0213C261.476 48.9098 260.885 49.8148 260.292 50.7049C260.876 51.4995 262.76 53.0391 263.549 53.3573C264.265 52.6171 265.008 51.872 265.72 51.0989C265.943 50.8582 266.093 50.822 266.414 50.9423C267.161 51.2225 267.937 51.4352 268.712 51.6314C269.025 51.7105 269.213 51.7979 269.274 52.1572C269.436 53.0853 269.654 54.0035 269.832 54.9299C269.879 55.1788 269.983 55.3025 270.239 55.2761C271.436 55.1508 272.634 55.0255 273.831 54.9002C274.126 54.8689 274.073 54.6381 274.073 54.4584C274.07 53.5436 274.073 52.627 274.038 51.7138C274.025 51.3709 274.137 51.2077 274.452 51.061C275.288 50.672 276.099 50.2285 276.983 49.7752C277.871 50.3637 278.854 51.0132 279.862 51.6808C280.917 50.7494 281.763 49.6664 282.467 48.4136C281.626 47.5943 280.784 46.7734 280.042 46.0514C280.331 44.9881 280.617 44.0089 280.848 43.0166C280.916 42.7297 281.025 42.6391 281.288 42.5896C282.202 42.4165 283.108 42.2138 284.02 42.0341C284.218 41.9945 284.353 41.9451 284.361 41.7093C284.402 40.5126 284.343 39.3273 284.025 38.1619C283.954 37.9014 283.825 37.8437 283.586 37.8454C282.63 37.8569 281.672 37.8503 280.716 37.8668C280.484 37.8701 280.367 37.8223 280.245 37.5899C279.826 36.7821 279.371 35.9909 278.898 35.2128C278.778 35.0133 278.809 34.9029 278.916 34.7413C279.513 33.8396 280.103 32.933 280.71 32.0066C279.762 30.9812 278.733 30.0944 277.505 29.3987C276.669 30.2559 275.839 31.1098 275.044 31.9241C273.941 31.5961 272.871 31.2796 271.729 30.94C271.559 30.129 271.371 29.1943 271.167 28.2629C270.999 27.498 271.14 27.5475 270.303 27.5541C270.222 27.5541 270.143 27.5261 270.062 27.5112C269.345 27.592 268.628 27.6728 267.911 27.7519C267.756 27.7981 267.603 27.8706 267.443 27.8871C267.031 27.9266 266.861 28.0981 266.882 28.5481C266.927 29.4894 266.914 30.4323 266.901 31.3752C266.899 31.4988 266.795 31.6719 266.686 31.7346C265.984 32.1467 265.242 32.4978 264.563 32.9445C264.232 33.1638 264.037 33.1291 263.741 32.9247C262.897 32.3445 262.029 31.7988 261.085 31.1823C260.201 32.267 259.339 33.327 258.467 34.3968C258.652 34.5831 258.756 34.6919 258.863 34.7974C259.529 35.4452 260.188 36.0997 260.864 36.736C261.057 36.9173 261.06 37.0624 260.986 37.308C260.729 38.152 260.526 39.0125 260.274 39.8598C260.234 39.9916 260.065 40.1433 259.929 40.1763C259.188 40.351 258.437 40.4862 257.691 40.6461C257.097 40.7763 256.873 40.8258 256.774 41.0829ZM264.413 42.0621C264.031 38.6515 266.485 35.5754 269.896 35.193C273.307 34.8106 276.381 37.2651 276.763 40.6758C277.146 44.0864 274.691 47.1624 271.281 47.5432C267.87 47.9289 264.796 45.4744 264.413 42.0621Z" fill="#00A0D7"/>
<path d="M74.8727 23.1597L76.348 32.3976L81.2819 25.9027L97.651 10.2622L83.1182 16.0944C83.1182 16.0944 76.0579 20.2188 75.7579 20.7134C75.4579 21.2096 74.8727 23.1597 74.8727 23.1597Z" fill="#00A0D7"/>
<path d="M66.6519 19.7711L97.651 10.2612L74.8727 23.1604L66.6519 19.7711Z" fill="#00A0D7"/>
<path d="M87.5294 29.1141L77.436 25.0078L97.6509 10.2607L87.5294 29.1141Z" fill="#00A0D7"/>
<path d="M41.1157 68.036C40.9986 67.3007 40.9195 66.5458 40.8832 65.7924C40.8503 65.0984 40.8503 64.3896 40.8849 63.6857L41.6481 63.7236C41.6135 64.4028 41.6135 65.0869 41.6465 65.7561C41.6811 66.4815 41.7569 67.2084 41.8707 67.9156C41.9036 68.1233 41.9399 68.331 41.9794 68.5387L41.2294 68.6821C41.1865 68.4629 41.1486 68.2453 41.1157 68.036ZM41.6695 58.7486C42.0817 57.1957 42.6537 55.6165 43.3707 54.0604L44.0647 54.3802C43.3658 55.8984 42.8086 57.4348 42.408 58.9448L41.6695 58.7486ZM64.433 50.3563C64.3819 50.3415 64.3324 50.3267 64.2813 50.3118L64.5055 49.5816C64.55 49.5947 64.5929 49.6079 64.6308 49.6178C64.6308 49.6178 64.6539 49.6211 64.7116 49.6195C65.1369 49.598 66.1853 49.2848 66.6683 48.759C67.0738 48.3172 67.3376 47.7468 67.4513 47.0627L68.2046 47.188C68.0678 48.0089 67.7315 48.7293 67.2304 49.2749C66.5611 50.0036 65.2836 50.3547 64.7495 50.3811C64.6226 50.3893 64.5187 50.3811 64.433 50.3563ZM45.7824 49.7019C46.6676 48.337 47.6666 46.9935 48.7513 45.7093L49.3348 46.2022C48.2716 47.4616 47.2924 48.7788 46.4237 50.1189L45.7824 49.7019ZM59.8058 45.5214C59.5948 44.8208 59.4679 44.0708 59.4299 43.2944C59.4102 42.8773 59.4151 42.4438 59.4448 42.0069L60.2064 42.0597C60.1783 42.4668 60.1734 42.8691 60.1932 43.2565C60.2278 43.9719 60.3432 44.6593 60.5377 45.3005C60.6745 45.7555 60.8608 46.2006 61.0899 46.6242L60.419 46.9885C60.1635 46.5204 59.9574 46.0275 59.8058 45.5214ZM62.2059 40.7459L62.1004 40.7294L62.2142 39.9744L62.3296 39.9925C64.0571 40.2728 65.666 41.1151 66.7425 42.3036L66.1771 42.8163C65.2144 41.7531 63.767 40.9981 62.2059 40.7459ZM52.6367 42.5262C53.3752 42.0349 54.7269 41.1712 55.4934 40.9025C56.0885 40.6931 56.6408 40.5217 57.1798 40.3783L57.376 41.1168C56.8567 41.2552 56.3226 41.4217 55.7457 41.6228C55.2429 41.7992 54.2637 42.3613 53.057 43.1625L52.6367 42.5262ZM60.7108 37.1325C61.39 35.5977 62.2933 34.1685 63.3978 32.8877L63.9764 33.3855C62.9214 34.6087 62.0576 35.9736 61.4097 37.4407L60.7108 37.1325Z" fill="#00A0D7"/>
<path d="M67.6128 30.2587C68.3183 29.8169 69.0519 29.4377 69.792 29.1328L69.5003 28.4272C68.7205 28.7487 67.9491 29.1476 67.2073 29.6108L67.6128 30.2587Z" fill="#00A0D7"/>
<path opacity="0.2" d="M212.358 242.799H149.051C144.957 242.799 141.637 239.479 141.637 235.384C141.637 231.29 144.957 227.97 149.051 227.97H212.358C216.453 227.97 219.773 231.29 219.773 235.384C219.773 239.479 216.453 242.799 212.358 242.799Z" fill="#00A0D7"/>
<g opacity="0.5">
<g opacity="0.5">
<path opacity="0.5" d="M132.903 193.276H130.373V206.284H132.903V193.276Z" fill="#00A0D7"/>
<path opacity="0.5" d="M137.461 194.901H134.931V204.657H137.461V194.901Z" fill="#00A0D7"/>
<path opacity="0.5" d="M142.019 193.276H139.489V206.284H142.019V193.276Z" fill="#00A0D7"/>
<path opacity="0.5" d="M146.577 187.286H144.047V211.874H146.577V187.286Z" fill="#00A0D7"/>
<path opacity="0.5" d="M151.137 190.795H148.606V208.765H151.137V190.795Z" fill="#00A0D7"/>
<path opacity="0.5" d="M192.33 187.286H189.799V211.874H192.33V187.286Z" fill="#00A0D7"/>
<path opacity="0.5" d="M196.888 192.078H194.357V207.481H196.888V192.078Z" fill="#00A0D7"/>
<path opacity="0.5" d="M201.129 196.186H198.599V203.374H201.129V196.186Z" fill="#00A0D7"/>
<path opacity="0.5" d="M205.234 194.046H202.703V205.513H205.234V194.046Z" fill="#00A0D7"/>
<path opacity="0.5" d="M209.429 188.002H206.899V211.557H209.429V188.002Z" fill="#00A0D7"/>
<path opacity="0.5" d="M213.753 194.901H211.223V204.657H213.753V194.901Z" fill="#00A0D7"/>
<path opacity="0.5" d="M218.232 192.078H215.701V207.481H218.232V192.078Z" fill="#00A0D7"/>
<path opacity="0.5" d="M222.402 187.286H219.872V212.273H222.402V187.286Z" fill="#00A0D7"/>
<path opacity="0.5" d="M226.502 192.078H223.972V206.711H226.502V192.078Z" fill="#00A0D7"/>
<path opacity="0.5" d="M230.78 195.653H228.249V203.135H230.78V195.653Z" fill="#00A0D7"/>
<path opacity="0.5" d="M234.914 197.183H232.384V201.605H234.914V197.183Z" fill="#00A0D7"/>
<path opacity="0.5" d="M128.548 196.186H126.017V202.603H128.548V196.186Z" fill="#00A0D7"/>
<path opacity="0.5" d="M173.666 187.286H171.136V211.874H173.666V187.286Z" fill="#00A0D7"/>
<path opacity="0.5" d="M178.224 190.795H175.694V208.765H178.224V190.795Z" fill="#00A0D7"/>
<path opacity="0.5" d="M155.695 194.901H153.164V204.657H155.695V194.901Z" fill="#00A0D7"/>
<path opacity="0.5" d="M160.253 196.186H157.722V203.374H160.253V196.186Z" fill="#00A0D7"/>
<path opacity="0.5" d="M183.154 194.901H180.624V204.657H183.154V194.901Z" fill="#00A0D7"/>
<path opacity="0.5" d="M187.712 192.078H185.182V207.481H187.712V192.078Z" fill="#00A0D7"/>
<path opacity="0.5" d="M164.81 194.046H162.28V205.513H164.81V194.046Z" fill="#00A0D7"/>
<path opacity="0.5" d="M169.368 192.078H166.838V207.481H169.368V192.078Z" fill="#00A0D7"/>
</g>
</g>
<path d="M330.702 136.582L310.023 143.903C309.02 144.257 307.919 143.733 307.565 142.731L302.878 129.494C302.524 128.492 303.048 127.39 304.05 127.036L324.73 119.715C325.732 119.361 326.833 119.885 327.188 120.887L331.874 134.124C332.229 135.127 331.705 136.228 330.702 136.582Z" fill="#00A0D7"/>
<path d="M305.936 135.765L301.376 145.754L309.693 140.857L305.936 135.765Z" fill="#00A0D7"/>
<path d="M312.083 132.362L314.244 131.535C314.244 131.535 316.244 128.493 316.066 127.74C315.888 126.987 314.882 125.617 315.238 125.27C315.594 124.924 316.44 124.446 317.356 125.198C318.022 125.744 318.598 128.407 318.916 128.485C319.114 128.533 320.37 128.093 321.283 127.756C321.883 127.535 322.556 127.666 323.029 128.094L323.03 128.096C323.35 128.386 323.424 128.861 323.208 129.235L322.871 129.817L323.436 130.186C323.858 130.461 323.978 131.024 323.706 131.447L323.429 131.879L323.8 132.084C324.278 132.346 324.422 132.965 324.109 133.411L323.855 133.773L323.94 133.849C324.295 134.164 324.351 134.698 324.067 135.079L323.807 135.43L318.049 137.634C317.51 137.84 316.933 137.934 316.356 137.911L314.203 138.351C313.972 138.399 313.74 138.269 313.659 138.048L311.808 132.98C311.715 132.726 311.839 132.456 312.083 132.362Z" fill="white"/>
<path d="M43.5834 102.41H3.53593C1.58251 102.41 0 103.998 0 105.958V129.369C0 131.329 1.58251 132.916 3.53593 132.916H31.5579C33.3597 135.439 36.6253 139.955 36.9137 139.955C37.1841 139.955 36.6632 135.689 36.2972 132.916H43.5834C45.5368 132.916 47.1193 131.327 47.1193 129.369V105.958C47.1193 103.998 45.5368 102.41 43.5834 102.41Z" fill="#00A0D7"/>
<path d="M67.2106 74.416H117.77C120.441 74.416 122.605 76.5887 122.605 79.2674V111.282C122.605 113.962 120.441 116.133 117.77 116.133H83.6556C81.1928 119.582 76.7255 125.76 76.3315 125.76C75.9623 125.76 76.6727 119.926 77.1739 116.133H67.2106C64.5401 116.133 62.3757 113.961 62.3757 111.282V79.2674C62.3741 76.587 64.5401 74.416 67.2106 74.416Z" fill="#F45197"/>
<path d="M116.977 90.8721H104.38H92.3973C92.3149 90.8721 92.249 90.938 92.249 91.0204V92.9145C92.249 92.9969 92.3149 93.0629 92.3973 93.0629H104.38H104.993H116.976C117.058 93.0629 117.124 92.9969 117.124 92.9145V91.0204C117.126 90.9397 117.06 90.8721 116.977 90.8721Z" fill="white"/>
<path d="M68.0826 93.0647H88.591C88.6685 93.0647 88.7328 93.0021 88.7328 92.9229V91.0124C88.7328 90.9349 88.6701 90.8706 88.591 90.8706H68.0826C68.0051 90.8706 67.9409 90.9332 67.9409 91.0124V92.9229C67.9409 93.0021 68.0035 93.0647 68.0826 93.0647Z" fill="white"/>
<path d="M67.9954 85.9036H95.33C95.4075 85.9036 95.4718 85.8409 95.4718 85.7618V83.8512C95.4718 83.7738 95.4091 83.7095 95.33 83.7095H67.9954C67.9179 83.7095 67.8536 83.7721 67.8536 83.8512V85.7618C67.8536 85.8393 67.9163 85.9036 67.9954 85.9036Z" fill="white"/>
<path d="M100.285 85.9036H116.984C117.061 85.9036 117.126 85.8409 117.126 85.7618V83.8512C117.126 83.7738 117.063 83.7095 116.984 83.7095H100.285C100.208 83.7095 100.143 83.7721 100.143 83.8512V85.7618C100.143 85.8393 100.208 85.9036 100.285 85.9036Z" fill="white"/>
<path d="M67.8536 107.093H117.126V104.901H67.8536V107.093Z" fill="white"/>
<path d="M93.6936 100.162H117.126V97.9692H93.6936V100.162Z" fill="white"/>
<path d="M67.9406 100.162H91.3733V97.9692H67.9406V100.162Z" fill="white"/>
<path d="M20.8232 121.986C20.8232 123.015 22.1684 123.847 23.8284 123.847C25.4884 123.847 26.8335 123.015 26.8335 121.986C26.8335 120.957 25.4884 120.125 23.8284 120.125C22.17 120.125 20.8232 120.957 20.8232 121.986Z" fill="#ADAEB5"/>
<path d="M23.83 82.4385C31.3139 82.4385 37.3802 88.5048 37.3802 95.9887C37.3802 100.077 35.5686 103.743 32.7052 106.227C32.6954 106.239 30.5886 108.515 30.2408 110.899L30.1782 112.358C30.1567 112.836 29.9705 113.293 29.6474 113.647C29.6193 113.678 29.5897 113.708 29.5583 113.738H18.1016C18.0719 113.708 18.0423 113.678 18.0126 113.647C17.6895 113.293 17.5032 112.836 17.4818 112.358L17.4192 110.899C17.0713 108.514 14.9646 106.237 14.9547 106.227C12.0914 103.743 10.2797 100.077 10.2797 95.9887C10.2797 88.5048 16.346 82.4385 23.83 82.4385Z" fill="#FFEA22"/>
<path d="M19.5968 122.194H28.0632C28.9056 122.194 29.588 121.511 29.588 120.669V113.739H18.0736V120.669C18.072 121.511 18.7544 122.194 19.5968 122.194Z" fill="#544C60"/>
<path opacity="0.3" d="M20.4326 106.348C27.9198 106.348 33.9894 100.278 33.9894 92.7907C33.9894 89.7509 32.9888 86.9436 31.2991 84.6836C34.962 87.1085 37.3786 91.2659 37.3786 95.9887C37.3786 100.077 35.567 103.743 32.7036 106.227C32.6937 106.239 30.587 108.515 30.2392 110.899L30.1766 112.358C30.1551 112.836 29.9688 113.292 29.6458 113.647C29.6177 113.678 29.5881 113.708 29.5567 113.738H18.1C18.0703 113.708 18.0407 113.678 18.011 113.647C17.6879 113.292 17.5016 112.836 17.4802 112.358L17.4175 110.899C17.0697 108.514 14.963 106.237 14.9531 106.227C14.2278 105.599 13.5717 104.894 12.9948 104.127C15.1311 105.53 17.6862 106.348 20.4326 106.348Z" fill="#FFEA22"/>
<path d="M23.9239 102.558L26.6175 90.8148L28.9797 97.646L29.6721 97.4053L26.4741 88.1592L23.7261 100.142L20.9122 93.2727L18.306 97.6724L18.9374 98.0466L20.7935 94.9145L23.9239 102.558Z" fill="white"/>
<path d="M27.3181 115.504L27.3824 115.511C27.722 115.546 28.0269 115.298 28.0616 114.959L29.9441 96.7764C29.9787 96.4368 29.7314 96.1319 29.3919 96.0972L29.3276 96.0906C28.988 96.056 28.683 96.3033 28.6484 96.6429L26.7659 114.825C26.7313 115.165 26.9785 115.47 27.3181 115.504Z" fill="#544C60"/>
<path d="M20.3007 115.507C19.9429 115.544 19.6215 115.284 19.5852 114.925L17.7093 96.8082C17.6714 96.4505 17.9318 96.129 18.2912 96.0927C18.6489 96.0565 18.9704 96.3153 19.0066 96.6746L20.8826 114.793C20.9188 115.149 20.6584 115.47 20.3007 115.507Z" fill="#544C60"/>
<path d="M17.7489 115.013H29.9045C29.9985 115.013 30.0727 114.937 30.0727 114.845V113.907C30.0727 113.813 29.9968 113.739 29.9045 113.739H17.7489C17.6549 113.739 17.5807 113.815 17.5807 113.907V114.845C17.5791 114.937 17.6549 115.013 17.7489 115.013Z" fill="#ADAEB5"/>
<path d="M17.7489 117.568H29.9045C29.9985 117.568 30.0727 117.492 30.0727 117.4V116.464C30.0727 116.37 29.9968 116.295 29.9045 116.295H17.7489C17.6549 116.295 17.5807 116.371 17.5807 116.464V117.4C17.5791 117.494 17.6549 117.568 17.7489 117.568Z" fill="#ADAEB5"/>
<path d="M17.7489 120.428H29.9045C29.9985 120.428 30.0727 120.352 30.0727 120.26V119.322C30.0727 119.23 29.9968 119.154 29.9045 119.154H17.7489C17.6549 119.154 17.5807 119.23 17.5807 119.322V120.26C17.5791 120.352 17.6549 120.428 17.7489 120.428Z" fill="#ADAEB5"/>
<path d="M376 289.526H5.47455V291.05H376V289.526Z" fill="#FFEA22"/>
</svg>
