<svg width="298" height="264" viewBox="0 0 298 264" fill="none" xmlns="http://www.w3.org/2000/svg">
<rect x="3" y="3" width="291.542" height="257.73" rx="17" fill="#8331A7" stroke="white" stroke-width="6"/>
<g filter="url(#filter0_b)">
<rect x="53" y="186" width="196.545" height="47" rx="10" fill="white" fill-opacity="0.5"/>
</g>
<path d="M75.1498 214.574C75.1498 214.665 75.1158 214.727 75.0478 214.761C74.9911 214.795 74.9288 214.812 74.8608 214.812H72.6168C72.5374 214.812 72.4694 214.778 72.4128 214.71C72.3674 214.642 72.3448 214.563 72.3448 214.472V207.383C72.3448 207.292 72.3164 207.247 72.2598 207.247C72.2144 207.247 72.1691 207.287 72.1238 207.366L70.5938 210.171C70.4804 210.364 70.3104 210.46 70.0838 210.46H68.7238C68.4971 210.46 68.3271 210.364 68.2138 210.171L66.6838 207.366C66.6384 207.287 66.5931 207.247 66.5478 207.247C66.4911 207.247 66.4628 207.292 66.4628 207.383V214.472C66.4628 214.563 66.4344 214.642 66.3778 214.71C66.3324 214.778 66.2701 214.812 66.1908 214.812H63.9468C63.8788 214.812 63.8108 214.795 63.7428 214.761C63.6861 214.727 63.6578 214.665 63.6578 214.574V202.759C63.6578 202.578 63.7144 202.436 63.8278 202.334C63.9411 202.232 64.0884 202.181 64.2698 202.181H65.8678C66.2078 202.181 66.4571 202.334 66.6158 202.64L69.2168 207.485C69.2848 207.632 69.3471 207.706 69.4038 207.706C69.4491 207.706 69.5114 207.632 69.5908 207.485L72.1918 202.64C72.3504 202.334 72.5998 202.181 72.9398 202.181H74.5378C74.7191 202.181 74.8664 202.238 74.9798 202.351C75.0931 202.453 75.1498 202.595 75.1498 202.776V214.574ZM84.8807 214.472C84.8807 214.563 84.8467 214.642 84.7787 214.71C84.7107 214.778 84.6313 214.812 84.5407 214.812H82.6367C82.546 214.812 82.4667 214.778 82.3987 214.71C82.3307 214.642 82.2967 214.563 82.2967 214.472V214.2C81.968 214.438 81.6167 214.625 81.2427 214.761C80.88 214.897 80.4437 214.965 79.9337 214.965C79.5597 214.965 79.197 214.914 78.8457 214.812C78.5057 214.721 78.1997 214.563 77.9277 214.336C77.6557 214.109 77.4347 213.809 77.2647 213.435C77.106 213.061 77.0267 212.596 77.0267 212.041V211.888C77.0267 210.891 77.3553 210.165 78.0127 209.712C78.6813 209.247 79.7467 209.015 81.2087 209.015H82.1267V208.403C82.1267 207.916 82.0133 207.598 81.7867 207.451C81.56 207.304 81.2483 207.23 80.8517 207.23C80.5797 207.23 80.302 207.236 80.0187 207.247C79.7467 207.247 79.4803 207.253 79.2197 207.264C78.9703 207.275 78.7437 207.292 78.5397 207.315C78.3357 207.326 78.1657 207.338 78.0297 207.349H77.9447C77.854 207.349 77.7803 207.326 77.7237 207.281C77.667 207.236 77.6387 207.156 77.6387 207.043V205.666C77.6387 205.473 77.7463 205.349 77.9617 205.292C78.279 205.213 78.704 205.133 79.2367 205.054C79.7807 204.975 80.336 204.935 80.9027 204.935C81.5147 204.935 82.0643 205.003 82.5517 205.139C83.0503 205.264 83.4697 205.468 83.8097 205.751C84.1497 206.023 84.4103 206.38 84.5917 206.822C84.7843 207.253 84.8807 207.78 84.8807 208.403V214.472ZM82.1777 210.647H81.2087C80.914 210.647 80.6703 210.675 80.4777 210.732C80.285 210.777 80.132 210.851 80.0187 210.953C79.9053 211.055 79.826 211.185 79.7807 211.344C79.7353 211.503 79.7127 211.684 79.7127 211.888V212.041C79.7127 212.404 79.7977 212.636 79.9677 212.738C80.149 212.84 80.421 212.891 80.7837 212.891C81.0443 212.891 81.288 212.857 81.5147 212.789C81.7527 212.71 81.9737 212.619 82.1777 212.517V210.647ZM92.1241 214.489C92.1241 214.682 92.0165 214.795 91.8011 214.829C91.5405 214.874 91.3138 214.908 91.1211 214.931C90.9285 214.954 90.7075 214.965 90.4581 214.965C89.9935 214.965 89.5798 214.925 89.2171 214.846C88.8658 214.778 88.5711 214.636 88.3331 214.421C88.0951 214.206 87.9138 213.911 87.7891 213.537C87.6645 213.152 87.6021 212.659 87.6021 212.058V207.128L86.2421 206.907C86.1515 206.884 86.0665 206.845 85.9871 206.788C85.9191 206.72 85.8851 206.641 85.8851 206.55V205.428C85.8851 205.337 85.9191 205.258 85.9871 205.19C86.0665 205.111 86.1515 205.071 86.2421 205.071H87.6021V203.677C87.6021 203.586 87.6361 203.513 87.7041 203.456C87.7721 203.399 87.8515 203.36 87.9421 203.337L90.0161 202.98H90.0671C90.1578 202.98 90.2315 203.008 90.2881 203.065C90.3448 203.11 90.3731 203.178 90.3731 203.269V205.071H91.7671C91.8578 205.071 91.9371 205.105 92.0051 205.173C92.0731 205.241 92.1071 205.32 92.1071 205.411V206.788C92.1071 206.879 92.0731 206.958 92.0051 207.026C91.9371 207.094 91.8578 207.128 91.7671 207.128H90.3731V212.075C90.3731 212.415 90.4015 212.636 90.4581 212.738C90.5148 212.829 90.6735 212.874 90.9341 212.874H91.7671C92.0051 212.874 92.1241 212.97 92.1241 213.163V214.489ZM99.9934 214.319C99.9934 214.444 99.9651 214.534 99.9084 214.591C99.8517 214.636 99.7611 214.676 99.6364 214.71C99.3984 214.767 99.0867 214.823 98.7014 214.88C98.3274 214.937 97.8854 214.965 97.3754 214.965C96.1741 214.965 95.2107 214.597 94.4854 213.86C93.7714 213.123 93.4144 212.058 93.4144 210.664V209.236C93.4144 207.842 93.7714 206.777 94.4854 206.04C95.2107 205.303 96.1741 204.935 97.3754 204.935C97.8854 204.935 98.3274 204.963 98.7014 205.02C99.0867 205.077 99.3984 205.133 99.6364 205.19C99.7611 205.224 99.8517 205.269 99.9084 205.326C99.9651 205.371 99.9934 205.456 99.9934 205.581V207.094C99.9934 207.185 99.9594 207.258 99.8914 207.315C99.8347 207.36 99.7611 207.383 99.6704 207.383H99.6364C99.3191 207.349 99.0131 207.321 98.7184 207.298C98.4351 207.275 98.0497 207.264 97.5624 207.264C97.3697 207.264 97.1884 207.298 97.0184 207.366C96.8484 207.423 96.7011 207.53 96.5764 207.689C96.4517 207.836 96.3497 208.04 96.2704 208.301C96.2024 208.55 96.1684 208.862 96.1684 209.236V210.664C96.1684 211.038 96.2024 211.355 96.2704 211.616C96.3497 211.865 96.4517 212.069 96.5764 212.228C96.7011 212.375 96.8484 212.483 97.0184 212.551C97.1884 212.608 97.3697 212.636 97.5624 212.636C98.0497 212.636 98.4351 212.625 98.7184 212.602C99.0131 212.579 99.3191 212.551 99.6364 212.517H99.6704C99.7611 212.517 99.8347 212.545 99.8914 212.602C99.9594 212.647 99.9934 212.715 99.9934 212.806V214.319ZM110.085 214.455C110.085 214.546 110.045 214.631 109.966 214.71C109.898 214.778 109.819 214.812 109.728 214.812H107.671C107.58 214.812 107.501 214.778 107.433 214.71C107.365 214.631 107.331 214.546 107.331 214.455V208.794C107.331 208.499 107.314 208.25 107.28 208.046C107.246 207.842 107.184 207.678 107.093 207.553C107.002 207.428 106.872 207.343 106.702 207.298C106.543 207.241 106.334 207.213 106.073 207.213C105.824 207.213 105.569 207.264 105.308 207.366C105.047 207.468 104.77 207.598 104.475 207.757V214.455C104.475 214.546 104.441 214.631 104.373 214.71C104.305 214.778 104.226 214.812 104.135 214.812H102.078C101.987 214.812 101.902 214.778 101.823 214.71C101.755 214.631 101.721 214.546 101.721 214.455V202.113C101.721 202.022 101.755 201.943 101.823 201.875C101.891 201.807 101.97 201.773 102.061 201.773H104.135C104.226 201.773 104.305 201.807 104.373 201.875C104.441 201.943 104.475 202.022 104.475 202.113V205.7C104.906 205.417 105.319 205.218 105.716 205.105C106.113 204.992 106.566 204.935 107.076 204.935C107.688 204.935 108.187 205.037 108.572 205.241C108.969 205.445 109.275 205.723 109.49 206.074C109.717 206.414 109.87 206.822 109.949 207.298C110.04 207.763 110.085 208.261 110.085 208.794V214.455ZM115.02 203.626C115.02 203.717 114.986 203.796 114.918 203.864C114.85 203.932 114.771 203.966 114.68 203.966H112.47C112.38 203.966 112.3 203.932 112.232 203.864C112.164 203.796 112.13 203.717 112.13 203.626V202.045C112.13 201.954 112.164 201.875 112.232 201.807C112.3 201.739 112.38 201.705 112.47 201.705H114.68C114.771 201.705 114.85 201.739 114.918 201.807C114.986 201.875 115.02 201.954 115.02 202.045V203.626ZM114.952 214.472C114.952 214.563 114.918 214.642 114.85 214.71C114.782 214.778 114.703 214.812 114.612 214.812H112.538C112.448 214.812 112.368 214.778 112.3 214.71C112.232 214.642 112.198 214.563 112.198 214.472V205.411C112.198 205.32 112.232 205.241 112.3 205.173C112.368 205.105 112.448 205.071 112.538 205.071H114.612C114.703 205.071 114.782 205.105 114.85 205.173C114.918 205.241 114.952 205.32 114.952 205.411V214.472ZM125.425 214.455C125.425 214.546 125.385 214.631 125.306 214.71C125.238 214.778 125.159 214.812 125.068 214.812H123.011C122.92 214.812 122.841 214.778 122.773 214.71C122.705 214.631 122.671 214.546 122.671 214.455V208.794C122.671 208.499 122.654 208.25 122.62 208.046C122.586 207.842 122.524 207.678 122.433 207.553C122.342 207.428 122.212 207.343 122.042 207.298C121.883 207.241 121.674 207.213 121.413 207.213C121.164 207.213 120.909 207.264 120.648 207.366C120.387 207.468 120.11 207.598 119.815 207.757V214.455C119.815 214.546 119.781 214.631 119.713 214.71C119.645 214.778 119.566 214.812 119.475 214.812H117.418C117.327 214.812 117.242 214.778 117.163 214.71C117.095 214.631 117.061 214.546 117.061 214.455V205.411C117.061 205.32 117.095 205.241 117.163 205.173C117.231 205.105 117.31 205.071 117.401 205.071H119.305C119.396 205.071 119.475 205.105 119.543 205.173C119.611 205.241 119.645 205.32 119.645 205.411V205.819C120.11 205.49 120.552 205.264 120.971 205.139C121.39 205.003 121.872 204.935 122.416 204.935C123.028 204.935 123.527 205.037 123.912 205.241C124.309 205.445 124.615 205.723 124.83 206.074C125.057 206.414 125.21 206.822 125.289 207.298C125.38 207.763 125.425 208.261 125.425 208.794V214.455ZM136.259 206.482C136.259 206.607 136.231 206.692 136.174 206.737C136.129 206.782 136.055 206.822 135.953 206.856L135.426 207.026C135.528 207.185 135.613 207.383 135.681 207.621C135.761 207.859 135.8 208.08 135.8 208.284V208.42C135.8 209.531 135.432 210.341 134.695 210.851C133.97 211.35 132.939 211.599 131.601 211.599C131.205 211.599 130.853 211.576 130.547 211.531C130.241 211.474 130.003 211.412 129.833 211.344C129.743 211.401 129.68 211.463 129.646 211.531C129.612 211.588 129.595 211.656 129.595 211.735C129.595 211.871 129.629 211.973 129.697 212.041C129.765 212.109 129.901 212.166 130.105 212.211L132.026 212.636C132.763 212.795 133.386 212.953 133.896 213.112C134.406 213.259 134.814 213.435 135.12 213.639C135.438 213.832 135.664 214.07 135.8 214.353C135.936 214.625 136.004 214.965 136.004 215.373V215.509C136.004 217.356 134.52 218.28 131.55 218.28C130.134 218.28 129.057 218.042 128.32 217.566C127.595 217.09 127.232 216.404 127.232 215.509V215.373C127.232 215.022 127.312 214.687 127.47 214.37C127.629 214.053 127.89 213.752 128.252 213.469C127.946 213.299 127.725 213.067 127.589 212.772C127.453 212.466 127.385 212.171 127.385 211.888C127.385 211.571 127.453 211.293 127.589 211.055C127.737 210.817 127.918 210.613 128.133 210.443C127.861 210.205 127.663 209.893 127.538 209.508C127.414 209.123 127.351 208.76 127.351 208.42V208.284C127.351 207.321 127.686 206.544 128.354 205.955C129.034 205.366 130.117 205.071 131.601 205.071H135.834C135.959 205.071 136.061 205.116 136.14 205.207C136.22 205.286 136.259 205.388 136.259 205.513V206.482ZM133.114 208.284C133.114 207.933 133.012 207.644 132.808 207.417C132.604 207.179 132.202 207.06 131.601 207.06C131.001 207.06 130.593 207.179 130.377 207.417C130.162 207.644 130.054 207.933 130.054 208.284V208.42C130.054 208.567 130.071 208.715 130.105 208.862C130.151 208.998 130.23 209.123 130.343 209.236C130.457 209.349 130.61 209.44 130.802 209.508C131.006 209.576 131.273 209.61 131.601 209.61C132.202 209.61 132.604 209.502 132.808 209.287C133.012 209.072 133.114 208.783 133.114 208.42V208.284ZM133.199 215.373C133.199 215.294 133.177 215.214 133.131 215.135C133.097 215.067 133.018 214.999 132.893 214.931C132.769 214.863 132.593 214.795 132.366 214.727C132.14 214.659 131.834 214.58 131.448 214.489L130.19 214.217C130.088 214.364 130.003 214.523 129.935 214.693C129.879 214.852 129.85 215.078 129.85 215.373V215.509C129.85 215.804 129.969 216.019 130.207 216.155C130.445 216.302 130.893 216.376 131.55 216.376C131.902 216.376 132.185 216.353 132.4 216.308C132.616 216.274 132.78 216.217 132.893 216.138C133.018 216.059 133.097 215.962 133.131 215.849C133.177 215.747 133.199 215.634 133.199 215.509V215.373ZM149.883 214.285C149.883 214.41 149.849 214.5 149.781 214.557C149.724 214.602 149.634 214.642 149.509 214.676C149.328 214.733 149.01 214.795 148.557 214.863C148.104 214.931 147.577 214.965 146.976 214.965C146.33 214.965 145.701 214.874 145.089 214.693C144.488 214.512 143.956 214.211 143.491 213.792C143.026 213.361 142.652 212.8 142.369 212.109C142.086 211.418 141.944 210.568 141.944 209.559V207.417C141.944 206.408 142.086 205.558 142.369 204.867C142.652 204.176 143.026 203.62 143.491 203.201C143.956 202.782 144.488 202.481 145.089 202.3C145.701 202.119 146.33 202.028 146.976 202.028C147.577 202.028 148.104 202.062 148.557 202.13C149.01 202.198 149.328 202.26 149.509 202.317C149.634 202.351 149.724 202.391 149.781 202.436C149.849 202.481 149.883 202.566 149.883 202.691V204.34C149.883 204.567 149.775 204.68 149.56 204.68H149.509C149.18 204.657 148.795 204.629 148.353 204.595C147.922 204.561 147.469 204.544 146.993 204.544C146.698 204.544 146.421 204.589 146.16 204.68C145.911 204.759 145.69 204.912 145.497 205.139C145.304 205.354 145.151 205.649 145.038 206.023C144.936 206.386 144.885 206.85 144.885 207.417V209.559C144.885 210.126 144.936 210.596 145.038 210.97C145.151 211.333 145.304 211.627 145.497 211.854C145.69 212.069 145.911 212.222 146.16 212.313C146.421 212.392 146.698 212.432 146.993 212.432C147.469 212.432 147.922 212.415 148.353 212.381C148.795 212.347 149.18 212.319 149.509 212.296H149.56C149.775 212.296 149.883 212.409 149.883 212.636V214.285ZM159.106 214.472C159.106 214.563 159.072 214.642 159.004 214.71C158.936 214.778 158.857 214.812 158.766 214.812H156.862C156.772 214.812 156.692 214.778 156.624 214.71C156.556 214.642 156.522 214.563 156.522 214.472V214.2C156.194 214.438 155.842 214.625 155.468 214.761C155.106 214.897 154.669 214.965 154.159 214.965C153.785 214.965 153.423 214.914 153.071 214.812C152.731 214.721 152.425 214.563 152.153 214.336C151.881 214.109 151.66 213.809 151.49 213.435C151.332 213.061 151.252 212.596 151.252 212.041V211.888C151.252 210.891 151.581 210.165 152.238 209.712C152.907 209.247 153.972 209.015 155.434 209.015H156.352V208.403C156.352 207.916 156.239 207.598 156.012 207.451C155.786 207.304 155.474 207.23 155.077 207.23C154.805 207.23 154.528 207.236 154.244 207.247C153.972 207.247 153.706 207.253 153.445 207.264C153.196 207.275 152.969 207.292 152.765 207.315C152.561 207.326 152.391 207.338 152.255 207.349H152.17C152.08 207.349 152.006 207.326 151.949 207.281C151.893 207.236 151.864 207.156 151.864 207.043V205.666C151.864 205.473 151.972 205.349 152.187 205.292C152.505 205.213 152.93 205.133 153.462 205.054C154.006 204.975 154.562 204.935 155.128 204.935C155.74 204.935 156.29 205.003 156.777 205.139C157.276 205.264 157.695 205.468 158.035 205.751C158.375 206.023 158.636 206.38 158.817 206.822C159.01 207.253 159.106 207.78 159.106 208.403V214.472ZM156.403 210.647H155.434C155.14 210.647 154.896 210.675 154.703 210.732C154.511 210.777 154.358 210.851 154.244 210.953C154.131 211.055 154.052 211.185 154.006 211.344C153.961 211.503 153.938 211.684 153.938 211.888V212.041C153.938 212.404 154.023 212.636 154.193 212.738C154.375 212.84 154.647 212.891 155.009 212.891C155.27 212.891 155.514 212.857 155.74 212.789C155.978 212.71 156.199 212.619 156.403 212.517V210.647ZM166.476 206.89C166.476 206.969 166.453 207.043 166.408 207.111C166.363 207.179 166.3 207.213 166.221 207.213H166.085C165.666 207.213 165.275 207.27 164.912 207.383C164.549 207.496 164.209 207.638 163.892 207.808V214.455C163.892 214.546 163.858 214.631 163.79 214.71C163.722 214.778 163.643 214.812 163.552 214.812H161.495C161.404 214.812 161.319 214.778 161.24 214.71C161.172 214.631 161.138 214.546 161.138 214.455V205.411C161.138 205.32 161.172 205.241 161.24 205.173C161.308 205.105 161.387 205.071 161.478 205.071H163.501C163.592 205.071 163.671 205.105 163.739 205.173C163.807 205.241 163.841 205.32 163.841 205.411V205.751C164.158 205.49 164.515 205.292 164.912 205.156C165.32 205.009 165.728 204.935 166.136 204.935C166.227 204.935 166.306 204.969 166.374 205.037C166.442 205.105 166.476 205.184 166.476 205.275V206.89ZM175.689 214.03C175.689 214.166 175.655 214.268 175.587 214.336C175.53 214.404 175.388 214.466 175.162 214.523C174.674 214.648 174.113 214.75 173.479 214.829C172.844 214.92 172.198 214.965 171.541 214.965C170.158 214.965 169.098 214.585 168.362 213.826C167.636 213.067 167.274 211.996 167.274 210.613V209.287C167.274 207.95 167.625 206.89 168.328 206.108C169.03 205.326 170.101 204.935 171.541 204.935C171.711 204.935 171.92 204.946 172.17 204.969C172.43 204.992 172.685 205.02 172.935 205.054V202.113C172.935 202.022 172.969 201.943 173.037 201.875C173.105 201.807 173.184 201.773 173.275 201.773H175.332C175.422 201.773 175.502 201.807 175.57 201.875C175.649 201.943 175.689 202.022 175.689 202.113V214.03ZM172.935 207.298C172.731 207.275 172.498 207.258 172.238 207.247C171.977 207.224 171.745 207.213 171.541 207.213C171.235 207.213 170.985 207.264 170.793 207.366C170.6 207.468 170.447 207.615 170.334 207.808C170.22 207.989 170.141 208.21 170.096 208.471C170.05 208.72 170.028 208.992 170.028 209.287V210.613C170.028 210.919 170.05 211.202 170.096 211.463C170.141 211.712 170.22 211.933 170.334 212.126C170.447 212.307 170.6 212.449 170.793 212.551C170.985 212.653 171.235 212.704 171.541 212.704C171.824 212.704 172.085 212.693 172.323 212.67C172.572 212.647 172.776 212.625 172.935 212.602V207.298ZM184.54 212.109C184.54 212.506 184.466 212.88 184.319 213.231C184.172 213.582 183.945 213.888 183.639 214.149C183.344 214.398 182.97 214.597 182.517 214.744C182.064 214.891 181.525 214.965 180.902 214.965C180.664 214.965 180.409 214.954 180.137 214.931C179.876 214.92 179.604 214.897 179.321 214.863C179.049 214.829 178.783 214.789 178.522 214.744C178.261 214.699 178.023 214.648 177.808 214.591C177.593 214.534 177.485 214.404 177.485 214.2V212.823C177.485 212.732 177.513 212.659 177.57 212.602C177.627 212.534 177.706 212.5 177.808 212.5H177.876C178.103 212.534 178.352 212.568 178.624 212.602C178.907 212.625 179.185 212.647 179.457 212.67C179.729 212.693 179.978 212.71 180.205 212.721C180.443 212.732 180.63 212.738 180.766 212.738C181.174 212.738 181.44 212.687 181.565 212.585C181.701 212.472 181.769 212.302 181.769 212.075C181.769 211.95 181.724 211.837 181.633 211.735C181.542 211.622 181.378 211.497 181.14 211.361L178.93 210.086C178.454 209.814 178.08 209.468 177.808 209.049C177.547 208.618 177.417 208.125 177.417 207.57C177.417 206.709 177.7 206.057 178.267 205.615C178.845 205.162 179.723 204.935 180.902 204.935C181.571 204.935 182.132 204.975 182.585 205.054C183.05 205.122 183.497 205.213 183.928 205.326C184.143 205.383 184.251 205.513 184.251 205.717V207.094C184.251 207.309 184.155 207.417 183.962 207.417H183.911C183.786 207.406 183.611 207.389 183.384 207.366C183.157 207.332 182.908 207.304 182.636 207.281C182.375 207.258 182.103 207.241 181.82 207.23C181.548 207.207 181.304 207.196 181.089 207.196C180.76 207.196 180.528 207.23 180.392 207.298C180.256 207.366 180.188 207.496 180.188 207.689C180.188 207.814 180.233 207.921 180.324 208.012C180.415 208.091 180.545 208.182 180.715 208.284L182.823 209.491C183.174 209.695 183.458 209.905 183.673 210.12C183.9 210.324 184.075 210.539 184.2 210.766C184.336 210.981 184.427 211.202 184.472 211.429C184.517 211.656 184.54 211.882 184.54 212.109ZM199.529 204.476C199.529 204.567 199.506 204.629 199.461 204.663C199.416 204.686 199.353 204.697 199.274 204.697H199.223C198.815 204.674 198.305 204.646 197.693 204.612C197.081 204.578 196.412 204.561 195.687 204.561C195.347 204.561 195.035 204.606 194.752 204.697C194.48 204.788 194.248 204.946 194.055 205.173C193.862 205.388 193.715 205.683 193.613 206.057C193.511 206.431 193.46 206.896 193.46 207.451V209.576C193.46 210.165 193.517 210.647 193.63 211.021C193.755 211.395 193.908 211.69 194.089 211.905C194.282 212.12 194.491 212.268 194.718 212.347C194.945 212.426 195.16 212.466 195.364 212.466C195.829 212.466 196.265 212.449 196.673 212.415V208.505C196.673 208.414 196.701 208.335 196.758 208.267C196.826 208.199 196.905 208.165 196.996 208.165H199.172C199.263 208.165 199.342 208.199 199.41 208.267C199.478 208.335 199.512 208.414 199.512 208.505V214.217C199.512 214.432 199.399 214.563 199.172 214.608C198.707 214.699 198.169 214.778 197.557 214.846C196.945 214.925 196.214 214.965 195.364 214.965C195.035 214.965 194.69 214.931 194.327 214.863C193.964 214.795 193.602 214.682 193.239 214.523C192.888 214.364 192.548 214.149 192.219 213.877C191.89 213.605 191.596 213.271 191.335 212.874C191.086 212.477 190.887 212.007 190.74 211.463C190.593 210.908 190.519 210.273 190.519 209.559V207.451C190.519 206.363 190.672 205.473 190.978 204.782C191.284 204.079 191.681 203.524 192.168 203.116C192.667 202.708 193.222 202.425 193.834 202.266C194.457 202.107 195.075 202.028 195.687 202.028C196.537 202.028 197.262 202.079 197.863 202.181C198.464 202.272 198.923 202.351 199.24 202.419C199.433 202.453 199.529 202.538 199.529 202.674V204.476ZM209.16 214.472C209.16 214.563 209.126 214.642 209.058 214.71C208.99 214.778 208.911 214.812 208.82 214.812H206.916C206.825 214.812 206.746 214.778 206.678 214.71C206.61 214.642 206.576 214.563 206.576 214.472V214.2C206.247 214.438 205.896 214.625 205.522 214.761C205.159 214.897 204.723 214.965 204.213 214.965C203.839 214.965 203.476 214.914 203.125 214.812C202.785 214.721 202.479 214.563 202.207 214.336C201.935 214.109 201.714 213.809 201.544 213.435C201.385 213.061 201.306 212.596 201.306 212.041V211.888C201.306 210.891 201.635 210.165 202.292 209.712C202.961 209.247 204.026 209.015 205.488 209.015H206.406V208.403C206.406 207.916 206.293 207.598 206.066 207.451C205.839 207.304 205.528 207.23 205.131 207.23C204.859 207.23 204.581 207.236 204.298 207.247C204.026 207.247 203.76 207.253 203.499 207.264C203.25 207.275 203.023 207.292 202.819 207.315C202.615 207.326 202.445 207.338 202.309 207.349H202.224C202.133 207.349 202.06 207.326 202.003 207.281C201.946 207.236 201.918 207.156 201.918 207.043V205.666C201.918 205.473 202.026 205.349 202.241 205.292C202.558 205.213 202.983 205.133 203.516 205.054C204.06 204.975 204.615 204.935 205.182 204.935C205.794 204.935 206.344 205.003 206.831 205.139C207.33 205.264 207.749 205.468 208.089 205.751C208.429 206.023 208.69 206.38 208.871 206.822C209.064 207.253 209.16 207.78 209.16 208.403V214.472ZM206.457 210.647H205.488C205.193 210.647 204.95 210.675 204.757 210.732C204.564 210.777 204.411 210.851 204.298 210.953C204.185 211.055 204.105 211.185 204.06 211.344C204.015 211.503 203.992 211.684 203.992 211.888V212.041C203.992 212.404 204.077 212.636 204.247 212.738C204.428 212.84 204.7 212.891 205.063 212.891C205.324 212.891 205.567 212.857 205.794 212.789C206.032 212.71 206.253 212.619 206.457 212.517V210.647ZM224.027 214.455C224.027 214.546 223.987 214.631 223.908 214.71C223.84 214.778 223.761 214.812 223.67 214.812H221.613C221.522 214.812 221.443 214.778 221.375 214.71C221.307 214.631 221.273 214.546 221.273 214.455V208.658C221.273 208.114 221.199 207.746 221.052 207.553C220.905 207.349 220.633 207.247 220.236 207.247C220.089 207.247 219.896 207.27 219.658 207.315C219.431 207.349 219.188 207.428 218.927 207.553C218.961 207.893 218.978 208.261 218.978 208.658V214.455C218.978 214.546 218.944 214.631 218.876 214.71C218.808 214.778 218.729 214.812 218.638 214.812H216.581C216.49 214.812 216.405 214.778 216.326 214.71C216.258 214.631 216.224 214.546 216.224 214.455V208.658C216.224 208.114 216.156 207.746 216.02 207.553C215.895 207.349 215.635 207.247 215.238 207.247C215.079 207.247 214.887 207.287 214.66 207.366C214.445 207.445 214.207 207.553 213.946 207.689V214.455C213.946 214.546 213.912 214.631 213.844 214.71C213.776 214.778 213.697 214.812 213.606 214.812H211.549C211.458 214.812 211.373 214.778 211.294 214.71C211.226 214.631 211.192 214.546 211.192 214.455V205.411C211.192 205.32 211.226 205.241 211.294 205.173C211.362 205.105 211.441 205.071 211.532 205.071H213.47C213.561 205.071 213.64 205.105 213.708 205.173C213.776 205.241 213.81 205.32 213.81 205.411V205.785C214.173 205.547 214.558 205.349 214.966 205.19C215.374 205.02 215.827 204.935 216.326 204.935C216.779 204.935 217.165 205.003 217.482 205.139C217.811 205.264 218.094 205.473 218.332 205.768C218.581 205.632 218.814 205.513 219.029 205.411C219.244 205.298 219.46 205.207 219.675 205.139C219.89 205.071 220.111 205.02 220.338 204.986C220.576 204.952 220.831 204.935 221.103 204.935C221.658 204.935 222.123 205.026 222.497 205.207C222.882 205.388 223.183 205.643 223.398 205.972C223.625 206.289 223.783 206.68 223.874 207.145C223.976 207.598 224.027 208.103 224.027 208.658V214.455ZM234.312 210.392C234.312 210.664 234.193 210.8 233.955 210.8H228.532V210.834C228.532 211.072 228.56 211.304 228.617 211.531C228.674 211.758 228.77 211.956 228.906 212.126C229.042 212.296 229.218 212.432 229.433 212.534C229.66 212.636 229.943 212.687 230.283 212.687C230.555 212.687 230.844 212.681 231.15 212.67C231.456 212.659 231.756 212.647 232.051 212.636C232.357 212.625 232.64 212.613 232.901 212.602C233.162 212.579 233.377 212.557 233.547 212.534H233.598C233.813 212.534 233.921 212.625 233.921 212.806V214.098C233.921 214.234 233.898 214.336 233.853 214.404C233.808 214.472 233.711 214.523 233.564 214.557C233.02 214.693 232.487 214.795 231.966 214.863C231.445 214.931 230.816 214.965 230.079 214.965C229.569 214.965 229.059 214.891 228.549 214.744C228.039 214.597 227.58 214.353 227.172 214.013C226.764 213.673 226.435 213.225 226.186 212.67C225.937 212.103 225.812 211.412 225.812 210.596V209.406C225.812 208.726 225.908 208.108 226.101 207.553C226.294 206.998 226.571 206.527 226.934 206.142C227.308 205.757 227.761 205.462 228.294 205.258C228.827 205.043 229.433 204.935 230.113 204.935C230.804 204.935 231.411 205.048 231.932 205.275C232.465 205.502 232.907 205.813 233.258 206.21C233.609 206.607 233.87 207.077 234.04 207.621C234.221 208.165 234.312 208.76 234.312 209.406V210.392ZM231.626 209.032C231.626 208.397 231.49 207.927 231.218 207.621C230.946 207.304 230.572 207.145 230.096 207.145C229.62 207.145 229.24 207.304 228.957 207.621C228.674 207.938 228.532 208.409 228.532 209.032V209.1H231.626V209.032Z" fill="white"/>
<mask id="mask0" mask-type="alpha" maskUnits="userSpaceOnUse" x="53" y="47" width="59" height="59">
<rect x="53" y="47" width="58.2733" height="58.2733" rx="10" fill="white"/>
</mask>
<g mask="url(#mask0)">
<rect x="53" y="47" width="111.228" height="74.4113" fill="white"/>
</g>
<path d="M91.4304 64.469C93.0511 66.8741 93.9141 69.7088 93.9097 72.6088C93.9156 76.6642 92.2289 80.5385 89.2561 83.2968C90.7722 81.2071 91.5862 78.6908 91.5825 76.1091C91.5907 69.3548 86.1224 63.8732 79.3681 63.8643C79.3666 63.8643 79.3659 63.8643 79.3644 63.8643C73.1199 63.8709 67.8831 68.5816 67.219 74.7905C67.1841 75.1763 67.1574 75.5622 67.1544 75.9555C67.1544 76.0067 67.147 76.0564 67.147 76.1069C67.1433 80.6298 69.1899 84.9108 72.7125 87.7485C71.0911 85.3419 70.2273 82.5057 70.2318 79.6035C70.2273 75.5503 71.9133 71.679 74.883 68.9207C73.367 71.0104 72.5529 73.5267 72.5567 76.1076C72.5492 82.8627 78.0183 88.3443 84.7733 88.3525C84.7741 88.3525 84.7741 88.3525 84.7748 88.3525C91.5291 88.3458 96.9989 82.8642 96.9915 76.1106C96.9915 76.1099 96.9915 76.1091 96.9915 76.1084H96.9967C97.0004 71.5862 94.9537 67.3052 91.4304 64.469Z" fill="white"/>
<path d="M82.0693 57.1436C78.655 57.1406 75.3053 58.0682 72.3786 59.8261C71.0993 60.5326 69.9335 61.4275 68.9198 62.4805C65.2228 66.0506 63.1384 70.9705 63.1436 76.1093C63.1324 86.5725 71.6054 95.064 82.0685 95.0751C85.4442 95.0766 88.7583 94.1683 91.662 92.446C92.9851 91.7276 94.1902 90.8097 95.2328 89.724C98.9209 86.1562 101.002 81.243 100.997 76.1108C101.008 65.6469 92.5354 57.1554 82.0722 57.1436C82.0715 57.1436 82.07 57.1436 82.0693 57.1436ZM84.7741 88.3535C78.0191 88.3468 72.5493 82.8651 72.556 76.1101C72.556 76.1093 72.556 76.1093 72.556 76.1086C72.5515 73.5269 73.3663 71.0106 74.8823 68.9217C71.9111 71.6799 70.2251 75.552 70.2296 79.606C70.2244 82.5074 71.0881 85.3444 72.7103 87.7509C69.1877 84.914 67.1411 80.633 67.1448 76.1101C67.1448 76.0589 67.1515 76.0092 67.1522 75.9579C67.1559 75.5647 67.1834 75.1773 67.2168 74.7929C67.8817 68.584 73.1177 63.8726 79.3622 63.866C86.1165 63.8726 91.5863 69.3528 91.5803 76.1071C91.5803 76.1086 91.5803 76.1093 91.5803 76.1108C91.5848 78.6925 90.7708 81.2088 89.2547 83.2985C92.2282 80.5402 93.9149 76.6666 93.9097 72.6112C93.9142 69.7112 93.0504 66.8765 91.4305 64.4715C94.953 67.3077 96.9997 71.5879 96.996 76.1108H96.9893C96.9974 82.8651 91.5291 88.3468 84.7748 88.3549C84.7748 88.3535 84.7748 88.3535 84.7741 88.3535Z" fill="#8331A7"/>
<mask id="mask1" mask-type="alpha" maskUnits="userSpaceOnUse" x="53" y="114" width="59" height="59">
<rect x="53" y="114.623" width="58.2733" height="58.2733" rx="10" fill="white"/>
</mask>
<g mask="url(#mask1)">
<rect x="53" y="114.623" width="111.228" height="74.4113" fill="white"/>
</g>
<path d="M91.4304 132.092C93.0511 134.497 93.9141 137.332 93.9097 140.232C93.9156 144.287 92.2289 148.162 89.2561 150.92C90.7722 148.83 91.5862 146.314 91.5825 143.732C91.5907 136.978 86.1224 131.496 79.3681 131.487C79.3666 131.487 79.3659 131.487 79.3644 131.487C73.1199 131.494 67.8831 136.205 67.219 142.414C67.1841 142.799 67.1574 143.185 67.1544 143.579C67.1544 143.63 67.147 143.679 67.147 143.73C67.1433 148.253 69.1899 152.534 72.7125 155.372C71.0911 152.965 70.2273 150.129 70.2318 147.227C70.2273 143.173 71.9133 139.302 74.883 136.544C73.367 138.633 72.5529 141.15 72.5567 143.731C72.5492 150.486 78.0183 155.967 84.7733 155.976C84.7741 155.976 84.7741 155.976 84.7748 155.976C91.5291 155.969 96.9989 150.487 96.9915 143.734C96.9915 143.733 96.9915 143.732 96.9915 143.731H96.9967C97.0004 139.209 94.9537 134.928 91.4304 132.092Z" fill="white"/>
<path d="M82.0693 124.767C78.655 124.764 75.3053 125.691 72.3786 127.449C71.0993 128.156 69.9335 129.051 68.9198 130.104C65.2228 133.674 63.1384 138.594 63.1436 143.732C63.1324 154.196 71.6054 162.687 82.0685 162.698C85.4442 162.7 88.7583 161.791 91.662 160.069C92.9851 159.351 94.1902 158.433 95.2328 157.347C98.9209 153.779 101.002 148.866 100.997 143.734C101.008 133.27 92.5354 124.778 82.0722 124.767C82.0715 124.767 82.07 124.767 82.0693 124.767ZM84.7741 155.976C78.0191 155.97 72.5493 150.488 72.556 143.733C72.556 143.732 72.556 143.732 72.556 143.732C72.5515 141.15 73.3663 138.634 74.8823 136.545C71.9111 139.303 70.2251 143.175 70.2296 147.229C70.2244 150.13 71.0881 152.967 72.7103 155.374C69.1877 152.537 67.1411 148.256 67.1448 143.733C67.1448 143.682 67.1515 143.632 67.1522 143.581C67.1559 143.188 67.1834 142.8 67.2168 142.416C67.8817 136.207 73.1177 131.496 79.3622 131.489C86.1165 131.496 91.5863 136.976 91.5803 143.73C91.5803 143.732 91.5803 143.732 91.5803 143.734C91.5848 146.316 90.7708 148.832 89.2547 150.922C92.2282 148.163 93.9149 144.29 93.9097 140.234C93.9142 137.334 93.0504 134.5 91.4305 132.095C94.953 134.931 96.9997 139.211 96.996 143.734H96.9893C96.9974 150.488 91.5291 155.97 84.7748 155.978C84.7748 155.976 84.7748 155.976 84.7741 155.976Z" fill="#8331A7"/>
<mask id="mask2" mask-type="alpha" maskUnits="userSpaceOnUse" x="119" y="47" width="60" height="59">
<rect x="119.947" y="47" width="58.2733" height="58.2733" rx="10" fill="white"/>
</mask>
<g mask="url(#mask2)">
<rect x="119.947" y="47" width="111.228" height="74.4113" fill="white"/>
</g>
<path d="M158.377 64.469C159.997 66.8741 160.86 69.7088 160.856 72.6088C160.862 76.6642 159.175 80.5385 156.202 83.2968C157.718 81.2071 158.533 78.6908 158.529 76.1091C158.537 69.3548 153.069 63.8732 146.314 63.8643C146.313 63.8643 146.312 63.8643 146.311 63.8643C140.066 63.8709 134.829 68.5816 134.165 74.7905C134.13 75.1763 134.104 75.5622 134.101 75.9555C134.101 76.0067 134.093 76.0564 134.093 76.1069C134.09 80.6298 136.136 84.9108 139.659 87.7485C138.037 85.3419 137.174 82.5057 137.178 79.6035C137.174 75.5503 138.86 71.679 141.829 68.9207C140.313 71.0104 139.499 73.5267 139.503 76.1076C139.496 82.8627 144.965 88.3443 151.72 88.3525C151.72 88.3525 151.72 88.3525 151.721 88.3525C158.475 88.3458 163.945 82.8642 163.938 76.1106C163.938 76.1099 163.938 76.1091 163.938 76.1084H163.943C163.947 71.5862 161.9 67.3052 158.377 64.469Z" fill="white"/>
<path d="M149.016 57.1436C145.602 57.1406 142.252 58.0682 139.325 59.8261C138.046 60.5326 136.88 61.4275 135.867 62.4805C132.17 66.0506 130.085 70.9705 130.09 76.1093C130.079 86.5725 138.552 95.064 149.015 95.0751C152.391 95.0766 155.705 94.1683 158.609 92.446C159.932 91.7276 161.137 90.8097 162.18 89.724C165.868 86.1562 167.948 81.243 167.944 76.1108C167.955 65.6469 159.482 57.1554 149.019 57.1436C149.018 57.1436 149.017 57.1436 149.016 57.1436ZM151.721 88.3535C144.966 88.3468 139.496 82.8651 139.503 76.1101C139.503 76.1093 139.503 76.1093 139.503 76.1086C139.498 73.5269 140.313 71.0106 141.829 68.9217C138.858 71.6799 137.172 75.552 137.176 79.606C137.171 82.5074 138.035 85.3444 139.657 87.7509C136.134 84.914 134.088 80.633 134.092 76.1101C134.092 76.0589 134.098 76.0092 134.099 75.9579C134.103 75.5647 134.13 75.1773 134.164 74.7929C134.828 68.584 140.064 63.8726 146.309 63.866C153.063 63.8726 158.533 69.3528 158.527 76.1071C158.527 76.1086 158.527 76.1093 158.527 76.1108C158.532 78.6925 157.718 81.2088 156.201 83.2985C159.175 80.5402 160.862 76.6666 160.856 72.6112C160.861 69.7112 159.997 66.8765 158.377 64.4715C161.9 67.3077 163.946 71.5879 163.943 76.1108H163.936C163.944 82.8651 158.476 88.3468 151.722 88.3549C151.722 88.3535 151.722 88.3535 151.721 88.3535Z" fill="#8331A7"/>
<mask id="mask3" mask-type="alpha" maskUnits="userSpaceOnUse" x="119" y="114" width="60" height="59">
<rect x="119.947" y="114.623" width="58.2733" height="58.2733" rx="10" fill="white"/>
</mask>
<g mask="url(#mask3)">
<rect x="119.947" y="114.623" width="111.228" height="74.4113" fill="white"/>
</g>
<path d="M158.377 132.092C159.997 134.497 160.86 137.332 160.856 140.232C160.862 144.287 159.175 148.162 156.202 150.92C157.718 148.83 158.533 146.314 158.529 143.732C158.537 136.978 153.069 131.496 146.314 131.487C146.313 131.487 146.312 131.487 146.311 131.487C140.066 131.494 134.829 136.205 134.165 142.414C134.13 142.799 134.104 143.185 134.101 143.579C134.101 143.63 134.093 143.679 134.093 143.73C134.09 148.253 136.136 152.534 139.659 155.372C138.037 152.965 137.174 150.129 137.178 147.227C137.174 143.173 138.86 139.302 141.829 136.544C140.313 138.633 139.499 141.15 139.503 143.731C139.496 150.486 144.965 155.967 151.72 155.976C151.72 155.976 151.72 155.976 151.721 155.976C158.475 155.969 163.945 150.487 163.938 143.734C163.938 143.733 163.938 143.732 163.938 143.731H163.943C163.947 139.209 161.9 134.928 158.377 132.092Z" fill="white"/>
<path d="M149.016 124.767C145.602 124.764 142.252 125.691 139.325 127.449C138.046 128.156 136.88 129.051 135.867 130.104C132.17 133.674 130.085 138.594 130.09 143.732C130.079 154.196 138.552 162.687 149.015 162.698C152.391 162.7 155.705 161.791 158.609 160.069C159.932 159.351 161.137 158.433 162.18 157.347C165.868 153.779 167.948 148.866 167.944 143.734C167.955 133.27 159.482 124.778 149.019 124.767C149.018 124.767 149.017 124.767 149.016 124.767ZM151.721 155.976C144.966 155.97 139.496 150.488 139.503 143.733C139.503 143.732 139.503 143.732 139.503 143.732C139.498 141.15 140.313 138.634 141.829 136.545C138.858 139.303 137.172 143.175 137.176 147.229C137.171 150.13 138.035 152.967 139.657 155.374C136.134 152.537 134.088 148.256 134.092 143.733C134.092 143.682 134.098 143.632 134.099 143.581C134.103 143.188 134.13 142.8 134.164 142.416C134.828 136.207 140.064 131.496 146.309 131.489C153.063 131.496 158.533 136.976 158.527 143.73C158.527 143.732 158.527 143.732 158.527 143.734C158.532 146.316 157.718 148.832 156.201 150.922C159.175 148.163 160.862 144.29 160.856 140.234C160.861 137.334 159.997 134.5 158.377 132.095C161.9 134.931 163.946 139.211 163.943 143.734H163.936C163.944 150.488 158.476 155.97 151.722 155.978C151.722 155.976 151.722 155.976 151.721 155.976Z" fill="#8331A7"/>
<mask id="mask4" mask-type="alpha" maskUnits="userSpaceOnUse" x="186" y="47" width="60" height="59">
<rect x="186.894" y="47" width="58.2733" height="58.2733" rx="10" fill="white"/>
</mask>
<g mask="url(#mask4)">
<rect x="186.894" y="47" width="111.228" height="74.4113" fill="white"/>
</g>
<path d="M225.323 64.469C226.944 66.8741 227.807 69.7088 227.803 72.6088C227.809 76.6642 226.122 80.5385 223.149 83.2968C224.665 81.2071 225.479 78.6908 225.476 76.1091C225.484 69.3548 220.015 63.8732 213.261 63.8643C213.26 63.8643 213.259 63.8643 213.257 63.8643C207.013 63.8709 201.776 68.5816 201.112 74.7905C201.077 75.1763 201.05 75.5622 201.047 75.9555C201.047 76.0067 201.04 76.0564 201.04 76.1069C201.036 80.6298 203.083 84.9108 206.606 87.7485C204.984 85.3419 204.12 82.5057 204.125 79.6035C204.12 75.5503 205.806 71.679 208.776 68.9207C207.26 71.0104 206.446 73.5267 206.45 76.1076C206.442 82.8627 211.911 88.3443 218.666 88.3525C218.667 88.3525 218.667 88.3525 218.668 88.3525C225.422 88.3458 230.892 82.8642 230.885 76.1106C230.885 76.1099 230.885 76.1091 230.885 76.1084H230.89C230.893 71.5862 228.847 67.3052 225.323 64.469Z" fill="white"/>
<path d="M215.963 57.1436C212.549 57.1406 209.199 58.0682 206.272 59.8261C204.993 60.5326 203.827 61.4275 202.813 62.4805C199.116 66.0506 197.032 70.9705 197.037 76.1093C197.026 86.5725 205.499 95.064 215.962 95.0751C219.338 95.0766 222.652 94.1683 225.556 92.446C226.879 91.7276 228.084 90.8097 229.126 89.724C232.814 86.1562 234.895 81.243 234.891 76.1108C234.902 65.6469 226.429 57.1554 215.966 57.1436C215.965 57.1436 215.964 57.1436 215.963 57.1436ZM218.668 88.3535C211.913 88.3468 206.443 82.8651 206.45 76.1101C206.45 76.1093 206.45 76.1093 206.45 76.1086C206.445 73.5269 207.26 71.0106 208.776 68.9217C205.805 71.6799 204.119 75.552 204.123 79.606C204.118 82.5074 204.982 85.3444 206.604 87.7509C203.081 84.914 201.035 80.633 201.038 76.1101C201.038 76.0589 201.045 76.0092 201.046 75.9579C201.049 75.5647 201.077 75.1773 201.11 74.7929C201.775 68.584 207.011 63.8726 213.256 63.866C220.01 63.8726 225.48 69.3528 225.474 76.1071C225.474 76.1086 225.474 76.1093 225.474 76.1108C225.478 78.6925 224.664 81.2088 223.148 83.2985C226.122 80.5402 227.808 76.6666 227.803 72.6112C227.808 69.7112 226.944 66.8765 225.324 64.4715C228.847 67.3077 230.893 71.5879 230.89 76.1108H230.883C230.891 82.8651 225.423 88.3468 218.668 88.3549C218.668 88.3535 218.668 88.3535 218.668 88.3535Z" fill="#8331A7"/>
<mask id="mask5" mask-type="alpha" maskUnits="userSpaceOnUse" x="186" y="114" width="60" height="59">
<rect x="186.894" y="114.623" width="58.2733" height="58.2733" rx="10" fill="white"/>
</mask>
<g mask="url(#mask5)">
<rect x="186.894" y="114.623" width="111.228" height="74.4113" fill="white"/>
</g>
<path d="M225.323 132.092C226.944 134.497 227.807 137.332 227.803 140.232C227.809 144.287 226.122 148.162 223.149 150.92C224.665 148.83 225.479 146.314 225.476 143.732C225.484 136.978 220.015 131.496 213.261 131.487C213.26 131.487 213.259 131.487 213.257 131.487C207.013 131.494 201.776 136.205 201.112 142.414C201.077 142.799 201.05 143.185 201.047 143.579C201.047 143.63 201.04 143.679 201.04 143.73C201.036 148.253 203.083 152.534 206.606 155.372C204.984 152.965 204.12 150.129 204.125 147.227C204.12 143.173 205.806 139.302 208.776 136.544C207.26 138.633 206.446 141.15 206.45 143.731C206.442 150.486 211.911 155.967 218.666 155.976C218.667 155.976 218.667 155.976 218.668 155.976C225.422 155.969 230.892 150.487 230.885 143.734C230.885 143.733 230.885 143.732 230.885 143.731H230.89C230.893 139.209 228.847 134.928 225.323 132.092Z" fill="white"/>
<path d="M215.963 124.767C212.549 124.764 209.199 125.691 206.272 127.449C204.993 128.156 203.827 129.051 202.813 130.104C199.116 133.674 197.032 138.594 197.037 143.732C197.026 154.196 205.499 162.687 215.962 162.698C219.338 162.7 222.652 161.791 225.556 160.069C226.879 159.351 228.084 158.433 229.126 157.347C232.814 153.779 234.895 148.866 234.891 143.734C234.902 133.27 226.429 124.778 215.966 124.767C215.965 124.767 215.964 124.767 215.963 124.767ZM218.668 155.976C211.913 155.97 206.443 150.488 206.45 143.733C206.45 143.732 206.45 143.732 206.45 143.732C206.445 141.15 207.26 138.634 208.776 136.545C205.805 139.303 204.119 143.175 204.123 147.229C204.118 150.13 204.982 152.967 206.604 155.374C203.081 152.537 201.035 148.256 201.038 143.733C201.038 143.682 201.045 143.632 201.046 143.581C201.049 143.188 201.077 142.8 201.11 142.416C201.775 136.207 207.011 131.496 213.256 131.489C220.01 131.496 225.48 136.976 225.474 143.73C225.474 143.732 225.474 143.732 225.474 143.734C225.478 146.316 224.664 148.832 223.148 150.922C226.122 148.163 227.808 144.29 227.803 140.234C227.808 137.334 226.944 134.5 225.324 132.095C228.847 134.931 230.893 139.211 230.89 143.734H230.883C230.891 150.488 225.423 155.97 218.668 155.978C218.668 155.976 218.668 155.976 218.668 155.976Z" fill="#8331A7"/>
<defs>
<filter id="filter0_b" x="17" y="150" width="268.545" height="119" filterUnits="userSpaceOnUse" color-interpolation-filters="sRGB">
<feFlood flood-opacity="0" result="BackgroundImageFix"/>
<feGaussianBlur in="BackgroundImage" stdDeviation="18"/>
<feComposite in2="SourceAlpha" operator="in" result="effect1_backgroundBlur"/>
<feBlend mode="normal" in="SourceGraphic" in2="effect1_backgroundBlur" result="shape"/>
</filter>
</defs>
</svg>
