<svg width="1131" height="710" viewBox="0 0 1131 710" fill="none" xmlns="http://www.w3.org/2000/svg">
<path d="M1056.71 193.509L1087.19 184.609" stroke="#8331A7" stroke-width="5" stroke-miterlimit="10" stroke-linecap="round"/>
<path d="M1035.63 131.406L1025.28 160.312" stroke="#8331A7" stroke-width="5" stroke-miterlimit="10" stroke-linecap="round"/>
<path d="M1045.8 172.32L1080.23 134.621" stroke="#8331A7" stroke-width="5" stroke-miterlimit="10" stroke-linecap="round"/>
<path d="M651.384 606.747L612.679 584.41V629.101L651.384 606.747Z" fill="#8331A7"/>
<path d="M703.633 606.747L664.928 584.41V629.101L703.633 606.747Z" fill="#8331A7"/>
<path d="M313.225 22.3368L274.52 0V44.6912L313.225 22.3368Z" fill="#8331A7"/>
<path d="M365.473 22.3368L326.768 0V44.6912L365.473 22.3368Z" fill="#8331A7"/>
<path d="M463.031 126.234H496.157" stroke="#8331A7" stroke-width="5" stroke-miterlimit="10" stroke-linecap="round"/>
<path d="M479.595 142.796V109.688" stroke="#8331A7" stroke-width="5" stroke-miterlimit="10" stroke-linecap="round"/>
<path d="M1040.26 369.979H1086.73" stroke="#8331A7" stroke-width="5" stroke-miterlimit="10" stroke-linecap="round"/>
<path d="M1063.49 393.216V346.741" stroke="#8331A7" stroke-width="5" stroke-miterlimit="10" stroke-linecap="round"/>
<path d="M83.394 522.503H133.365" stroke="#8331A7" stroke-width="5" stroke-miterlimit="10" stroke-linecap="round"/>
<path d="M108.38 547.489V497.501" stroke="#8331A7" stroke-width="5" stroke-miterlimit="10" stroke-linecap="round"/>
<path d="M235.973 82.4775H381.047" stroke="#F45197" stroke-width="5" stroke-miterlimit="10" stroke-linecap="round"/>
<path d="M422.719 608.178H567.776" stroke="#80BC00" stroke-width="5" stroke-miterlimit="10" stroke-linecap="round"/>
<path d="M11.7407 146.683H268.852" stroke="#8331A7" stroke-width="5" stroke-miterlimit="10" stroke-linecap="round"/>
<path d="M108.186 290.255H271.624" stroke="#80BC00" stroke-width="5" stroke-miterlimit="10" stroke-linecap="round"/>
<path d="M151.059 271.131H229.723" stroke="#8331A7" stroke-width="5" stroke-miterlimit="10" stroke-linecap="round"/>
<path d="M896.806 402.646H961.362" stroke="#8331A7" stroke-width="5" stroke-miterlimit="10" stroke-linecap="round"/>
<path d="M851.938 339.166L919.884 182.137V181.113H299.805L231.417 339.166H851.938Z" fill="#00A0D7"/>
<path d="M882.663 423.268C877.817 419.501 873.852 414.723 871.044 409.265C868.437 403.974 866.941 398.205 866.647 392.314C866.268 383.051 867.572 373.796 870.497 364.998H291.206L222.819 550.402H836.276L886.848 426.252C885.417 425.316 884.005 424.31 882.663 423.268Z" fill="#F45197"/>
<path d="M186.02 227.094H307.204" stroke="#80BC00" stroke-width="5" stroke-miterlimit="10" stroke-linecap="round"/>
<path d="M884.94 192.767V191.743H264.861L196.473 349.813H264.861L196.473 535.217H816.994L884.94 351.014V349.813" stroke="#8331A7" stroke-width="2.5" stroke-miterlimit="10"/>
<path d="M379.634 291.022C379.634 291.755 379.434 292.289 379.034 292.622C378.7 292.889 378.167 293.122 377.434 293.322C376.367 293.655 374.5 294.022 371.834 294.422C369.167 294.822 366.067 295.022 362.534 295.022C358.734 295.022 355.034 294.489 351.434 293.422C347.9 292.355 344.767 290.589 342.034 288.122C339.3 285.589 337.1 282.289 335.434 278.222C333.767 274.155 332.934 269.155 332.934 263.222V250.622C332.934 244.689 333.767 239.689 335.434 235.622C337.1 231.555 339.3 228.289 342.034 225.822C344.767 223.355 347.9 221.589 351.434 220.522C355.034 219.455 358.734 218.922 362.534 218.922C366.067 218.922 369.167 219.122 371.834 219.522C374.5 219.922 376.367 220.289 377.434 220.622C378.167 220.822 378.7 221.055 379.034 221.322C379.434 221.589 379.634 222.089 379.634 222.822V232.522C379.634 233.855 379 234.522 377.734 234.522H377.434C375.5 234.389 373.234 234.222 370.634 234.022C368.1 233.822 365.434 233.722 362.634 233.722C360.9 233.722 359.267 233.989 357.734 234.522C356.267 234.989 354.967 235.889 353.834 237.222C352.7 238.489 351.8 240.222 351.134 242.422C350.534 244.555 350.234 247.289 350.234 250.622V263.222C350.234 266.555 350.534 269.322 351.134 271.522C351.8 273.655 352.7 275.389 353.834 276.722C354.967 277.989 356.267 278.889 357.734 279.422C359.267 279.889 360.9 280.122 362.634 280.122C365.434 280.122 368.1 280.022 370.634 279.822C373.234 279.622 375.5 279.455 377.434 279.322H377.734C379 279.322 379.634 279.989 379.634 281.322V291.022ZM446.04 262.922C446.04 268.722 445.273 273.655 443.74 277.722C442.207 281.789 440.107 285.122 437.44 287.722C434.773 290.255 431.64 292.122 428.04 293.322C424.44 294.455 420.573 295.022 416.44 295.022C412.307 295.022 408.44 294.455 404.84 293.322C401.24 292.122 398.107 290.255 395.44 287.722C392.773 285.122 390.673 281.789 389.14 277.722C387.607 273.655 386.84 268.722 386.84 262.922V251.022C386.84 245.222 387.607 240.289 389.14 236.222C390.673 232.155 392.773 228.855 395.44 226.322C398.107 223.722 401.24 221.855 404.84 220.722C408.44 219.522 412.307 218.922 416.44 218.922C420.573 218.922 424.44 219.522 428.04 220.722C431.64 221.855 434.773 223.722 437.44 226.322C440.107 228.855 442.207 232.155 443.74 236.222C445.273 240.289 446.04 245.222 446.04 251.022V262.922ZM428.84 251.022C428.84 244.955 427.807 240.589 425.74 237.922C423.74 235.255 420.64 233.922 416.44 233.922C412.24 233.922 409.14 235.255 407.14 237.922C405.14 240.589 404.14 244.955 404.14 251.022V262.922C404.14 268.989 405.14 273.355 407.14 276.022C409.14 278.689 412.24 280.022 416.44 280.022C420.64 280.022 423.74 278.689 425.74 276.022C427.807 273.355 428.84 268.989 428.84 262.922V251.022ZM525.964 292.722C525.964 293.255 525.764 293.622 525.364 293.822C525.031 294.022 524.664 294.122 524.264 294.122H511.064C510.598 294.122 510.198 293.922 509.864 293.522C509.598 293.122 509.464 292.655 509.464 292.122V250.422C509.464 249.889 509.298 249.622 508.964 249.622C508.698 249.622 508.431 249.855 508.164 250.322L499.164 266.822C498.498 267.955 497.498 268.522 496.164 268.522H488.164C486.831 268.522 485.831 267.955 485.164 266.822L476.164 250.322C475.898 249.855 475.631 249.622 475.364 249.622C475.031 249.622 474.864 249.889 474.864 250.422V292.122C474.864 292.655 474.698 293.122 474.364 293.522C474.098 293.922 473.731 294.122 473.264 294.122H460.064C459.664 294.122 459.264 294.022 458.864 293.822C458.531 293.622 458.364 293.255 458.364 292.722V223.222C458.364 222.155 458.698 221.322 459.364 220.722C460.031 220.122 460.898 219.822 461.964 219.822H471.364C473.364 219.822 474.831 220.722 475.764 222.522L491.064 251.022C491.464 251.889 491.831 252.322 492.164 252.322C492.431 252.322 492.798 251.889 493.264 251.022L508.564 222.522C509.498 220.722 510.964 219.822 512.964 219.822H522.364C523.431 219.822 524.298 220.155 524.964 220.822C525.631 221.422 525.964 222.255 525.964 223.322V292.722ZM557.105 292.122C557.105 292.655 556.905 293.122 556.505 293.522C556.172 293.922 555.738 294.122 555.205 294.122H541.805C541.272 294.122 540.838 293.922 540.505 293.522C540.172 293.122 540.005 292.655 540.005 292.122V221.722C540.005 220.455 540.605 219.822 541.805 219.822H555.205C556.472 219.822 557.105 220.455 557.105 221.722V292.122ZM629.96 290.322C629.96 291.389 629.56 292.289 628.76 293.022C628.026 293.755 627.126 294.122 626.06 294.122H616.26C615.193 294.122 614.26 293.955 613.46 293.622C612.66 293.222 611.86 292.355 611.06 291.022L588.26 251.622C587.926 251.089 587.626 250.822 587.36 250.822C587.026 250.822 586.86 251.089 586.86 251.622V292.122C586.86 292.655 586.66 293.122 586.26 293.522C585.86 293.922 585.393 294.122 584.86 294.122H573.06C572.526 294.122 572.06 293.922 571.66 293.522C571.26 293.122 571.06 292.655 571.06 292.122V223.622C571.06 222.555 571.426 221.655 572.16 220.922C572.893 220.189 573.793 219.822 574.86 219.822H584.96C585.96 219.822 586.76 220.089 587.36 220.622C587.96 221.089 588.56 221.855 589.16 222.922L612.86 264.122C613.193 264.655 613.46 264.922 613.66 264.922C613.993 264.922 614.16 264.622 614.16 264.022V221.722C614.16 221.189 614.36 220.755 614.76 220.422C615.16 220.022 615.626 219.822 616.16 219.822H627.96C628.493 219.822 628.96 220.022 629.36 220.422C629.76 220.755 629.96 221.189 629.96 221.722V290.322ZM694.911 233.322C694.911 233.855 694.778 234.222 694.511 234.422C694.244 234.555 693.878 234.622 693.411 234.622H693.111C690.711 234.489 687.711 234.322 684.111 234.122C680.511 233.922 676.578 233.822 672.311 233.822C670.311 233.822 668.478 234.089 666.811 234.622C665.211 235.155 663.844 236.089 662.711 237.422C661.578 238.689 660.711 240.422 660.111 242.622C659.511 244.822 659.211 247.555 659.211 250.822V263.322C659.211 266.789 659.544 269.622 660.211 271.822C660.944 274.022 661.844 275.755 662.911 277.022C664.044 278.289 665.278 279.155 666.611 279.622C667.944 280.089 669.211 280.322 670.411 280.322C673.144 280.322 675.711 280.222 678.111 280.022V257.022C678.111 256.489 678.278 256.022 678.611 255.622C679.011 255.222 679.478 255.022 680.011 255.022H692.811C693.344 255.022 693.811 255.222 694.211 255.622C694.611 256.022 694.811 256.489 694.811 257.022V290.622C694.811 291.889 694.144 292.655 692.811 292.922C690.078 293.455 686.911 293.922 683.311 294.322C679.711 294.789 675.411 295.022 670.411 295.022C668.478 295.022 666.444 294.822 664.311 294.422C662.178 294.022 660.044 293.355 657.911 292.422C655.844 291.489 653.844 290.222 651.911 288.622C649.978 287.022 648.244 285.055 646.711 282.722C645.244 280.389 644.078 277.622 643.211 274.422C642.344 271.155 641.911 267.422 641.911 263.222V250.822C641.911 244.422 642.811 239.189 644.611 235.122C646.411 230.989 648.744 227.722 651.611 225.322C654.544 222.922 657.811 221.255 661.411 220.322C665.078 219.389 668.711 218.922 672.311 218.922C677.311 218.922 681.578 219.222 685.111 219.822C688.644 220.355 691.344 220.822 693.211 221.222C694.344 221.422 694.911 221.922 694.911 222.722V233.322Z" fill="white"/>
<path d="M429.909 463.824C429.909 466.491 429.442 469.124 428.509 471.724C427.576 474.324 426.009 476.658 423.809 478.724C421.676 480.791 418.876 482.491 415.409 483.824C411.942 485.091 407.676 485.724 402.609 485.724C398.609 485.724 395.076 485.524 392.009 485.124C389.009 484.724 386.242 484.191 383.709 483.524C383.176 483.391 382.709 483.158 382.309 482.824C381.909 482.491 381.709 482.058 381.709 481.524V471.724C381.709 470.991 381.876 470.491 382.209 470.224C382.542 469.958 382.976 469.824 383.509 469.824H383.809C384.809 469.958 386.176 470.091 387.909 470.224C389.709 470.358 391.542 470.491 393.409 470.624C395.276 470.691 397.042 470.791 398.709 470.924C400.442 470.991 401.809 471.024 402.809 471.024C406.276 471.024 408.609 470.458 409.809 469.324C411.076 468.191 411.709 466.424 411.709 464.024C411.709 462.558 411.242 461.324 410.309 460.324C409.442 459.258 407.709 457.958 405.109 456.424L391.309 448.224C388.976 446.824 387.042 445.391 385.509 443.924C384.042 442.458 382.842 440.924 381.909 439.324C381.042 437.724 380.409 436.091 380.009 434.424C379.676 432.691 379.509 430.924 379.509 429.124C379.509 426.391 379.909 423.858 380.709 421.524C381.576 419.124 383.009 417.058 385.009 415.324C387.009 413.524 389.642 412.124 392.909 411.124C396.176 410.124 400.242 409.624 405.109 409.624C406.909 409.624 408.842 409.691 410.909 409.824C413.042 409.958 415.076 410.124 417.009 410.324C418.942 410.524 420.742 410.758 422.409 411.024C424.076 411.291 425.376 411.558 426.309 411.824C426.709 411.958 427.042 412.158 427.309 412.424C427.642 412.691 427.809 413.091 427.809 413.624V423.724C427.809 424.191 427.676 424.591 427.409 424.924C427.209 425.258 426.776 425.424 426.109 425.424H425.909C425.176 425.358 423.976 425.291 422.309 425.224C420.709 425.091 418.876 424.958 416.809 424.824C414.742 424.691 412.609 424.591 410.409 424.524C408.276 424.391 406.376 424.324 404.709 424.324C401.842 424.324 399.809 424.758 398.609 425.624C397.476 426.491 396.909 427.824 396.909 429.624C396.909 430.358 397.009 430.991 397.209 431.524C397.409 432.058 397.742 432.591 398.209 433.124C398.742 433.591 399.442 434.124 400.309 434.724C401.176 435.258 402.276 435.891 403.609 436.624L416.409 443.524C421.609 446.324 425.142 449.391 427.009 452.724C428.942 456.058 429.909 459.758 429.909 463.824ZM498.598 453.624C498.598 459.424 497.831 464.358 496.298 468.424C494.765 472.491 492.665 475.824 489.998 478.424C487.331 480.958 484.198 482.824 480.598 484.024C476.998 485.158 473.131 485.724 468.998 485.724C464.865 485.724 460.998 485.158 457.398 484.024C453.798 482.824 450.665 480.958 447.998 478.424C445.331 475.824 443.231 472.491 441.698 468.424C440.165 464.358 439.398 459.424 439.398 453.624V441.724C439.398 435.924 440.165 430.991 441.698 426.924C443.231 422.858 445.331 419.558 447.998 417.024C450.665 414.424 453.798 412.558 457.398 411.424C460.998 410.224 464.865 409.624 468.998 409.624C473.131 409.624 476.998 410.224 480.598 411.424C484.198 412.558 487.331 414.424 489.998 417.024C492.665 419.558 494.765 422.858 496.298 426.924C497.831 430.991 498.598 435.924 498.598 441.724V453.624ZM481.398 441.724C481.398 435.658 480.365 431.291 478.298 428.624C476.298 425.958 473.198 424.624 468.998 424.624C464.798 424.624 461.698 425.958 459.698 428.624C457.698 431.291 456.698 435.658 456.698 441.724V453.624C456.698 459.691 457.698 464.058 459.698 466.724C461.698 469.391 464.798 470.724 468.998 470.724C473.198 470.724 476.298 469.391 478.298 466.724C480.365 464.058 481.398 459.691 481.398 453.624V441.724ZM568.422 453.624C568.422 459.424 567.656 464.358 566.122 468.424C564.589 472.491 562.489 475.824 559.822 478.424C557.156 480.958 554.022 482.824 550.422 484.024C546.822 485.158 542.956 485.724 538.822 485.724C534.689 485.724 530.822 485.158 527.222 484.024C523.622 482.824 520.489 480.958 517.822 478.424C515.156 475.824 513.056 472.491 511.522 468.424C509.989 464.358 509.222 459.424 509.222 453.624V441.724C509.222 435.924 509.989 430.991 511.522 426.924C513.056 422.858 515.156 419.558 517.822 417.024C520.489 414.424 523.622 412.558 527.222 411.424C530.822 410.224 534.689 409.624 538.822 409.624C542.956 409.624 546.822 410.224 550.422 411.424C554.022 412.558 557.156 414.424 559.822 417.024C562.489 419.558 564.589 422.858 566.122 426.924C567.656 430.991 568.422 435.924 568.422 441.724V453.624ZM551.222 441.724C551.222 435.658 550.189 431.291 548.122 428.624C546.122 425.958 543.022 424.624 538.822 424.624C534.622 424.624 531.522 425.958 529.522 428.624C527.522 431.291 526.522 435.658 526.522 441.724V453.624C526.522 459.691 527.522 464.058 529.522 466.724C531.522 469.391 534.622 470.724 538.822 470.724C543.022 470.724 546.122 469.391 548.122 466.724C550.189 464.058 551.222 459.691 551.222 453.624V441.724ZM639.647 481.024C639.647 482.091 639.247 482.991 638.447 483.724C637.713 484.458 636.813 484.824 635.747 484.824H625.947C624.88 484.824 623.947 484.658 623.147 484.324C622.347 483.924 621.547 483.058 620.747 481.724L597.947 442.324C597.613 441.791 597.313 441.524 597.047 441.524C596.713 441.524 596.547 441.791 596.547 442.324V482.824C596.547 483.358 596.347 483.824 595.947 484.224C595.547 484.624 595.08 484.824 594.547 484.824H582.747C582.213 484.824 581.747 484.624 581.347 484.224C580.947 483.824 580.747 483.358 580.747 482.824V414.324C580.747 413.258 581.113 412.358 581.847 411.624C582.58 410.891 583.48 410.524 584.547 410.524H594.647C595.647 410.524 596.447 410.791 597.047 411.324C597.647 411.791 598.247 412.558 598.847 413.624L622.547 454.824C622.88 455.358 623.147 455.624 623.347 455.624C623.68 455.624 623.847 455.324 623.847 454.724V412.424C623.847 411.891 624.047 411.458 624.447 411.124C624.847 410.724 625.313 410.524 625.847 410.524H637.647C638.18 410.524 638.647 410.724 639.047 411.124C639.447 411.458 639.647 411.891 639.647 412.424V481.024Z" fill="white"/>
<path d="M891.703 452.263H1020.25" stroke="#F45197" stroke-width="5" stroke-miterlimit="10" stroke-linecap="round"/>
<path d="M881.956 504.829H1128.03" stroke="#80BC00" stroke-width="5" stroke-miterlimit="10" stroke-linecap="round"/>
<path d="M616.563 158.884H746.946" stroke="#00A0D7" stroke-width="5" stroke-miterlimit="10" stroke-linecap="round"/>
<path d="M920.114 566.312C920.114 566.312 948.825 508.042 938.16 458.601C929.72 419.472 872.244 397.365 875.441 376.352C878.972 353.397 948.913 345.363 965.829 316.052C980.362 290.855 980.256 219.041 980.256 219.041L813.357 191.813C813.357 191.813 790.402 259.883 796.211 288.382C802.939 321.543 866.718 351.437 862.745 374.269C859.125 395.14 797.571 397.824 777.141 432.274C751.308 475.746 759.996 540.179 759.996 540.179L920.114 566.312Z" fill="white"/>
<path d="M896.754 222.485C896.754 222.485 940.774 251.585 955.024 303.975C971.021 276.341 965.936 233.769 965.936 233.769L896.754 222.485Z" fill="#00A0D7"/>
<path d="M932.297 567.972L876.676 558.896L803.539 546.96L747.882 537.884C744.657 537.365 741.36 537.487 738.182 538.243C735.003 538.999 732.005 540.374 729.358 542.289C726.711 544.204 724.468 546.623 722.756 549.406C721.045 552.189 719.898 555.282 719.383 558.508L717.617 569.102L797.782 582.169L870.92 594.106L951.067 607.19L952.833 596.595C953.371 593.367 953.265 590.064 952.523 586.876C951.781 583.688 950.417 580.678 948.509 578.019C946.601 575.36 944.187 573.103 941.405 571.379C938.623 569.655 935.528 568.497 932.297 567.972V567.972Z" fill="#FFF6D9"/>
<path d="M949.673 186.675L876.536 174.756L796.371 161.672L794.605 172.266C793.545 178.773 795.113 185.435 798.964 190.786C802.815 196.137 808.634 199.74 815.14 200.801L870.744 209.877L943.881 221.884L999.503 230.942C1002.72 231.47 1006.02 231.357 1009.19 230.611C1012.37 229.866 1015.37 228.501 1018.02 226.596C1020.67 224.69 1022.92 222.281 1024.64 219.506C1026.36 216.732 1027.51 213.646 1028.04 210.424L1029.8 199.83L949.673 186.675Z" fill="#F45197"/>
<path d="M942.857 578.515L887.236 569.439L814.081 557.52L758.477 548.444C751.968 547.384 745.304 548.951 739.95 552.802C734.597 556.653 730.991 562.471 729.925 568.98L728.159 579.574L808.307 592.658L881.462 604.595L961.609 617.661L963.375 607.067C963.905 603.845 963.795 600.549 963.05 597.37C962.305 594.19 960.941 591.189 959.035 588.537C957.13 585.885 954.72 583.635 951.944 581.915C949.168 580.196 946.08 579.04 942.857 578.515V578.515Z" fill="#F45197"/>
<path d="M939.131 176.134L865.976 164.197L785.829 151.131L784.063 161.725C783.003 168.232 784.571 174.894 788.422 180.245C792.273 185.596 798.092 189.199 804.598 190.26L860.22 199.336L933.357 211.272L988.978 220.348C995.485 221.408 1002.15 219.84 1007.5 215.989C1012.85 212.138 1016.45 206.319 1017.51 199.813L1019.28 189.218L939.131 176.134Z" stroke="#8331A7" stroke-width="5" stroke-miterlimit="10"/>
<path d="M932.297 567.972L876.676 558.896L803.539 546.96L747.882 537.884C744.657 537.365 741.36 537.487 738.182 538.243C735.003 538.999 732.005 540.374 729.358 542.289C726.711 544.204 724.468 546.623 722.756 549.406C721.045 552.189 719.898 555.282 719.383 558.508L717.617 569.102L797.782 582.169L870.92 594.106L951.067 607.19L952.833 596.595C953.371 593.367 953.265 590.064 952.523 586.876C951.781 583.688 950.417 580.678 948.509 578.019C946.601 575.36 944.187 573.103 941.405 571.379C938.623 569.655 935.528 568.497 932.297 567.972V567.972Z" stroke="#8331A7" stroke-width="5" stroke-miterlimit="10"/>
<path d="M813.357 191.743C813.357 191.743 790.402 259.813 796.211 288.312C802.939 321.473 866.718 351.367 862.745 374.198C859.125 395.14 797.571 397.824 777.141 432.274C751.308 475.747 759.996 540.179 759.996 540.179" stroke="#8331A7" stroke-width="5" stroke-miterlimit="10"/>
<path d="M980.255 218.97C980.255 218.97 980.361 290.783 965.829 315.98C948.913 345.292 878.936 353.361 875.44 376.281C872.244 397.293 929.719 419.4 938.159 458.529C948.754 507.97 920.113 566.24 920.113 566.24" stroke="#8331A7" stroke-width="5" stroke-miterlimit="10"/>
<path d="M810.073 285.646C809.869 285.751 809.689 285.896 809.545 286.074C809.4 286.252 809.295 286.459 809.235 286.68C809.175 286.901 809.162 287.132 809.197 287.359C809.232 287.585 809.314 287.802 809.437 287.995C816.374 298.787 824.244 308.95 832.957 318.366C846.659 332.969 864.388 346.618 874.17 348.242C900.656 352.551 953.205 313.192 954.088 309.872C918.331 320.361 905.865 316.565 872.863 287.112C850.103 266.806 817.542 281.779 810.073 285.646Z" fill="#8331A7"/>
<path d="M912.291 556.229C909.907 533.151 899.242 464.233 856.087 457.188C813.339 450.213 780.972 511.326 770.854 533.115L912.291 556.229Z" fill="#8331A7"/>
<path d="M885.947 446.771C885.676 448.448 884.913 450.007 883.755 451.25C882.597 452.493 881.096 453.365 879.442 453.754C877.788 454.143 876.056 454.033 874.465 453.437C872.874 452.841 871.496 451.787 870.505 450.407C869.514 449.027 868.955 447.384 868.899 445.686C868.842 443.988 869.291 442.311 870.189 440.868C871.086 439.426 872.391 438.282 873.939 437.582C875.487 436.882 877.208 436.657 878.884 436.936C881.122 437.308 883.122 438.552 884.446 440.395C885.77 442.238 886.309 444.531 885.947 446.771Z" fill="#8331A7"/>
<path d="M852.327 427.047C852.118 428.322 851.534 429.506 850.651 430.449C849.767 431.392 848.624 432.051 847.365 432.342C846.106 432.633 844.789 432.544 843.581 432.084C842.373 431.625 841.329 430.817 840.582 429.763C839.834 428.709 839.417 427.457 839.383 426.165C839.349 424.874 839.7 423.601 840.391 422.509C841.082 421.417 842.082 420.556 843.264 420.034C844.446 419.512 845.757 419.353 847.029 419.578C848.717 419.876 850.22 420.827 851.211 422.225C852.203 423.623 852.603 425.355 852.327 427.047V427.047Z" fill="#8331A7"/>
<path d="M873.251 403.704C873.085 404.705 872.626 405.635 871.932 406.375C871.238 407.116 870.34 407.635 869.351 407.866C868.363 408.096 867.328 408.029 866.378 407.673C865.427 407.317 864.604 406.687 864.011 405.863C863.418 405.039 863.083 404.058 863.047 403.043C863.011 402.029 863.277 401.027 863.81 400.163C864.343 399.299 865.12 398.613 866.043 398.19C866.966 397.767 867.994 397.628 868.996 397.788C869.664 397.896 870.305 398.134 870.881 398.49C871.458 398.845 871.958 399.312 872.353 399.861C872.749 400.411 873.032 401.033 873.186 401.693C873.34 402.352 873.362 403.036 873.251 403.704Z" fill="#8331A7"/>
<path d="M890.697 417.971C890.697 417.971 918.101 430.825 926.577 460.914C933.64 486.023 927.318 504.316 927.318 504.316C927.318 504.316 919.514 472.25 915.665 462.362C909.453 446.473 901.049 431.531 890.697 417.971V417.971Z" fill="#00A0D7"/>
<path d="M3 630.214H181.129" stroke="#00A0D7" stroke-width="5" stroke-miterlimit="10" stroke-linecap="round"/>
<path d="M768.101 706.972H1100.5" stroke="#8331A7" stroke-width="5" stroke-miterlimit="10" stroke-linecap="round"/>
<path d="M266.433 603.499C266.285 604.945 265.712 606.314 264.786 607.434C263.86 608.554 262.623 609.375 261.23 609.791C259.838 610.208 258.354 610.202 256.965 609.774C255.576 609.347 254.345 608.517 253.427 607.39C252.51 606.262 251.948 604.888 251.812 603.441C251.676 601.994 251.972 600.54 252.663 599.261C253.354 597.983 254.409 596.938 255.694 596.259C256.979 595.58 258.436 595.298 259.882 595.447C261.818 595.648 263.595 596.608 264.823 598.118C266.051 599.628 266.63 601.563 266.433 603.499V603.499Z" fill="white" stroke="#8331A7" stroke-width="5" stroke-miterlimit="10"/>
<path d="M179.288 31.0203C183.333 30.7112 186.362 27.1814 186.053 23.1364C185.744 19.0914 182.214 16.0628 178.169 16.3719C174.124 16.6811 171.095 20.2108 171.404 24.2558C171.714 28.3008 175.243 31.3294 179.288 31.0203Z" fill="white" stroke="#8331A7" stroke-width="5" stroke-miterlimit="10"/>
<path d="M1096.35 629.59C1100.34 628.848 1102.97 625.014 1102.23 621.025C1101.49 617.037 1097.65 614.404 1093.67 615.146C1089.68 615.887 1087.04 619.722 1087.79 623.71C1088.53 627.699 1092.36 630.331 1096.35 629.59Z" fill="white" stroke="#8331A7" stroke-width="5" stroke-miterlimit="10"/>
<path d="M908.177 74.9735C908.177 76.4263 907.747 77.8464 906.939 79.0544C906.132 80.2624 904.985 81.2039 903.643 81.7598C902.301 82.3158 900.824 82.4613 899.399 82.1778C897.974 81.8944 896.665 81.1948 895.638 80.1675C894.61 79.1402 893.911 77.8314 893.627 76.4065C893.344 74.9816 893.49 73.5047 894.046 72.1625C894.601 70.8202 895.543 69.673 896.751 68.8659C897.959 68.0587 899.379 67.6279 900.832 67.6279C902.78 67.6279 904.648 68.4018 906.026 69.7794C907.404 71.1569 908.177 73.0253 908.177 74.9735V74.9735Z" fill="white" stroke="#8331A7" stroke-width="5" stroke-miterlimit="10"/>
<path d="M303.672 692.704C303.455 694.788 302.625 696.761 301.287 698.373C299.949 699.985 298.163 701.164 296.155 701.761C294.147 702.358 292.007 702.347 290.005 701.728C288.003 701.109 286.23 699.91 284.91 698.284C283.589 696.657 282.781 694.676 282.586 692.59C282.392 690.504 282.82 688.407 283.817 686.564C284.814 684.722 286.335 683.216 288.188 682.238C290.041 681.259 292.142 680.852 294.226 681.068C295.61 681.211 296.953 681.626 298.177 682.288C299.401 682.951 300.483 683.848 301.36 684.929C302.238 686.009 302.893 687.252 303.29 688.586C303.687 689.921 303.817 691.32 303.672 692.704Z" fill="white" stroke="#8331A7" stroke-width="5" stroke-miterlimit="10"/>
<path d="M203.572 413.716C203.572 415.594 203.015 417.431 201.971 418.993C200.927 420.556 199.443 421.773 197.707 422.492C195.972 423.211 194.061 423.399 192.219 423.033C190.376 422.666 188.683 421.761 187.355 420.433C186.026 419.104 185.121 417.412 184.755 415.569C184.388 413.726 184.576 411.816 185.295 410.08C186.014 408.344 187.232 406.861 188.794 405.817C190.356 404.773 192.193 404.216 194.072 404.216C196.592 404.216 199.008 405.217 200.789 406.998C202.571 408.78 203.572 411.196 203.572 413.716V413.716Z" fill="#00A0D7"/>
<path d="M1045.41 569.12C1051.39 569.12 1056.24 564.274 1056.24 558.296C1056.24 552.318 1051.39 547.472 1045.41 547.472C1039.43 547.472 1034.59 552.318 1034.59 558.296C1034.59 564.274 1039.43 569.12 1045.41 569.12Z" fill="#F45197"/>
<path d="M833.99 107.735C835.743 100.284 831.123 92.8214 823.672 91.0681C816.22 89.3148 808.758 93.9344 807.004 101.386C805.251 108.838 809.87 116.3 817.322 118.054C824.774 119.807 832.236 115.187 833.99 107.735Z" fill="white" stroke="#8331A7" stroke-width="5" stroke-miterlimit="10"/>
<path d="M196.685 676.812C196.498 678.618 195.779 680.328 194.62 681.725C193.461 683.123 191.913 684.145 190.173 684.664C188.433 685.182 186.578 685.172 184.844 684.637C183.109 684.101 181.572 683.063 180.427 681.654C179.282 680.245 178.58 678.528 178.411 676.72C178.241 674.913 178.612 673.095 179.475 671.498C180.338 669.901 181.655 668.595 183.26 667.747C184.865 666.898 186.686 666.544 188.492 666.73C190.914 666.984 193.137 668.188 194.673 670.078C196.209 671.968 196.932 674.39 196.685 676.812V676.812Z" fill="white" stroke="#8331A7" stroke-width="5" stroke-miterlimit="10"/>
<path d="M148.784 204.171L138.071 193.458L127.359 204.171L138.071 214.884L148.784 204.171Z" fill="#F45197"/>
<path d="M53.489 395.239L45.9976 387.748L38.5061 395.239L45.9976 402.731L53.489 395.239Z" fill="#F45197"/>
<path d="M369.607 648.89L362.115 641.398L354.624 648.89L362.115 656.381L369.607 648.89Z" fill="#00A0D7"/>
<path d="M1129.68 294.228L1122.19 286.736L1114.7 294.228L1122.19 301.719L1129.68 294.228Z" fill="#F45197"/>
<path d="M1014.34 648.163L1003.63 637.45L992.916 648.163L1003.63 658.876L1014.34 648.163Z" fill="#00A0D7"/>
<path d="M930.582 135.134L919.869 124.421L909.156 135.134L919.869 145.846L930.582 135.134Z" fill="#00A0D7"/>
</svg>
