<svg width="488" height="410" viewBox="0 0 488 410" fill="none" xmlns="http://www.w3.org/2000/svg">
<path d="M4.79743 376.387C5.06414 376.387 5.32004 376.282 5.5094 376.094L5.52364 376.137C5.71147 375.948 5.81686 375.692 5.81686 375.425C5.81686 375.158 5.71147 374.902 5.52364 374.713C4.74047 373.887 3.9573 373.047 3.20261 372.193L1.77866 370.527C1.69487 370.422 1.59069 370.336 1.47248 370.274C1.35428 370.211 1.22455 370.173 1.09124 370.163C0.957926 370.152 0.823842 370.169 0.697197 370.212C0.570551 370.255 0.454012 370.323 0.354717 370.413C0.150994 370.587 0.0245797 370.834 0.00322218 371.101C-0.0181353 371.368 0.0673097 371.633 0.240801 371.837L1.73594 373.531C2.48723 374.38 3.26571 375.215 4.03153 376.036L4.08546 376.094C4.27481 376.282 4.53072 376.387 4.79743 376.387ZM13.9605 384.877C14.1928 384.877 14.4176 384.796 14.5962 384.648C14.6332 384.654 14.671 384.653 14.708 384.646C14.7601 384.636 14.809 384.614 14.8505 384.581C14.9382 384.481 15.0049 384.364 15.0468 384.238C15.0886 384.111 15.1047 383.978 15.0941 383.845C15.0835 383.712 15.0464 383.583 14.985 383.465C14.9236 383.347 14.8391 383.242 14.7366 383.157C13.3126 381.947 11.8887 380.694 10.4647 379.412C10.3719 379.317 10.2612 379.242 10.1389 379.191C10.0167 379.139 9.88538 379.113 9.75277 379.113C9.62016 379.113 9.48888 379.139 9.36663 379.191C9.24437 379.242 9.1336 379.317 9.04079 379.412C8.85297 379.601 8.74758 379.857 8.74758 380.124C8.74758 380.391 8.85297 380.647 9.04079 380.836C10.4647 382.132 11.8887 383.413 13.3126 384.638C13.4932 384.792 13.7229 384.877 13.9605 384.877ZM23.9851 392.387C24.2034 392.371 24.4107 392.285 24.5761 392.142C24.6544 392.089 24.7221 392.021 24.7754 391.943C24.8543 391.832 24.9097 391.706 24.9381 391.573C24.9665 391.44 24.9675 391.303 24.9408 391.169C24.9141 391.036 24.8604 390.909 24.783 390.797C24.7056 390.686 24.6061 390.591 24.4906 390.519C22.9385 389.479 21.3864 388.397 19.877 387.286C19.7706 387.204 19.6486 387.144 19.5184 387.11C19.3882 387.077 19.2525 387.069 19.1195 387.089C18.9864 387.109 18.8588 387.156 18.7443 387.227C18.6297 387.297 18.5307 387.39 18.4531 387.5C18.3688 387.606 18.3072 387.728 18.2722 387.858C18.2371 387.989 18.2294 388.125 18.2494 388.259C18.2695 388.392 18.3169 388.52 18.3887 388.635C18.4605 388.749 18.5551 388.848 18.6667 388.924C20.1903 390.063 21.7709 391.174 23.3657 392.228C23.5495 392.346 23.7669 392.402 23.9851 392.387ZM35.3838 398.464C35.233 398.6 35.0445 398.686 34.8436 398.711C34.6426 398.737 34.4387 398.7 34.2589 398.607C32.5644 397.738 30.8699 396.813 29.2181 395.859C29.0969 395.793 28.9907 395.702 28.9063 395.593C28.8218 395.484 28.7609 395.359 28.7275 395.225C28.694 395.091 28.6887 394.952 28.7119 394.816C28.7351 394.68 28.7862 394.55 28.8621 394.435C28.9264 394.312 29.016 394.204 29.125 394.118C29.2339 394.033 29.3598 393.971 29.4942 393.937C29.6287 393.904 29.7688 393.899 29.9053 393.923C30.0418 393.948 30.1715 394.001 30.2861 394.079C31.9094 395.004 33.5754 395.916 35.2414 396.784C35.4749 396.906 35.6509 397.115 35.7309 397.365C35.811 397.616 35.7886 397.888 35.6686 398.123C35.6044 398.259 35.5064 398.377 35.3838 398.464ZM42.3469 401.768C42.2033 401.895 42.0268 401.978 41.8377 402.008C41.6486 402.039 41.4549 402.014 41.2789 401.939L40.4673 401.583C40.2285 401.474 40.0423 401.276 39.949 401.03C39.8557 400.785 39.8628 400.513 39.9689 400.273C40.02 400.152 40.0946 400.043 40.1886 399.951C40.2825 399.86 40.3938 399.788 40.5159 399.74C40.638 399.693 40.7684 399.67 40.8994 399.673C41.0305 399.677 41.1595 399.706 41.2789 399.76L42.0764 400.116C42.1971 400.167 42.3064 400.242 42.3979 400.336C42.4893 400.43 42.561 400.541 42.6088 400.663C42.6566 400.785 42.6794 400.916 42.676 401.047C42.6726 401.178 42.643 401.307 42.589 401.426C42.5298 401.554 42.4478 401.67 42.3469 401.768Z" fill="#FFEA22"/>
<path d="M4.79743 376.387C5.06414 376.387 5.32004 376.282 5.5094 376.094L5.52364 376.137C5.71147 375.948 5.81686 375.692 5.81686 375.425C5.81686 375.158 5.71147 374.902 5.52364 374.713C4.74047 373.887 3.9573 373.047 3.20261 372.193L1.77866 370.527C1.69487 370.422 1.59069 370.336 1.47248 370.274C1.35428 370.211 1.22455 370.173 1.09124 370.163C0.957926 370.152 0.823842 370.169 0.697197 370.212C0.570551 370.255 0.454012 370.323 0.354717 370.413C0.150994 370.587 0.0245797 370.834 0.00322218 371.101C-0.0181353 371.368 0.0673097 371.633 0.240801 371.837L1.73594 373.531C2.48723 374.38 3.26571 375.215 4.03153 376.036L4.08546 376.094C4.27481 376.282 4.53072 376.387 4.79743 376.387ZM13.9605 384.877C14.1928 384.877 14.4176 384.796 14.5962 384.648C14.6332 384.654 14.671 384.653 14.708 384.646C14.7601 384.636 14.809 384.614 14.8505 384.581C14.9382 384.481 15.0049 384.364 15.0468 384.238C15.0886 384.111 15.1047 383.978 15.0941 383.845C15.0835 383.712 15.0464 383.583 14.985 383.465C14.9236 383.347 14.8391 383.242 14.7366 383.157C13.3126 381.947 11.8887 380.694 10.4647 379.412C10.3719 379.317 10.2612 379.242 10.1389 379.191C10.0167 379.139 9.88538 379.113 9.75277 379.113C9.62016 379.113 9.48888 379.139 9.36663 379.191C9.24437 379.242 9.1336 379.317 9.04079 379.412C8.85297 379.601 8.74758 379.857 8.74758 380.124C8.74758 380.391 8.85297 380.647 9.04079 380.836C10.4647 382.132 11.8887 383.413 13.3126 384.638C13.4932 384.792 13.7229 384.877 13.9605 384.877ZM23.9851 392.387C24.2034 392.371 24.4107 392.285 24.5761 392.142C24.6544 392.089 24.7221 392.021 24.7754 391.943C24.8543 391.832 24.9097 391.706 24.9381 391.573C24.9665 391.44 24.9675 391.303 24.9408 391.169C24.9141 391.036 24.8604 390.909 24.783 390.797C24.7056 390.686 24.6061 390.591 24.4906 390.519C22.9385 389.479 21.3864 388.397 19.877 387.286C19.7706 387.204 19.6486 387.144 19.5184 387.11C19.3882 387.077 19.2525 387.069 19.1195 387.089C18.9864 387.109 18.8588 387.156 18.7443 387.227C18.6297 387.297 18.5307 387.39 18.4531 387.5C18.3688 387.606 18.3072 387.728 18.2722 387.858C18.2371 387.989 18.2294 388.125 18.2494 388.259C18.2695 388.392 18.3169 388.52 18.3887 388.635C18.4605 388.749 18.5551 388.848 18.6667 388.924C20.1903 390.063 21.7709 391.174 23.3657 392.228C23.5495 392.346 23.7669 392.402 23.9851 392.387ZM35.3838 398.464C35.233 398.6 35.0445 398.686 34.8436 398.711C34.6426 398.737 34.4387 398.7 34.2589 398.607C32.5644 397.738 30.8699 396.813 29.2181 395.859C29.0969 395.793 28.9907 395.702 28.9063 395.593C28.8218 395.484 28.7609 395.359 28.7275 395.225C28.694 395.091 28.6887 394.952 28.7119 394.816C28.7351 394.68 28.7862 394.55 28.8621 394.435C28.9264 394.312 29.016 394.204 29.125 394.118C29.2339 394.033 29.3598 393.971 29.4942 393.937C29.6287 393.904 29.7688 393.899 29.9053 393.923C30.0418 393.948 30.1715 394.001 30.2861 394.079C31.9094 395.004 33.5754 395.916 35.2414 396.784C35.4749 396.906 35.6509 397.115 35.7309 397.365C35.811 397.616 35.7886 397.888 35.6686 398.123C35.6044 398.259 35.5064 398.377 35.3838 398.464ZM42.3469 401.768C42.2033 401.895 42.0268 401.978 41.8377 402.008C41.6486 402.039 41.4549 402.014 41.2789 401.939L40.4673 401.583C40.2285 401.474 40.0423 401.276 39.949 401.03C39.8557 400.785 39.8628 400.513 39.9689 400.273C40.02 400.152 40.0946 400.043 40.1886 399.951C40.2825 399.86 40.3938 399.788 40.5159 399.74C40.638 399.693 40.7684 399.67 40.8994 399.673C41.0305 399.677 41.1595 399.706 41.2789 399.76L42.0764 400.116C42.1971 400.167 42.3064 400.242 42.3979 400.336C42.4893 400.43 42.561 400.541 42.6088 400.663C42.6566 400.785 42.6794 400.916 42.676 401.047C42.6726 401.178 42.643 401.307 42.589 401.426C42.5298 401.554 42.4478 401.67 42.3469 401.768Z" stroke="#8331A7"/>
<path d="M9.68083 59.8641H9.56691C9.4181 59.8448 9.27457 59.7963 9.14456 59.7214C9.01456 59.6465 8.90063 59.5466 8.80933 59.4275C8.71804 59.3084 8.65116 59.1725 8.61256 59.0275C8.57396 58.8825 8.56438 58.7313 8.58439 58.5826C8.89765 56.29 9.3106 53.9975 9.7805 51.7761C9.8447 51.4796 10.024 51.2208 10.2791 51.0566C10.5341 50.8924 10.8439 50.8362 11.1404 50.9004C11.4368 50.9646 11.6956 51.1439 11.8599 51.3989C12.0241 51.654 12.0803 51.9638 12.0161 52.2602C11.5462 54.4246 11.1475 56.646 10.8485 58.8958C10.8038 59.1711 10.6609 59.4209 10.4462 59.5989C10.2315 59.777 9.95962 59.8712 9.68083 59.8641ZM12.4148 47.0486H12.13C11.9846 47.0079 11.8488 46.9383 11.7309 46.844C11.6129 46.7498 11.5151 46.6327 11.4434 46.4998C11.3716 46.3669 11.3273 46.221 11.3132 46.0706C11.2991 45.9202 11.3154 45.7686 11.3611 45.6246C12.0161 43.4033 12.785 41.2104 13.6252 39.0745C13.6701 38.9226 13.7462 38.7817 13.8486 38.6609C13.9511 38.5401 14.0776 38.442 14.22 38.3728C14.3625 38.3036 14.5179 38.2649 14.6762 38.2592C14.8345 38.2534 14.9922 38.2808 15.1394 38.3394C15.2865 38.3981 15.4198 38.4868 15.5307 38.5998C15.6417 38.7129 15.7278 38.8479 15.7836 38.9961C15.8394 39.1443 15.8637 39.3026 15.8549 39.4607C15.8462 39.6189 15.8045 39.7735 15.7326 39.9146C14.9209 41.9794 14.1805 44.1865 13.5397 46.2654C13.4703 46.5083 13.3222 46.7213 13.1185 46.8708C12.9149 47.0203 12.6673 47.0979 12.4148 47.0913V47.0486ZM17.1708 34.9308C17.0131 34.9216 16.8586 34.8829 16.7151 34.8169C16.4457 34.6821 16.2398 34.4471 16.1413 34.1624C16.0428 33.8777 16.0597 33.5657 16.1883 33.2933C17.2135 31.2143 18.3384 29.1781 19.5345 27.213C19.6933 26.9564 19.9475 26.7733 20.2411 26.7039C20.5348 26.6345 20.844 26.6845 21.1009 26.8428C21.3575 27.0016 21.5405 27.2557 21.61 27.5494C21.6794 27.8431 21.6294 28.1523 21.4711 28.4091C20.3177 30.303 19.2213 32.2823 18.2387 34.29C18.1394 34.4867 17.9863 34.6513 17.7973 34.7647C17.6083 34.8781 17.3911 34.9357 17.1708 34.9308ZM23.9488 23.7528C23.7441 23.7412 23.5463 23.6753 23.3755 23.5619C23.2048 23.4484 23.0674 23.2915 22.9775 23.1073C22.8876 22.9231 22.8484 22.7182 22.8639 22.5139C22.8795 22.3095 22.9492 22.1129 23.0659 21.9444C24.4329 20.0458 25.8853 18.2422 27.4232 16.5334C27.5175 16.4064 27.6371 16.3005 27.7746 16.2222C27.912 16.144 28.0643 16.0953 28.2216 16.0792C28.3789 16.063 28.5379 16.0798 28.6884 16.1284C28.8388 16.1771 28.9775 16.2565 29.0956 16.3617C29.2137 16.4669 29.3086 16.5956 29.3743 16.7394C29.4399 16.8833 29.4749 17.0393 29.477 17.1974C29.4791 17.3555 29.4482 17.5124 29.3863 17.6579C29.3245 17.8035 29.233 17.9345 29.1177 18.0428C27.6938 19.7231 26.2698 21.4888 24.8459 23.2829C24.7412 23.4225 24.6059 23.5362 24.4503 23.6152C24.2948 23.6942 24.1232 23.7364 23.9488 23.7386V23.7528ZM32.4924 13.9134C32.2684 13.9048 32.0519 13.8304 31.8699 13.6994C31.688 13.5683 31.5488 13.3865 31.4697 13.1767C31.3907 12.9669 31.3753 12.7384 31.4255 12.5199C31.4757 12.3014 31.5893 12.1026 31.752 11.9483C33.418 10.3535 35.1695 8.81563 36.9636 7.37744C37.1997 7.18861 37.5011 7.10128 37.8015 7.13467C38.1019 7.16805 38.3768 7.3194 38.5656 7.55543C38.7544 7.79147 38.8417 8.09284 38.8084 8.39327C38.775 8.69369 38.6236 8.96855 38.3876 9.15737C36.6504 10.5813 34.9416 12.0053 33.3183 13.6001C33.112 13.7891 32.8434 13.8955 32.5637 13.8991L32.4924 13.9134ZM42.7021 5.72566C42.5209 5.71693 42.3441 5.66605 42.1859 5.57706C42.0277 5.48808 41.8924 5.36344 41.7908 5.21304C41.7079 5.08076 41.6531 4.93286 41.6297 4.77851C41.6064 4.62415 41.615 4.46664 41.655 4.31576C41.6951 4.16487 41.7657 4.02383 41.8626 3.90139C41.9594 3.77895 42.0804 3.67772 42.218 3.60398C44.1597 2.28659 46.1968 1.11571 48.3125 0.101073C48.4479 0.0394246 48.5943 0.00526037 48.743 0.000561066C48.8917 -0.00413824 49.0399 0.0207206 49.179 0.0736965C49.3181 0.126672 49.4452 0.206712 49.5531 0.309181C49.661 0.411651 49.7476 0.534514 49.8076 0.670652C49.9289 0.946764 49.9371 1.25937 49.8307 1.54149C49.7242 1.82362 49.5115 2.05283 49.2381 2.18003C47.2625 3.14819 45.359 4.25697 43.5423 5.49783C43.3185 5.65603 43.0467 5.73153 42.7733 5.71142L42.7021 5.72566Z" fill="#FFEA22"/>
<path d="M9.68083 59.8641H9.56691C9.4181 59.8448 9.27457 59.7963 9.14456 59.7214C9.01456 59.6465 8.90063 59.5466 8.80933 59.4275C8.71804 59.3084 8.65116 59.1725 8.61256 59.0275C8.57396 58.8825 8.56438 58.7313 8.58439 58.5826C8.89765 56.29 9.3106 53.9975 9.7805 51.7761C9.8447 51.4796 10.024 51.2208 10.2791 51.0566C10.5341 50.8924 10.8439 50.8362 11.1404 50.9004C11.4368 50.9646 11.6956 51.1439 11.8599 51.3989C12.0241 51.654 12.0803 51.9638 12.0161 52.2602C11.5462 54.4246 11.1475 56.646 10.8485 58.8958C10.8038 59.1711 10.6609 59.4209 10.4462 59.5989C10.2315 59.777 9.95962 59.8712 9.68083 59.8641ZM12.4148 47.0486H12.13C11.9846 47.0079 11.8488 46.9383 11.7309 46.844C11.6129 46.7498 11.5151 46.6327 11.4434 46.4998C11.3716 46.3669 11.3273 46.221 11.3132 46.0706C11.2991 45.9202 11.3154 45.7686 11.3611 45.6246C12.0161 43.4033 12.785 41.2104 13.6252 39.0745C13.6701 38.9226 13.7462 38.7817 13.8486 38.6609C13.9511 38.5401 14.0776 38.442 14.22 38.3728C14.3625 38.3036 14.5179 38.2649 14.6762 38.2592C14.8345 38.2534 14.9922 38.2808 15.1394 38.3394C15.2865 38.3981 15.4198 38.4868 15.5307 38.5998C15.6417 38.7129 15.7278 38.8479 15.7836 38.9961C15.8394 39.1443 15.8637 39.3026 15.8549 39.4607C15.8462 39.6189 15.8045 39.7735 15.7326 39.9146C14.9209 41.9794 14.1805 44.1865 13.5397 46.2654C13.4703 46.5083 13.3222 46.7213 13.1185 46.8708C12.9149 47.0203 12.6673 47.0979 12.4148 47.0913V47.0486ZM17.1708 34.9308C17.0131 34.9216 16.8586 34.8829 16.7151 34.8169C16.4457 34.6821 16.2398 34.4471 16.1413 34.1624C16.0428 33.8777 16.0597 33.5657 16.1883 33.2933C17.2135 31.2143 18.3384 29.1781 19.5345 27.213C19.6933 26.9564 19.9475 26.7733 20.2411 26.7039C20.5348 26.6345 20.844 26.6845 21.1009 26.8428C21.3575 27.0016 21.5405 27.2557 21.61 27.5494C21.6794 27.8431 21.6294 28.1523 21.4711 28.4091C20.3177 30.303 19.2213 32.2823 18.2387 34.29C18.1394 34.4867 17.9863 34.6513 17.7973 34.7647C17.6083 34.8781 17.3911 34.9357 17.1708 34.9308ZM23.9488 23.7528C23.7441 23.7412 23.5463 23.6753 23.3755 23.5619C23.2048 23.4484 23.0674 23.2915 22.9775 23.1073C22.8876 22.9231 22.8484 22.7182 22.8639 22.5139C22.8795 22.3095 22.9492 22.1129 23.0659 21.9444C24.4329 20.0458 25.8853 18.2422 27.4232 16.5334C27.5175 16.4064 27.6371 16.3005 27.7746 16.2222C27.912 16.144 28.0643 16.0953 28.2216 16.0792C28.3789 16.063 28.5379 16.0798 28.6884 16.1284C28.8388 16.1771 28.9775 16.2565 29.0956 16.3617C29.2137 16.4669 29.3086 16.5956 29.3743 16.7394C29.4399 16.8833 29.4749 17.0393 29.477 17.1974C29.4791 17.3555 29.4482 17.5124 29.3863 17.6579C29.3245 17.8035 29.233 17.9345 29.1177 18.0428C27.6938 19.7231 26.2698 21.4888 24.8459 23.2829C24.7412 23.4225 24.6059 23.5362 24.4503 23.6152C24.2948 23.6942 24.1232 23.7364 23.9488 23.7386V23.7528ZM32.4924 13.9134C32.2684 13.9048 32.0519 13.8304 31.8699 13.6994C31.688 13.5683 31.5488 13.3865 31.4697 13.1767C31.3907 12.9669 31.3753 12.7384 31.4255 12.5199C31.4757 12.3014 31.5893 12.1026 31.752 11.9483C33.418 10.3535 35.1695 8.81563 36.9636 7.37744C37.1997 7.18861 37.5011 7.10128 37.8015 7.13467C38.1019 7.16805 38.3768 7.3194 38.5656 7.55543C38.7544 7.79147 38.8417 8.09284 38.8084 8.39327C38.775 8.69369 38.6236 8.96855 38.3876 9.15737C36.6504 10.5813 34.9416 12.0053 33.3183 13.6001C33.112 13.7891 32.8434 13.8955 32.5637 13.8991L32.4924 13.9134ZM42.7021 5.72566C42.5209 5.71693 42.3441 5.66605 42.1859 5.57706C42.0277 5.48808 41.8924 5.36344 41.7908 5.21304C41.7079 5.08076 41.6531 4.93286 41.6297 4.77851C41.6064 4.62415 41.615 4.46664 41.655 4.31576C41.6951 4.16487 41.7657 4.02383 41.8626 3.90139C41.9594 3.77895 42.0804 3.67772 42.218 3.60398C44.1597 2.28659 46.1968 1.11571 48.3125 0.101073C48.4479 0.0394246 48.5943 0.00526037 48.743 0.000561066C48.8917 -0.00413824 49.0399 0.0207206 49.179 0.0736965C49.3181 0.126672 49.4452 0.206712 49.5531 0.309181C49.661 0.411651 49.7476 0.534514 49.8076 0.670652C49.9289 0.946764 49.9371 1.25937 49.8307 1.54149C49.7242 1.82362 49.5115 2.05283 49.2381 2.18003C47.2625 3.14819 45.359 4.25697 43.5423 5.49783C43.3185 5.65603 43.0467 5.73153 42.7733 5.71142L42.7021 5.72566Z" stroke="#FFEA22"/>
<path d="M486.224 350H486.338C486.487 350.019 486.631 350.068 486.761 350.143C486.891 350.218 487.005 350.318 487.096 350.437C487.187 350.556 487.254 350.692 487.293 350.837C487.331 350.982 487.341 351.133 487.321 351.282C487.008 353.574 486.595 355.867 486.125 358.088C486.061 358.385 485.881 358.643 485.626 358.808C485.371 358.972 485.061 359.028 484.765 358.964C484.468 358.9 484.21 358.72 484.045 358.465C483.881 358.21 483.825 357.9 483.889 357.604C484.359 355.44 484.758 353.218 485.057 350.968C485.101 350.693 485.244 350.443 485.459 350.265C485.674 350.087 485.946 349.993 486.224 350ZM483.49 362.816H483.775C483.921 362.856 484.056 362.926 484.174 363.02C484.292 363.114 484.39 363.232 484.462 363.364C484.534 363.497 484.578 363.643 484.592 363.794C484.606 363.944 484.59 364.096 484.544 364.24C483.889 366.461 483.12 368.654 482.28 370.79C482.235 370.942 482.159 371.083 482.057 371.203C481.954 371.324 481.828 371.422 481.685 371.491C481.543 371.561 481.387 371.599 481.229 371.605C481.071 371.611 480.913 371.583 480.766 371.525C480.619 371.466 480.485 371.377 480.375 371.264C480.264 371.151 480.177 371.016 480.122 370.868C480.066 370.72 480.042 370.562 480.05 370.404C480.059 370.245 480.101 370.091 480.173 369.95C480.984 367.885 481.725 365.678 482.366 363.599C482.435 363.356 482.583 363.143 482.787 362.993C482.99 362.844 483.238 362.766 483.49 362.773V362.816ZM478.734 374.933C478.892 374.943 479.047 374.981 479.19 375.047C479.46 375.182 479.666 375.417 479.764 375.702C479.862 375.987 479.846 376.299 479.717 376.571C478.692 378.65 477.567 380.686 476.371 382.651C476.212 382.908 475.958 383.091 475.664 383.16C475.37 383.23 475.061 383.18 474.804 383.021C474.548 382.863 474.365 382.609 474.295 382.315C474.226 382.021 474.276 381.712 474.434 381.455C475.588 379.561 476.684 377.582 477.667 375.574C477.766 375.378 477.919 375.213 478.108 375.1C478.297 374.986 478.514 374.929 478.734 374.933ZM471.957 386.111C472.161 386.123 472.359 386.189 472.53 386.302C472.7 386.416 472.838 386.573 472.928 386.757C473.018 386.941 473.057 387.146 473.041 387.35C473.026 387.555 472.956 387.751 472.839 387.92C471.472 389.818 470.02 391.622 468.482 393.331C468.388 393.458 468.268 393.564 468.131 393.642C467.993 393.72 467.841 393.769 467.684 393.785C467.526 393.801 467.367 393.784 467.217 393.736C467.066 393.687 466.928 393.608 466.81 393.503C466.692 393.397 466.597 393.269 466.531 393.125C466.465 392.981 466.43 392.825 466.428 392.667C466.426 392.509 466.457 392.352 466.519 392.206C466.581 392.061 466.672 391.93 466.788 391.821C468.212 390.141 469.635 388.376 471.059 386.581C471.164 386.442 471.299 386.328 471.455 386.249C471.61 386.17 471.782 386.128 471.957 386.126V386.111ZM463.413 395.951C463.637 395.959 463.853 396.034 464.035 396.165C464.217 396.296 464.356 396.478 464.436 396.688C464.515 396.897 464.53 397.126 464.48 397.344C464.43 397.563 464.316 397.762 464.153 397.916C462.487 399.511 460.736 401.049 458.942 402.487C458.706 402.676 458.404 402.763 458.104 402.73C457.803 402.696 457.529 402.545 457.34 402.309C457.151 402.073 457.064 401.771 457.097 401.471C457.13 401.171 457.282 400.896 457.518 400.707C459.255 399.283 460.964 397.859 462.587 396.264C462.793 396.075 463.062 395.969 463.342 395.965L463.413 395.951ZM453.203 404.139C453.384 404.147 453.561 404.198 453.719 404.287C453.878 404.376 454.013 404.501 454.114 404.651C454.197 404.783 454.252 404.931 454.276 405.086C454.299 405.24 454.29 405.398 454.25 405.549C454.21 405.699 454.14 405.84 454.043 405.963C453.946 406.085 453.825 406.187 453.687 406.26C451.746 407.578 449.708 408.749 447.593 409.763C447.457 409.825 447.311 409.859 447.162 409.864C447.014 409.868 446.865 409.844 446.726 409.791C446.587 409.738 446.46 409.658 446.352 409.555C446.244 409.453 446.158 409.33 446.098 409.194C445.976 408.917 445.968 408.605 446.075 408.323C446.181 408.041 446.394 407.811 446.667 407.684C448.643 406.716 450.546 405.607 452.363 404.366C452.587 404.208 452.859 404.133 453.132 404.153L453.203 404.139Z" fill="#FFEA22"/>
<path d="M486.224 350H486.338C486.487 350.019 486.631 350.068 486.761 350.143C486.891 350.218 487.005 350.318 487.096 350.437C487.187 350.556 487.254 350.692 487.293 350.837C487.331 350.982 487.341 351.133 487.321 351.282C487.008 353.574 486.595 355.867 486.125 358.088C486.061 358.385 485.881 358.643 485.626 358.808C485.371 358.972 485.061 359.028 484.765 358.964C484.468 358.9 484.21 358.72 484.045 358.465C483.881 358.21 483.825 357.9 483.889 357.604C484.359 355.44 484.758 353.218 485.057 350.968C485.101 350.693 485.244 350.443 485.459 350.265C485.674 350.087 485.946 349.993 486.224 350ZM483.49 362.816H483.775C483.921 362.856 484.056 362.926 484.174 363.02C484.292 363.114 484.39 363.232 484.462 363.364C484.534 363.497 484.578 363.643 484.592 363.794C484.606 363.944 484.59 364.096 484.544 364.24C483.889 366.461 483.12 368.654 482.28 370.79C482.235 370.942 482.159 371.083 482.057 371.203C481.954 371.324 481.828 371.422 481.685 371.491C481.543 371.561 481.387 371.599 481.229 371.605C481.071 371.611 480.913 371.583 480.766 371.525C480.619 371.466 480.485 371.377 480.375 371.264C480.264 371.151 480.177 371.016 480.122 370.868C480.066 370.72 480.042 370.562 480.05 370.404C480.059 370.245 480.101 370.091 480.173 369.95C480.984 367.885 481.725 365.678 482.366 363.599C482.435 363.356 482.583 363.143 482.787 362.993C482.99 362.844 483.238 362.766 483.49 362.773V362.816ZM478.734 374.933C478.892 374.943 479.047 374.981 479.19 375.047C479.46 375.182 479.666 375.417 479.764 375.702C479.862 375.987 479.846 376.299 479.717 376.571C478.692 378.65 477.567 380.686 476.371 382.651C476.212 382.908 475.958 383.091 475.664 383.16C475.37 383.23 475.061 383.18 474.804 383.021C474.548 382.863 474.365 382.609 474.295 382.315C474.226 382.021 474.276 381.712 474.434 381.455C475.588 379.561 476.684 377.582 477.667 375.574C477.766 375.378 477.919 375.213 478.108 375.1C478.297 374.986 478.514 374.929 478.734 374.933ZM471.957 386.111C472.161 386.123 472.359 386.189 472.53 386.302C472.7 386.416 472.838 386.573 472.928 386.757C473.018 386.941 473.057 387.146 473.041 387.35C473.026 387.555 472.956 387.751 472.839 387.92C471.472 389.818 470.02 391.622 468.482 393.331C468.388 393.458 468.268 393.564 468.131 393.642C467.993 393.72 467.841 393.769 467.684 393.785C467.526 393.801 467.367 393.784 467.217 393.736C467.066 393.687 466.928 393.608 466.81 393.503C466.692 393.397 466.597 393.269 466.531 393.125C466.465 392.981 466.43 392.825 466.428 392.667C466.426 392.509 466.457 392.352 466.519 392.206C466.581 392.061 466.672 391.93 466.788 391.821C468.212 390.141 469.635 388.376 471.059 386.581C471.164 386.442 471.299 386.328 471.455 386.249C471.61 386.17 471.782 386.128 471.957 386.126V386.111ZM463.413 395.951C463.637 395.959 463.853 396.034 464.035 396.165C464.217 396.296 464.356 396.478 464.436 396.688C464.515 396.897 464.53 397.126 464.48 397.344C464.43 397.563 464.316 397.762 464.153 397.916C462.487 399.511 460.736 401.049 458.942 402.487C458.706 402.676 458.404 402.763 458.104 402.73C457.803 402.696 457.529 402.545 457.34 402.309C457.151 402.073 457.064 401.771 457.097 401.471C457.13 401.171 457.282 400.896 457.518 400.707C459.255 399.283 460.964 397.859 462.587 396.264C462.793 396.075 463.062 395.969 463.342 395.965L463.413 395.951ZM453.203 404.139C453.384 404.147 453.561 404.198 453.719 404.287C453.878 404.376 454.013 404.501 454.114 404.651C454.197 404.783 454.252 404.931 454.276 405.086C454.299 405.24 454.29 405.398 454.25 405.549C454.21 405.699 454.14 405.84 454.043 405.963C453.946 406.085 453.825 406.187 453.687 406.26C451.746 407.578 449.708 408.749 447.593 409.763C447.457 409.825 447.311 409.859 447.162 409.864C447.014 409.868 446.865 409.844 446.726 409.791C446.587 409.738 446.46 409.658 446.352 409.555C446.244 409.453 446.158 409.33 446.098 409.194C445.976 408.917 445.968 408.605 446.075 408.323C446.181 408.041 446.394 407.811 446.667 407.684C448.643 406.716 450.546 405.607 452.363 404.366C452.587 404.208 452.859 404.133 453.132 404.153L453.203 404.139Z" stroke="#FFEA22"/>
<path d="M180.001 11.8919C179.889 11.8832 179.779 11.8593 179.673 11.8207C178.403 11.2914 177.573 10.9273 177.214 10.7695C177.09 10.715 177.022 10.6851 177.011 10.6815C176.892 10.6263 176.785 10.5483 176.696 10.4519C176.608 10.3555 176.539 10.2426 176.494 10.1196C176.449 9.99666 176.429 9.86604 176.434 9.73523C176.44 9.60441 176.471 9.47597 176.526 9.35723C176.582 9.23849 176.66 9.13177 176.756 9.04318C176.852 8.95459 176.965 8.88585 177.088 8.84089C177.211 8.79593 177.342 8.77564 177.473 8.78116C177.603 8.78669 177.732 8.81792 177.851 8.87309C177.851 8.87309 178.762 9.28603 180.428 9.96952C180.649 10.0565 180.832 10.2195 180.943 10.4292C181.055 10.6389 181.087 10.8814 181.036 11.1133C180.984 11.3451 180.852 11.5509 180.662 11.6936C180.472 11.8363 180.238 11.9067 180.001 11.8919Z" fill="#FFEA22"/>
<path d="M180.001 11.8919C179.889 11.8832 179.779 11.8593 179.673 11.8207C178.403 11.2914 177.573 10.9273 177.214 10.7695C177.09 10.715 177.022 10.6851 177.011 10.6815C176.892 10.6263 176.785 10.5483 176.696 10.4519C176.608 10.3555 176.539 10.2426 176.494 10.1196C176.449 9.99666 176.429 9.86604 176.434 9.73523C176.44 9.60441 176.471 9.47597 176.526 9.35723C176.582 9.23849 176.66 9.13177 176.756 9.04318C176.852 8.95459 176.965 8.88585 177.088 8.84089C177.211 8.79593 177.342 8.77564 177.473 8.78116C177.603 8.78669 177.732 8.81792 177.851 8.87309C177.851 8.87309 178.762 9.28603 180.428 9.96952C180.649 10.0565 180.832 10.2195 180.943 10.4292C181.055 10.6389 181.087 10.8814 181.036 11.1133C180.984 11.3451 180.852 11.5509 180.662 11.6936C180.472 11.8363 180.238 11.9067 180.001 11.8919Z" stroke="#8331A7"/>
<path d="M242.995 26.5009C241.044 26.387 239.051 26.2303 237.071 26.0452C236.807 26.0207 236.563 25.8921 236.394 25.6878C236.224 25.4836 236.143 25.2203 236.167 24.9559C236.192 24.6916 236.32 24.4478 236.525 24.2782C236.729 24.1086 236.992 24.0272 237.256 24.0517C239.222 24.2511 241.187 24.3935 243.109 24.5216C243.249 24.5135 243.389 24.5349 243.52 24.5844C243.651 24.6339 243.77 24.7105 243.869 24.8091C243.968 24.9077 244.046 25.0261 244.096 25.1567C244.147 25.2872 244.169 25.427 244.162 25.5668C244.155 25.7067 244.119 25.8434 244.056 25.9682C243.992 26.0931 243.903 26.2031 243.794 26.2912C243.686 26.3794 243.559 26.4436 243.424 26.4797C243.289 26.5158 243.147 26.523 243.009 26.5009H242.995ZM250.115 26.7857C249.85 26.7857 249.597 26.6807 249.41 26.4937C249.223 26.3068 249.118 26.0533 249.118 25.7889C249.118 25.5246 249.223 25.271 249.41 25.0841C249.597 24.8972 249.85 24.7922 250.115 24.7922C252.08 24.7922 254.045 24.7922 255.981 24.7922C256.246 24.7922 256.499 24.8972 256.686 25.0841C256.873 25.271 256.978 25.5246 256.978 25.7889C256.978 26.0533 256.873 26.3068 256.686 26.4937C256.499 26.6807 256.246 26.7857 255.981 26.7857C254.031 26.7857 252.023 26.7857 250.044 26.7857H250.115ZM230.108 25.2336H230.023C228.086 24.9773 226.121 24.6782 224.156 24.3507C224.028 24.3301 223.905 24.284 223.794 24.2154C223.684 24.1467 223.588 24.0568 223.512 23.9508C223.437 23.8449 223.383 23.7249 223.354 23.598C223.325 23.4711 223.322 23.3398 223.345 23.2116C223.364 23.0818 223.408 22.9572 223.476 22.845C223.544 22.7329 223.634 22.6354 223.74 22.5585C223.846 22.4815 223.967 22.4266 224.094 22.3969C224.222 22.3672 224.354 22.3634 224.484 22.3857C226.42 22.7132 228.371 22.998 230.293 23.2685C230.541 23.3106 230.764 23.4449 230.917 23.6443C231.07 23.8438 231.142 24.0937 231.119 24.344C231.096 24.5944 230.978 24.8266 230.791 24.9942C230.604 25.1618 230.36 25.2524 230.108 25.2478V25.2336ZM263.087 26.4582C262.842 26.4512 262.609 26.3519 262.435 26.1802C262.261 26.0085 262.158 25.7771 262.147 25.5326C262.131 25.269 262.219 25.0096 262.392 24.8101C262.565 24.6105 262.809 24.4865 263.073 24.4647C265.009 24.3507 266.974 24.2083 268.954 24.0517C269.086 24.038 269.219 24.0508 269.346 24.0894C269.473 24.1281 269.591 24.1917 269.694 24.2766C269.796 24.3615 269.88 24.466 269.941 24.5838C270.002 24.7017 270.039 24.8306 270.05 24.963C270.07 25.2268 269.986 25.4878 269.815 25.6901C269.645 25.8924 269.402 26.0199 269.139 26.0452C267.159 26.2019 265.166 26.3443 263.229 26.4582H263.087ZM217.307 23.0692H217.165C215.242 22.6847 213.291 22.2575 211.369 21.8161C211.11 21.7576 210.886 21.5987 210.744 21.3744C210.603 21.15 210.556 20.8787 210.614 20.62C210.673 20.3613 210.832 20.1365 211.056 19.9949C211.281 19.8534 211.552 19.8068 211.811 19.8653C213.719 20.321 215.655 20.7339 217.506 21.1184C217.769 21.1505 218.008 21.2855 218.171 21.4938C218.334 21.7021 218.407 21.9666 218.375 22.2291C218.343 22.4915 218.208 22.7305 218 22.8934C217.791 23.0563 217.527 23.1298 217.264 23.0977L217.307 23.0692ZM276.031 25.376C275.794 25.3669 275.568 25.2725 275.396 25.1103C275.223 24.9481 275.115 24.7289 275.091 24.4931C275.063 24.2307 275.14 23.968 275.306 23.7624C275.471 23.5569 275.711 23.4254 275.974 23.3967C277.896 23.1973 279.875 22.9695 281.826 22.7274C282.068 22.7129 282.308 22.7873 282.499 22.9368C282.691 23.0862 282.821 23.3004 282.866 23.5391C282.881 23.6691 282.872 23.8009 282.837 23.9271C282.802 24.0532 282.742 24.1712 282.661 24.2744C282.581 24.3775 282.48 24.4638 282.366 24.5282C282.252 24.5926 282.127 24.6339 281.997 24.6498C280.032 24.8918 278.053 25.1197 276.116 25.319L276.031 25.376ZM204.677 20.0931H204.463C202.555 19.5805 200.633 19.0394 198.767 18.4841C198.514 18.408 198.3 18.2357 198.173 18.0041C198.045 17.7726 198.013 17.5001 198.084 17.2452C198.16 16.9924 198.333 16.7799 198.565 16.6545C198.797 16.529 199.07 16.5008 199.323 16.576C201.202 17.1313 203.096 17.6582 205.018 18.1708C205.144 18.2038 205.262 18.2615 205.365 18.3403C205.468 18.4192 205.555 18.5178 205.62 18.6304C205.685 18.7429 205.727 18.8673 205.743 18.9961C205.76 19.125 205.75 19.2559 205.716 19.3812C205.655 19.6125 205.511 19.8133 205.312 19.9448C205.112 20.0762 204.87 20.1291 204.634 20.0931H204.677ZM288.917 23.7669C288.685 23.7588 288.463 23.6684 288.291 23.512C288.119 23.3556 288.008 23.1432 287.977 22.9126C287.945 22.6506 288.016 22.3863 288.176 22.1761C288.335 21.9659 288.571 21.8265 288.832 21.7876C290.74 21.5171 292.705 21.2038 294.642 20.8905C294.904 20.8471 295.173 20.9097 295.389 21.0646C295.606 21.2195 295.752 21.454 295.795 21.7164C295.838 21.9789 295.776 22.2479 295.621 22.4642C295.466 22.6805 295.232 22.8264 294.969 22.8698C293.004 23.1831 291.039 23.4821 289.117 23.7527L288.917 23.7669ZM301.733 21.688C301.506 21.6758 301.29 21.5877 301.12 21.4378C300.949 21.288 300.834 21.0852 300.793 20.8621C300.768 20.7339 300.77 20.602 300.796 20.4743C300.823 20.3466 300.875 20.2255 300.95 20.1181C301.024 20.0107 301.119 19.9192 301.229 19.8489C301.339 19.7786 301.462 19.7309 301.59 19.7087C303.513 19.3669 305.449 18.9967 307.386 18.6122C307.645 18.562 307.912 18.6161 308.131 18.7629C308.35 18.9096 308.502 19.1371 308.554 19.3954C308.604 19.6558 308.55 19.9256 308.404 20.1466C308.257 20.3677 308.03 20.5224 307.77 20.5773L301.946 21.6737L301.733 21.688ZM192.189 16.4194C192.1 16.4405 192.007 16.4405 191.918 16.4194C190.024 15.7928 188.13 15.1378 186.308 14.4828C186.058 14.3921 185.855 14.2062 185.743 13.9659C185.631 13.7255 185.619 13.4505 185.71 13.2012C185.8 12.952 185.986 12.7489 186.227 12.6368C186.467 12.5246 186.742 12.5125 186.991 12.6032C188.8 13.2582 190.665 13.9132 192.545 14.5397C192.768 14.6186 192.957 14.7748 193.076 14.9802C193.195 15.1855 193.237 15.4266 193.194 15.6601C193.151 15.8935 193.026 16.104 192.842 16.2536C192.657 16.4032 192.426 16.4822 192.189 16.4763V16.4194ZM314.434 19.2672C314.214 19.2535 314.005 19.1681 313.838 19.0242C313.67 18.8802 313.555 18.6855 313.509 18.4698C313.482 18.3417 313.48 18.2096 313.504 18.0808C313.528 17.9521 313.577 17.8293 313.648 17.7196C313.72 17.6098 313.812 17.5152 313.92 17.4412C314.028 17.3671 314.15 17.315 314.278 17.288C316.186 16.875 318.122 16.4478 319.974 16.0064C320.232 15.9479 320.504 15.9945 320.728 16.136C320.952 16.2776 321.111 16.5024 321.17 16.7611C321.228 17.0198 321.182 17.2911 321.04 17.5155C320.899 17.7398 320.674 17.8987 320.415 17.9572C318.507 18.3986 316.57 18.8258 314.634 19.2388L314.434 19.2672ZM327.093 16.3197C326.861 16.3012 326.642 16.2018 326.475 16.0388C326.309 15.8758 326.204 15.6594 326.181 15.4274C326.157 15.1953 326.215 14.9623 326.346 14.7689C326.476 14.5755 326.67 14.434 326.894 14.3689C328.831 13.8847 330.753 13.3863 332.59 12.9449C332.719 12.9015 332.856 12.8851 332.991 12.8966C333.127 12.9081 333.259 12.9473 333.379 13.0117C333.499 13.0762 333.604 13.1646 333.689 13.2714C333.773 13.3783 333.835 13.5013 333.87 13.633C333.905 13.7646 333.913 13.902 333.893 14.0367C333.873 14.1715 333.826 14.3007 333.754 14.4163C333.682 14.532 333.587 14.6317 333.475 14.7093C333.363 14.7868 333.236 14.8406 333.102 14.8673C331.237 15.3656 329.315 15.864 327.407 16.2912C327.298 16.2938 327.19 16.2694 327.093 16.22V16.3197Z" fill="#FFEA22"/>
<path d="M339.596 12.8598C339.39 12.8466 339.193 12.7716 339.031 12.6445C338.868 12.5175 338.748 12.3444 338.685 12.1478C338.61 11.8948 338.638 11.6222 338.763 11.39C338.889 11.1577 339.101 10.9848 339.354 10.909C341.091 10.3963 342.06 10.0973 342.06 10.0831C342.313 10.0019 342.588 10.0245 342.824 10.146C343.06 10.2675 343.239 10.4779 343.32 10.731C343.401 10.984 343.378 11.2589 343.257 11.4953C343.135 11.7316 342.925 11.91 342.672 11.9912C342.672 11.9912 341.689 12.3044 339.924 12.8171L339.596 12.8598Z" fill="#FFEA22"/>
<path d="M339.596 12.8598C339.39 12.8466 339.193 12.7716 339.031 12.6445C338.868 12.5175 338.748 12.3444 338.685 12.1478C338.61 11.8948 338.638 11.6222 338.763 11.39C338.889 11.1577 339.101 10.9848 339.354 10.909C341.091 10.3963 342.06 10.0973 342.06 10.0831C342.313 10.0019 342.588 10.0245 342.824 10.146C343.06 10.2675 343.239 10.4779 343.32 10.731C343.401 10.984 343.378 11.2589 343.257 11.4953C343.135 11.7316 342.925 11.91 342.672 11.9912C342.672 11.9912 341.689 12.3044 339.924 12.8171L339.596 12.8598Z" stroke="#8331A7"/>
<path d="M378.37 127.302H378.27C377.97 127.27 377.695 127.12 377.505 126.885C377.316 126.65 377.227 126.349 377.259 126.049C377.487 123.942 377.573 122.703 377.573 122.689C377.57 122.531 377.599 122.374 377.66 122.228C377.721 122.082 377.812 121.95 377.926 121.842C378.041 121.733 378.177 121.649 378.326 121.595C378.474 121.542 378.633 121.52 378.79 121.531C378.948 121.541 379.102 121.585 379.241 121.659C379.381 121.732 379.504 121.834 379.603 121.958C379.701 122.081 379.773 122.224 379.813 122.377C379.853 122.53 379.861 122.689 379.837 122.845C379.837 122.845 379.751 124.127 379.523 126.291C379.492 126.573 379.356 126.833 379.142 127.02C378.929 127.207 378.654 127.308 378.37 127.302Z" fill="#FFEA22"/>
<path d="M378.37 127.302H378.27C377.97 127.27 377.695 127.12 377.505 126.885C377.316 126.65 377.227 126.349 377.259 126.049C377.487 123.942 377.573 122.703 377.573 122.689C377.57 122.531 377.599 122.374 377.66 122.228C377.721 122.082 377.812 121.95 377.926 121.842C378.041 121.733 378.177 121.649 378.326 121.595C378.474 121.542 378.633 121.52 378.79 121.531C378.948 121.541 379.102 121.585 379.241 121.659C379.381 121.732 379.504 121.834 379.603 121.958C379.701 122.081 379.773 122.224 379.813 122.377C379.853 122.53 379.861 122.689 379.837 122.845C379.837 122.845 379.751 124.127 379.523 126.291C379.492 126.573 379.356 126.833 379.142 127.02C378.929 127.207 378.654 127.308 378.37 127.302Z" stroke="#FFEA22"/>
<path d="M231.889 295.513C231.601 295.514 231.324 295.406 231.113 295.21C230.901 295.015 230.772 294.747 230.75 294.459C230.679 293.434 230.65 292.423 230.65 291.441C230.648 290.076 230.72 288.711 230.864 287.354C230.875 287.201 230.917 287.053 230.986 286.917C231.056 286.781 231.153 286.66 231.27 286.562C231.387 286.464 231.523 286.391 231.669 286.346C231.816 286.302 231.969 286.287 232.121 286.304C232.273 286.32 232.421 286.366 232.554 286.441C232.688 286.515 232.805 286.616 232.899 286.736C232.993 286.857 233.062 286.995 233.101 287.143C233.14 287.291 233.15 287.445 233.128 287.596C232.984 288.872 232.913 290.156 232.915 291.441C232.915 292.366 232.915 293.32 233.028 294.289C233.04 294.438 233.022 294.589 232.975 294.731C232.929 294.874 232.854 295.006 232.756 295.12C232.658 295.234 232.539 295.327 232.405 295.395C232.271 295.462 232.124 295.502 231.975 295.513H231.889ZM233.313 282.47C233.191 282.491 233.066 282.491 232.943 282.47C232.803 282.423 232.673 282.349 232.561 282.252C232.449 282.156 232.358 282.038 232.292 281.905C232.226 281.773 232.186 281.629 232.176 281.482C232.165 281.334 232.184 281.186 232.231 281.046C232.995 278.777 234.053 276.618 235.378 274.624C235.46 274.498 235.566 274.39 235.69 274.306C235.815 274.221 235.955 274.163 236.102 274.134C236.249 274.105 236.401 274.105 236.548 274.136C236.695 274.166 236.835 274.225 236.959 274.311C237.083 274.394 237.19 274.501 237.273 274.625C237.356 274.75 237.413 274.889 237.443 275.036C237.472 275.183 237.472 275.334 237.442 275.481C237.413 275.627 237.355 275.767 237.272 275.891C236.067 277.717 235.109 279.695 234.424 281.772C234.336 281.985 234.185 282.167 233.992 282.294C233.799 282.421 233.573 282.487 233.342 282.484L233.313 282.47ZM240.433 271.505C240.278 271.506 240.125 271.475 239.983 271.414C239.841 271.352 239.713 271.262 239.607 271.149C239.394 270.936 239.274 270.647 239.274 270.345C239.274 270.043 239.394 269.754 239.607 269.54C241.329 267.914 243.197 266.45 245.189 265.169C245.314 265.078 245.456 265.013 245.607 264.979C245.758 264.944 245.915 264.941 246.067 264.969C246.219 264.997 246.364 265.056 246.493 265.142C246.621 265.228 246.731 265.339 246.816 265.469C246.9 265.599 246.957 265.744 246.983 265.897C247.009 266.05 247.004 266.206 246.967 266.356C246.931 266.507 246.865 266.648 246.772 266.772C246.679 266.896 246.562 267 246.428 267.077C244.551 268.281 242.792 269.659 241.173 271.192C240.97 271.399 240.694 271.516 240.404 271.52L240.433 271.505ZM251.383 264.186C251.126 264.184 250.878 264.094 250.678 263.932C250.479 263.771 250.34 263.547 250.284 263.296C250.228 263.045 250.258 262.783 250.37 262.552C250.481 262.321 250.668 262.134 250.899 262.022C253.012 261.011 255.174 260.108 257.378 259.316C257.656 259.22 257.96 259.236 258.226 259.361C258.493 259.486 258.699 259.71 258.802 259.986C258.894 260.265 258.874 260.57 258.747 260.835C258.62 261.101 258.394 261.307 258.118 261.41C255.987 262.176 253.895 263.05 251.853 264.03C251.7 264.118 251.53 264.171 251.355 264.186H251.383ZM263.786 259.544C263.518 259.535 263.263 259.431 263.064 259.252C262.865 259.073 262.735 258.83 262.698 258.565C262.661 258.3 262.718 258.03 262.859 257.803C263.001 257.576 263.218 257.406 263.472 257.323C265.566 256.696 267.83 256.098 270.222 255.529C270.371 255.484 270.527 255.47 270.681 255.489C270.835 255.508 270.984 255.558 271.118 255.637C271.252 255.716 271.368 255.822 271.458 255.948C271.549 256.074 271.613 256.217 271.646 256.369C271.686 256.518 271.697 256.673 271.676 256.826C271.656 256.978 271.605 257.125 271.526 257.258C271.448 257.391 271.344 257.507 271.22 257.598C271.096 257.69 270.955 257.756 270.806 257.793C268.456 258.348 266.221 258.946 264.17 259.544C264.034 259.571 263.895 259.576 263.757 259.559L263.786 259.544ZM276.601 256.397C276.323 256.391 276.057 256.284 275.853 256.095C275.648 255.907 275.52 255.65 275.492 255.373C275.464 255.097 275.538 254.819 275.7 254.593C275.863 254.368 276.102 254.209 276.373 254.148C278.509 253.706 280.745 253.279 283.208 252.837C283.507 252.785 283.814 252.852 284.062 253.026C284.31 253.2 284.48 253.465 284.533 253.763C284.585 254.061 284.518 254.369 284.344 254.617C284.17 254.865 283.905 255.034 283.607 255.087C281.172 255.515 278.951 255.942 276.843 256.383L276.601 256.397ZM289.659 254.019C289.384 254.005 289.123 253.891 288.926 253.699C288.728 253.507 288.607 253.25 288.584 252.975C288.562 252.701 288.639 252.427 288.803 252.206C288.966 251.984 289.205 251.829 289.474 251.77L296.323 250.659C296.472 250.632 296.625 250.635 296.773 250.668C296.921 250.702 297.061 250.764 297.184 250.852C297.308 250.94 297.413 251.051 297.492 251.18C297.572 251.309 297.626 251.452 297.649 251.602C297.673 251.752 297.667 251.905 297.63 252.052C297.594 252.199 297.529 252.338 297.439 252.459C297.348 252.581 297.235 252.683 297.104 252.761C296.974 252.838 296.829 252.888 296.679 252.909L289.844 254.005L289.659 254.019ZM302.788 251.94C302.501 251.942 302.224 251.835 302.012 251.641C301.8 251.447 301.67 251.18 301.647 250.894C301.623 250.608 301.709 250.324 301.886 250.098C302.063 249.872 302.319 249.722 302.602 249.676L309.437 248.594C309.585 248.57 309.736 248.575 309.882 248.609C310.028 248.643 310.166 248.705 310.287 248.792C310.409 248.88 310.512 248.99 310.591 249.117C310.67 249.245 310.723 249.386 310.747 249.534C310.793 249.832 310.72 250.136 310.544 250.38C310.369 250.625 310.104 250.792 309.808 250.844L302.958 251.926L302.788 251.94ZM315.874 249.79C315.599 249.776 315.338 249.662 315.141 249.47C314.943 249.278 314.822 249.021 314.799 248.746C314.777 248.472 314.854 248.198 315.018 247.976C315.181 247.755 315.42 247.6 315.689 247.54C318.123 247.113 320.345 246.7 322.467 246.273C322.763 246.215 323.071 246.276 323.322 246.444C323.573 246.613 323.746 246.874 323.805 247.17C323.864 247.467 323.802 247.774 323.634 248.025C323.465 248.276 323.204 248.45 322.908 248.509C320.772 248.936 318.536 249.349 316.073 249.776L315.874 249.79ZM328.903 247.213C328.644 247.216 328.393 247.129 328.191 246.969C327.988 246.808 327.848 246.582 327.792 246.33C327.75 246.18 327.738 246.024 327.759 245.869C327.779 245.715 327.831 245.567 327.911 245.433C327.991 245.3 328.098 245.184 328.224 245.094C328.351 245.003 328.494 244.939 328.646 244.906C330.996 244.379 333.232 243.824 335.325 243.254C335.47 243.215 335.621 243.205 335.77 243.224C335.919 243.243 336.062 243.291 336.193 243.366C336.323 243.441 336.437 243.54 336.529 243.659C336.621 243.778 336.688 243.914 336.727 244.059C336.767 244.204 336.777 244.355 336.758 244.504C336.739 244.653 336.69 244.797 336.616 244.927C336.541 245.057 336.441 245.171 336.322 245.263C336.204 245.355 336.068 245.422 335.923 245.461C333.801 246.031 331.523 246.586 329.145 247.127C329.084 247.171 329.017 247.205 328.945 247.227L328.903 247.213ZM341.718 243.738C341.447 243.739 341.185 243.642 340.979 243.466C340.773 243.291 340.636 243.047 340.593 242.78C340.55 242.512 340.604 242.238 340.745 242.007C340.886 241.775 341.105 241.602 341.362 241.517C343.626 240.777 345.777 239.993 347.77 239.168C348.041 239.071 348.338 239.081 348.602 239.194C348.866 239.308 349.078 239.517 349.194 239.78C349.286 240.053 349.273 240.35 349.157 240.613C349.041 240.877 348.831 241.087 348.567 241.204C346.531 242.044 344.296 242.856 342.003 243.61C341.924 243.669 341.838 243.717 341.747 243.753L341.718 243.738ZM353.95 238.683C353.695 238.684 353.447 238.599 353.246 238.441C353.045 238.284 352.902 238.063 352.842 237.815C352.781 237.567 352.805 237.306 352.911 237.074C353.016 236.841 353.197 236.651 353.423 236.533C355.426 235.492 357.361 234.327 359.219 233.045C359.468 232.873 359.776 232.807 360.074 232.86C360.373 232.913 360.638 233.082 360.813 233.329C360.899 233.452 360.96 233.591 360.991 233.738C361.022 233.884 361.024 234.035 360.996 234.183C360.969 234.33 360.912 234.47 360.829 234.595C360.746 234.72 360.639 234.827 360.514 234.91C358.582 236.253 356.565 237.47 354.477 238.555C354.324 238.641 354.154 238.69 353.978 238.698L353.95 238.683ZM364.815 231.165C364.66 231.167 364.506 231.137 364.364 231.076C364.221 231.014 364.093 230.923 363.989 230.809C363.776 230.595 363.656 230.306 363.656 230.004C363.656 229.703 363.776 229.414 363.989 229.2C365.661 227.709 367.2 226.075 368.588 224.316C368.682 224.197 368.798 224.098 368.929 224.024C369.061 223.95 369.206 223.903 369.356 223.885C369.507 223.867 369.659 223.879 369.804 223.92C369.95 223.961 370.086 224.03 370.204 224.124C370.323 224.217 370.422 224.333 370.496 224.465C370.57 224.597 370.617 224.742 370.635 224.892C370.653 225.042 370.641 225.194 370.6 225.34C370.559 225.485 370.49 225.621 370.397 225.74C368.965 227.629 367.369 229.387 365.626 230.994C365.395 231.147 365.118 231.212 364.843 231.179L364.815 231.165ZM372.775 220.671C372.602 220.668 372.432 220.63 372.276 220.557C372.141 220.491 372.021 220.4 371.922 220.288C371.822 220.176 371.746 220.046 371.697 219.904C371.648 219.763 371.627 219.613 371.636 219.463C371.645 219.314 371.684 219.168 371.749 219.033C372.729 217.036 373.479 214.934 373.985 212.768C374.055 212.473 374.239 212.218 374.497 212.059C374.754 211.901 375.064 211.851 375.359 211.92C375.654 211.99 375.908 212.174 376.067 212.432C376.226 212.69 376.276 213 376.206 213.294C375.656 215.622 374.849 217.881 373.8 220.03C373.709 220.219 373.568 220.381 373.393 220.496C373.217 220.612 373.013 220.677 372.803 220.685L372.775 220.671ZM375.907 207.855C375.758 207.851 375.61 207.818 375.473 207.757C375.337 207.697 375.213 207.61 375.11 207.501C375.007 207.393 374.926 207.265 374.872 207.126C374.819 206.986 374.793 206.837 374.797 206.687C374.797 206.403 374.797 206.118 374.797 205.847C374.792 203.898 374.611 201.954 374.255 200.038C374.229 199.89 374.232 199.738 374.264 199.592C374.296 199.445 374.357 199.306 374.443 199.183C374.529 199.06 374.638 198.955 374.765 198.874C374.892 198.794 375.033 198.739 375.181 198.713C375.327 198.687 375.477 198.689 375.622 198.721C375.767 198.752 375.904 198.812 376.026 198.896C376.147 198.981 376.251 199.089 376.331 199.214C376.411 199.339 376.465 199.479 376.491 199.625C376.87 201.677 377.061 203.76 377.061 205.847V206.744C377.064 207.048 376.949 207.341 376.738 207.559C376.527 207.778 376.239 207.904 375.936 207.912L375.907 207.855ZM326.454 204.381C324.734 204.391 323.019 204.205 321.342 203.825C321.196 203.792 321.058 203.73 320.936 203.643C320.814 203.556 320.711 203.446 320.631 203.319C320.552 203.192 320.498 203.05 320.474 202.903C320.449 202.755 320.454 202.604 320.487 202.458C320.521 202.312 320.583 202.175 320.67 202.053C320.757 201.931 320.867 201.827 320.994 201.748C321.121 201.669 321.262 201.615 321.41 201.59C321.557 201.566 321.708 201.57 321.854 201.604C323.364 201.943 324.907 202.11 326.454 202.102C327.066 202.102 327.721 202.102 328.362 202.102C328.511 202.089 328.661 202.105 328.803 202.15C328.946 202.195 329.078 202.268 329.192 202.365C329.306 202.462 329.4 202.58 329.467 202.714C329.535 202.847 329.576 202.993 329.586 203.142C329.598 203.291 329.58 203.442 329.533 203.585C329.486 203.727 329.412 203.859 329.314 203.973C329.216 204.087 329.097 204.18 328.963 204.248C328.828 204.315 328.682 204.356 328.533 204.366C327.835 204.381 327.123 204.381 326.454 204.381ZM334.684 203.213C334.411 203.207 334.149 203.104 333.946 202.921C333.743 202.738 333.612 202.489 333.577 202.218C333.543 201.947 333.607 201.673 333.758 201.445C333.909 201.217 334.136 201.051 334.399 200.977C336.271 200.47 338.111 199.851 339.91 199.126L340.764 198.77C340.903 198.706 341.052 198.67 341.205 198.665C341.357 198.66 341.509 198.685 341.651 198.74C341.793 198.794 341.923 198.877 342.033 198.983C342.143 199.088 342.23 199.215 342.291 199.355C342.351 199.495 342.382 199.646 342.383 199.798C342.383 199.951 342.354 200.102 342.295 200.242C342.236 200.383 342.15 200.51 342.041 200.617C341.932 200.724 341.803 200.808 341.661 200.863L340.75 201.234C338.894 201.999 336.992 202.646 335.054 203.17L334.684 203.213ZM315.831 201.291C315.59 201.299 315.353 201.224 315.162 201.077C313.126 199.616 311.503 197.654 310.448 195.381C310.385 195.246 310.349 195.099 310.342 194.949C310.335 194.8 310.358 194.65 310.408 194.509C310.459 194.369 310.537 194.239 310.638 194.129C310.739 194.018 310.861 193.928 310.997 193.865C311.132 193.801 311.279 193.765 311.429 193.758C311.578 193.751 311.728 193.774 311.868 193.825C312.009 193.876 312.139 193.954 312.249 194.055C312.36 194.156 312.45 194.277 312.513 194.413C313.402 196.344 314.775 198.012 316.5 199.254C316.74 199.433 316.9 199.699 316.945 199.995C316.99 200.291 316.918 200.592 316.742 200.835C316.635 200.974 316.497 201.085 316.339 201.159C316.18 201.234 316.006 201.269 315.831 201.262V201.291ZM346.773 197.944C346.585 197.942 346.399 197.895 346.233 197.805C346.067 197.716 345.925 197.588 345.819 197.432C345.656 197.178 345.599 196.87 345.66 196.575C345.722 196.279 345.896 196.019 346.147 195.851C348.019 194.618 349.786 193.232 351.43 191.707C351.643 191.494 351.932 191.375 352.234 191.375C352.536 191.375 352.825 191.494 353.039 191.707C353.146 191.812 353.231 191.937 353.289 192.076C353.347 192.214 353.377 192.362 353.377 192.512C353.377 192.662 353.347 192.81 353.289 192.948C353.231 193.087 353.146 193.212 353.039 193.317C351.31 194.933 349.447 196.4 347.471 197.702C347.269 197.85 347.023 197.925 346.773 197.916V197.944ZM373.714 194.954C373.482 194.954 373.255 194.883 373.064 194.751C372.874 194.619 372.728 194.431 372.646 194.214C371.875 192.113 370.922 190.083 369.799 188.148C369.648 187.885 369.606 187.573 369.684 187.28C369.761 186.987 369.951 186.736 370.211 186.581C370.472 186.431 370.782 186.39 371.073 186.468C371.363 186.545 371.612 186.734 371.764 186.994C372.962 189.043 373.982 191.192 374.811 193.416C374.904 193.694 374.886 193.997 374.762 194.262C374.637 194.527 374.415 194.734 374.142 194.84C374.004 194.89 373.86 194.919 373.714 194.926V194.954ZM310.107 189.885C309.808 189.881 309.523 189.762 309.31 189.552C309.098 189.342 308.975 189.058 308.968 188.76V188.518C308.977 186.137 309.436 183.779 310.32 181.569C310.375 181.43 310.457 181.303 310.562 181.195C310.666 181.087 310.79 181.001 310.928 180.942C311.066 180.882 311.213 180.851 311.363 180.848C311.513 180.846 311.662 180.873 311.801 180.928C311.94 180.983 312.068 181.065 312.175 181.17C312.283 181.274 312.369 181.398 312.428 181.536C312.488 181.673 312.52 181.821 312.522 181.971C312.524 182.121 312.497 182.27 312.442 182.409C311.659 184.351 311.253 186.424 311.246 188.518V188.717C311.25 188.866 311.224 189.014 311.17 189.153C311.116 189.292 311.035 189.419 310.932 189.526C310.828 189.633 310.705 189.719 310.568 189.778C310.431 189.837 310.284 189.869 310.135 189.871L310.107 189.885ZM356.556 189.073C356.289 189.074 356.031 188.978 355.83 188.803C355.713 188.709 355.617 188.593 355.546 188.461C355.475 188.329 355.432 188.184 355.419 188.035C355.406 187.887 355.423 187.737 355.469 187.594C355.515 187.452 355.589 187.321 355.687 187.208C357.134 185.469 358.48 183.648 359.717 181.754C359.799 181.629 359.905 181.521 360.029 181.437C360.153 181.352 360.293 181.293 360.439 181.263C360.586 181.233 360.738 181.231 360.885 181.259C361.032 181.287 361.172 181.344 361.298 181.427C361.423 181.509 361.531 181.615 361.615 181.739C361.699 181.863 361.758 182.002 361.789 182.149C361.819 182.296 361.82 182.447 361.792 182.594C361.764 182.742 361.707 182.882 361.625 183.007C360.336 184.985 358.933 186.887 357.424 188.703C357.313 188.82 357.178 188.91 357.028 188.969C356.878 189.028 356.717 189.054 356.556 189.045V189.073ZM367.164 183.491C366.992 183.492 366.822 183.455 366.667 183.381C366.511 183.307 366.375 183.198 366.267 183.064C364.859 181.318 363.311 179.69 361.639 178.194C361.425 178.009 361.287 177.751 361.253 177.47C361.219 177.189 361.29 176.905 361.454 176.674C361.617 176.443 361.861 176.281 362.138 176.22C362.414 176.158 362.704 176.202 362.949 176.343C363.989 174.435 365 172.384 365.954 170.263C366.078 169.987 366.308 169.772 366.591 169.665C366.874 169.559 367.188 169.569 367.463 169.693C367.739 169.818 367.954 170.047 368.061 170.33C368.167 170.613 368.157 170.927 368.033 171.203C367.05 173.381 365.997 175.474 364.929 177.482C364.842 177.624 364.731 177.749 364.601 177.852C365.823 179.046 366.974 180.311 368.047 181.64C368.181 181.807 368.265 182.009 368.289 182.221C368.314 182.434 368.278 182.649 368.186 182.843C368.094 183.036 367.949 183.199 367.768 183.314C367.588 183.429 367.378 183.49 367.164 183.491ZM314.606 177.696C314.342 177.696 314.086 177.606 313.88 177.44C313.648 177.245 313.502 176.968 313.473 176.667C313.443 176.366 313.533 176.066 313.723 175.83C315.275 173.972 317.1 172.358 319.134 171.046C319.388 170.88 319.696 170.821 319.993 170.882C320.289 170.944 320.549 171.12 320.715 171.374C320.881 171.627 320.94 171.935 320.879 172.232C320.817 172.528 320.641 172.788 320.388 172.954C318.544 174.117 316.892 175.558 315.489 177.226C315.384 177.36 315.25 177.47 315.097 177.546C314.945 177.622 314.777 177.664 314.606 177.667V177.696ZM357.325 174.62C357.102 174.621 356.885 174.557 356.698 174.435C354.827 173.198 352.85 172.13 350.789 171.245C350.511 171.124 350.293 170.898 350.182 170.617C350.071 170.335 350.077 170.021 350.198 169.743C350.319 169.465 350.545 169.247 350.827 169.136C351.108 169.026 351.423 169.031 351.7 169.152C353.876 170.096 355.968 171.225 357.951 172.527C358.157 172.661 358.314 172.858 358.399 173.089C358.483 173.32 358.491 173.572 358.42 173.808C358.35 174.043 358.205 174.249 358.007 174.396C357.81 174.542 357.571 174.621 357.325 174.62ZM325.386 170.348C325.119 170.346 324.863 170.25 324.66 170.077C324.457 169.905 324.321 169.667 324.275 169.405C324.229 169.142 324.277 168.872 324.41 168.642C324.542 168.411 324.752 168.234 325.001 168.141L325.329 168.027C327.471 167.289 329.678 166.755 331.922 166.432C332.074 166.4 332.231 166.399 332.384 166.43C332.537 166.461 332.682 166.523 332.809 166.612C332.937 166.701 333.045 166.815 333.127 166.948C333.209 167.081 333.263 167.228 333.285 167.383C333.308 167.537 333.298 167.694 333.258 167.844C333.217 167.995 333.146 168.135 333.049 168.257C332.952 168.379 332.831 168.479 332.693 168.553C332.555 168.626 332.404 168.67 332.249 168.682C330.148 168.991 328.079 169.492 326.069 170.177L325.756 170.291C325.653 170.316 325.548 170.326 325.443 170.32L325.386 170.348ZM345.321 169.323C345.231 169.338 345.14 169.338 345.05 169.323C342.879 168.798 340.661 168.488 338.429 168.397C338.279 168.391 338.133 168.355 337.997 168.292C337.861 168.228 337.739 168.139 337.638 168.029C337.434 167.806 337.326 167.511 337.34 167.208C337.353 166.906 337.486 166.622 337.709 166.418C337.932 166.213 338.227 166.106 338.529 166.119C340.905 166.218 343.266 166.552 345.577 167.116C345.839 167.189 346.065 167.352 346.217 167.577C346.368 167.802 346.435 168.074 346.404 168.343C346.373 168.613 346.247 168.862 346.048 169.047C345.85 169.232 345.592 169.34 345.321 169.351V169.323ZM369.414 165.934C369.274 165.931 369.134 165.907 369.001 165.863C368.73 165.754 368.512 165.546 368.39 165.281C368.268 165.016 368.252 164.715 368.346 164.439C369.129 162.36 369.884 160.167 370.596 157.96C370.635 157.809 370.704 157.668 370.799 157.545C370.894 157.422 371.013 157.32 371.149 157.245C371.285 157.17 371.435 157.124 371.59 157.109C371.745 157.094 371.901 157.111 372.049 157.159C372.197 157.206 372.333 157.284 372.45 157.386C372.567 157.489 372.662 157.614 372.729 157.754C372.795 157.895 372.832 158.047 372.838 158.203C372.843 158.358 372.817 158.513 372.76 158.658C372.048 160.907 371.336 163.129 370.468 165.236C370.382 165.445 370.236 165.623 370.048 165.747C369.86 165.872 369.639 165.937 369.414 165.934ZM373.472 153.318C373.373 153.332 373.272 153.332 373.173 153.318C373.025 153.28 372.886 153.213 372.765 153.12C372.644 153.027 372.543 152.91 372.469 152.777C372.394 152.644 372.347 152.497 372.331 152.345C372.315 152.193 372.331 152.04 372.376 151.894C372.96 149.729 373.515 147.48 374.028 145.216C374.059 145.062 374.121 144.918 374.211 144.79C374.302 144.662 374.417 144.555 374.551 144.475C374.685 144.394 374.835 144.343 374.99 144.323C375.145 144.304 375.302 144.317 375.452 144.361C375.603 144.396 375.746 144.461 375.872 144.552C375.998 144.643 376.104 144.758 376.185 144.891C376.266 145.023 376.32 145.171 376.343 145.324C376.366 145.478 376.358 145.635 376.32 145.785C375.793 148.078 375.238 150.356 374.64 152.549C374.564 152.795 374.408 153.009 374.196 153.156C373.984 153.303 373.73 153.375 373.472 153.361V153.318ZM376.42 140.374H376.206C375.91 140.319 375.648 140.148 375.477 139.9C375.306 139.652 375.241 139.346 375.295 139.05C375.722 136.8 376.107 134.508 376.434 132.258C376.45 132.104 376.497 131.956 376.572 131.821C376.646 131.686 376.748 131.568 376.87 131.473C376.992 131.379 377.132 131.31 377.281 131.271C377.43 131.233 377.586 131.225 377.738 131.248C377.891 131.271 378.037 131.325 378.168 131.406C378.299 131.488 378.412 131.595 378.501 131.721C378.589 131.847 378.651 131.99 378.682 132.141C378.714 132.292 378.714 132.448 378.684 132.599C378.356 134.878 377.958 137.185 377.531 139.463C377.493 139.73 377.359 139.973 377.155 140.149C376.95 140.324 376.689 140.42 376.42 140.417V140.374Z" fill="#FFEA22"/>
<path d="M233.512 305.21C233.261 305.208 233.017 305.124 232.818 304.969C232.62 304.815 232.478 304.599 232.416 304.356C232.131 303.202 231.86 302.063 231.647 300.967C231.588 300.67 231.65 300.363 231.818 300.111C231.986 299.86 232.247 299.687 232.544 299.628C232.84 299.569 233.148 299.631 233.399 299.799C233.65 299.968 233.824 300.229 233.882 300.525C234.096 301.579 234.338 302.69 234.623 303.786C234.663 303.934 234.674 304.088 234.655 304.24C234.635 304.392 234.585 304.539 234.508 304.671C234.432 304.804 234.329 304.92 234.207 305.012C234.085 305.105 233.945 305.172 233.797 305.21H233.512Z" fill="#00A0D7"/>
<path d="M391.926 116.01L378.783 122.774L368.303 112.863L388.708 60.9604L391.926 116.01Z" fill="white"/>
<path d="M388.708 60.9604L349.592 110.386L374.853 113.746L388.708 60.9604Z" fill="white"/>
<path d="M388.707 60.9604L410.636 118.502L385.375 115.142L388.707 60.9604Z" fill="white"/>
<path d="M203.573 339H172.005C170.345 339 169 340.345 169 342.005V373.573C169 375.233 170.345 376.578 172.005 376.578H203.573C205.233 376.578 206.578 375.233 206.578 373.573V342.005C206.578 340.345 205.233 339 203.573 339Z" fill="white"/>
<path d="M203.552 296.78H171.983C170.324 296.78 168.979 298.125 168.979 299.785V331.354C168.979 333.013 170.324 334.358 171.983 334.358H203.552C205.211 334.358 206.556 333.013 206.556 331.354V299.785C206.556 298.125 205.211 296.78 203.552 296.78Z" fill="white"/>
<path d="M203.552 254.205H171.983C170.324 254.205 168.979 255.55 168.979 257.209V288.778C168.979 290.437 170.324 291.783 171.983 291.783H203.552C205.211 291.783 206.556 290.437 206.556 288.778V257.209C206.556 255.55 205.211 254.205 203.552 254.205Z" fill="white"/>
<path d="M203.552 211.643H171.983C170.324 211.643 168.979 212.988 168.979 214.647V246.216C168.979 247.875 170.324 249.221 171.983 249.221H203.552C205.211 249.221 206.556 247.875 206.556 246.216V214.647C206.556 212.988 205.211 211.643 203.552 211.643Z" fill="white"/>
<path d="M203.894 126.504H171.641C170.171 126.504 168.979 127.697 168.979 129.167V161.42C168.979 162.89 170.171 164.082 171.641 164.082H203.894C205.364 164.082 206.556 162.89 206.556 161.42V129.167C206.556 127.697 205.364 126.504 203.894 126.504Z" fill="white"/>
<path d="M203.894 83.9434H171.641C170.171 83.9434 168.979 85.1355 168.979 86.6061V118.859C168.979 120.329 170.171 121.521 171.641 121.521H203.894C205.364 121.521 206.556 120.329 206.556 118.859V86.6061C206.556 85.1355 205.364 83.9434 203.894 83.9434Z" fill="white"/>
<path d="M203.915 41H171.663C170.192 41 169 42.1922 169 43.6628V75.9152C169 77.3858 170.192 78.578 171.663 78.578H203.915C205.386 78.578 206.578 77.3858 206.578 75.9152V43.6628C206.578 42.1922 205.386 41 203.915 41Z" fill="white"/>
<path d="M457.157 254.261H425.589C423.929 254.261 422.584 255.606 422.584 257.266V288.835C422.584 290.494 423.929 291.839 425.589 291.839H457.157C458.817 291.839 460.162 290.494 460.162 288.835V257.266C460.162 255.606 458.817 254.261 457.157 254.261Z" fill="white"/>
<path d="M457.157 211.686H425.589C423.929 211.686 422.584 213.031 422.584 214.69V246.259C422.584 247.918 423.929 249.264 425.589 249.264H457.157C458.817 249.264 460.162 247.918 460.162 246.259V214.69C460.162 213.031 458.817 211.686 457.157 211.686Z" fill="white"/>
<path d="M457.157 169.124H425.589C423.929 169.124 422.584 170.469 422.584 172.128V203.697C422.584 205.356 423.929 206.701 425.589 206.701H457.157C458.817 206.701 460.162 205.356 460.162 203.697V172.128C460.162 170.469 458.817 169.124 457.157 169.124Z" fill="white"/>
<path d="M457.157 126.562H425.589C423.929 126.562 422.584 127.907 422.584 129.566V161.135C422.584 162.794 423.929 164.139 425.589 164.139H457.157C458.817 164.139 460.162 162.794 460.162 161.135V129.566C460.162 127.907 458.817 126.562 457.157 126.562Z" fill="white"/>
<path d="M457.915 84H425.663C424.192 84 423 85.1922 423 86.6628V118.915C423 120.386 424.192 121.578 425.663 121.578H457.915C459.386 121.578 460.578 120.386 460.578 118.915V86.6628C460.578 85.1922 459.386 84 457.915 84Z" fill="white"/>
<path d="M457.915 41H425.663C424.192 41 423 42.1922 423 43.6628V75.9152C423 77.3858 424.192 78.578 425.663 78.578H457.915C459.386 78.578 460.578 77.3858 460.578 75.9152V43.6628C460.578 42.1922 459.386 41 457.915 41Z" fill="white"/>
<path d="M331.915 84H299.663C298.192 84 297 85.1922 297 86.6628V118.915C297 120.386 298.192 121.578 299.663 121.578H331.915C333.386 121.578 334.578 120.386 334.578 118.915V86.6628C334.578 85.1922 333.386 84 331.915 84Z" fill="white"/>
<path d="M289.003 83.9287H256.751C255.28 83.9287 254.088 85.1209 254.088 86.5915V118.844C254.088 120.314 255.28 121.507 256.751 121.507H289.003C290.474 121.507 291.666 120.314 291.666 118.844V86.5915C291.666 85.1209 290.474 83.9287 289.003 83.9287Z" fill="white"/>
<path d="M246.427 83.9287H214.174C212.704 83.9287 211.512 85.1209 211.512 86.5915V118.844C211.512 120.314 212.704 121.507 214.174 121.507H246.427C247.898 121.507 249.09 120.314 249.09 118.844V86.5915C249.09 85.1209 247.898 83.9287 246.427 83.9287Z" fill="white"/>
<path d="M161.303 83.9287H129.05C127.58 83.9287 126.388 85.1209 126.388 86.5915V118.844C126.388 120.314 127.58 121.507 129.05 121.507H161.303C162.773 121.507 163.966 120.314 163.966 118.844V86.5915C163.966 85.1209 162.773 83.9287 161.303 83.9287Z" fill="white"/>
<path d="M118.915 84H86.6628C85.1922 84 84 85.1922 84 86.6628V118.915C84 120.386 85.1922 121.578 86.6628 121.578H118.915C120.386 121.578 121.578 120.386 121.578 118.915V86.6628C121.578 85.1922 120.386 84 118.915 84Z" fill="white"/>
<path d="M373.573 297H342.005C340.345 297 339 298.345 339 300.005V331.573C339 333.233 340.345 334.578 342.005 334.578H373.573C375.233 334.578 376.578 333.233 376.578 331.573V300.005C376.578 298.345 375.233 297 373.573 297Z" fill="white"/>
<path d="M415.606 296.823H384.037C382.377 296.823 381.032 298.168 381.032 299.828V331.397C381.032 333.056 382.377 334.401 384.037 334.401H415.606C417.265 334.401 418.61 333.056 418.61 331.397V299.828C418.61 298.168 417.265 296.823 415.606 296.823Z" fill="white"/>
<path d="M457.573 297H426.005C424.345 297 423 298.345 423 300.005V331.573C423 333.233 424.345 334.578 426.005 334.578H457.573C459.233 334.578 460.578 333.233 460.578 331.573V300.005C460.578 298.345 459.233 297 457.573 297Z" fill="white"/>
<path d="M331.223 296.823H299.654C297.995 296.823 296.649 298.168 296.649 299.828V331.397C296.649 333.056 297.995 334.401 299.654 334.401H331.223C332.882 334.401 334.227 333.056 334.227 331.397V299.828C334.227 298.168 332.882 296.823 331.223 296.823Z" fill="white"/>
<path d="M288.661 296.823H257.092C255.433 296.823 254.088 298.168 254.088 299.828V331.397C254.088 333.056 255.433 334.401 257.092 334.401H288.661C290.321 334.401 291.666 333.056 291.666 331.397V299.828C291.666 298.168 290.321 296.823 288.661 296.823Z" fill="white"/>
<path d="M245.758 296.823H214.189C212.53 296.823 211.185 298.168 211.185 299.828V331.397C211.185 333.056 212.53 334.401 214.189 334.401H245.758C247.417 334.401 248.763 333.056 248.763 331.397V299.828C248.763 298.168 247.417 296.823 245.758 296.823Z" fill="white"/>
<path d="M160.573 297H129.005C127.345 297 126 298.345 126 300.005V331.573C126 333.233 127.345 334.578 129.005 334.578H160.573C162.233 334.578 163.578 333.233 163.578 331.573V300.005C163.578 298.345 162.233 297 160.573 297Z" fill="white"/>
<path d="M203.915 169H171.663C170.192 169 169 170.192 169 171.663V203.915C169 205.386 170.192 206.578 171.663 206.578H203.915C205.386 206.578 206.578 205.386 206.578 203.915V171.663C206.578 170.192 205.386 169 203.915 169Z" fill="white"/>
<path d="M160.977 169.124H129.408C127.748 169.124 126.403 170.469 126.403 172.128V203.697C126.403 205.356 127.748 206.701 129.408 206.701H160.977C162.636 206.701 163.981 205.356 163.981 203.697V172.128C163.981 170.469 162.636 169.124 160.977 169.124Z" fill="white"/>
<path d="M118.414 169.124H86.8453C85.186 169.124 83.8408 170.469 83.8408 172.128V203.697C83.8408 205.356 85.186 206.701 86.8453 206.701H118.414C120.074 206.701 121.419 205.356 121.419 203.697V172.128C121.419 170.469 120.074 169.124 118.414 169.124Z" fill="white"/>
<path d="M79.1561 169.124H41.5781V206.701H79.1561V169.124Z" fill="white"/>
<path d="M76.9009 297H44.677C43.1985 297 42 298.199 42 299.677V331.901C42 333.379 43.1985 334.578 44.677 334.578H76.9009C78.3794 334.578 79.578 333.379 79.578 331.901V299.677C79.578 298.199 78.3794 297 76.9009 297Z" fill="white"/>
<path d="M76.1516 254.261H44.5827C42.9233 254.261 41.5781 255.606 41.5781 257.266V288.835C41.5781 290.494 42.9233 291.839 44.5827 291.839H76.1516C77.8109 291.839 79.1561 290.494 79.1561 288.835V257.266C79.1561 255.606 77.8109 254.261 76.1516 254.261Z" fill="white"/>
<path d="M76.1516 211.686H44.5827C42.9233 211.686 41.5781 213.031 41.5781 214.69V246.259C41.5781 247.918 42.9233 249.264 44.5827 249.264H76.1516C77.8109 249.264 79.1561 247.918 79.1561 246.259V214.69C79.1561 213.031 77.8109 211.686 76.1516 211.686Z" fill="white"/>
<path d="M76.5734 169H45.0045C43.3452 169 42 170.345 42 172.005V203.573C42 205.233 43.3452 206.578 45.0045 206.578H76.5734C78.2328 206.578 79.578 205.233 79.578 203.573V172.005C79.578 170.345 78.2328 169 76.5734 169Z" fill="white"/>
<path d="M193.62 63.62C193.62 64.58 193.427 65.3667 193.04 65.98C192.667 66.58 192.173 67.0467 191.56 67.38C190.947 67.7133 190.247 67.94 189.46 68.06C188.687 68.18 187.9 68.24 187.1 68.24C186.847 68.24 186.547 68.2333 186.2 68.22C185.853 68.22 185.5 68.2067 185.14 68.18C184.793 68.1667 184.453 68.14 184.12 68.1C183.787 68.0733 183.5 68.04 183.26 68C183.02 67.96 182.82 67.9133 182.66 67.86C182.5 67.7933 182.367 67.7067 182.26 67.6C182.167 67.48 182.1 67.3333 182.06 67.16C182.02 66.9733 182 66.7467 182 66.48V54.74C182 54.2067 182.087 53.84 182.26 53.64C182.447 53.44 182.773 53.3067 183.24 53.24C183.453 53.2 183.72 53.1667 184.04 53.14C184.373 53.1133 184.72 53.0933 185.08 53.08C185.44 53.0533 185.793 53.0333 186.14 53.02C186.487 53.0067 186.787 53 187.04 53C188.027 53 188.92 53.0667 189.72 53.2C190.52 53.3333 191.2 53.56 191.76 53.88C192.333 54.2 192.773 54.64 193.08 55.2C193.387 55.7467 193.54 56.44 193.54 57.28V57.62C193.54 58.26 193.393 58.8333 193.1 59.34C192.82 59.8333 192.453 60.2067 192 60.46C192.453 60.7267 192.833 61.12 193.14 61.64C193.46 62.1467 193.62 62.72 193.62 63.36V63.62ZM189.62 57.58C189.62 57.1267 189.493 56.8 189.24 56.6C188.987 56.4 188.507 56.3 187.8 56.3C187.707 56.3 187.567 56.3 187.38 56.3C187.193 56.3 187 56.3067 186.8 56.32C186.613 56.32 186.44 56.32 186.28 56.32C186.133 56.32 186.04 56.32 186 56.32V59.16H187.94C188.593 59.16 189.033 59.04 189.26 58.8C189.5 58.5467 189.62 58.2467 189.62 57.9V57.58ZM189.7 63.32C189.7 62.92 189.573 62.58 189.32 62.3C189.067 62.02 188.607 61.88 187.94 61.88H186V64.94H187.64C188.427 64.94 188.967 64.8067 189.26 64.54C189.553 64.2733 189.7 63.9267 189.7 63.5V63.32Z" fill="#00A0D7"/>
<path d="M107.4 109.42C107.4 109.553 107.367 109.647 107.3 109.7C107.233 109.753 107.12 109.807 106.96 109.86C106.693 109.953 106.32 110.033 105.84 110.1C105.36 110.18 104.8 110.22 104.16 110.22C103.24 110.22 102.4 110.093 101.64 109.84C100.88 109.587 100.227 109.193 99.68 108.66C99.1467 108.113 98.7333 107.427 98.44 106.6C98.1467 105.773 98 104.787 98 103.64V101.58C98 100.433 98.1467 99.4467 98.44 98.62C98.7333 97.7933 99.1467 97.1133 99.68 96.58C100.227 96.0333 100.88 95.6333 101.64 95.38C102.4 95.1267 103.24 95 104.16 95C104.8 95 105.36 95.04 105.84 95.12C106.32 95.1867 106.693 95.2667 106.96 95.36C107.12 95.4133 107.233 95.4667 107.3 95.52C107.367 95.56 107.4 95.6533 107.4 95.8V98.36C107.4 98.5067 107.373 98.6133 107.32 98.68C107.267 98.7467 107.153 98.7667 106.98 98.74C106.567 98.7 106.14 98.66 105.7 98.62C105.26 98.58 104.753 98.56 104.18 98.56C103.913 98.56 103.653 98.6 103.4 98.68C103.147 98.7467 102.927 98.8933 102.74 99.12C102.553 99.3333 102.4 99.64 102.28 100.04C102.173 100.427 102.12 100.94 102.12 101.58V103.64C102.12 104.267 102.173 104.78 102.28 105.18C102.4 105.567 102.553 105.873 102.74 106.1C102.927 106.313 103.14 106.46 103.38 106.54C103.633 106.62 103.9 106.66 104.18 106.66C104.753 106.66 105.253 106.647 105.68 106.62C106.107 106.58 106.54 106.533 106.98 106.48C107.167 106.453 107.28 106.48 107.32 106.56C107.373 106.64 107.4 106.74 107.4 106.86V109.42Z" fill="#FFEA22"/>
<path d="M321.32 109.12C321.32 109.32 321.247 109.493 321.1 109.64C320.953 109.787 320.78 109.86 320.58 109.86H317.9C317.553 109.86 317.273 109.68 317.06 109.32L313.12 102.62C313.053 102.513 312.987 102.46 312.92 102.46C312.853 102.46 312.82 102.52 312.82 102.64V109.46C312.82 109.567 312.78 109.66 312.7 109.74C312.62 109.82 312.527 109.86 312.42 109.86H309.42C309.313 109.86 309.213 109.82 309.12 109.74C309.04 109.66 309 109.567 309 109.46V95.74C309 95.54 309.073 95.3667 309.22 95.22C309.367 95.0733 309.54 95 309.74 95H312.38C312.567 95 312.72 95.0533 312.84 95.16C312.96 95.2533 313.073 95.3933 313.18 95.58L317.24 102.48C317.307 102.6 317.367 102.66 317.42 102.66C317.447 102.66 317.467 102.653 317.48 102.64C317.507 102.613 317.52 102.56 317.52 102.48V95.4C317.52 95.2933 317.56 95.2 317.64 95.12C317.72 95.04 317.813 95 317.92 95H320.92C321.027 95 321.12 95.04 321.2 95.12C321.28 95.2 321.32 95.2933 321.32 95.4V109.12Z" fill="#FF8326"/>
<path d="M364.28 316.66C364.28 317.887 364.113 318.92 363.78 319.76C363.46 320.587 363.02 321.26 362.46 321.78C361.9 322.3 361.247 322.673 360.5 322.9C359.753 323.127 358.967 323.24 358.14 323.24C357.313 323.24 356.527 323.127 355.78 322.9C355.033 322.673 354.38 322.3 353.82 321.78C353.26 321.26 352.813 320.587 352.48 319.76C352.16 318.92 352 317.887 352 316.66V314.6C352 313.387 352.16 312.36 352.48 311.52C352.813 310.68 353.26 310 353.82 309.48C354.38 308.96 355.033 308.587 355.78 308.36C356.527 308.12 357.313 308 358.14 308C358.967 308 359.753 308.12 360.5 308.36C361.247 308.587 361.9 308.96 362.46 309.48C363.02 310 363.46 310.68 363.78 311.52C364.113 312.36 364.28 313.387 364.28 314.6V316.66ZM360.16 314.6C360.16 313.52 360 312.747 359.68 312.28C359.36 311.813 358.847 311.58 358.14 311.58C357.433 311.58 356.92 311.813 356.6 312.28C356.28 312.747 356.12 313.52 356.12 314.6V316.66C356.12 317.74 356.28 318.513 356.6 318.98C356.92 319.433 357.433 319.66 358.14 319.66C358.847 319.66 359.36 319.433 359.68 318.98C360 318.513 360.16 317.74 360.16 316.66V314.6Z" fill="#F45197"/>
<path d="M447.08 67.3C447.08 67.4467 447.047 67.5533 446.98 67.62C446.927 67.6867 446.82 67.7333 446.66 67.76C446.087 67.88 445.413 67.9867 444.64 68.08C443.88 68.1867 443.013 68.24 442.04 68.24C441.64 68.24 441.213 68.2 440.76 68.12C440.307 68.0533 439.853 67.9267 439.4 67.74C438.96 67.5533 438.533 67.3067 438.12 67C437.707 66.68 437.34 66.28 437.02 65.8C436.713 65.3067 436.467 64.7267 436.28 64.06C436.093 63.38 436 62.5867 436 61.68V59.58C436 58.2067 436.2 57.0933 436.6 56.24C437 55.3867 437.507 54.72 438.12 54.24C438.733 53.76 439.413 53.4333 440.16 53.26C440.907 53.0867 441.627 53 442.32 53C443.36 53 444.247 53.0667 444.98 53.2C445.713 53.32 446.287 53.4333 446.7 53.54C446.847 53.58 446.947 53.62 447 53.66C447.053 53.7 447.08 53.7867 447.08 53.92V56.44C447.08 56.5867 447.053 56.68 447 56.72C446.947 56.76 446.86 56.7733 446.74 56.76C446.353 56.7333 445.8 56.7 445.08 56.66C444.36 56.6067 443.627 56.58 442.88 56.58C442.4 56.58 441.987 56.6267 441.64 56.72C441.293 56.8 441.007 56.9533 440.78 57.18C440.553 57.3933 440.387 57.7 440.28 58.1C440.173 58.4867 440.12 58.98 440.12 59.58V61.7C440.12 62.3667 440.18 62.9067 440.3 63.32C440.433 63.72 440.593 64.0267 440.78 64.24C440.98 64.4533 441.187 64.5933 441.4 64.66C441.627 64.7267 441.84 64.76 442.04 64.76C442.427 64.76 442.793 64.74 443.14 64.7V60.6C443.14 60.4933 443.173 60.4 443.24 60.32C443.32 60.24 443.413 60.2 443.52 60.2H446.68C446.787 60.2 446.88 60.24 446.96 60.32C447.04 60.4 447.08 60.4933 447.08 60.6V67.3Z" fill="#80BC00"/>
<path d="M445.68 109.4C445.68 109.627 445.547 109.76 445.28 109.8C445.093 109.84 444.873 109.873 444.62 109.9C444.38 109.927 444.12 109.947 443.84 109.96C443.56 109.987 443.273 110.007 442.98 110.02C442.687 110.033 442.407 110.04 442.14 110.04C441.5 110.04 440.873 109.987 440.26 109.88C439.647 109.787 439.093 109.58 438.6 109.26C438.12 108.94 437.733 108.487 437.44 107.9C437.147 107.313 437 106.533 437 105.56V95.4C437 95.2933 437.04 95.2 437.12 95.12C437.213 95.04 437.313 95 437.42 95H440.68C440.787 95 440.88 95.04 440.96 95.12C441.04 95.2 441.08 95.2933 441.08 95.4V105.56C441.08 105.947 441.147 106.213 441.28 106.36C441.427 106.493 441.68 106.56 442.04 106.56H445.28C445.387 106.56 445.48 106.6 445.56 106.68C445.64 106.76 445.68 106.853 445.68 106.96V109.4Z" fill="#00A0D7"/>
<path d="M446.58 318.66C446.58 319.22 446.473 319.773 446.26 320.32C446.06 320.867 445.733 321.36 445.28 321.8C444.84 322.227 444.26 322.573 443.54 322.84C442.82 323.107 441.947 323.24 440.92 323.24C440.093 323.24 439.347 323.187 438.68 323.08C438.013 322.987 437.413 322.867 436.88 322.72C436.773 322.693 436.673 322.647 436.58 322.58C436.5 322.513 436.46 322.427 436.46 322.32V319.86C436.46 319.58 436.6 319.447 436.88 319.46C437.093 319.487 437.373 319.52 437.72 319.56C438.08 319.587 438.453 319.613 438.84 319.64C439.227 319.667 439.607 319.693 439.98 319.72C440.353 319.747 440.673 319.76 440.94 319.76C441.433 319.76 441.767 319.673 441.94 319.5C442.113 319.313 442.2 319.06 442.2 318.74C442.2 318.54 442.133 318.373 442 318.24C441.88 318.093 441.633 317.907 441.26 317.68L438.38 315.98C437.913 315.7 437.527 315.407 437.22 315.1C436.913 314.793 436.667 314.473 436.48 314.14C436.307 313.807 436.18 313.46 436.1 313.1C436.033 312.74 436 312.367 436 311.98C436 311.433 436.08 310.92 436.24 310.44C436.413 309.96 436.7 309.54 437.1 309.18C437.5 308.82 438.033 308.533 438.7 308.32C439.38 308.107 440.227 308 441.24 308C441.64 308 442.06 308.013 442.5 308.04C442.94 308.067 443.367 308.107 443.78 308.16C444.207 308.213 444.593 308.273 444.94 308.34C445.3 308.393 445.58 308.447 445.78 308.5C445.873 308.527 445.953 308.573 446.02 308.64C446.1 308.693 446.14 308.773 446.14 308.88V311.38C446.14 311.487 446.113 311.58 446.06 311.66C446.007 311.74 445.9 311.773 445.74 311.76C445.54 311.747 445.253 311.727 444.88 311.7C444.52 311.673 444.127 311.647 443.7 311.62C443.273 311.58 442.84 311.553 442.4 311.54C441.96 311.513 441.56 311.5 441.2 311.5C440.827 311.5 440.567 311.56 440.42 311.68C440.273 311.8 440.2 311.967 440.2 312.18C440.2 312.367 440.267 312.527 440.4 312.66C440.533 312.793 440.813 312.973 441.24 313.2L443.94 314.64C444.913 315.16 445.593 315.753 445.98 316.42C446.38 317.073 446.58 317.82 446.58 318.66Z" fill="#8331A7"/>
<path d="M150.58 318.66C150.58 319.22 150.473 319.773 150.26 320.32C150.06 320.867 149.733 321.36 149.28 321.8C148.84 322.227 148.26 322.573 147.54 322.84C146.82 323.107 145.947 323.24 144.92 323.24C144.093 323.24 143.347 323.187 142.68 323.08C142.013 322.987 141.413 322.867 140.88 322.72C140.773 322.693 140.673 322.647 140.58 322.58C140.5 322.513 140.46 322.427 140.46 322.32V319.86C140.46 319.58 140.6 319.447 140.88 319.46C141.093 319.487 141.373 319.52 141.72 319.56C142.08 319.587 142.453 319.613 142.84 319.64C143.227 319.667 143.607 319.693 143.98 319.72C144.353 319.747 144.673 319.76 144.94 319.76C145.433 319.76 145.767 319.673 145.94 319.5C146.113 319.313 146.2 319.06 146.2 318.74C146.2 318.54 146.133 318.373 146 318.24C145.88 318.093 145.633 317.907 145.26 317.68L142.38 315.98C141.913 315.7 141.527 315.407 141.22 315.1C140.913 314.793 140.667 314.473 140.48 314.14C140.307 313.807 140.18 313.46 140.1 313.1C140.033 312.74 140 312.367 140 311.98C140 311.433 140.08 310.92 140.24 310.44C140.413 309.96 140.7 309.54 141.1 309.18C141.5 308.82 142.033 308.533 142.7 308.32C143.38 308.107 144.227 308 145.24 308C145.64 308 146.06 308.013 146.5 308.04C146.94 308.067 147.367 308.107 147.78 308.16C148.207 308.213 148.593 308.273 148.94 308.34C149.3 308.393 149.58 308.447 149.78 308.5C149.873 308.527 149.953 308.573 150.02 308.64C150.1 308.693 150.14 308.773 150.14 308.88V311.38C150.14 311.487 150.113 311.58 150.06 311.66C150.007 311.74 149.9 311.773 149.74 311.76C149.54 311.747 149.253 311.727 148.88 311.7C148.52 311.673 148.127 311.647 147.7 311.62C147.273 311.58 146.84 311.553 146.4 311.54C145.96 311.513 145.56 311.5 145.2 311.5C144.827 311.5 144.567 311.56 144.42 311.68C144.273 311.8 144.2 311.967 144.2 312.18C144.2 312.367 144.267 312.527 144.4 312.66C144.533 312.793 144.813 312.973 145.24 313.2L147.94 314.64C148.913 315.16 149.593 315.753 149.98 316.42C150.38 317.073 150.58 317.82 150.58 318.66Z" fill="#FF8326"/>
<path d="M66.62 190.62C66.62 191.58 66.4267 192.367 66.04 192.98C65.6667 193.58 65.1733 194.047 64.56 194.38C63.9467 194.713 63.2467 194.94 62.46 195.06C61.6867 195.18 60.9 195.24 60.1 195.24C59.8467 195.24 59.5467 195.233 59.2 195.22C58.8533 195.22 58.5 195.207 58.14 195.18C57.7933 195.167 57.4533 195.14 57.12 195.1C56.7867 195.073 56.5 195.04 56.26 195C56.02 194.96 55.82 194.913 55.66 194.86C55.5 194.793 55.3667 194.707 55.26 194.6C55.1667 194.48 55.1 194.333 55.06 194.16C55.02 193.973 55 193.747 55 193.48V181.74C55 181.207 55.0867 180.84 55.26 180.64C55.4467 180.44 55.7733 180.307 56.24 180.24C56.4533 180.2 56.72 180.167 57.04 180.14C57.3733 180.113 57.72 180.093 58.08 180.08C58.44 180.053 58.7933 180.033 59.14 180.02C59.4867 180.007 59.7867 180 60.04 180C61.0267 180 61.92 180.067 62.72 180.2C63.52 180.333 64.2 180.56 64.76 180.88C65.3333 181.2 65.7733 181.64 66.08 182.2C66.3867 182.747 66.54 183.44 66.54 184.28V184.62C66.54 185.26 66.3933 185.833 66.1 186.34C65.82 186.833 65.4533 187.207 65 187.46C65.4533 187.727 65.8333 188.12 66.14 188.64C66.46 189.147 66.62 189.72 66.62 190.36V190.62ZM62.62 184.58C62.62 184.127 62.4933 183.8 62.24 183.6C61.9867 183.4 61.5067 183.3 60.8 183.3C60.7067 183.3 60.5667 183.3 60.38 183.3C60.1933 183.3 60 183.307 59.8 183.32C59.6133 183.32 59.44 183.32 59.28 183.32C59.1333 183.32 59.04 183.32 59 183.32V186.16H60.94C61.5933 186.16 62.0333 186.04 62.26 185.8C62.5 185.547 62.62 185.247 62.62 184.9V184.58ZM62.7 190.32C62.7 189.92 62.5733 189.58 62.32 189.3C62.0667 189.02 61.6067 188.88 60.94 188.88H59V191.94H60.64C61.4267 191.94 61.9667 191.807 62.26 191.54C62.5533 191.273 62.7 190.927 62.7 190.5V190.32Z" fill="#80BC00"/>
<path d="M64.68 322.4C64.68 322.627 64.5467 322.76 64.28 322.8C64.0933 322.84 63.8733 322.873 63.62 322.9C63.38 322.927 63.12 322.947 62.84 322.96C62.56 322.987 62.2733 323.007 61.98 323.02C61.6867 323.033 61.4067 323.04 61.14 323.04C60.5 323.04 59.8733 322.987 59.26 322.88C58.6467 322.787 58.0933 322.58 57.6 322.26C57.12 321.94 56.7333 321.487 56.44 320.9C56.1467 320.313 56 319.533 56 318.56V308.4C56 308.293 56.04 308.2 56.12 308.12C56.2133 308.04 56.3133 308 56.42 308H59.68C59.7867 308 59.88 308.04 59.96 308.12C60.04 308.2 60.08 308.293 60.08 308.4V318.56C60.08 318.947 60.1467 319.213 60.28 319.36C60.4267 319.493 60.68 319.56 61.04 319.56H64.28C64.3867 319.56 64.48 319.6 64.56 319.68C64.64 319.76 64.68 319.853 64.68 319.96V322.4Z" fill="#8331A7"/>
<path d="M194.48 194.64C194.48 194.787 194.393 194.86 194.22 194.86H190.02C189.9 194.86 189.813 194.827 189.76 194.76C189.707 194.693 189.653 194.613 189.6 194.52L186.08 188.14V194.46C186.08 194.567 186.04 194.66 185.96 194.74C185.88 194.82 185.787 194.86 185.68 194.86H182.42C182.313 194.86 182.213 194.82 182.12 194.74C182.04 194.66 182 194.567 182 194.46V180.38C182 180.273 182.04 180.187 182.12 180.12C182.213 180.04 182.313 180 182.42 180H185.68C185.787 180 185.88 180.04 185.96 180.12C186.04 180.187 186.08 180.273 186.08 180.38V186.72L189.92 180.32C189.973 180.227 190.033 180.153 190.1 180.1C190.167 180.033 190.253 180 190.36 180H194.2C194.387 180 194.48 180.073 194.48 180.22C194.48 180.3 194.453 180.373 194.4 180.44L190.04 187.32L194.42 194.44C194.46 194.507 194.48 194.573 194.48 194.64Z" fill="#FFEA22"/>
<path d="M194.48 365.64C194.48 365.787 194.393 365.86 194.22 365.86H190.02C189.9 365.86 189.813 365.827 189.76 365.76C189.707 365.693 189.653 365.613 189.6 365.52L186.08 359.14V365.46C186.08 365.567 186.04 365.66 185.96 365.74C185.88 365.82 185.787 365.86 185.68 365.86H182.42C182.313 365.86 182.213 365.82 182.12 365.74C182.04 365.66 182 365.567 182 365.46V351.38C182 351.273 182.04 351.187 182.12 351.12C182.213 351.04 182.313 351 182.42 351H185.68C185.787 351 185.88 351.04 185.96 351.12C186.04 351.187 186.08 351.273 186.08 351.38V357.72L189.92 351.32C189.973 351.227 190.033 351.153 190.1 351.1C190.167 351.033 190.253 351 190.36 351H194.2C194.387 351 194.48 351.073 194.48 351.22C194.48 351.3 194.453 351.373 194.4 351.44L190.04 358.32L194.42 365.44C194.46 365.507 194.48 365.573 194.48 365.64Z" fill="#F45197"/>
</svg>
