<svg width="372" height="473" viewBox="0 0 372 473" fill="none" xmlns="http://www.w3.org/2000/svg">
<rect width="372" height="472.881" rx="32" fill="#FFEA22"/>
<mask id="mask0" style="mask-type:alpha" maskUnits="userSpaceOnUse" x="0" y="0" width="372" height="473">
<rect width="372" height="472.881" rx="32" fill="#5543A5"/>
</mask>
<g mask="url(#mask0)">
<circle opacity="0.5" cx="280.577" cy="412.983" r="193.881" fill="white"/>
</g>
<rect x="43" y="114" width="95" height="40" rx="10" fill="#00A0D7"/>
<path d="M77.45 135.382C77.45 135.838 77.372 136.294 77.216 136.75C77.06 137.194 76.796 137.596 76.424 137.956C76.064 138.304 75.578 138.592 74.966 138.82C74.366 139.036 73.616 139.144 72.716 139.144C72.032 139.144 71.438 139.114 70.934 139.054C70.43 138.994 69.962 138.916 69.53 138.82C69.434 138.796 69.35 138.754 69.278 138.694C69.218 138.634 69.188 138.556 69.188 138.46V137.164C69.188 137.068 69.218 136.99 69.278 136.93C69.35 136.858 69.434 136.822 69.53 136.822H69.566C69.746 136.846 69.98 136.87 70.268 136.894C70.568 136.906 70.874 136.924 71.186 136.948C71.498 136.96 71.792 136.972 72.068 136.984C72.356 136.996 72.584 137.002 72.752 137.002C73.556 137.002 74.102 136.864 74.39 136.588C74.69 136.312 74.84 135.91 74.84 135.382C74.84 135.202 74.816 135.046 74.768 134.914C74.72 134.77 74.636 134.632 74.516 134.5C74.396 134.368 74.24 134.236 74.048 134.104C73.856 133.96 73.61 133.798 73.31 133.618L70.934 132.196C70.514 131.944 70.166 131.692 69.89 131.44C69.626 131.188 69.41 130.93 69.242 130.666C69.086 130.39 68.972 130.108 68.9 129.82C68.84 129.52 68.81 129.214 68.81 128.902C68.81 128.41 68.888 127.954 69.044 127.534C69.2 127.114 69.452 126.754 69.8 126.454C70.16 126.142 70.622 125.902 71.186 125.734C71.762 125.566 72.47 125.482 73.31 125.482C73.61 125.482 73.928 125.494 74.264 125.518C74.6 125.53 74.93 125.554 75.254 125.59C75.578 125.626 75.872 125.662 76.136 125.698C76.4 125.734 76.61 125.77 76.766 125.806C76.862 125.83 76.94 125.872 77 125.932C77.06 125.98 77.09 126.052 77.09 126.148V127.48C77.09 127.576 77.06 127.654 77 127.714C76.952 127.774 76.88 127.804 76.784 127.804H76.748C76.148 127.744 75.554 127.702 74.966 127.678C74.378 127.642 73.79 127.624 73.202 127.624C72.53 127.624 72.044 127.738 71.744 127.966C71.456 128.182 71.312 128.494 71.312 128.902C71.312 129.046 71.33 129.184 71.366 129.316C71.414 129.436 71.492 129.562 71.6 129.694C71.72 129.814 71.876 129.94 72.068 130.072C72.26 130.204 72.5 130.348 72.788 130.504L74.948 131.71C75.44 131.986 75.848 132.268 76.172 132.556C76.496 132.832 76.748 133.12 76.928 133.42C77.12 133.72 77.252 134.032 77.324 134.356C77.408 134.68 77.45 135.022 77.45 135.382ZM84.4728 138.694C84.4728 138.874 84.3588 138.982 84.1308 139.018C83.9148 139.054 83.7048 139.084 83.5008 139.108C83.3088 139.132 83.1108 139.144 82.9068 139.144C82.4028 139.144 81.9648 139.108 81.5928 139.036C81.2328 138.964 80.9388 138.826 80.7108 138.622C80.4828 138.418 80.3148 138.13 80.2068 137.758C80.0988 137.374 80.0448 136.882 80.0448 136.282V130.63L78.3528 130.378C78.2568 130.354 78.1728 130.312 78.1008 130.252C78.0288 130.192 77.9928 130.114 77.9928 130.018V129.208C77.9928 129.112 78.0288 129.028 78.1008 128.956C78.1728 128.884 78.2568 128.848 78.3528 128.848H80.0448V127.372C80.0448 127.276 80.0808 127.198 80.1528 127.138C80.2248 127.078 80.3088 127.036 80.4048 127.012L82.0788 126.724H82.1508C82.3428 126.724 82.4388 126.814 82.4388 126.994V128.848H84.0588C84.1548 128.848 84.2388 128.884 84.3108 128.956C84.3828 129.028 84.4188 129.112 84.4188 129.208V130.27C84.4188 130.366 84.3828 130.45 84.3108 130.522C84.2388 130.594 84.1548 130.63 84.0588 130.63H82.4388V136.282C82.4388 136.51 82.4448 136.69 82.4568 136.822C82.4688 136.954 82.4988 137.056 82.5468 137.128C82.5948 137.2 82.6608 137.248 82.7448 137.272C82.8408 137.284 82.9728 137.29 83.1408 137.29H84.0948C84.3468 137.29 84.4728 137.38 84.4728 137.56V138.694ZM93.6217 138.64C93.6217 138.736 93.5857 138.82 93.5137 138.892C93.4417 138.964 93.3577 139 93.2617 139H91.7317C91.6357 139 91.5517 138.964 91.4797 138.892C91.4077 138.82 91.3717 138.736 91.3717 138.64V138.352C90.9517 138.604 90.5317 138.802 90.1117 138.946C89.6917 139.078 89.2657 139.144 88.8337 139.144C88.4617 139.144 88.0897 139.102 87.7177 139.018C87.3457 138.934 87.0097 138.778 86.7097 138.55C86.4217 138.322 86.1817 138.016 85.9897 137.632C85.8097 137.248 85.7197 136.75 85.7197 136.138V136.066C85.7197 135.55 85.7977 135.1 85.9537 134.716C86.1217 134.332 86.3797 134.008 86.7277 133.744C87.0877 133.48 87.5437 133.282 88.0957 133.15C88.6597 133.018 89.3317 132.952 90.1117 132.952H91.2457V132.16C91.2457 131.572 91.1137 131.182 90.8497 130.99C90.5977 130.798 90.2017 130.702 89.6617 130.702C89.0857 130.702 88.5277 130.72 87.9877 130.756C87.4477 130.78 87.0277 130.81 86.7277 130.846H86.6377C86.5417 130.846 86.4637 130.828 86.4037 130.792C86.3437 130.756 86.3137 130.672 86.3137 130.54V129.388C86.3137 129.184 86.4277 129.058 86.6557 129.01C87.0157 128.938 87.4477 128.872 87.9517 128.812C88.4677 128.752 89.0377 128.722 89.6617 128.722C90.9457 128.722 91.9237 129.004 92.5957 129.568C93.2797 130.132 93.6217 130.996 93.6217 132.16V138.64ZM91.2457 134.536H90.1117C89.7037 134.536 89.3677 134.572 89.1037 134.644C88.8517 134.704 88.6477 134.8 88.4917 134.932C88.3477 135.052 88.2457 135.208 88.1857 135.4C88.1377 135.592 88.1137 135.814 88.1137 136.066V136.138C88.1137 136.582 88.2157 136.882 88.4197 137.038C88.6237 137.182 88.9537 137.254 89.4097 137.254C89.7337 137.254 90.0517 137.206 90.3637 137.11C90.6877 137.014 90.9817 136.894 91.2457 136.75V134.536ZM101.179 130.378C101.179 130.474 101.143 130.558 101.071 130.63C100.999 130.702 100.915 130.738 100.819 130.738C100.327 130.738 99.8831 130.798 99.4871 130.918C99.1031 131.026 98.7191 131.182 98.3351 131.386V138.622C98.3351 138.718 98.2991 138.808 98.2271 138.892C98.1551 138.964 98.0711 139 97.9751 139H96.3191C96.2231 139 96.1391 138.964 96.0671 138.892C95.9951 138.808 95.9591 138.718 95.9591 138.622V129.208C95.9591 129.112 95.9951 129.028 96.0671 128.956C96.1391 128.884 96.2231 128.848 96.3191 128.848H97.8851C97.9811 128.848 98.0651 128.884 98.1371 128.956C98.2091 129.028 98.2451 129.112 98.2451 129.208V129.586C98.6891 129.238 99.1391 129.01 99.5951 128.902C100.051 128.782 100.459 128.722 100.819 128.722C100.915 128.722 100.999 128.758 101.071 128.83C101.143 128.902 101.179 128.986 101.179 129.082V130.378ZM108.379 138.694C108.379 138.874 108.265 138.982 108.037 139.018C107.821 139.054 107.611 139.084 107.407 139.108C107.215 139.132 107.017 139.144 106.813 139.144C106.309 139.144 105.871 139.108 105.499 139.036C105.139 138.964 104.845 138.826 104.617 138.622C104.389 138.418 104.221 138.13 104.113 137.758C104.005 137.374 103.951 136.882 103.951 136.282V130.63L102.259 130.378C102.163 130.354 102.079 130.312 102.007 130.252C101.935 130.192 101.899 130.114 101.899 130.018V129.208C101.899 129.112 101.935 129.028 102.007 128.956C102.079 128.884 102.163 128.848 102.259 128.848H103.951V127.372C103.951 127.276 103.987 127.198 104.059 127.138C104.131 127.078 104.215 127.036 104.311 127.012L105.985 126.724H106.057C106.249 126.724 106.345 126.814 106.345 126.994V128.848H107.965C108.061 128.848 108.145 128.884 108.217 128.956C108.289 129.028 108.325 129.112 108.325 129.208V130.27C108.325 130.366 108.289 130.45 108.217 130.522C108.145 130.594 108.061 130.63 107.965 130.63H106.345V136.282C106.345 136.51 106.351 136.69 106.363 136.822C106.375 136.954 106.405 137.056 106.453 137.128C106.501 137.2 106.567 137.248 106.651 137.272C106.747 137.284 106.879 137.29 107.047 137.29H108.001C108.253 137.29 108.379 137.38 108.379 137.56V138.694Z" fill="white"/>
<path d="M60.4 65.76C60.4 65.92 60.36 66.03 60.28 66.09C60.2 66.13 60.09 66.15 59.95 66.15H59.86C59.14 66.11 58.24 66.06 57.16 66C56.08 65.94 54.9 65.91 53.62 65.91C53.02 65.91 52.47 65.99 51.97 66.15C51.49 66.31 51.08 66.59 50.74 66.99C50.4 67.37 50.14 67.89 49.96 68.55C49.78 69.21 49.69 70.03 49.69 71.01V74.76C49.69 75.8 49.79 76.65 49.99 77.31C50.21 77.97 50.48 78.49 50.8 78.87C51.14 79.25 51.51 79.51 51.91 79.65C52.31 79.79 52.69 79.86 53.05 79.86C53.87 79.86 54.64 79.83 55.36 79.77V72.87C55.36 72.71 55.41 72.57 55.51 72.45C55.63 72.33 55.77 72.27 55.93 72.27H59.77C59.93 72.27 60.07 72.33 60.19 72.45C60.31 72.57 60.37 72.71 60.37 72.87V82.95C60.37 83.33 60.17 83.56 59.77 83.64C58.95 83.8 58 83.94 56.92 84.06C55.84 84.2 54.55 84.27 53.05 84.27C52.47 84.27 51.86 84.21 51.22 84.09C50.58 83.97 49.94 83.77 49.3 83.49C48.68 83.21 48.08 82.83 47.5 82.35C46.92 81.87 46.4 81.28 45.94 80.58C45.5 79.88 45.15 79.05 44.89 78.09C44.63 77.11 44.5 75.99 44.5 74.73V71.01C44.5 69.09 44.77 67.52 45.31 66.3C45.85 65.06 46.55 64.08 47.41 63.36C48.29 62.64 49.27 62.14 50.35 61.86C51.45 61.58 52.54 61.44 53.62 61.44C55.12 61.44 56.4 61.53 57.46 61.71C58.52 61.87 59.33 62.01 59.89 62.13C60.23 62.19 60.4 62.34 60.4 62.58V65.76ZM77.3959 83.4C77.3959 83.56 77.3359 83.7 77.2159 83.82C77.0959 83.94 76.9559 84 76.7959 84H73.4359C73.2759 84 73.1359 83.94 73.0159 83.82C72.8959 83.7 72.8359 83.56 72.8359 83.4V82.92C72.2559 83.34 71.6359 83.67 70.9759 83.91C70.3359 84.15 69.5659 84.27 68.6659 84.27C68.0059 84.27 67.3659 84.18 66.7459 84C66.1459 83.84 65.6059 83.56 65.1259 83.16C64.6459 82.76 64.2559 82.23 63.9559 81.57C63.6759 80.91 63.5359 80.09 63.5359 79.11V78.84C63.5359 77.08 64.1159 75.8 65.2759 75C66.4559 74.18 68.3359 73.77 70.9159 73.77H72.5359V72.69C72.5359 71.83 72.3359 71.27 71.9359 71.01C71.5359 70.75 70.9859 70.62 70.2859 70.62C69.8059 70.62 69.3159 70.63 68.8159 70.65C68.3359 70.65 67.8659 70.66 67.4059 70.68C66.9659 70.7 66.5659 70.73 66.2059 70.77C65.8459 70.79 65.5459 70.81 65.3059 70.83H65.1559C64.9959 70.83 64.8659 70.79 64.7659 70.71C64.6659 70.63 64.6159 70.49 64.6159 70.29V67.86C64.6159 67.52 64.8059 67.3 65.1859 67.2C65.7459 67.06 66.4959 66.92 67.4359 66.78C68.3959 66.64 69.3759 66.57 70.3759 66.57C71.4559 66.57 72.4259 66.69 73.2859 66.93C74.1659 67.15 74.9059 67.51 75.5059 68.01C76.1059 68.49 76.5659 69.12 76.8859 69.9C77.2259 70.66 77.3959 71.59 77.3959 72.69V83.4ZM72.6259 76.65H70.9159C70.3959 76.65 69.9659 76.7 69.6259 76.8C69.2859 76.88 69.0159 77.01 68.8159 77.19C68.6159 77.37 68.4759 77.6 68.3959 77.88C68.3159 78.16 68.2759 78.48 68.2759 78.84V79.11C68.2759 79.75 68.4259 80.16 68.7259 80.34C69.0459 80.52 69.5259 80.61 70.1659 80.61C70.6259 80.61 71.0559 80.55 71.4559 80.43C71.8759 80.29 72.2659 80.13 72.6259 79.95V76.65ZM103.632 83.37C103.632 83.53 103.562 83.68 103.422 83.82C103.302 83.94 103.162 84 103.002 84H99.3716C99.2116 84 99.0716 83.94 98.9516 83.82C98.8316 83.68 98.7716 83.53 98.7716 83.37V73.14C98.7716 72.18 98.6416 71.53 98.3816 71.19C98.1216 70.83 97.6416 70.65 96.9416 70.65C96.6816 70.65 96.3416 70.69 95.9216 70.77C95.5216 70.83 95.0916 70.97 94.6316 71.19C94.6916 71.79 94.7216 72.44 94.7216 73.14V83.37C94.7216 83.53 94.6616 83.68 94.5416 83.82C94.4216 83.94 94.2816 84 94.1216 84H90.4916C90.3316 84 90.1816 83.94 90.0416 83.82C89.9216 83.68 89.8616 83.53 89.8616 83.37V73.14C89.8616 72.18 89.7416 71.53 89.5016 71.19C89.2816 70.83 88.8216 70.65 88.1216 70.65C87.8416 70.65 87.5016 70.72 87.1016 70.86C86.7216 71 86.3016 71.19 85.8416 71.43V83.37C85.8416 83.53 85.7816 83.68 85.6616 83.82C85.5416 83.94 85.4016 84 85.2416 84H81.6116C81.4516 84 81.3016 83.94 81.1616 83.82C81.0416 83.68 80.9816 83.53 80.9816 83.37V67.41C80.9816 67.25 81.0416 67.11 81.1616 66.99C81.2816 66.87 81.4216 66.81 81.5816 66.81H85.0016C85.1616 66.81 85.3016 66.87 85.4216 66.99C85.5416 67.11 85.6016 67.25 85.6016 67.41V68.07C86.2416 67.65 86.9216 67.3 87.6416 67.02C88.3616 66.72 89.1616 66.57 90.0416 66.57C90.8416 66.57 91.5216 66.69 92.0816 66.93C92.6616 67.15 93.1616 67.52 93.5816 68.04C94.0216 67.8 94.4316 67.59 94.8116 67.41C95.1916 67.21 95.5716 67.05 95.9516 66.93C96.3316 66.81 96.7216 66.72 97.1216 66.66C97.5416 66.6 97.9916 66.57 98.4716 66.57C99.4516 66.57 100.272 66.73 100.932 67.05C101.612 67.37 102.142 67.82 102.522 68.4C102.922 68.96 103.202 69.65 103.362 70.47C103.542 71.27 103.632 72.16 103.632 73.14V83.37ZM121.782 76.2C121.782 76.68 121.572 76.92 121.152 76.92H111.582V76.98C111.582 77.4 111.632 77.81 111.732 78.21C111.832 78.61 112.002 78.96 112.242 79.26C112.482 79.56 112.792 79.8 113.172 79.98C113.572 80.16 114.072 80.25 114.672 80.25C115.152 80.25 115.662 80.24 116.202 80.22C116.742 80.2 117.272 80.18 117.792 80.16C118.332 80.14 118.832 80.12 119.292 80.1C119.752 80.06 120.132 80.02 120.432 79.98H120.522C120.902 79.98 121.092 80.14 121.092 80.46V82.74C121.092 82.98 121.052 83.16 120.972 83.28C120.892 83.4 120.722 83.49 120.462 83.55C119.502 83.79 118.562 83.97 117.642 84.09C116.722 84.21 115.612 84.27 114.312 84.27C113.412 84.27 112.512 84.14 111.612 83.88C110.712 83.62 109.902 83.19 109.182 82.59C108.462 81.99 107.882 81.2 107.442 80.22C107.002 79.22 106.782 78 106.782 76.56V74.46C106.782 73.26 106.952 72.17 107.292 71.19C107.632 70.21 108.122 69.38 108.762 68.7C109.422 68.02 110.222 67.5 111.162 67.14C112.102 66.76 113.172 66.57 114.372 66.57C115.592 66.57 116.662 66.77 117.582 67.17C118.522 67.57 119.302 68.12 119.922 68.82C120.542 69.52 121.002 70.35 121.302 71.31C121.622 72.27 121.782 73.32 121.782 74.46V76.2ZM117.042 73.8C117.042 72.68 116.802 71.85 116.322 71.31C115.842 70.75 115.182 70.47 114.342 70.47C113.502 70.47 112.832 70.75 112.332 71.31C111.832 71.87 111.582 72.7 111.582 73.8V73.92H117.042V73.8ZM136.957 79.23C136.957 79.93 136.827 80.59 136.567 81.21C136.307 81.83 135.907 82.37 135.367 82.83C134.847 83.27 134.187 83.62 133.387 83.88C132.587 84.14 131.637 84.27 130.537 84.27C130.117 84.27 129.667 84.25 129.187 84.21C128.727 84.19 128.247 84.15 127.747 84.09C127.267 84.03 126.797 83.96 126.337 83.88C125.877 83.8 125.457 83.71 125.077 83.61C124.697 83.51 124.507 83.28 124.507 82.92V80.49C124.507 80.33 124.557 80.2 124.657 80.1C124.757 79.98 124.897 79.92 125.077 79.92H125.197C125.597 79.98 126.037 80.04 126.517 80.1C127.017 80.14 127.507 80.18 127.987 80.22C128.467 80.26 128.907 80.29 129.307 80.31C129.727 80.33 130.057 80.34 130.297 80.34C131.017 80.34 131.487 80.25 131.707 80.07C131.947 79.87 132.067 79.57 132.067 79.17C132.067 78.95 131.987 78.75 131.827 78.57C131.667 78.37 131.377 78.15 130.957 77.91L127.057 75.66C126.217 75.18 125.557 74.57 125.077 73.83C124.617 73.07 124.387 72.2 124.387 71.22C124.387 69.7 124.887 68.55 125.887 67.77C126.907 66.97 128.457 66.57 130.537 66.57C131.717 66.57 132.707 66.64 133.507 66.78C134.327 66.9 135.117 67.06 135.877 67.26C136.257 67.36 136.447 67.59 136.447 67.95V70.38C136.447 70.76 136.277 70.95 135.937 70.95H135.847C135.627 70.93 135.317 70.9 134.917 70.86C134.517 70.8 134.077 70.75 133.597 70.71C133.137 70.67 132.657 70.64 132.157 70.62C131.677 70.58 131.247 70.56 130.867 70.56C130.287 70.56 129.877 70.62 129.637 70.74C129.397 70.86 129.277 71.09 129.277 71.43C129.277 71.65 129.357 71.84 129.517 72C129.677 72.14 129.907 72.3 130.207 72.48L133.927 74.61C134.547 74.97 135.047 75.34 135.427 75.72C135.827 76.08 136.137 76.46 136.357 76.86C136.597 77.24 136.757 77.63 136.837 78.03C136.917 78.43 136.957 78.83 136.957 79.23ZM165.778 83.4C165.778 83.56 165.718 83.7 165.598 83.82C165.478 83.94 165.338 84 165.178 84H161.248C161.088 84 160.948 83.94 160.828 83.82C160.708 83.7 160.648 83.56 160.648 83.4V74.73H153.238V83.4C153.238 83.56 153.178 83.7 153.058 83.82C152.938 83.94 152.798 84 152.638 84H148.708C148.548 84 148.408 83.94 148.288 83.82C148.168 83.7 148.108 83.56 148.108 83.4V62.28C148.108 62.12 148.168 61.99 148.288 61.89C148.408 61.77 148.548 61.71 148.708 61.71H152.638C152.798 61.71 152.938 61.77 153.058 61.89C153.178 61.99 153.238 62.12 153.238 62.28V70.26H160.648V62.28C160.648 62.12 160.708 61.99 160.828 61.89C160.948 61.77 161.088 61.71 161.248 61.71H165.178C165.338 61.71 165.478 61.77 165.598 61.89C165.718 61.99 165.778 62.12 165.778 62.28V83.4ZM184.423 83.4C184.423 83.56 184.363 83.7 184.243 83.82C184.123 83.94 183.983 84 183.823 84H180.463C180.303 84 180.163 83.94 180.043 83.82C179.923 83.7 179.863 83.56 179.863 83.4V82.68C179.043 83.26 178.263 83.67 177.523 83.91C176.783 84.13 175.933 84.24 174.973 84.24C173.893 84.24 173.003 84.07 172.303 83.73C171.623 83.37 171.083 82.88 170.683 82.26C170.303 81.64 170.033 80.92 169.873 80.1C169.733 79.26 169.663 78.37 169.663 77.43V67.44C169.663 67.28 169.723 67.14 169.843 67.02C169.983 66.88 170.133 66.81 170.293 66.81H173.923C174.083 66.81 174.223 66.88 174.343 67.02C174.463 67.14 174.523 67.28 174.523 67.44V77.43C174.523 77.95 174.553 78.39 174.613 78.75C174.673 79.11 174.783 79.4 174.943 79.62C175.103 79.84 175.323 80 175.603 80.1C175.903 80.18 176.283 80.22 176.743 80.22C177.183 80.22 177.633 80.13 178.093 79.95C178.553 79.77 179.043 79.54 179.563 79.26V67.44C179.563 67.28 179.623 67.14 179.743 67.02C179.863 66.88 180.003 66.81 180.163 66.81H183.793C183.953 66.81 184.093 66.88 184.213 67.02C184.353 67.14 184.423 67.28 184.423 67.44V83.4ZM202.882 76.59C202.882 79.03 202.232 80.92 200.932 82.26C199.652 83.6 197.792 84.27 195.352 84.27C194.192 84.27 193.052 84.19 191.932 84.03C190.812 83.89 189.822 83.71 188.962 83.49C188.562 83.39 188.302 83.28 188.182 83.16C188.082 83.04 188.032 82.86 188.032 82.62V61.59C188.032 61.43 188.092 61.29 188.212 61.17C188.352 61.05 188.502 60.99 188.662 60.99H192.292C192.452 60.99 192.592 61.05 192.712 61.17C192.832 61.29 192.892 61.43 192.892 61.59V66.78C193.332 66.72 193.772 66.67 194.212 66.63C194.672 66.59 195.052 66.57 195.352 66.57C197.892 66.57 199.782 67.26 201.022 68.64C202.262 70.02 202.882 71.89 202.882 74.25V76.59ZM198.022 74.25C198.022 73.73 197.982 73.25 197.902 72.81C197.822 72.35 197.682 71.96 197.482 71.64C197.282 71.3 197.012 71.04 196.672 70.86C196.332 70.68 195.892 70.59 195.352 70.59C194.992 70.59 194.582 70.61 194.122 70.65C193.662 70.67 193.252 70.7 192.892 70.74V80.1C193.172 80.14 193.522 80.18 193.942 80.22C194.382 80.26 194.852 80.28 195.352 80.28C195.892 80.28 196.332 80.19 196.672 80.01C197.012 79.83 197.282 79.58 197.482 79.26C197.682 78.92 197.822 78.53 197.902 78.09C197.982 77.63 198.022 77.13 198.022 76.59V74.25Z" fill="#00A0D7"/>
<path d="M217.982 336.873C219.921 325.146 211.987 314.066 200.26 312.126C188.532 310.186 177.452 318.121 175.513 329.848C173.573 341.576 181.507 352.655 193.235 354.595C204.962 356.535 216.042 348.601 217.982 336.873Z" fill="#FEFEFE"/>
<path d="M196.827 344.619L193.162 342.252C184.041 336.353 184.041 332.135 184.041 330.547C184.041 326.822 187.062 323.801 190.788 323.801C193.432 323.801 195.72 325.32 196.827 327.533C197.933 325.32 200.222 323.801 202.866 323.801C206.591 323.801 209.613 326.822 209.613 330.547C209.613 332.135 209.613 336.357 200.491 342.252L196.827 344.619Z" fill="#F45197"/>
<path d="M226.297 335.634C228.851 335.634 230.921 333.564 230.921 331.011C230.921 328.457 228.851 326.387 226.297 326.387C223.744 326.387 221.674 328.457 221.674 331.011C221.674 333.564 223.744 335.634 226.297 335.634Z" fill="#FEFEFE"/>
<path d="M238.031 328.561C238.031 329.761 237.057 330.734 235.857 330.734C234.657 330.734 233.684 329.761 233.684 328.561C233.684 327.361 234.657 326.387 235.857 326.387C237.057 326.387 238.031 327.361 238.031 328.561Z" fill="#FEFEFE"/>
<path opacity="0.1" d="M196.748 311.837C195.98 311.837 195.218 311.881 194.471 311.96C196.687 317.69 202.249 321.753 208.758 321.753C210.673 321.753 212.502 321.397 214.19 320.758C210.281 315.355 203.926 311.837 196.748 311.837Z" fill="url(#paint0_linear)"/>
<path d="M210.555 320.668C219.015 320.668 225.874 313.81 225.874 305.349C225.874 296.889 219.015 290.031 210.555 290.031C202.095 290.031 195.236 296.889 195.236 305.349C195.236 313.81 202.095 320.668 210.555 320.668Z" fill="#F45197"/>
<path d="M210.556 303.122C209.327 303.122 208.328 304.121 208.328 305.349C208.328 306.578 209.327 307.577 210.556 307.577C211.784 307.577 212.783 306.578 212.783 305.349C212.783 304.121 211.784 303.122 210.556 303.122ZM210.556 306.136C210.121 306.136 209.769 305.784 209.769 305.349C209.769 304.915 210.121 304.563 210.556 304.563C210.99 304.563 211.342 304.915 211.342 305.349C211.339 305.784 210.987 306.136 210.556 306.136Z" fill="#FEFEFE"/>
<path d="M217.481 304.627H216.497C216.166 301.901 214.004 299.734 211.277 299.407V298.423C211.277 298.024 210.954 297.701 210.555 297.701C210.156 297.701 209.833 298.024 209.833 298.423V299.407C207.106 299.738 204.94 301.901 204.613 304.627H203.628C203.23 304.627 202.906 304.951 202.906 305.349C202.906 305.748 203.23 306.071 203.628 306.071H204.613C204.943 308.798 207.106 310.965 209.833 311.295V312.279C209.833 312.678 210.156 313.001 210.555 313.001C210.954 313.001 211.277 312.678 211.277 312.279V311.295C214.004 310.965 216.17 308.802 216.497 306.071H217.481C217.88 306.071 218.203 305.748 218.203 305.349C218.203 304.951 217.88 304.627 217.481 304.627ZM211.273 309.836V308.888C211.273 308.489 210.95 308.166 210.551 308.166C210.152 308.166 209.829 308.489 209.829 308.888V309.836C207.9 309.528 206.377 308.004 206.068 306.071H207.016C207.415 306.071 207.738 305.748 207.738 305.349C207.738 304.951 207.415 304.627 207.016 304.627H206.068C206.377 302.698 207.9 301.175 209.829 300.866V301.814C209.829 302.213 210.152 302.536 210.551 302.536C210.95 302.536 211.273 302.213 211.273 301.814V300.866C213.202 301.175 214.726 302.698 215.038 304.627H214.09C213.691 304.627 213.368 304.951 213.368 305.349C213.368 305.748 213.691 306.071 214.09 306.071H215.038C214.729 308.001 213.206 309.524 211.273 309.836Z" fill="#FEFEFE"/>
<path d="M314.83 301.954C303.13 301.954 293.642 311.442 293.642 323.143C293.642 327.451 294.931 331.456 297.141 334.801C294.148 336.313 291.019 337.549 287.793 338.469C291.82 339.313 295.926 339.202 299.753 338.027C303.593 341.918 308.928 344.332 314.83 344.332C326.531 344.332 336.019 334.844 336.019 323.143C336.019 311.442 326.531 301.954 314.83 301.954Z" fill="#F45197"/>
<path d="M328.522 327.921L328.45 327.178L327.814 320.585C327.537 317.701 325.112 315.498 322.213 315.498H307.724C304.825 315.498 302.4 317.701 302.124 320.585L301.416 327.921C301.204 330.134 302.943 332.053 305.167 332.053C306.334 332.053 307.437 331.51 308.148 330.587L310.778 327.181H319.156L321.786 330.587C322.501 331.51 323.6 332.053 324.767 332.053C326.995 332.053 328.737 330.138 328.522 327.921ZM307.656 317.564C307.656 317.402 307.789 317.269 307.951 317.269H309.84C310.002 317.269 310.135 317.402 310.135 317.564V319.436C309.65 319.921 309.381 320.19 308.896 320.675C308.411 320.19 308.141 319.921 307.656 319.436V317.564ZM305.138 322.561C304.976 322.561 304.843 322.428 304.843 322.267V320.377C304.843 320.215 304.976 320.082 305.138 320.082H307.01C307.495 320.567 307.764 320.837 308.249 321.322C307.764 321.807 307.495 322.076 307.01 322.561H305.138ZM310.135 325.08C310.135 325.241 310.002 325.374 309.84 325.374H307.951C307.789 325.374 307.656 325.241 307.656 325.08V323.208C308.141 322.723 308.411 322.453 308.896 321.968C309.381 322.453 309.65 322.723 310.135 323.208V325.08ZM312.948 322.267C312.948 322.428 312.815 322.561 312.653 322.561H310.782C310.297 322.076 310.027 321.807 309.542 321.322C310.027 320.837 310.297 320.567 310.782 320.082H312.653C312.815 320.082 312.948 320.215 312.948 320.377V322.267ZM318.441 322.784C317.636 322.784 316.979 322.13 316.979 321.322C316.979 320.517 317.633 319.86 318.441 319.86C319.246 319.86 319.903 320.513 319.903 321.322C319.9 322.127 319.246 322.784 318.441 322.784ZM321.376 325.719C320.571 325.719 319.914 325.065 319.914 324.257C319.914 323.449 320.568 322.795 321.376 322.795C322.181 322.795 322.838 323.449 322.838 324.257C322.838 325.065 322.184 325.719 321.376 325.719ZM321.376 319.845C320.571 319.845 319.914 319.191 319.914 318.383C319.914 317.578 320.568 316.921 321.376 316.921C322.181 316.921 322.838 317.575 322.838 318.383C322.838 319.191 322.184 319.845 321.376 319.845ZM324.315 322.784C323.51 322.784 322.853 322.13 322.853 321.322C322.853 320.517 323.506 319.86 324.315 319.86C325.12 319.86 325.777 320.513 325.777 321.322C325.777 322.127 325.12 322.784 324.315 322.784Z" fill="#FEFEFE"/>
<path d="M206.006 363.987C206.523 364.519 207.249 364.849 208.05 364.849C208.851 364.849 209.573 364.519 210.094 363.987C209.853 362.841 209.351 362.076 208.664 361.795C208.995 361.591 209.218 361.224 209.218 360.804C209.218 360.157 208.693 359.636 208.05 359.636C207.407 359.636 206.882 360.161 206.882 360.804C206.882 361.224 207.105 361.591 207.436 361.795C206.75 362.076 206.247 362.841 206.006 363.987Z" fill="#FEFEFE"/>
<path opacity="0.1" d="M305.545 342.194C308.347 343.563 311.498 344.336 314.832 344.336C316.355 344.336 317.839 344.17 319.268 343.865C317.336 341.735 314.544 340.398 311.44 340.398C309.26 340.398 307.23 341.059 305.545 342.194Z" fill="url(#paint1_linear)"/>
<path d="M323.39 354.127C324.748 348.451 321.248 342.75 315.572 341.392C309.897 340.034 304.195 343.534 302.838 349.209C301.48 354.885 304.98 360.586 310.655 361.944C316.33 363.302 322.032 359.802 323.39 354.127Z" fill="#FEFEFE"/>
<path d="M316.057 354.161V358.346L313.108 356.949L310.158 358.346V354.161C310.241 354.269 310.32 354.42 310.399 354.571C310.597 354.948 310.819 355.375 311.261 355.519C311.355 355.548 311.452 355.562 311.552 355.562C311.879 355.562 312.188 355.411 312.483 355.264C312.709 355.153 312.943 355.038 313.108 355.038C313.273 355.038 313.503 355.153 313.729 355.264C314.028 355.411 314.337 355.562 314.664 355.562C314.764 355.562 314.865 355.548 314.955 355.519C315.4 355.375 315.623 354.948 315.817 354.571C315.896 354.42 315.975 354.269 316.057 354.161ZM317.311 353.191C317.013 353.601 316.147 353.461 315.738 353.759C315.332 354.053 315.199 354.919 314.71 355.081C314.24 355.235 313.625 354.614 313.104 354.614C312.583 354.614 311.969 355.232 311.498 355.081C311.01 354.923 310.877 354.057 310.471 353.759C310.061 353.461 309.196 353.601 308.897 353.191C308.603 352.785 309.002 352.009 308.84 351.521C308.686 351.05 307.902 350.658 307.902 350.134C307.902 349.613 308.686 349.221 308.84 348.747C308.998 348.259 308.599 347.483 308.897 347.077C309.196 346.667 310.061 346.807 310.471 346.509C310.877 346.214 311.01 345.349 311.498 345.187C311.969 345.033 312.583 345.654 313.104 345.654C313.625 345.654 314.24 345.036 314.71 345.187C315.199 345.345 315.332 346.211 315.738 346.509C316.147 346.807 317.013 346.667 317.311 347.077C317.606 347.483 317.207 348.259 317.369 348.747C317.523 349.218 318.306 349.609 318.306 350.134C318.306 350.655 317.523 351.046 317.369 351.521C317.211 352.009 317.609 352.785 317.311 353.191ZM315.623 349.318L313.884 349.067L313.108 347.493L312.332 349.067L310.593 349.318L311.851 350.543L311.552 352.275L313.108 351.456L314.664 352.275L314.365 350.543L315.623 349.318Z" fill="#F45197"/>
<path d="M194.565 362.74C191.626 362.74 189.244 365.122 189.244 368.061C189.244 370.999 191.626 373.381 194.565 373.381C197.503 373.381 199.885 370.999 199.885 368.061C199.885 365.122 197.5 362.74 194.565 362.74Z" fill="#F45197"/>
<path d="M193.049 368.075C193.049 368.477 193.207 368.873 193.487 369.174C193.771 369.487 194.156 369.681 194.587 369.688C195.011 369.706 195.374 369.598 195.708 369.311C195.898 369.164 196.063 369.063 196.232 369.063C196.372 369.063 196.509 369.124 196.638 369.235C196.764 369.347 196.829 369.491 196.829 369.659C196.821 369.832 196.746 369.99 196.609 370.126C196.135 370.615 195.438 370.881 194.691 370.881C193.915 370.881 193.204 370.586 192.683 370.073C192.158 369.57 191.846 368.855 191.846 368.093V368.086C191.846 368.079 191.846 368.079 191.853 368.079V368.072C191.846 368.072 191.846 368.072 191.846 368.064C191.846 367.292 192.158 366.588 192.683 366.063C193.204 365.542 193.915 365.237 194.691 365.237C195.442 365.237 196.139 365.503 196.609 365.991C196.746 366.128 196.821 366.286 196.829 366.458C196.829 366.631 196.764 366.778 196.638 366.89C196.509 367.001 196.379 367.062 196.243 367.062C196.06 367.062 195.894 366.954 195.704 366.807C195.374 366.541 195.025 366.43 194.616 366.43C194.184 366.43 193.778 366.631 193.487 366.943C193.204 367.249 193.046 367.651 193.046 368.054L193.038 368.064L193.049 368.075Z" fill="#FEFEFE"/>
<path d="M315.241 375.752C314.835 374.269 313.682 373.105 312.209 372.695C312.066 372.656 312.066 372.454 312.209 372.415C313.682 372.002 314.835 370.841 315.241 369.358C315.281 369.21 315.479 369.21 315.518 369.358C315.924 370.841 317.077 372.005 318.55 372.415C318.694 372.454 318.694 372.656 318.55 372.695C317.077 373.108 315.924 374.269 315.518 375.752C315.479 375.9 315.281 375.9 315.241 375.752Z" fill="white"/>
<path d="M320.25 379.492C320.042 378.727 319.445 378.127 318.684 377.912C318.608 377.89 318.608 377.789 318.684 377.768C319.445 377.556 320.042 376.956 320.25 376.187C320.271 376.112 320.372 376.112 320.394 376.187C320.602 376.952 321.198 377.552 321.96 377.768C322.035 377.789 322.035 377.89 321.96 377.912C321.198 378.123 320.602 378.723 320.394 379.492C320.372 379.568 320.271 379.568 320.25 379.492Z" fill="white"/>
<path d="M308.757 295.905C308.351 294.421 307.198 293.257 305.725 292.847C305.581 292.808 305.581 292.607 305.725 292.567C307.198 292.154 308.351 290.994 308.757 289.51C308.797 289.363 308.994 289.363 309.034 289.51C309.44 290.994 310.593 292.158 312.066 292.567C312.209 292.607 312.209 292.808 312.066 292.847C310.593 293.26 309.44 294.421 309.034 295.905C308.994 296.048 308.797 296.048 308.757 295.905Z" fill="white"/>
<path d="M292.957 307.002C292.749 306.237 292.152 305.637 291.391 305.421C291.315 305.4 291.315 305.299 291.391 305.277C292.152 305.065 292.749 304.466 292.957 303.697C292.978 303.621 293.079 303.621 293.101 303.697C293.309 304.462 293.905 305.062 294.667 305.277C294.742 305.299 294.742 305.4 294.667 305.421C293.905 305.633 293.309 306.233 293.101 307.002C293.079 307.077 292.978 307.077 292.957 307.002Z" fill="white"/>
<path d="M185.011 305.734C184.605 304.25 183.452 303.086 181.979 302.676C181.835 302.637 181.835 302.436 181.979 302.396C183.452 301.983 184.605 300.823 185.011 299.339C185.05 299.192 185.248 299.192 185.288 299.339C185.694 300.823 186.847 301.987 188.32 302.396C188.463 302.436 188.463 302.637 188.32 302.676C186.847 303.09 185.694 304.25 185.288 305.734C185.248 305.881 185.05 305.881 185.011 305.734Z" fill="white"/>
<path d="M182.645 360.373C184.099 360.373 185.278 359.194 185.278 357.739C185.278 356.285 184.099 355.106 182.645 355.106C181.191 355.106 180.012 356.285 180.012 357.739C180.012 359.194 181.191 360.373 182.645 360.373Z" fill="#F45197"/>
<path d="M328.551 365.399C328.551 366.868 327.359 368.057 325.893 368.057C324.424 368.057 323.234 366.864 323.234 365.399C323.234 363.929 324.427 362.74 325.893 362.74C327.362 362.74 328.551 363.929 328.551 365.399Z" fill="#F45197"/>
<path d="M183.367 418.223C183.367 418.223 181.861 420.738 182.08 422.578C182.3 424.417 183.952 425.854 184.419 427.025C184.89 428.196 183.248 430.564 184.771 433.129C186.294 435.694 197.589 446.587 200.787 447.406C203.984 448.225 211.715 447.334 213.005 444.029C214.295 440.727 213.943 428.66 213.943 428.66L204.688 408.491L183.367 418.223Z" fill="url(#paint2_linear)"/>
<path d="M213.009 444.032C213.235 443.457 213.407 442.61 213.544 441.607L211.888 433.071L201.613 426.54L198.865 425.11C198.865 425.11 194.198 430.029 193.117 431.135C192.201 432.069 188.105 434.684 184.969 433.416C187.056 436.416 197.704 446.615 200.794 447.406C203.988 448.228 211.719 447.334 213.009 444.032Z" fill="url(#paint3_linear)"/>
<path d="M208.715 438.938C207.828 436.966 205.644 435.906 203.531 435.457C201.415 435.008 199.209 435.004 197.147 434.354C195.451 433.819 193.889 432.816 192.771 431.444C191.431 432.533 187.807 434.57 184.965 433.42C187.052 436.42 197.7 446.619 200.79 447.409C203.987 448.228 211.719 447.337 213.008 444.032C213.235 443.457 213.407 442.61 213.544 441.607L212.987 438.748L208.715 438.938Z" fill="url(#paint4_linear)"/>
<path d="M339.538 418.223C339.538 418.223 341.043 420.738 340.824 422.578C340.605 424.417 338.952 425.854 338.485 427.025C338.015 428.196 339.657 430.564 338.133 433.129C336.61 435.694 325.315 446.587 322.118 447.406C318.92 448.225 311.189 447.334 309.9 444.029C308.61 440.727 308.962 428.66 308.962 428.66L318.216 408.491L339.538 418.223Z" fill="url(#paint5_linear)"/>
<path d="M309.901 444.032C309.674 443.457 309.502 442.61 309.365 441.607L311.021 433.071L321.296 426.54L324.044 425.11C324.044 425.11 328.711 430.029 329.792 431.135C330.709 432.069 334.804 434.684 337.94 433.416C335.853 436.416 325.205 446.615 322.115 447.406C318.921 448.228 311.187 447.334 309.901 444.032Z" fill="url(#paint6_linear)"/>
<path d="M314.19 438.938C315.077 436.966 317.261 435.906 319.374 435.457C321.49 435.008 323.696 435.004 325.758 434.354C327.453 433.819 329.016 432.816 330.133 431.444C331.473 432.533 335.098 434.57 337.94 433.42C335.853 436.42 325.204 446.619 322.115 447.409C318.917 448.228 311.186 447.337 309.897 444.032C309.67 443.457 309.498 442.61 309.361 441.607L309.918 438.748L314.19 438.938Z" fill="url(#paint7_linear)"/>
<path d="M278.271 338.092C266.85 333.414 249.143 334.894 242.295 338.092C235.448 341.289 255.419 360.401 260.481 359.995C265.543 359.593 284.482 340.635 278.271 338.092Z" fill="#131163"/>
<path d="M238.066 351.553C238.767 353.27 239.529 354.962 240.294 356.669C242.076 360.653 243.797 364.695 246.703 367.719C253.001 374.283 262.352 377.595 270.568 375.472C280.078 373.015 286.336 365.352 291.042 356.155C280.724 350.802 266.498 343.243 266.501 342.273C266.505 340.754 267.439 329.682 267.439 329.682H252.896C252.896 329.682 253.827 340.754 253.834 342.273C253.83 342.988 246.204 347.228 238.066 351.553Z" fill="url(#paint8_linear)"/>
<path d="M266.738 338.426C262.327 339.518 257.606 338.922 253.467 336.784C253.205 333.375 252.893 329.689 252.893 329.689H267.435C267.435 329.689 267.015 334.682 266.738 338.426Z" fill="url(#paint9_linear)"/>
<path d="M273.289 346.678C272.991 346.509 272.7 346.347 272.416 346.186C269.269 349.584 262.684 356.399 260.327 356.504C258.405 356.59 251.112 349.52 247.828 346.232C247.541 346.398 247.243 346.563 246.938 346.735C248.594 351.158 253.056 360.876 260.277 360.858C267.013 360.836 271.521 351.255 273.289 346.678Z" fill="url(#paint10_linear)"/>
<path opacity="0.3" d="M313.264 416.744L313.076 416.546L313.264 416.744Z" fill="url(#paint11_linear)"/>
<path d="M301.471 472.952L292.986 365.959L297.275 358.62L278.547 344.292C278.547 344.292 263.617 361.332 260.279 361.253C256.306 361.156 242.266 345.144 242.266 345.144L228.697 354.679C226.671 355.968 223.29 358.623 223.29 358.623L227.58 365.963L216.641 472.956H301.471V472.952Z" fill="#00A0D7"/>
<path d="M297.273 358.62C299.166 360.725 298.957 365.934 298.957 365.934L315.332 392.12H293.957L291.895 365.654L297.273 358.62Z" fill="#00A0D7"/>
<path opacity="0.2" d="M293.961 392.12H301.027C296.587 384.4 293.515 375.896 292.01 367.116L293.961 392.12Z" fill="#00A0D7"/>
<path d="M299.065 366.11C298.627 371.19 299.935 376.421 302.773 380.663C305.352 384.518 309.168 387.511 313.489 389.178L299.065 366.11Z" fill="#00A0D7"/>
<path d="M223.294 358.62C221.401 360.725 221.609 365.934 221.609 365.934L205.234 392.12H226.61L228.672 365.654L223.294 358.62Z" fill="#00A0D7"/>
<path opacity="0.2" d="M226.606 392.12H219.539C223.979 384.4 227.051 375.896 228.556 367.116L226.606 392.12Z" fill="url(#paint12_linear)"/>
<path d="M221.5 366.11C221.939 371.19 220.631 376.421 217.793 380.663C215.213 384.518 211.398 387.511 207.076 389.178L221.5 366.11Z" fill="#00A0D7"/>
<path opacity="0.5" d="M301.47 472.952L292.984 365.959L295.276 362.036L295.011 357.269L290.674 354.679C287.858 371.129 283.762 387.144 278.463 402.33C276.509 407.927 274.098 413.808 270.017 416.226C265.893 418.669 261.14 416.916 257.034 414.422C250.819 410.65 245.146 405.165 240.346 398.457C236.158 392.601 230.629 383.936 229.062 375.691C227.819 369.156 230.902 371.937 233.345 374.1C236.578 376.963 239.923 379.578 243.353 381.942C246.784 384.306 250.305 386.411 253.898 388.247C256.93 389.799 261.704 390.363 264.352 392.763C252.478 381.985 242.179 367.831 234.128 351.488C231.987 352.692 230.032 353.831 228.703 354.679C227.607 355.379 226.116 356.471 224.978 357.333L224.712 361.041L227.586 365.963L216.646 472.956H301.47V472.952ZM281.201 435.816C271.217 440.418 261.564 435.529 252.09 429.13C242.617 422.732 236.14 411.153 232.439 397.308C245.98 415.759 262.958 429.166 281.201 435.816Z" fill="url(#paint13_linear)"/>
<path d="M241.989 308.101C241.989 308.101 239.011 302.795 234.678 305.813C230.346 308.83 235.145 319.896 239.87 319.698C242.212 319.601 243.067 316.095 243.067 316.095L241.989 308.101Z" fill="url(#paint14_linear)"/>
<path d="M235.023 309.01C237.89 309.984 240.204 312.685 240.588 315.717C240.653 316.235 240.588 316.788 240.301 317.226C240.013 317.661 239.478 317.952 238.968 317.851C238.25 317.708 237.869 316.914 237.696 316.199C237.398 314.967 237.395 313.666 237.686 312.434C237.086 311.367 235.99 309.747 235.023 309.01Z" fill="url(#paint15_linear)"/>
<path d="M241.989 308.101C241.989 308.101 239.011 302.795 234.679 305.813C234.161 306.172 233.777 306.65 233.504 307.207C234.427 306.855 235.437 306.689 236.414 306.725C238.368 306.797 240.226 307.494 242.018 308.32L241.989 308.101Z" fill="url(#paint16_linear)"/>
<path d="M278.576 308.101C278.576 308.101 281.554 302.795 285.887 305.813C290.219 308.83 285.42 319.896 280.695 319.698C278.353 319.601 277.498 316.095 277.498 316.095L278.576 308.101Z" fill="url(#paint17_linear)"/>
<path d="M285.543 309.01C282.676 309.984 280.362 312.685 279.978 315.717C279.913 316.235 279.978 316.788 280.265 317.226C280.553 317.661 281.088 317.952 281.598 317.851C282.317 317.708 282.698 316.914 282.87 316.199C283.168 314.967 283.172 313.666 282.881 312.434C283.481 311.367 284.576 309.747 285.543 309.01Z" fill="url(#paint18_linear)"/>
<path d="M278.576 308.101C278.576 308.101 281.554 302.795 285.886 305.813C286.404 306.172 286.788 306.65 287.061 307.207C286.138 306.855 285.128 306.689 284.151 306.725C282.197 306.797 280.34 307.494 278.547 308.32L278.576 308.101Z" fill="url(#paint19_linear)"/>
<path d="M260.28 278.941C243.223 278.941 238.814 297.571 238.814 297.571C238.814 297.571 241.203 321.595 243.549 325.96C244.25 327.264 250.296 337.165 260.28 337.165H260.291C270.274 337.165 276.321 327.264 277.021 325.96C279.363 321.595 281.756 297.571 281.756 297.571C281.756 297.571 277.348 278.941 260.291 278.941H260.28Z" fill="url(#paint20_linear)"/>
<path d="M253.249 320.625C252.933 320.873 252.502 321.099 252.078 321.042C251.981 321.027 251.888 320.977 251.848 320.894C251.766 320.725 252.021 320.503 252.146 320.409C252.355 320.258 252.603 320.176 252.85 320.093C253.062 320.021 253.357 319.982 253.454 320.169C253.533 320.327 253.393 320.51 253.249 320.625Z" fill="url(#paint21_linear)"/>
<path d="M269.595 322.773C269.731 323.204 269.519 323.542 268.862 322.999C268.736 322.895 268.607 322.784 268.531 322.644C268.456 322.504 268.445 322.32 268.546 322.198C268.69 322.026 268.991 322.051 269.178 322.191C269.39 322.349 269.53 322.572 269.595 322.773Z" fill="url(#paint22_linear)"/>
<path d="M252.652 320.592C252.652 320.592 252.44 325.378 255.185 327.763C257.06 329.391 261.925 330.217 264.371 328.622C267.849 326.355 268.901 322.619 268.901 322.619C268.901 322.619 266.254 323.937 261.31 323.193C256.388 322.453 254.948 322.389 252.652 320.592Z" fill="url(#paint23_linear)"/>
<path d="M268.702 322.712L267.326 323.114C266.054 323.391 264.031 323.607 261.312 323.197C257.242 322.583 254.615 321.814 252.855 320.765C252.855 320.765 252.729 323.987 254.716 325.802C255.557 326.57 257.141 327.397 259.286 327.681C260.773 327.875 262.896 328.018 264.876 327.027C267.085 325.913 268.702 322.712 268.702 322.712Z" fill="#7A336D"/>
<path d="M266.955 324.153C267.239 323.973 267.544 323.449 267.778 322.981L267.329 323.111C266.057 323.387 264.034 323.603 261.315 323.193C257.988 322.694 255.628 322.087 253.914 321.307C253.99 321.756 254.097 322.274 254.245 322.626C254.554 323.366 257.762 325.094 260.661 325.342C263.56 325.59 266.398 324.501 266.955 324.153Z" fill="white"/>
<path d="M268.901 322.619C263.753 324.972 257.021 324.271 252.648 320.592C256.004 322.076 258.167 321.534 261.921 322.076C263.534 322.313 265.625 323.226 268.901 322.619Z" fill="url(#paint24_linear)"/>
<path d="M257.938 279.063C242.813 280.665 238.814 297.571 238.814 297.571C238.814 297.571 239.504 304.516 240.51 311.615L241.523 312.261C242.479 310.375 242.425 308.162 242.418 306.046C242.411 303.934 242.511 301.685 243.7 299.939C244.915 298.153 247.149 296.878 249.272 297.284C249.502 294.482 252.376 292.801 255.175 292.52C257.973 292.24 260.722 293.35 263.197 294.683C265.672 296.016 268.047 297.607 270.738 298.423C274.345 299.515 278.354 298.991 281.663 297.205C281.052 295.01 277.38 283.474 266.811 279.957C265.863 279.742 264.903 279.562 263.937 279.418C261.95 279.131 259.942 279.009 257.938 279.063Z" fill="url(#paint25_linear)"/>
<path d="M240.581 305.371C240.685 303.158 241.554 300.992 243.002 299.317C244.45 297.643 246.469 296.831 249.268 297.284C249.846 293.925 251.955 291.719 254.491 290.803C257.027 289.891 260.045 290.095 262.639 290.839C261.518 288.777 259.298 287.505 257.024 286.923C252.257 285.702 246.879 287.257 243.502 290.839C240.121 294.421 239.083 300.679 240.581 305.371Z" fill="#00A0D7"/>
<path d="M273.038 301.689C274.802 302.292 276.501 304.552 276.501 304.552C276.645 305.04 276.67 316.098 276.67 316.098C276.67 316.098 267.523 317.78 264.667 314.295C264.667 314.295 261.883 307.268 263.266 298.707L273.038 301.689Z" fill="url(#paint26_linear)"/>
<path d="M275.284 311.331C275.284 311.331 273.014 315.308 269.809 315.516C266.608 315.721 265.52 313.07 265.52 313.07L275.284 311.331Z" fill="url(#paint27_linear)"/>
<path d="M265.224 300.963C263.524 300.988 262.795 298.771 263.567 297.607C269.262 297.744 273.468 299.67 275.969 303.043C276.184 303.542 276.285 304.052 276.501 304.552C273.253 302.655 269.969 300.891 265.224 300.963Z" fill="#131163"/>
<path d="M275.284 311.331C275.284 311.331 272.522 306.614 268.785 306.506C265.315 306.406 264.571 309.125 264.772 310.285C264.977 311.446 275.284 311.331 275.284 311.331Z" fill="url(#paint28_linear)"/>
<path d="M275.284 311.331C275.284 311.331 273.463 314.302 269.823 314.92C266.235 315.527 265.451 313.231 265.261 312.524C265.067 311.816 265.247 309.405 266.791 308.863C268.333 308.317 271.088 306.506 275.284 311.331Z" fill="#FFEBED"/>
<path d="M264.775 310.282C265.81 307.717 268.317 306.441 271.332 307.473C272.417 307.843 273.828 308.96 275.287 311.327C272.338 308.087 269.323 307.879 266.942 309.254C266.18 309.696 265.174 310.656 265.26 312.52C265.26 312.52 264.739 310.717 264.775 310.282Z" fill="url(#paint29_linear)"/>
<path d="M269.036 316.062C270.673 316.062 272 314.735 272 313.098C272 311.462 270.673 310.135 269.036 310.135C267.399 310.135 266.072 311.462 266.072 313.098C266.072 314.735 267.399 316.062 269.036 316.062Z" fill="url(#paint30_linear)"/>
<path d="M269.036 315.146C270.167 315.146 271.084 314.229 271.084 313.098C271.084 311.968 270.167 311.051 269.036 311.051C267.905 311.051 266.988 311.968 266.988 313.098C266.988 314.229 267.905 315.146 269.036 315.146Z" fill="url(#paint31_linear)"/>
<path d="M266.759 315.739C266.457 315.405 267.593 314 268.106 314.342C268.62 314.686 267.201 316.228 266.759 315.739ZM270.359 311.485C270.007 311.485 269.723 311.769 269.723 312.121C269.723 312.473 270.007 312.757 270.359 312.757C270.711 312.757 270.995 312.473 270.995 312.121C270.995 311.769 270.711 311.485 270.359 311.485Z" fill="white"/>
<path d="M250.01 303.291C248.246 303.894 245.548 306.373 245.548 306.373C245.404 306.862 243.902 316.102 243.902 316.102C243.902 316.102 253.049 317.783 255.905 314.298C255.905 314.298 257.629 309.757 256.246 301.196L250.01 303.291Z" fill="url(#paint32_linear)"/>
<path d="M245.285 311.331C245.285 311.331 247.556 315.308 250.76 315.516C253.961 315.721 255.05 313.07 255.05 313.07L245.285 311.331Z" fill="url(#paint33_linear)"/>
<path d="M254.77 303.596C256.268 303.51 256.666 301.261 255.865 300.158C250.875 300.672 247.383 302.86 245.548 306.373C245.415 306.883 245.379 307.397 245.242 307.907C247.893 305.809 250.591 303.84 254.77 303.596Z" fill="#131163"/>
<path d="M245.285 311.331C245.285 311.331 248.048 306.614 251.784 306.506C255.254 306.405 255.998 309.125 255.797 310.285C255.592 311.446 245.285 311.331 245.285 311.331Z" fill="url(#paint34_linear)"/>
<path d="M245.285 311.331C245.285 311.331 247.107 314.302 250.746 314.92C254.335 315.527 255.118 313.231 255.308 312.524C255.499 311.816 255.323 309.405 253.778 308.863C252.237 308.317 249.481 306.506 245.285 311.331Z" fill="#FFEBED"/>
<path d="M255.793 310.282C254.758 307.717 252.251 306.441 249.237 307.472C248.152 307.843 246.74 308.96 245.281 311.327C248.231 308.087 251.245 307.878 253.627 309.254C254.388 309.696 255.394 310.655 255.308 312.52C255.308 312.52 255.829 310.717 255.793 310.282Z" fill="url(#paint35_linear)"/>
<path d="M251.532 316.062C253.169 316.062 254.496 314.735 254.496 313.098C254.496 311.462 253.169 310.135 251.532 310.135C249.895 310.135 248.568 311.462 248.568 313.098C248.568 314.735 249.895 316.062 251.532 316.062Z" fill="url(#paint36_linear)"/>
<path d="M253.58 313.098C253.58 314.23 252.664 315.146 251.532 315.146C250.4 315.146 249.484 314.23 249.484 313.098C249.484 311.967 250.4 311.051 251.532 311.051C252.664 311.051 253.58 311.97 253.58 313.098Z" fill="url(#paint37_linear)"/>
<path d="M249.255 315.739C248.954 315.405 250.089 314 250.603 314.341C251.116 314.686 249.694 316.228 249.255 315.739ZM252.851 311.485C252.499 311.485 252.216 311.769 252.216 312.121C252.216 312.473 252.499 312.757 252.851 312.757C253.204 312.757 253.487 312.473 253.487 312.121C253.487 311.769 253.204 311.485 252.851 311.485Z" fill="white"/>
<path d="M259.454 312.455C260.474 309.545 263.495 317.568 263.495 317.568C263.495 317.568 262.148 319.705 260.284 319.705C258.416 319.705 257.047 317.42 257.047 317.42C257.047 317.42 257.877 316.953 259.454 312.455Z" fill="#FFB398"/>
<path d="M257.043 317.42C257.043 317.42 257.97 318.961 259.339 319.511C259.346 319.511 259.346 319.518 259.353 319.518C259.64 319.637 259.949 319.705 260.28 319.705C262.152 319.705 263.499 317.568 263.499 317.568C261.149 318.735 258.825 318.146 257.718 317.718C257.291 317.557 257.043 317.42 257.043 317.42Z" fill="url(#paint38_linear)"/>
<path d="M257.043 317.42C257.043 317.42 257.97 318.961 259.339 319.511C258.038 318.631 257.715 317.718 257.715 317.718C257.715 317.718 259.252 315.355 259.809 309.969C258.911 315.092 257.09 317.075 257.043 317.42Z" fill="#CB4D7A"/>
<path d="M262.05 318.746C262.255 318.627 262.481 318.563 262.715 318.512C262.374 318.854 261.932 319.206 261.418 319.439C261.554 319.152 261.774 318.904 262.05 318.746Z" fill="#9F4A8B"/>
<path d="M269.637 319.425C269.637 320.618 271.016 321.588 272.716 321.588C274.415 321.588 275.794 320.621 275.794 319.425C275.794 318.232 274.415 317.262 272.716 317.262C271.013 317.262 269.637 318.229 269.637 319.425Z" fill="url(#paint39_linear)"/>
<path d="M250.927 319.425C250.927 320.618 249.548 321.588 247.848 321.588C246.149 321.588 244.77 320.621 244.77 319.425C244.77 318.232 246.149 317.262 247.848 317.262C249.548 317.262 250.927 318.229 250.927 319.425Z" fill="url(#paint40_linear)"/>
<path d="M234.125 351.488C231.919 349.311 233.755 347.026 236.543 346.25C239.33 345.474 235.802 339.701 242.298 338.092C242.298 338.092 240.153 342.065 260.289 358.677V362.539C260.286 362.535 242.725 359.981 234.125 351.488Z" fill="#00A0D7"/>
<path d="M286.439 351.488C288.644 349.311 286.809 347.026 284.021 346.25C281.233 345.474 284.761 339.701 278.266 338.092C278.266 338.092 280.403 342.374 260.281 358.677V362.539C260.285 362.535 277.838 359.981 286.439 351.488Z" fill="#00A0D7"/>
<path d="M282.301 292.617C283.023 292.459 284.029 295.258 284.141 295.736C284.561 297.518 284.281 299.465 283.422 301.078C281.723 304.268 280.343 308.759 279.51 315.304C278.781 311.859 279.233 308.173 279.33 304.652C279.427 301.132 278.86 297.295 276.334 294.841C278.181 293.433 280.031 293.113 282.301 292.617Z" fill="url(#paint41_linear)"/>
<path d="M282.301 292.617C283.023 292.459 284.029 295.258 284.141 295.736C284.561 297.518 284.281 299.465 283.422 301.078C281.723 304.268 280.343 308.759 279.51 315.304C278.781 311.859 279.233 308.173 279.33 304.652C279.427 301.132 278.86 297.295 276.334 294.841C278.181 293.433 280.031 293.113 282.301 292.617Z" fill="url(#paint42_linear)"/>
<path d="M249.267 297.28C248.121 295.333 248.003 291.126 249.691 289.628C251.38 288.13 253.823 287.696 256.054 288.04C258.285 288.385 260.35 289.42 262.294 290.57C264.238 291.719 266.113 293.002 268.175 293.918C273.373 296.228 279.675 295.962 284.589 293.099C289.504 290.236 292.867 284.814 293.111 279.135C293.255 275.776 292.349 272.381 290.553 269.539C287.744 272.603 283.885 276.07 280.124 278.2C281.625 275.793 282.689 271.831 282.52 269C281.41 272.531 277.469 274.964 273.805 275.492C270.14 276.02 266.436 275.165 262.829 274.324C259.226 273.483 255.511 272.65 251.854 273.21C248.366 273.746 245.097 275.592 242.833 278.297C240.57 281.006 239.334 284.552 239.427 288.08C237.847 288.184 236.464 288.331 234.955 288.813C233.446 289.294 232.009 290.203 231.211 291.572C229.975 293.692 230.518 296.447 231.743 298.57C232.968 300.693 234.782 302.407 236.27 304.358C239.223 308.231 239.934 310.436 241.425 317.981C242.524 314.169 242.334 310.012 241.59 306.115C241.084 303.467 240.182 300.604 241.396 298.197C242.582 295.822 246.939 296.009 249.267 297.28Z" fill="url(#paint43_linear)"/>
<path d="M280.121 278.197C276.734 280.13 270.691 281.473 266.1 281.811C266.1 281.811 273.392 289.036 282.679 284.462C291.966 279.889 290.554 269.539 290.554 269.539C287.741 272.6 283.886 276.067 280.121 278.197Z" fill="#00A0D7"/>
<path d="M239.72 288.436C239.145 287.793 238.786 287.038 238.538 286.259C238.297 285.475 238.182 284.653 238.186 283.834C238.189 283.015 238.319 282.195 238.57 281.416C238.829 280.636 239.202 279.889 239.788 279.257C239.917 280.108 239.942 280.877 239.964 281.631C239.982 282.386 239.985 283.115 239.978 283.848C239.971 284.581 239.957 285.314 239.928 286.065C239.896 286.823 239.86 287.588 239.72 288.436Z" fill="url(#paint44_linear)"/>
<path d="M271.865 283.402C273.536 283.018 275.07 282.641 276.539 282.127C278.005 281.624 279.395 281.013 280.714 280.281C282.032 279.548 283.286 278.689 284.486 277.712C285.697 276.735 286.828 275.635 288.042 274.421C287.769 276.124 286.968 277.708 285.908 279.084C284.838 280.46 283.476 281.624 281.932 282.479C280.39 283.334 278.68 283.873 276.949 284.056C275.224 284.222 273.457 284.067 271.865 283.402Z" fill="#00A0D7"/>
<path opacity="0.5" d="M249.692 289.628C251.38 288.13 253.823 287.696 256.054 288.04C258.285 288.385 260.351 289.42 262.294 290.57C264.238 291.719 266.113 293.002 268.175 293.918C273.374 296.228 279.675 295.962 284.59 293.099C285.606 292.506 286.555 291.798 287.424 291.008C286.885 291.191 286.339 291.36 285.79 291.514C281.159 292.815 276.09 293.016 271.613 291.252C269.07 290.25 266.81 288.662 264.543 287.128C262.28 285.598 259.945 284.089 257.333 283.288C254.718 282.486 251.754 282.461 249.376 283.812C245.162 286.201 245.902 294.069 249.271 297.284C248.122 295.333 248.003 291.126 249.692 289.628Z" fill="url(#paint45_linear)"/>
<path d="M239.422 288.076C237.841 288.181 236.458 288.328 234.949 288.809C233.44 289.291 232.003 290.2 231.205 291.568C229.97 293.688 230.512 296.443 231.737 298.567C232.197 299.364 232.739 300.104 233.318 300.823C240.816 299.889 239.422 288.076 239.422 288.076Z" fill="url(#paint46_linear)"/>
<path d="M270.009 278.883C274.09 278.402 277.848 275.966 280.122 272.56C278.383 274.123 276.041 275.161 273.803 275.485C270.138 276.009 266.434 275.158 262.827 274.317C259.224 273.476 255.509 272.643 251.852 273.203C248.364 273.739 245.095 275.585 242.831 278.29C242.641 278.517 242.461 278.754 242.285 278.991C243 279.706 243.984 280.187 244.99 280.363C246.585 280.647 248.227 280.291 249.768 279.788C251.31 279.285 252.808 278.632 254.392 278.294C259.504 277.205 264.81 279.497 270.009 278.883Z" fill="url(#paint47_linear)"/>
<path d="M257.121 281.531C257.868 281.308 258.637 281.297 259.388 281.391C260.139 281.491 260.872 281.707 261.561 282.027C262.248 282.343 262.891 282.763 263.451 283.273C264.008 283.783 264.497 284.38 264.809 285.095C264.083 284.814 263.448 284.505 262.815 284.207L260.958 283.331L259.09 282.479C258.454 282.185 257.804 281.904 257.121 281.531Z" fill="#00A0D7"/>
<path opacity="0.5" d="M240.072 296.285C238.994 298.84 236.975 300.97 234.518 302.249C234.927 302.723 235.337 303.201 235.732 303.686C236.256 303.381 236.745 303.021 237.19 302.612C238.908 301.024 240.064 298.617 240.072 296.285Z" fill="url(#paint48_linear)"/>
<path d="M249.267 297.28C247.528 295.962 246.386 292.122 247.363 290.067C247.604 289.557 247.945 289.068 248.369 288.622C248.8 288.177 249.314 287.785 249.882 287.458C251.017 286.794 252.357 286.381 253.708 286.194C255.062 286.007 256.445 286.018 257.782 286.219C259.14 286.406 260.379 286.783 261.561 287.221C262.732 287.67 263.813 288.209 264.834 288.77C265.847 289.341 266.799 289.937 267.719 290.519C268.627 291.112 269.518 291.687 270.402 292.219C271.282 292.761 272.177 293.242 273.082 293.666C274.871 294.493 276.61 295.003 278.554 294.999C279.527 294.996 280.461 294.848 281.385 294.532C282.304 294.212 283.202 293.745 284.029 293.174C285.699 292.043 288.07 290.203 289.54 288.709C288.9 290.516 286.791 293.383 285.732 294.281C284.97 295.085 284.043 295.829 282.911 296.418C281.787 297.011 280.425 297.41 279.06 297.557C277.691 297.704 276.312 297.64 275.004 297.417C273.693 297.209 272.443 296.824 271.275 296.364C268.951 295.438 267.007 294.198 265.179 293.041C264.27 292.452 263.39 291.884 262.495 291.364C261.615 290.832 260.713 290.358 259.801 289.952C258.895 289.546 257.94 289.222 257.006 289.007C256.531 288.899 256.046 288.824 255.558 288.781C255.069 288.734 254.577 288.709 254.092 288.73C252.156 288.791 250.28 289.442 249.188 290.771C248.639 291.428 248.301 292.24 248.229 293.102C248.164 293.968 248.782 296.411 249.267 297.28Z" fill="#00A0D7"/>
<path d="M303.438 415.529C303.685 415.123 304.066 414.764 304.537 414.502C305.783 413.812 316.69 413.503 320.161 413.359C320.182 413.399 320.204 413.435 320.222 413.478C320.664 414.563 319.694 415.985 318.817 416.521C317.589 417.268 316.065 417.279 314.628 417.268C312.034 417.25 309.444 417.232 306.85 417.21C306.121 417.207 305.374 417.196 304.698 416.919C304.095 416.675 303.56 416.158 303.438 415.529Z" fill="url(#paint49_linear)"/>
<path d="M318.378 425.128C318.102 426.156 318.166 427.269 318.551 428.257C317.678 427.632 317.674 425.947 318.378 425.128Z" fill="url(#paint50_linear)"/>
<path d="M315.342 408.351C315.414 407.794 315.489 407.234 315.561 406.677C315.022 407.119 314.968 407.758 315.342 408.351Z" fill="url(#paint51_linear)"/>
<path d="M326.938 389.878C324.916 389.153 320.127 388.096 312.823 387.073C312.838 387.09 312.849 387.108 312.863 387.126C312.791 387.105 312.719 387.083 312.644 387.073C301.27 385.485 283.806 383.987 261.213 383.987C238.813 383.987 221.451 385.456 210.073 387.029C209.99 387.04 209.915 387.065 209.84 387.087C202.608 388.104 197.858 389.153 195.85 389.871C190.681 391.725 187.965 395.853 190.964 399.97C193.964 404.087 203.15 436.121 206.287 437.106C207.357 437.44 213.249 437.688 220.836 437.867C220.851 437.867 220.865 437.871 220.879 437.875C235.462 438.216 256.165 438.309 261.213 438.309C266.264 438.309 286.964 438.216 301.546 437.875C301.607 437.875 301.672 437.86 301.733 437.853C301.73 437.86 301.73 437.867 301.726 437.875C309.425 437.695 315.417 437.447 316.502 437.109C319.635 436.129 328.821 404.09 331.824 399.973C334.824 395.86 332.108 391.732 326.938 389.878Z" fill="#F45197"/>
<path opacity="0.3" d="M319.929 431.157C320.163 430.47 320.4 429.748 320.63 428.997C275.583 428.99 230.54 418.525 190.152 398.561C190.35 399.032 190.616 399.503 190.961 399.977C193.96 404.094 203.147 436.129 206.283 437.113C207.353 437.447 213.245 437.695 220.833 437.875C220.847 437.875 220.861 437.878 220.876 437.882C221.788 437.903 222.722 437.925 223.678 437.943C224.156 437.954 224.637 437.961 225.122 437.972C225.607 437.982 226.096 437.99 226.591 438C228.564 438.036 230.586 438.069 232.623 438.094C233.134 438.101 233.64 438.108 234.15 438.115C234.405 438.119 234.66 438.123 234.915 438.126C236.187 438.14 237.459 438.158 238.72 438.169C238.971 438.173 239.223 438.176 239.474 438.176C239.977 438.184 240.473 438.187 240.969 438.191C241.465 438.194 241.957 438.202 242.449 438.205C251.014 438.288 258.454 438.313 261.216 438.313C261.77 438.313 262.51 438.313 263.408 438.309C265.333 438.306 267.988 438.291 271.089 438.273C271.502 438.27 271.926 438.27 272.353 438.266C274.714 438.252 277.293 438.23 279.984 438.205C280.472 438.202 280.965 438.194 281.46 438.191C281.708 438.187 281.956 438.187 282.208 438.184C282.707 438.18 283.206 438.173 283.713 438.169C289.756 438.105 296.082 438.011 301.553 437.882C301.615 437.882 301.679 437.867 301.74 437.86C301.737 437.867 301.737 437.875 301.733 437.882C305.581 437.792 309.004 437.684 311.602 437.558C311.763 437.551 311.922 437.544 312.08 437.533C312.392 437.515 312.69 437.501 312.974 437.483C313.118 437.476 313.254 437.465 313.391 437.458C314.738 437.372 315.726 437.278 316.251 437.178C316.304 437.167 316.351 437.156 316.394 437.145C316.437 437.135 316.477 437.124 316.509 437.113C317.31 436.862 318.525 434.534 319.929 431.157Z" fill="#F45197"/>
<path opacity="0.7" d="M326.939 392.296C321.769 390.442 298.493 386.408 261.393 386.408C224.293 386.408 201.013 390.442 195.847 392.296C192.689 393.428 190.451 395.411 189.869 397.717C189.046 394.416 191.629 391.391 195.847 389.875C201.017 388.021 224.293 383.987 261.393 383.987C283.987 383.987 301.45 385.481 312.824 387.073C320.128 388.093 324.92 389.153 326.939 389.878C331.157 391.391 333.74 394.419 332.917 397.721C332.335 395.411 330.097 393.428 326.939 392.296Z" fill="white"/>
<path d="M185.996 412.899C185.996 412.899 184.541 410.155 184.893 408.868C185.245 407.579 189.093 397.387 190.508 396.568C191.923 395.748 198.049 394.48 199.252 394.599C200.459 394.717 208.963 395.515 210.166 396.568C211.366 397.62 208.025 400.167 204.652 400.986C201.278 401.805 196.36 401.184 196.36 401.184L194.539 406.91L185.996 412.899Z" fill="url(#paint52_linear)"/>
<path d="M186.319 404.956C185.579 406.835 185.015 408.412 184.893 408.868C184.541 410.158 185.996 412.899 185.996 412.899L194.539 406.914L196.36 401.188C195.2 401.091 192.624 400.422 192.624 400.422C192.624 400.422 189.657 403.451 186.319 404.956Z" fill="url(#paint53_linear)"/>
<path d="M183.366 418.223C183.366 418.223 181.749 415.425 182.5 413.902C183.251 412.382 194.395 404.299 196.32 404.18C198.246 404.062 213.708 410.571 216.05 412.414C218.393 414.257 218.572 415.586 216.902 416.503C215.231 417.419 210.662 417.02 207.263 414.056L200.786 412.899C200.786 412.899 208.786 417.627 209.605 418.227C210.425 418.827 211.696 424.816 211.527 426.332C211.362 427.848 207.083 425.757 207.083 425.757C207.083 425.757 207.515 427.46 204.831 427.489C202.851 427.51 198.853 425.114 198.853 425.114L193.917 428.936L183.366 418.223Z" fill="url(#paint54_linear)"/>
<path d="M205.011 422.793C205.456 423.282 207.091 425.753 207.091 425.753C207.091 425.753 211.366 427.844 211.535 426.328C211.7 424.812 210.432 418.823 209.613 418.223C209.361 418.04 208.427 417.462 207.256 416.754C206.221 418.608 197.474 415.658 197.474 415.658C196.41 416.294 189.746 423.544 189.746 423.544C189.746 423.544 196.489 419.118 196.784 419.125C197.068 419.136 204.565 422.305 205.011 422.793Z" fill="url(#paint55_linear)"/>
<path d="M206.473 410.546C204.422 409.925 196.612 408.082 196.612 408.082C194.747 410.205 185.701 416.143 185.701 416.143C185.701 416.143 195.76 411.408 196.321 411.132C196.881 410.855 200.786 412.899 200.786 412.899L207.264 414.056C210.662 417.02 215.228 417.419 216.902 416.503C218.296 415.737 218.397 414.681 217.032 413.284C216.155 413.438 215.3 413.549 214.553 413.578C211.183 413.697 208.528 411.168 206.473 410.546Z" fill="url(#paint56_linear)"/>
<path d="M209.609 418.227C209.609 418.227 210.766 421.209 209.059 421.115C207.719 421.04 201.364 420.221 198.691 419.872C200.948 420.81 204.443 422.344 204.96 422.754C204.982 422.768 204.996 422.782 205.007 422.797C205.453 423.285 207.087 425.757 207.087 425.757C207.087 425.757 211.362 427.848 211.531 426.332C211.7 424.812 210.428 418.823 209.609 418.227Z" fill="url(#paint57_linear)"/>
<path d="M193.923 418.475C191.721 420.717 189.03 423.896 186.828 426.138C188.639 423.364 191.189 420.145 193.923 418.475Z" fill="url(#paint58_linear)"/>
<path d="M197.401 414.333C197.175 413.539 196.945 412.745 196.719 411.951C197.8 412.472 197.814 413.208 197.401 414.333Z" fill="url(#paint59_linear)"/>
<path d="M196.651 407.007C196.554 406.307 196.46 405.606 196.363 404.906C196.999 405.459 196.924 406.21 196.651 407.007Z" fill="url(#paint60_linear)"/>
<path d="M198.299 423.429C198.152 422.204 197.624 421.029 196.809 420.106C198.199 420.591 198.738 422.021 198.299 423.429Z" fill="url(#paint61_linear)"/>
<path d="M187.393 409.666C187.605 412.554 191.819 409.174 193.044 407.906C194.042 406.875 194.89 405.693 195.548 404.414C193.83 405.147 190.338 407.471 187.393 409.666Z" fill="#FFCDBA"/>
<path d="M188.194 414.972C188.176 414.987 188.155 415.004 188.137 415.019C189.527 415.421 191.072 415.252 192.344 414.563C193.112 414.146 194.639 412.903 194.844 411.836C193.116 412.651 190.256 413.999 188.194 414.972Z" fill="#FFCDBA"/>
<path d="M199.252 394.595C198.433 394.516 195.35 395.073 193.012 395.695C192.922 396.259 193.084 396.833 193.612 397.268C195.214 398.59 198.404 398.931 200.391 399.018C203.779 399.165 207.202 398.278 210.098 396.514C208.69 395.486 200.438 394.71 199.252 394.595Z" fill="#FFCDBA"/>
<path d="M336.912 412.899C336.912 412.899 338.367 410.155 338.015 408.868C337.663 407.579 333.815 397.387 332.4 396.568C330.984 395.748 324.859 394.48 323.656 394.599C322.452 394.717 313.945 395.515 312.742 396.568C311.542 397.62 314.883 400.167 318.256 400.986C321.63 401.806 326.548 401.184 326.548 401.184L328.369 406.911L336.912 412.899Z" fill="url(#paint62_linear)"/>
<path d="M336.59 404.956C337.33 406.835 337.894 408.412 338.016 408.868C338.368 410.158 336.913 412.899 336.913 412.899L328.37 406.914L326.549 401.188C327.709 401.091 330.285 400.422 330.285 400.422C330.285 400.422 333.253 403.451 336.59 404.956Z" fill="url(#paint63_linear)"/>
<path d="M339.539 418.223C339.539 418.223 341.152 415.425 340.405 413.902C339.654 412.382 328.51 404.299 326.584 404.18C324.659 404.062 309.196 410.571 306.854 412.414C304.512 414.257 304.332 415.587 306.002 416.503C307.673 417.419 312.243 417.02 315.641 414.056L322.119 412.899C322.119 412.899 314.118 417.627 313.299 418.227C312.48 418.827 311.208 424.816 311.377 426.332C311.542 427.848 315.821 425.757 315.821 425.757C315.821 425.757 315.39 427.46 318.073 427.489C320.053 427.51 324.051 425.114 324.051 425.114L328.988 428.936L339.539 418.223Z" fill="url(#paint64_linear)"/>
<path d="M317.898 422.793C317.453 423.282 315.818 425.753 315.818 425.753C315.818 425.753 311.543 427.844 311.374 426.328C311.209 424.812 312.477 418.823 313.296 418.223C313.548 418.04 314.482 417.462 315.653 416.754C316.687 418.608 325.435 415.658 325.435 415.658C326.499 416.294 333.163 423.544 333.163 423.544C333.163 423.544 326.42 419.118 326.125 419.125C325.838 419.136 318.344 422.305 317.898 422.793Z" fill="url(#paint65_linear)"/>
<path d="M316.433 410.546C318.484 409.925 326.294 408.082 326.294 408.082C328.159 410.205 337.205 416.143 337.205 416.143C337.205 416.143 327.146 411.408 326.585 411.132C326.025 410.855 322.12 412.899 322.12 412.899L315.642 414.056C312.244 417.02 307.678 417.419 306.003 416.503C304.61 415.737 304.509 414.681 305.874 413.284C306.751 413.438 307.606 413.55 308.353 413.578C311.726 413.697 314.381 411.168 316.433 410.546Z" fill="url(#paint66_linear)"/>
<path d="M313.296 418.227C313.296 418.227 312.139 421.209 313.846 421.115C315.186 421.04 321.541 420.221 324.214 419.872C321.958 420.81 318.462 422.344 317.945 422.754C317.923 422.768 317.909 422.782 317.898 422.797C317.453 423.285 315.818 425.757 315.818 425.757C315.818 425.757 311.543 427.848 311.374 426.332C311.209 424.812 312.477 418.823 313.296 418.227Z" fill="url(#paint67_linear)"/>
<path d="M328.98 418.475C331.183 420.717 333.874 423.896 336.076 426.138C334.269 423.364 331.714 420.145 328.98 418.475Z" fill="url(#paint68_linear)"/>
<path d="M325.505 414.333C325.732 413.539 325.961 412.745 326.188 411.951C325.103 412.472 325.088 413.208 325.505 414.333Z" fill="url(#paint69_linear)"/>
<path d="M326.257 407.007C326.354 406.307 326.448 405.606 326.545 404.906C325.905 405.459 325.981 406.21 326.257 407.007Z" fill="url(#paint70_linear)"/>
<path d="M324.604 423.429C324.752 422.204 325.28 421.029 326.095 420.106C324.705 420.591 324.17 422.021 324.604 423.429Z" fill="url(#paint71_linear)"/>
<path d="M335.516 409.666C335.304 412.554 331.09 409.174 329.865 407.906C328.867 406.875 328.019 405.693 327.361 404.414C329.075 405.147 332.571 407.471 335.516 409.666Z" fill="#FFCDBA"/>
<path d="M334.714 414.972C334.732 414.987 334.754 415.005 334.772 415.019C333.381 415.421 331.837 415.252 330.565 414.563C329.796 414.146 328.269 412.903 328.064 411.836C329.792 412.651 332.652 413.999 334.714 414.972Z" fill="#FFCDBA"/>
<path d="M323.656 394.595C324.476 394.516 327.558 395.073 329.897 395.695C329.986 396.259 329.825 396.833 329.297 397.268C327.694 398.59 324.504 398.931 322.518 399.018C319.13 399.165 315.706 398.278 312.811 396.514C314.219 395.486 322.467 394.71 323.656 394.595Z" fill="#FFCDBA"/>
<defs>
<linearGradient id="paint0_linear" x1="206.598" y1="311.037" x2="200.182" y2="326.099" gradientUnits="userSpaceOnUse">
<stop stop-color="#CCEDFF"/>
<stop offset="1" stop-color="#9D68C2"/>
</linearGradient>
<linearGradient id="paint1_linear" x1="308.411" y1="359.153" x2="313.293" y2="339.454" gradientUnits="userSpaceOnUse">
<stop stop-color="#CCEDFF"/>
<stop offset="1" stop-color="#9D68C2"/>
</linearGradient>
<linearGradient id="paint2_linear" x1="182.059" y1="428.096" x2="213.988" y2="428.096" gradientUnits="userSpaceOnUse">
<stop offset="0.016" stop-color="#FFC2A9"/>
<stop offset="1" stop-color="#FF9595"/>
</linearGradient>
<linearGradient id="paint3_linear" x1="209.662" y1="443.992" x2="191.234" y2="427.13" gradientUnits="userSpaceOnUse">
<stop stop-color="#FF817F"/>
<stop offset="1" stop-color="#CF6074"/>
</linearGradient>
<linearGradient id="paint4_linear" x1="184.962" y1="439.569" x2="213.542" y2="439.569" gradientUnits="userSpaceOnUse">
<stop offset="0.016" stop-color="#FFA58B"/>
<stop offset="1" stop-color="#FF9595"/>
</linearGradient>
<linearGradient id="paint5_linear" x1="340.847" y1="428.096" x2="308.918" y2="428.096" gradientUnits="userSpaceOnUse">
<stop offset="0.016" stop-color="#FFC2A9"/>
<stop offset="1" stop-color="#FF9595"/>
</linearGradient>
<linearGradient id="paint6_linear" x1="313.245" y1="443.992" x2="331.673" y2="427.13" gradientUnits="userSpaceOnUse">
<stop stop-color="#FF817F"/>
<stop offset="1" stop-color="#CF6074"/>
</linearGradient>
<linearGradient id="paint7_linear" x1="337.944" y1="439.569" x2="309.365" y2="439.569" gradientUnits="userSpaceOnUse">
<stop offset="0.016" stop-color="#FFA58B"/>
<stop offset="1" stop-color="#FF9595"/>
</linearGradient>
<linearGradient id="paint8_linear" x1="264.267" y1="330.059" x2="264.558" y2="354.218" gradientUnits="userSpaceOnUse">
<stop offset="0.016" stop-color="#FFC2A9"/>
<stop offset="1" stop-color="#FF9595"/>
</linearGradient>
<linearGradient id="paint9_linear" x1="261.696" y1="344.694" x2="260.112" y2="330.124" gradientUnits="userSpaceOnUse">
<stop stop-color="#FF817F"/>
<stop offset="1" stop-color="#CF6074"/>
</linearGradient>
<linearGradient id="paint10_linear" x1="246.94" y1="353.518" x2="273.29" y2="353.518" gradientUnits="userSpaceOnUse">
<stop stop-color="#FF817F"/>
<stop offset="1" stop-color="#CF6074"/>
</linearGradient>
<linearGradient id="paint11_linear" x1="313.19" y1="416.739" x2="313.157" y2="416.576" gradientUnits="userSpaceOnUse">
<stop stop-color="#9D68C2"/>
<stop offset="1" stop-color="#CCEDFF"/>
</linearGradient>
<linearGradient id="paint12_linear" x1="201.369" y1="368.842" x2="231.757" y2="383.283" gradientUnits="userSpaceOnUse">
<stop offset="0.0005167" stop-color="#610057"/>
<stop offset="1" stop-color="#03002D"/>
</linearGradient>
<linearGradient id="paint13_linear" x1="260.731" y1="364.82" x2="259.123" y2="468.503" gradientUnits="userSpaceOnUse">
<stop stop-color="white"/>
<stop offset="1" stop-color="#00A0D7"/>
</linearGradient>
<linearGradient id="paint14_linear" x1="234.594" y1="315.722" x2="240.885" y2="309.675" gradientUnits="userSpaceOnUse">
<stop offset="0.016" stop-color="#FFAC8B"/>
<stop offset="1" stop-color="#FF9595"/>
</linearGradient>
<linearGradient id="paint15_linear" x1="235.024" y1="313.44" x2="240.61" y2="313.44" gradientUnits="userSpaceOnUse">
<stop stop-color="#FF817F"/>
<stop offset="1" stop-color="#CF6074"/>
</linearGradient>
<linearGradient id="paint16_linear" x1="240.206" y1="309.648" x2="236.917" y2="306.664" gradientUnits="userSpaceOnUse">
<stop stop-color="#FFA795"/>
<stop offset="0.984" stop-color="#FFC2A9"/>
</linearGradient>
<linearGradient id="paint17_linear" x1="285.971" y1="315.722" x2="279.68" y2="309.675" gradientUnits="userSpaceOnUse">
<stop offset="0.016" stop-color="#FFAC8B"/>
<stop offset="1" stop-color="#FF9595"/>
</linearGradient>
<linearGradient id="paint18_linear" x1="285.543" y1="313.44" x2="279.957" y2="313.44" gradientUnits="userSpaceOnUse">
<stop stop-color="#FF817F"/>
<stop offset="1" stop-color="#CF6074"/>
</linearGradient>
<linearGradient id="paint19_linear" x1="280.359" y1="309.648" x2="283.648" y2="306.664" gradientUnits="userSpaceOnUse">
<stop stop-color="#FFA795"/>
<stop offset="0.984" stop-color="#FFC2A9"/>
</linearGradient>
<linearGradient id="paint20_linear" x1="260.284" y1="336.756" x2="260.284" y2="286.962" gradientUnits="userSpaceOnUse">
<stop offset="0.016" stop-color="#FFC2A9"/>
<stop offset="1" stop-color="#FF9595"/>
</linearGradient>
<linearGradient id="paint21_linear" x1="252.701" y1="320.996" x2="252.616" y2="320.219" gradientUnits="userSpaceOnUse">
<stop offset="0.016" stop-color="#FFA58B"/>
<stop offset="1" stop-color="#FF9595"/>
</linearGradient>
<linearGradient id="paint22_linear" x1="268.972" y1="323.206" x2="269.126" y2="322.273" gradientUnits="userSpaceOnUse">
<stop offset="0.016" stop-color="#FFA58B"/>
<stop offset="1" stop-color="#FF9595"/>
</linearGradient>
<linearGradient id="paint23_linear" x1="260.408" y1="324.386" x2="259.731" y2="329.472" gradientUnits="userSpaceOnUse">
<stop stop-color="#E1616A"/>
<stop offset="1" stop-color="#FF8883"/>
</linearGradient>
<linearGradient id="paint24_linear" x1="260.406" y1="323.855" x2="260.771" y2="321.645" gradientUnits="userSpaceOnUse">
<stop stop-color="#E1616A"/>
<stop offset="1" stop-color="#FF8883"/>
</linearGradient>
<linearGradient id="paint25_linear" x1="238.814" y1="295.654" x2="281.657" y2="295.654" gradientUnits="userSpaceOnUse">
<stop stop-color="#CF6074"/>
<stop offset="1" stop-color="#FF817F"/>
</linearGradient>
<linearGradient id="paint26_linear" x1="271.545" y1="316.557" x2="268.56" y2="298.684" gradientUnits="userSpaceOnUse">
<stop stop-color="#FFA58B" stop-opacity="0.6"/>
<stop offset="1" stop-color="#FF9595"/>
</linearGradient>
<linearGradient id="paint27_linear" x1="270.894" y1="317.672" x2="270.588" y2="314.242" gradientUnits="userSpaceOnUse">
<stop offset="0.016" stop-color="#FFA58B"/>
<stop offset="1" stop-color="#FF9595"/>
</linearGradient>
<linearGradient id="paint28_linear" x1="274.531" y1="308.211" x2="264.841" y2="310.555" gradientUnits="userSpaceOnUse">
<stop stop-color="#CF6074"/>
<stop offset="1" stop-color="#FF817F"/>
</linearGradient>
<linearGradient id="paint29_linear" x1="272.852" y1="318.994" x2="267.987" y2="306.901" gradientUnits="userSpaceOnUse">
<stop stop-color="#0E1B6D"/>
<stop offset="1" stop-color="#002538"/>
</linearGradient>
<linearGradient id="paint30_linear" x1="269.288" y1="316.226" x2="268.724" y2="309.211" gradientUnits="userSpaceOnUse">
<stop stop-color="#8642A0"/>
<stop offset="1" stop-color="#6456C0"/>
</linearGradient>
<linearGradient id="paint31_linear" x1="271.085" y1="313.1" x2="266.988" y2="313.1" gradientUnits="userSpaceOnUse">
<stop stop-color="#0E1B6D"/>
<stop offset="1" stop-color="#002538"/>
</linearGradient>
<linearGradient id="paint32_linear" x1="249.658" y1="317.101" x2="252.238" y2="301.653" gradientUnits="userSpaceOnUse">
<stop stop-color="#FFA58B" stop-opacity="0.6"/>
<stop offset="1" stop-color="#FF9595"/>
</linearGradient>
<linearGradient id="paint33_linear" x1="249.675" y1="317.672" x2="249.982" y2="314.242" gradientUnits="userSpaceOnUse">
<stop offset="0.016" stop-color="#FFA58B"/>
<stop offset="1" stop-color="#FF9595"/>
</linearGradient>
<linearGradient id="paint34_linear" x1="246.038" y1="308.21" x2="255.729" y2="310.555" gradientUnits="userSpaceOnUse">
<stop stop-color="#CF6074"/>
<stop offset="1" stop-color="#FF817F"/>
</linearGradient>
<linearGradient id="paint35_linear" x1="247.716" y1="318.994" x2="252.581" y2="306.901" gradientUnits="userSpaceOnUse">
<stop stop-color="#0E1B6D"/>
<stop offset="1" stop-color="#002538"/>
</linearGradient>
<linearGradient id="paint36_linear" x1="251.783" y1="316.226" x2="251.219" y2="309.211" gradientUnits="userSpaceOnUse">
<stop stop-color="#8642A0"/>
<stop offset="1" stop-color="#6456C0"/>
</linearGradient>
<linearGradient id="paint37_linear" x1="253.58" y1="313.1" x2="249.483" y2="313.1" gradientUnits="userSpaceOnUse">
<stop stop-color="#0E1B6D"/>
<stop offset="1" stop-color="#002538"/>
</linearGradient>
<linearGradient id="paint38_linear" x1="263.499" y1="318.562" x2="257.043" y2="318.562" gradientUnits="userSpaceOnUse">
<stop stop-color="#E1616A"/>
<stop offset="1" stop-color="#FF8883"/>
</linearGradient>
<linearGradient id="paint39_linear" x1="272.68" y1="316.587" x2="272.744" y2="321.784" gradientUnits="userSpaceOnUse">
<stop offset="0.016" stop-color="#FFA58B"/>
<stop offset="1" stop-color="#FF9595"/>
</linearGradient>
<linearGradient id="paint40_linear" x1="247.818" y1="316.894" x2="247.882" y2="322.091" gradientUnits="userSpaceOnUse">
<stop offset="0.016" stop-color="#FFA58B"/>
<stop offset="1" stop-color="#FF9595"/>
</linearGradient>
<linearGradient id="paint41_linear" x1="283.779" y1="290.424" x2="278.667" y2="303.203" gradientUnits="userSpaceOnUse">
<stop offset="0.00202546" stop-color="#00A0D7"/>
<stop offset="0.9985" stop-color="#00A0D7"/>
</linearGradient>
<linearGradient id="paint42_linear" x1="283.779" y1="290.424" x2="278.667" y2="303.203" gradientUnits="userSpaceOnUse">
<stop offset="0.00202546" stop-color="#00A0D7"/>
<stop offset="0.9985" stop-color="#00A0D7"/>
</linearGradient>
<linearGradient id="paint43_linear" x1="271.078" y1="304.938" x2="256.079" y2="273.249" gradientUnits="userSpaceOnUse">
<stop offset="0.00202546" stop-color="#00A0D7"/>
<stop offset="0.9985" stop-color="white"/>
</linearGradient>
<linearGradient id="paint44_linear" x1="253.551" y1="313.234" x2="238.552" y2="281.545" gradientUnits="userSpaceOnUse">
<stop offset="0.00202546" stop-color="#00A0D7"/>
<stop offset="0.9985" stop-color="white"/>
</linearGradient>
<linearGradient id="paint45_linear" x1="246.471" y1="290.006" x2="287.423" y2="290.006" gradientUnits="userSpaceOnUse">
<stop stop-color="#CCEDFF"/>
<stop offset="1" stop-color="#00A0D7"/>
</linearGradient>
<linearGradient id="paint46_linear" x1="228.885" y1="304.988" x2="237.231" y2="289.764" gradientUnits="userSpaceOnUse">
<stop stop-color="#00A0D7"/>
<stop offset="1" stop-color="white"/>
</linearGradient>
<linearGradient id="paint47_linear" x1="286.377" y1="277.109" x2="251.079" y2="276.207" gradientUnits="userSpaceOnUse">
<stop stop-color="#00A0D7"/>
<stop offset="1" stop-color="white"/>
</linearGradient>
<linearGradient id="paint48_linear" x1="235.056" y1="293.192" x2="240.131" y2="306.95" gradientUnits="userSpaceOnUse">
<stop stop-color="#00A0D7" stop-opacity="0.27"/>
<stop offset="1" stop-color="#00A0D7"/>
</linearGradient>
<linearGradient id="paint49_linear" x1="311.765" y1="412.474" x2="312.359" y2="423.855" gradientUnits="userSpaceOnUse">
<stop offset="0.016" stop-color="#FFC2A9"/>
<stop offset="1" stop-color="#FF9595"/>
</linearGradient>
<linearGradient id="paint50_linear" x1="322.459" y1="418.372" x2="317.067" y2="429.52" gradientUnits="userSpaceOnUse">
<stop stop-color="#CF6074"/>
<stop offset="1" stop-color="#FF817F"/>
</linearGradient>
<linearGradient id="paint51_linear" x1="317.745" y1="402.628" x2="314.593" y2="409.145" gradientUnits="userSpaceOnUse">
<stop stop-color="#CF6074"/>
<stop offset="1" stop-color="#FF817F"/>
</linearGradient>
<linearGradient id="paint52_linear" x1="184.837" y1="403.744" x2="210.415" y2="403.744" gradientUnits="userSpaceOnUse">
<stop offset="0.016" stop-color="#FFC2A9"/>
<stop offset="1" stop-color="#FF9595"/>
</linearGradient>
<linearGradient id="paint53_linear" x1="193.385" y1="409.153" x2="188.993" y2="404.951" gradientUnits="userSpaceOnUse">
<stop offset="0.016" stop-color="#FFA58B"/>
<stop offset="1" stop-color="#FF9595"/>
</linearGradient>
<linearGradient id="paint54_linear" x1="182.302" y1="416.558" x2="218.008" y2="416.558" gradientUnits="userSpaceOnUse">
<stop offset="0.016" stop-color="#FFC2A9"/>
<stop offset="1" stop-color="#FF9595"/>
</linearGradient>
<linearGradient id="paint55_linear" x1="200.554" y1="426.509" x2="201.156" y2="415.188" gradientUnits="userSpaceOnUse">
<stop offset="0.016" stop-color="#FFA58B"/>
<stop offset="1" stop-color="#FF9595"/>
</linearGradient>
<linearGradient id="paint56_linear" x1="196.506" y1="424.373" x2="207.225" y2="407.149" gradientUnits="userSpaceOnUse">
<stop offset="0.016" stop-color="#FFA58B"/>
<stop offset="1" stop-color="#FF9595"/>
</linearGradient>
<linearGradient id="paint57_linear" x1="205.43" y1="417.337" x2="204.674" y2="431.134" gradientUnits="userSpaceOnUse">
<stop stop-color="#FF817F"/>
<stop offset="1" stop-color="#CF6074"/>
</linearGradient>
<linearGradient id="paint58_linear" x1="187.752" y1="421.752" x2="192.999" y2="422.859" gradientUnits="userSpaceOnUse">
<stop offset="0.016" stop-color="#FFA58B"/>
<stop offset="1" stop-color="#FF9595"/>
</linearGradient>
<linearGradient id="paint59_linear" x1="196.492" y1="413.023" x2="197.683" y2="413.274" gradientUnits="userSpaceOnUse">
<stop offset="0.016" stop-color="#FFA58B"/>
<stop offset="1" stop-color="#FF9595"/>
</linearGradient>
<linearGradient id="paint60_linear" x1="196.155" y1="405.883" x2="196.892" y2="406.039" gradientUnits="userSpaceOnUse">
<stop offset="0.016" stop-color="#FFA58B"/>
<stop offset="1" stop-color="#FF9595"/>
</linearGradient>
<linearGradient id="paint61_linear" x1="196.506" y1="421.545" x2="198.618" y2="421.991" gradientUnits="userSpaceOnUse">
<stop offset="0.016" stop-color="#FFA58B"/>
<stop offset="1" stop-color="#FF9595"/>
</linearGradient>
<linearGradient id="paint62_linear" x1="338.069" y1="403.744" x2="312.491" y2="403.744" gradientUnits="userSpaceOnUse">
<stop offset="0.016" stop-color="#FFC2A9"/>
<stop offset="1" stop-color="#FF9595"/>
</linearGradient>
<linearGradient id="paint63_linear" x1="329.522" y1="409.153" x2="333.914" y2="404.951" gradientUnits="userSpaceOnUse">
<stop offset="0.016" stop-color="#FFA58B"/>
<stop offset="1" stop-color="#FF9595"/>
</linearGradient>
<linearGradient id="paint64_linear" x1="340.604" y1="416.558" x2="304.898" y2="416.558" gradientUnits="userSpaceOnUse">
<stop offset="0.016" stop-color="#FFC2A9"/>
<stop offset="1" stop-color="#FF9595"/>
</linearGradient>
<linearGradient id="paint65_linear" x1="322.353" y1="426.509" x2="321.751" y2="415.188" gradientUnits="userSpaceOnUse">
<stop offset="0.016" stop-color="#FFA58B"/>
<stop offset="1" stop-color="#FF9595"/>
</linearGradient>
<linearGradient id="paint66_linear" x1="326.402" y1="424.373" x2="315.682" y2="407.149" gradientUnits="userSpaceOnUse">
<stop offset="0.016" stop-color="#FFA58B"/>
<stop offset="1" stop-color="#FF9595"/>
</linearGradient>
<linearGradient id="paint67_linear" x1="317.763" y1="423.309" x2="317.007" y2="437.106" gradientUnits="userSpaceOnUse">
<stop stop-color="#FF817F"/>
<stop offset="1" stop-color="#CF6074"/>
</linearGradient>
<linearGradient id="paint68_linear" x1="335.154" y1="421.752" x2="329.907" y2="422.859" gradientUnits="userSpaceOnUse">
<stop offset="0.016" stop-color="#FFA58B"/>
<stop offset="1" stop-color="#FF9595"/>
</linearGradient>
<linearGradient id="paint69_linear" x1="326.413" y1="413.023" x2="325.222" y2="413.274" gradientUnits="userSpaceOnUse">
<stop offset="0.016" stop-color="#FFA58B"/>
<stop offset="1" stop-color="#FF9595"/>
</linearGradient>
<linearGradient id="paint70_linear" x1="326.751" y1="405.884" x2="326.014" y2="406.039" gradientUnits="userSpaceOnUse">
<stop offset="0.016" stop-color="#FFA58B"/>
<stop offset="1" stop-color="#FF9595"/>
</linearGradient>
<linearGradient id="paint71_linear" x1="326.4" y1="421.545" x2="324.288" y2="421.991" gradientUnits="userSpaceOnUse">
<stop offset="0.016" stop-color="#FFA58B"/>
<stop offset="1" stop-color="#FF9595"/>
</linearGradient>
</defs>
</svg>
