<svg width="372" height="473" viewBox="0 0 372 473" fill="none" xmlns="http://www.w3.org/2000/svg">
<rect width="372" height="472.881" rx="32" fill="#00A0D7"/>
<mask id="mask0" style="mask-type:alpha" maskUnits="userSpaceOnUse" x="0" y="0" width="372" height="473">
<rect width="372" height="472.881" rx="32" fill="#5543A5"/>
</mask>
<g mask="url(#mask0)">
<circle opacity="0.5" cx="280.577" cy="412.983" r="193.881" fill="white"/>
</g>
<rect x="43" y="120" width="95" height="40" rx="10" fill="#FFEA22"/>
<path d="M79.45 141.382C79.45 141.838 79.372 142.294 79.216 142.75C79.06 143.194 78.796 143.596 78.424 143.956C78.064 144.304 77.578 144.592 76.966 144.82C76.366 145.036 75.616 145.144 74.716 145.144C74.032 145.144 73.438 145.114 72.934 145.054C72.43 144.994 71.962 144.916 71.53 144.82C71.434 144.796 71.35 144.754 71.278 144.694C71.218 144.634 71.188 144.556 71.188 144.46V143.164C71.188 143.068 71.218 142.99 71.278 142.93C71.35 142.858 71.434 142.822 71.53 142.822H71.566C71.746 142.846 71.98 142.87 72.268 142.894C72.568 142.906 72.874 142.924 73.186 142.948C73.498 142.96 73.792 142.972 74.068 142.984C74.356 142.996 74.584 143.002 74.752 143.002C75.556 143.002 76.102 142.864 76.39 142.588C76.69 142.312 76.84 141.91 76.84 141.382C76.84 141.202 76.816 141.046 76.768 140.914C76.72 140.77 76.636 140.632 76.516 140.5C76.396 140.368 76.24 140.236 76.048 140.104C75.856 139.96 75.61 139.798 75.31 139.618L72.934 138.196C72.514 137.944 72.166 137.692 71.89 137.44C71.626 137.188 71.41 136.93 71.242 136.666C71.086 136.39 70.972 136.108 70.9 135.82C70.84 135.52 70.81 135.214 70.81 134.902C70.81 134.41 70.888 133.954 71.044 133.534C71.2 133.114 71.452 132.754 71.8 132.454C72.16 132.142 72.622 131.902 73.186 131.734C73.762 131.566 74.47 131.482 75.31 131.482C75.61 131.482 75.928 131.494 76.264 131.518C76.6 131.53 76.93 131.554 77.254 131.59C77.578 131.626 77.872 131.662 78.136 131.698C78.4 131.734 78.61 131.77 78.766 131.806C78.862 131.83 78.94 131.872 79 131.932C79.06 131.98 79.09 132.052 79.09 132.148V133.48C79.09 133.576 79.06 133.654 79 133.714C78.952 133.774 78.88 133.804 78.784 133.804H78.748C78.148 133.744 77.554 133.702 76.966 133.678C76.378 133.642 75.79 133.624 75.202 133.624C74.53 133.624 74.044 133.738 73.744 133.966C73.456 134.182 73.312 134.494 73.312 134.902C73.312 135.046 73.33 135.184 73.366 135.316C73.414 135.436 73.492 135.562 73.6 135.694C73.72 135.814 73.876 135.94 74.068 136.072C74.26 136.204 74.5 136.348 74.788 136.504L76.948 137.71C77.44 137.986 77.848 138.268 78.172 138.556C78.496 138.832 78.748 139.12 78.928 139.42C79.12 139.72 79.252 140.032 79.324 140.356C79.408 140.68 79.45 141.022 79.45 141.382ZM86.4728 144.694C86.4728 144.874 86.3588 144.982 86.1308 145.018C85.9148 145.054 85.7048 145.084 85.5008 145.108C85.3088 145.132 85.1108 145.144 84.9068 145.144C84.4028 145.144 83.9648 145.108 83.5928 145.036C83.2328 144.964 82.9388 144.826 82.7108 144.622C82.4828 144.418 82.3148 144.13 82.2068 143.758C82.0988 143.374 82.0448 142.882 82.0448 142.282V136.63L80.3528 136.378C80.2568 136.354 80.1728 136.312 80.1008 136.252C80.0288 136.192 79.9928 136.114 79.9928 136.018V135.208C79.9928 135.112 80.0288 135.028 80.1008 134.956C80.1728 134.884 80.2568 134.848 80.3528 134.848H82.0448V133.372C82.0448 133.276 82.0808 133.198 82.1528 133.138C82.2248 133.078 82.3088 133.036 82.4048 133.012L84.0788 132.724H84.1508C84.3428 132.724 84.4388 132.814 84.4388 132.994V134.848H86.0588C86.1548 134.848 86.2388 134.884 86.3108 134.956C86.3828 135.028 86.4188 135.112 86.4188 135.208V136.27C86.4188 136.366 86.3828 136.45 86.3108 136.522C86.2388 136.594 86.1548 136.63 86.0588 136.63H84.4388V142.282C84.4388 142.51 84.4448 142.69 84.4568 142.822C84.4688 142.954 84.4988 143.056 84.5468 143.128C84.5948 143.2 84.6608 143.248 84.7448 143.272C84.8408 143.284 84.9728 143.29 85.1408 143.29H86.0948C86.3468 143.29 86.4728 143.38 86.4728 143.56V144.694ZM95.6217 144.64C95.6217 144.736 95.5857 144.82 95.5137 144.892C95.4417 144.964 95.3577 145 95.2617 145H93.7317C93.6357 145 93.5517 144.964 93.4797 144.892C93.4077 144.82 93.3717 144.736 93.3717 144.64V144.352C92.9517 144.604 92.5317 144.802 92.1117 144.946C91.6917 145.078 91.2657 145.144 90.8337 145.144C90.4617 145.144 90.0897 145.102 89.7177 145.018C89.3457 144.934 89.0097 144.778 88.7097 144.55C88.4217 144.322 88.1817 144.016 87.9897 143.632C87.8097 143.248 87.7197 142.75 87.7197 142.138V142.066C87.7197 141.55 87.7977 141.1 87.9537 140.716C88.1217 140.332 88.3797 140.008 88.7277 139.744C89.0877 139.48 89.5437 139.282 90.0957 139.15C90.6597 139.018 91.3317 138.952 92.1117 138.952H93.2457V138.16C93.2457 137.572 93.1137 137.182 92.8497 136.99C92.5977 136.798 92.2017 136.702 91.6617 136.702C91.0857 136.702 90.5277 136.72 89.9877 136.756C89.4477 136.78 89.0277 136.81 88.7277 136.846H88.6377C88.5417 136.846 88.4637 136.828 88.4037 136.792C88.3437 136.756 88.3137 136.672 88.3137 136.54V135.388C88.3137 135.184 88.4277 135.058 88.6557 135.01C89.0157 134.938 89.4477 134.872 89.9517 134.812C90.4677 134.752 91.0377 134.722 91.6617 134.722C92.9457 134.722 93.9237 135.004 94.5957 135.568C95.2797 136.132 95.6217 136.996 95.6217 138.16V144.64ZM93.2457 140.536H92.1117C91.7037 140.536 91.3677 140.572 91.1037 140.644C90.8517 140.704 90.6477 140.8 90.4917 140.932C90.3477 141.052 90.2457 141.208 90.1857 141.4C90.1377 141.592 90.1137 141.814 90.1137 142.066V142.138C90.1137 142.582 90.2157 142.882 90.4197 143.038C90.6237 143.182 90.9537 143.254 91.4097 143.254C91.7337 143.254 92.0517 143.206 92.3637 143.11C92.6877 143.014 92.9817 142.894 93.2457 142.75V140.536ZM103.179 136.378C103.179 136.474 103.143 136.558 103.071 136.63C102.999 136.702 102.915 136.738 102.819 136.738C102.327 136.738 101.883 136.798 101.487 136.918C101.103 137.026 100.719 137.182 100.335 137.386V144.622C100.335 144.718 100.299 144.808 100.227 144.892C100.155 144.964 100.071 145 99.9751 145H98.3191C98.2231 145 98.1391 144.964 98.0671 144.892C97.9951 144.808 97.9591 144.718 97.9591 144.622V135.208C97.9591 135.112 97.9951 135.028 98.0671 134.956C98.1391 134.884 98.2231 134.848 98.3191 134.848H99.8851C99.9811 134.848 100.065 134.884 100.137 134.956C100.209 135.028 100.245 135.112 100.245 135.208V135.586C100.689 135.238 101.139 135.01 101.595 134.902C102.051 134.782 102.459 134.722 102.819 134.722C102.915 134.722 102.999 134.758 103.071 134.83C103.143 134.902 103.179 134.986 103.179 135.082V136.378ZM110.379 144.694C110.379 144.874 110.265 144.982 110.037 145.018C109.821 145.054 109.611 145.084 109.407 145.108C109.215 145.132 109.017 145.144 108.813 145.144C108.309 145.144 107.871 145.108 107.499 145.036C107.139 144.964 106.845 144.826 106.617 144.622C106.389 144.418 106.221 144.13 106.113 143.758C106.005 143.374 105.951 142.882 105.951 142.282V136.63L104.259 136.378C104.163 136.354 104.079 136.312 104.007 136.252C103.935 136.192 103.899 136.114 103.899 136.018V135.208C103.899 135.112 103.935 135.028 104.007 134.956C104.079 134.884 104.163 134.848 104.259 134.848H105.951V133.372C105.951 133.276 105.987 133.198 106.059 133.138C106.131 133.078 106.215 133.036 106.311 133.012L107.985 132.724H108.057C108.249 132.724 108.345 132.814 108.345 132.994V134.848H109.965C110.061 134.848 110.145 134.884 110.217 134.956C110.289 135.028 110.325 135.112 110.325 135.208V136.27C110.325 136.366 110.289 136.45 110.217 136.522C110.145 136.594 110.061 136.63 109.965 136.63H108.345V142.282C108.345 142.51 108.351 142.69 108.363 142.822C108.375 142.954 108.405 143.056 108.453 143.128C108.501 143.2 108.567 143.248 108.651 143.272C108.747 143.284 108.879 143.29 109.047 143.29H110.001C110.253 143.29 110.379 143.38 110.379 143.56V144.694Z" fill="#00A0D7"/>
<path d="M66.22 76.6493C66.22 78.3773 66.028 79.9013 65.644 81.2213C65.26 82.5173 64.72 83.6213 64.024 84.5333C63.352 85.4453 62.536 86.1773 61.576 86.7293C60.64 87.2813 59.608 87.6773 58.48 87.9173V88.6373C58.48 89.0213 58.564 89.2613 58.732 89.3573C58.9 89.4773 59.116 89.5373 59.38 89.5373H62.62C62.884 89.5373 63.088 89.5853 63.232 89.6813C63.4 89.7773 63.484 89.9213 63.484 90.1133V93.0653C63.484 93.4493 63.208 93.7133 62.656 93.8573C62.152 93.9773 61.528 94.0853 60.784 94.1813C60.064 94.2773 59.356 94.3253 58.66 94.3253C57.82 94.3253 57.04 94.2293 56.32 94.0373C55.6 93.8453 54.964 93.5213 54.412 93.0653C53.884 92.6333 53.464 92.0573 53.152 91.3373C52.84 90.6173 52.684 89.7293 52.684 88.6733V87.9173C51.556 87.6773 50.512 87.2813 49.552 86.7293C48.616 86.1773 47.8 85.4453 47.104 84.5333C46.408 83.6213 45.868 82.5173 45.484 81.2213C45.1 79.9013 44.908 78.3773 44.908 76.6493V72.3653C44.908 70.2773 45.184 68.5013 45.736 67.0373C46.288 65.5733 47.044 64.3853 48.004 63.4733C48.964 62.5373 50.092 61.8653 51.388 61.4573C52.684 61.0253 54.076 60.8093 55.564 60.8093C57.052 60.8093 58.444 61.0253 59.74 61.4573C61.036 61.8653 62.164 62.5373 63.124 63.4733C64.084 64.3853 64.84 65.5733 65.392 67.0373C65.944 68.5013 66.22 70.2773 66.22 72.3653V76.6493ZM60.028 72.3653C60.028 70.1813 59.656 68.6093 58.912 67.6493C58.192 66.6893 57.076 66.2093 55.564 66.2093C54.052 66.2093 52.936 66.6893 52.216 67.6493C51.496 68.6093 51.136 70.1813 51.136 72.3653V76.6493C51.136 78.8333 51.496 80.4053 52.216 81.3653C52.936 82.3253 54.052 82.8053 55.564 82.8053C57.076 82.8053 58.192 82.3253 58.912 81.3653C59.656 80.4053 60.028 78.8333 60.028 76.6493V72.3653ZM88.0087 87.1613C88.0087 87.3533 87.9367 87.5213 87.7927 87.6653C87.6487 87.8093 87.4807 87.8813 87.2887 87.8813H83.2567C83.0647 87.8813 82.8967 87.8093 82.7527 87.6653C82.6087 87.5213 82.5367 87.3533 82.5367 87.1613V86.2973C81.5527 86.9933 80.6167 87.4853 79.7287 87.7733C78.8407 88.0373 77.8207 88.1693 76.6687 88.1693C75.3727 88.1693 74.3047 87.9653 73.4647 87.5573C72.6487 87.1253 72.0007 86.5373 71.5207 85.7933C71.0647 85.0493 70.7407 84.1853 70.5487 83.2013C70.3807 82.1933 70.2967 81.1253 70.2967 79.9973V68.0093C70.2967 67.8173 70.3687 67.6493 70.5127 67.5053C70.6807 67.3373 70.8607 67.2533 71.0527 67.2533H75.4087C75.6007 67.2533 75.7687 67.3373 75.9127 67.5053C76.0567 67.6493 76.1287 67.8173 76.1287 68.0093V79.9973C76.1287 80.6213 76.1647 81.1493 76.2367 81.5813C76.3087 82.0133 76.4407 82.3613 76.6327 82.6253C76.8247 82.8893 77.0887 83.0813 77.4247 83.2013C77.7847 83.2973 78.2407 83.3453 78.7927 83.3453C79.3207 83.3453 79.8607 83.2373 80.4127 83.0213C80.9647 82.8053 81.5527 82.5293 82.1767 82.1933V68.0093C82.1767 67.8173 82.2487 67.6493 82.3927 67.5053C82.5367 67.3373 82.7047 67.2533 82.8967 67.2533H87.2527C87.4447 67.2533 87.6127 67.3373 87.7567 67.5053C87.9247 67.6493 88.0087 67.8173 88.0087 68.0093V87.1613ZM98.4597 64.1933C98.4597 64.3853 98.3877 64.5533 98.2437 64.6973C98.0997 64.8413 97.9317 64.9133 97.7397 64.9133H93.0597C92.8677 64.9133 92.6997 64.8413 92.5557 64.6973C92.4117 64.5533 92.3397 64.3853 92.3397 64.1933V60.8453C92.3397 60.6533 92.4117 60.4853 92.5557 60.3413C92.6997 60.1973 92.8677 60.1253 93.0597 60.1253H97.7397C97.9317 60.1253 98.0997 60.1973 98.2437 60.3413C98.3877 60.4853 98.4597 60.6533 98.4597 60.8453V64.1933ZM98.3157 87.1613C98.3157 87.3533 98.2437 87.5213 98.0997 87.6653C97.9557 87.8093 97.7877 87.8813 97.5957 87.8813H93.2037C93.0117 87.8813 92.8437 87.8093 92.6997 87.6653C92.5557 87.5213 92.4837 87.3533 92.4837 87.1613V67.9733C92.4837 67.7813 92.5557 67.6133 92.6997 67.4693C92.8437 67.3253 93.0117 67.2533 93.2037 67.2533H97.5957C97.7877 67.2533 97.9557 67.3253 98.0997 67.4693C98.2437 67.6133 98.3157 67.7813 98.3157 67.9733V87.1613ZM117.613 87.1613C117.613 87.3533 117.541 87.5213 117.397 87.6653C117.253 87.8093 117.085 87.8813 116.893 87.8813H103.393C103.057 87.8813 102.769 87.7733 102.529 87.5573C102.289 87.3173 102.169 87.0293 102.169 86.6933V84.3893C102.169 84.1253 102.205 83.8973 102.277 83.7053C102.349 83.5133 102.481 83.2853 102.673 83.0213L110.485 72.3653C110.557 72.2693 110.593 72.1853 110.593 72.1133C110.593 71.9933 110.509 71.9333 110.341 71.9333H103.105C102.697 71.9333 102.493 71.7413 102.493 71.3573V67.9733C102.493 67.7813 102.565 67.6133 102.709 67.4693C102.853 67.3253 103.021 67.2533 103.213 67.2533H116.353C116.689 67.2533 116.965 67.3733 117.181 67.6133C117.421 67.8533 117.541 68.1413 117.541 68.4773V71.1413C117.541 71.3333 117.517 71.5373 117.469 71.7533C117.421 71.9453 117.313 72.1613 117.145 72.4013L109.693 82.5893C109.621 82.7093 109.585 82.7933 109.585 82.8413C109.585 82.9373 109.669 82.9853 109.837 82.9853H116.965C117.157 82.9853 117.313 83.0333 117.433 83.1293C117.553 83.2253 117.613 83.3693 117.613 83.5613V87.1613ZM152.224 86.5133C152.224 86.8973 152.08 87.2213 151.792 87.4853C151.528 87.7493 151.204 87.8813 150.82 87.8813H147.292C146.908 87.8813 146.572 87.8213 146.284 87.7013C145.996 87.5573 145.708 87.2453 145.42 86.7653L137.212 72.5813C137.092 72.3893 136.984 72.2933 136.888 72.2933C136.768 72.2933 136.708 72.3893 136.708 72.5813V87.1613C136.708 87.3533 136.636 87.5213 136.492 87.6653C136.348 87.8093 136.18 87.8813 135.988 87.8813H131.74C131.548 87.8813 131.38 87.8093 131.236 87.6653C131.092 87.5213 131.02 87.3533 131.02 87.1613V62.5013C131.02 62.1173 131.152 61.7933 131.416 61.5293C131.68 61.2653 132.004 61.1333 132.388 61.1333H136.024C136.384 61.1333 136.672 61.2293 136.888 61.4213C137.104 61.5893 137.32 61.8653 137.536 62.2493L146.068 77.0813C146.188 77.2733 146.284 77.3693 146.356 77.3693C146.476 77.3693 146.536 77.2613 146.536 77.0453V61.8173C146.536 61.6253 146.608 61.4693 146.752 61.3493C146.896 61.2053 147.064 61.1333 147.256 61.1333H151.504C151.696 61.1333 151.864 61.2053 152.008 61.3493C152.152 61.4693 152.224 61.6253 152.224 61.8173V86.5133ZM163.007 64.1933C163.007 64.3853 162.935 64.5533 162.791 64.6973C162.647 64.8413 162.479 64.9133 162.287 64.9133H157.607C157.415 64.9133 157.247 64.8413 157.103 64.6973C156.959 64.5533 156.887 64.3853 156.887 64.1933V60.8453C156.887 60.6533 156.959 60.4853 157.103 60.3413C157.247 60.1973 157.415 60.1253 157.607 60.1253H162.287C162.479 60.1253 162.647 60.1973 162.791 60.3413C162.935 60.4853 163.007 60.6533 163.007 60.8453V64.1933ZM162.863 87.1613C162.863 87.3533 162.791 87.5213 162.647 87.6653C162.503 87.8093 162.335 87.8813 162.143 87.8813H157.751C157.559 87.8813 157.391 87.8093 157.247 87.6653C157.103 87.5213 157.031 87.3533 157.031 87.1613V67.9733C157.031 67.7813 157.103 67.6133 157.247 67.4693C157.391 67.3253 157.559 67.2533 157.751 67.2533H162.143C162.335 67.2533 162.503 67.3253 162.647 67.4693C162.791 67.6133 162.863 67.7813 162.863 67.9733V87.1613ZM185.94 70.2413C185.94 70.5053 185.88 70.6853 185.76 70.7813C185.664 70.8773 185.508 70.9613 185.292 71.0333L184.176 71.3933C184.392 71.7293 184.572 72.1493 184.716 72.6533C184.884 73.1573 184.968 73.6253 184.968 74.0573V74.3453C184.968 76.6973 184.188 78.4133 182.628 79.4933C181.092 80.5493 178.908 81.0773 176.076 81.0773C175.236 81.0773 174.492 81.0293 173.844 80.9333C173.196 80.8133 172.692 80.6813 172.332 80.5373C172.14 80.6573 172.008 80.7893 171.936 80.9333C171.864 81.0533 171.828 81.1973 171.828 81.3653C171.828 81.6533 171.9 81.8693 172.044 82.0133C172.188 82.1573 172.476 82.2773 172.908 82.3733L176.976 83.2733C178.536 83.6093 179.856 83.9453 180.936 84.2813C182.016 84.5933 182.88 84.9653 183.528 85.3973C184.2 85.8053 184.68 86.3093 184.968 86.9093C185.256 87.4853 185.4 88.2053 185.4 89.0693V89.3573C185.4 93.2693 182.256 95.2253 175.968 95.2253C172.968 95.2253 170.688 94.7213 169.128 93.7133C167.592 92.7053 166.824 91.2533 166.824 89.3573V89.0693C166.824 88.3253 166.992 87.6173 167.328 86.9453C167.664 86.2733 168.216 85.6373 168.984 85.0373C168.336 84.6773 167.868 84.1853 167.58 83.5613C167.292 82.9133 167.148 82.2893 167.148 81.6893C167.148 81.0173 167.292 80.4293 167.58 79.9253C167.892 79.4213 168.276 78.9893 168.732 78.6293C168.156 78.1253 167.736 77.4653 167.472 76.6493C167.208 75.8333 167.076 75.0653 167.076 74.3453V74.0573C167.076 72.0173 167.784 70.3733 169.2 69.1253C170.64 67.8773 172.932 67.2533 176.076 67.2533H185.04C185.304 67.2533 185.52 67.3493 185.688 67.5413C185.856 67.7093 185.94 67.9253 185.94 68.1893V70.2413ZM179.28 74.0573C179.28 73.3133 179.064 72.7013 178.632 72.2213C178.2 71.7173 177.348 71.4653 176.076 71.4653C174.804 71.4653 173.94 71.7173 173.484 72.2213C173.028 72.7013 172.8 73.3133 172.8 74.0573V74.3453C172.8 74.6573 172.836 74.9693 172.908 75.2813C173.004 75.5693 173.172 75.8333 173.412 76.0733C173.652 76.3133 173.976 76.5053 174.384 76.6493C174.816 76.7933 175.38 76.8653 176.076 76.8653C177.348 76.8653 178.2 76.6373 178.632 76.1813C179.064 75.7253 179.28 75.1133 179.28 74.3453V74.0573ZM179.46 89.0693C179.46 88.9013 179.412 88.7333 179.316 88.5653C179.244 88.4213 179.076 88.2773 178.812 88.1333C178.548 87.9893 178.176 87.8453 177.696 87.7013C177.216 87.5573 176.568 87.3893 175.752 87.1973L173.088 86.6213C172.872 86.9333 172.692 87.2693 172.548 87.6293C172.428 87.9653 172.368 88.4453 172.368 89.0693V89.3573C172.368 89.9813 172.62 90.4373 173.124 90.7253C173.628 91.0373 174.576 91.1933 175.968 91.1933C176.712 91.1933 177.312 91.1453 177.768 91.0493C178.224 90.9773 178.572 90.8573 178.812 90.6893C179.076 90.5213 179.244 90.3173 179.316 90.0773C179.412 89.8613 179.46 89.6213 179.46 89.3573V89.0693ZM206.591 87.1253C206.591 87.3173 206.507 87.4973 206.339 87.6653C206.195 87.8093 206.027 87.8813 205.835 87.8813H201.479C201.287 87.8813 201.119 87.8093 200.975 87.6653C200.831 87.4973 200.759 87.3173 200.759 87.1253V75.1373C200.759 74.5133 200.723 73.9853 200.651 73.5533C200.579 73.1213 200.447 72.7733 200.255 72.5093C200.063 72.2453 199.787 72.0653 199.427 71.9693C199.091 71.8493 198.647 71.7893 198.095 71.7893C197.567 71.7893 197.027 71.8973 196.475 72.1133C195.923 72.3293 195.335 72.6053 194.711 72.9413V87.1253C194.711 87.3173 194.639 87.4973 194.495 87.6653C194.351 87.8093 194.183 87.8813 193.991 87.8813H189.635C189.443 87.8813 189.263 87.8093 189.095 87.6653C188.951 87.4973 188.879 87.3173 188.879 87.1253V60.9893C188.879 60.7973 188.951 60.6293 189.095 60.4853C189.239 60.3413 189.407 60.2693 189.599 60.2693H193.991C194.183 60.2693 194.351 60.3413 194.495 60.4853C194.639 60.6293 194.711 60.7973 194.711 60.9893V68.5853C195.623 67.9853 196.499 67.5653 197.339 67.3253C198.179 67.0853 199.139 66.9653 200.219 66.9653C201.515 66.9653 202.571 67.1813 203.387 67.6133C204.227 68.0453 204.875 68.6333 205.331 69.3773C205.811 70.0973 206.135 70.9613 206.303 71.9693C206.495 72.9533 206.591 74.0093 206.591 75.1373V87.1253ZM222.345 87.1973C222.345 87.6053 222.117 87.8453 221.661 87.9173C221.109 88.0133 220.629 88.0853 220.221 88.1333C219.813 88.1813 219.345 88.2053 218.817 88.2053C217.833 88.2053 216.957 88.1213 216.189 87.9533C215.445 87.8093 214.821 87.5093 214.317 87.0533C213.813 86.5973 213.429 85.9733 213.165 85.1813C212.901 84.3653 212.769 83.3213 212.769 82.0493V71.6093L209.889 71.1413C209.697 71.0933 209.517 71.0093 209.349 70.8893C209.205 70.7453 209.133 70.5773 209.133 70.3853V68.0093C209.133 67.8173 209.205 67.6493 209.349 67.5053C209.517 67.3373 209.697 67.2533 209.889 67.2533H212.769V64.3013C212.769 64.1093 212.841 63.9533 212.985 63.8333C213.129 63.7133 213.297 63.6293 213.489 63.5813L217.881 62.8253H217.989C218.181 62.8253 218.337 62.8853 218.457 63.0053C218.577 63.1013 218.637 63.2453 218.637 63.4373V67.2533H221.589C221.781 67.2533 221.949 67.3253 222.093 67.4693C222.237 67.6133 222.309 67.7813 222.309 67.9733V70.8893C222.309 71.0813 222.237 71.2493 222.093 71.3933C221.949 71.5373 221.781 71.6093 221.589 71.6093H218.637V82.0853C218.637 82.8053 218.697 83.2733 218.817 83.4893C218.937 83.6813 219.273 83.7773 219.825 83.7773H221.589C222.093 83.7773 222.345 83.9813 222.345 84.3893V87.1973Z" fill="white"/>
<path d="M355.331 364.579H353.379C352.29 364.579 351.408 363.697 351.408 362.605V355.452H357.306V362.605C357.302 363.697 356.42 364.579 355.331 364.579Z" fill="black"/>
<path d="M360.616 353.465C361.534 351.97 361.243 349.414 359.613 347.744C358.041 346.137 355.6 345.748 353.607 346.791L353.28 346.961C351.982 347.637 351.037 348.841 350.687 350.264L349.734 354.879L347.691 355.546L348.274 361.267L350.208 359.552L353.285 356.907L355.229 357.892C356.429 358.576 357.956 358.174 358.663 356.987L358.677 356.97L359.264 355.98L360.616 353.465Z" fill="#FFB573"/>
<path d="M361.315 351.943L361.526 351.911C362.22 348.98 360.509 346.016 357.62 345.157C354.356 344.186 350.97 346.276 350.392 349.633C350.2 350.748 349.967 352.22 349.967 353.742L353.796 350.466L354.118 350.645C356.308 351.867 358.838 352.323 361.315 351.943Z" fill="black"/>
<path d="M356.907 355.747C356.593 356.276 355.908 356.45 355.379 356.137C354.851 355.824 354.676 355.139 354.99 354.611" fill="white"/>
<path d="M354.834 368.867L354.189 361.835C354.091 361.275 353.827 360.761 353.441 360.349L351.583 358.37L350.208 359.552L347.691 355.546L342.783 353.738C342.783 353.738 334.583 365.04 333.535 371.705L333.262 373.433L344.574 375.492L348.479 368.988L350.495 367.197L351.274 372.076C351.493 373.451 352.698 374.444 354.086 374.408C355.125 374.382 356.057 373.777 356.509 372.842L361.252 362.994L358.551 361.768L354.834 368.867Z" fill="#F45197"/>
<path d="M329.285 406.498L336.813 382.622C336.813 382.622 343.49 378.423 344.381 376.024L344.578 375.492L333.266 373.433L331.748 376.118C330.561 377.819 329.889 379.824 329.822 381.897L329.571 389.569L328.429 392.474C327.44 394.994 326.432 400.021 326.289 402.724L326.047 406.498H329.285Z" fill="#00A0D7"/>
<path d="M342.316 405.137L342.482 406.498H346.016L347.552 392.393C347.677 391.512 347.579 390.612 347.265 389.775L344.583 375.492L339.625 374.587L336.812 382.618L342.76 391.879C342.76 391.883 341.712 400.518 342.316 405.137Z" fill="#00A0D7"/>
<path d="M354.077 352.091C353.719 352.695 352.935 352.896 352.33 352.538C351.726 352.18 351.524 351.397 351.883 350.792C352.241 350.188 353.025 349.987 353.629 350.345C354.238 350.703 354.435 351.482 354.077 352.091Z" fill="#FFB573"/>
<path d="M340.879 361.056L338.98 371.459L346.558 380.988L348.931 379.422L344.731 369.901L344.668 358.545L340.879 361.056Z" fill="#F45197"/>
<path d="M361.256 362.999C361.789 362.721 362.246 362.314 362.586 361.813L363.061 361.105C363.298 360.586 363.173 359.977 362.752 359.592L361.467 358.415L362.434 356.544C362.577 356.271 362.443 355.931 362.148 355.828C361.942 355.756 361.713 355.824 361.579 355.994L359.967 358.057L359.814 358.223C359.51 358.554 359.259 358.926 359.062 359.328C358.816 359.834 358.668 360.38 358.619 360.94L358.547 361.768L361.256 362.999Z" fill="#FFB573"/>
<path d="M352.014 383.584C352.269 383.437 352.363 383.11 352.215 382.855L351.056 380.814L349.734 380.662L351.284 383.383C351.427 383.638 351.754 383.728 352.014 383.584Z" fill="#FFB573"/>
<path d="M351.297 384.56C351.552 384.417 351.642 384.09 351.499 383.835L349.734 380.662L348.803 381.19L350.563 384.354C350.706 384.614 351.037 384.708 351.297 384.56Z" fill="#FFB573"/>
<path d="M350.151 384.641C350.406 384.493 350.5 384.166 350.352 383.911L348.803 381.19L347.871 381.718L349.421 384.439C349.564 384.699 349.891 384.789 350.151 384.641Z" fill="#FFB573"/>
<path d="M348.485 383.884C348.74 383.737 348.834 383.41 348.686 383.155L347.871 381.722L346.939 382.251L347.755 383.683C347.898 383.938 348.225 384.028 348.485 383.884Z" fill="#FFB573"/>
<path d="M347.248 382.792L346.724 381.87L346.625 380.858L349.066 379.395L349.124 379.408C350.024 379.614 350.723 380.223 351.18 381.029L351.256 380.997L347.248 382.792Z" fill="#FFB573"/>
<path d="M187.154 378.84C187.154 383.638 186.388 388.119 184.857 392.273C183.325 396.431 181.144 400.057 178.305 403.154L192.143 416.533L180.459 426L165.658 411.547C163.58 412.303 161.412 412.881 159.164 413.275C156.916 413.673 154.601 413.87 152.218 413.87C141.743 413.87 133.257 410.575 126.754 403.978C120.251 397.384 117 389.005 117 378.84V363.988C117 353.863 120.242 345.493 126.727 338.877C133.212 332.261 141.671 328.958 152.106 328.958C162.465 328.958 170.897 332.266 177.4 338.877C183.903 345.488 187.154 353.863 187.154 363.988V378.84ZM168.04 363.872C168.04 357.977 166.652 353.138 163.871 349.36C161.09 345.582 157.167 343.693 152.102 343.693C146.92 343.693 142.961 345.573 140.22 349.333C137.48 353.093 136.109 357.941 136.109 363.872V378.835C136.109 384.806 137.498 389.681 140.279 393.459C143.06 397.237 147.037 399.126 152.218 399.126C157.247 399.126 161.139 397.237 163.902 393.459C166.661 389.681 168.04 384.806 168.04 378.835V363.872Z" fill="#FFEA22"/>
<path d="M261.508 330.149V384.225C261.508 393.633 258.378 400.929 252.121 406.104C245.865 411.283 237.669 413.87 227.535 413.87C217.288 413.87 209.026 411.283 202.751 406.104C196.473 400.925 193.338 393.633 193.338 384.225V330.149H212.564V384.225C212.564 389.287 213.867 393.038 216.478 395.478C219.089 397.913 222.774 399.135 227.535 399.135C232.26 399.135 235.901 397.926 238.453 395.509C241.006 393.092 242.282 389.332 242.282 384.229V330.149H261.508Z" fill="#FFEA22"/>
<path d="M286.323 412.679H267.209V330.149H286.323V412.679Z" fill="#FFEA22"/>
<path d="M315.743 397.939H353.343V412.679H292.151V404.063L329.071 344.884H291.98V330.149H352.833V338.425L315.743 397.939Z" fill="#FFEA22"/>
<path d="M169.253 414.711L168.004 417.258H175.863C175.622 416.305 174.699 415.692 173.727 415.839L172.787 415.983C172.129 415.983 171.685 415.316 171.936 414.711H169.253Z" fill="black"/>
<path d="M175.886 414.711L174.637 417.258H182.496C182.254 416.305 181.332 415.692 180.36 415.839L179.42 415.983C178.761 415.983 178.318 415.316 178.569 414.711H175.886Z" fill="black"/>
<path d="M175.058 414.949L168.108 397.084L160.127 393.047L151.081 397.926L148.551 394.041L158.417 395.137L171.659 392.138C172.748 392.559 173.536 393.521 173.733 394.676L179.711 414.949H175.058Z" fill="#F45197"/>
<path d="M166.804 392.568C167.794 393.087 168.452 394.072 168.56 395.182L173.11 414.944H168.77L162.375 398.087C162.375 398.087 154.278 400.065 148.73 400.065C146.293 400.065 143.615 397.778 143.615 394.954V394.041L166.804 392.568Z" fill="#F45197"/>
<path d="M162.415 391.973L164.807 388.311L159.218 376.575C158.403 374.86 156.674 373.768 154.775 373.768H147.65C145.496 373.768 143.508 374.928 142.446 376.799L136.302 386.042C135.397 387.403 135.926 389.251 137.417 389.927L143.619 392.743V395.137L157.167 393.526L156.808 380.809L162.415 391.973ZM141.971 387.595C141.412 387.349 141.224 386.646 141.591 386.154L143.615 383.45V388.316L141.971 387.595Z" fill="#00A0D7"/>
<path d="M157.807 363.625C157.838 361.683 156.114 359.409 153.62 358.742C151.215 358.097 148.671 359.105 147.359 361.222L147.144 361.571C146.289 362.95 146.069 364.628 146.54 366.181L148.188 371.042L148.201 373.773L150.619 374.928L152.903 373.773L152.944 370.819L155.129 370.814C156.661 370.792 157.888 369.543 157.888 368.012V367.99V365.931L157.807 363.625Z" fill="#FFB573"/>
<path d="M155.514 367.82C155.514 368.5 154.963 369.05 154.282 369.05C153.602 369.05 153.051 368.5 153.051 367.82" fill="white"/>
<path d="M152.067 392.608C152.219 392.317 152.107 391.959 151.816 391.807L149.51 390.603L147.965 391.364L151.27 392.859C151.557 393.011 151.915 392.899 152.067 392.608Z" fill="#FFB573"/>
<path d="M151.987 393.947C152.139 393.66 152.027 393.302 151.741 393.15L148.19 391.257L147.639 392.308L151.181 394.197C151.472 394.354 151.835 394.242 151.987 393.947Z" fill="#FFB573"/>
<path d="M150.97 394.712C151.122 394.421 151.01 394.063 150.719 393.911L147.643 392.308L147.092 393.36L150.168 394.963C150.46 395.115 150.818 395.003 150.97 394.712Z" fill="#FFB573"/>
<path d="M148.964 395.008C149.116 394.717 149.004 394.359 148.713 394.206L147.092 393.36L146.541 394.412L148.162 395.258C148.453 395.41 148.812 395.294 148.964 395.008Z" fill="#FFB573"/>
<path d="M147.158 394.734L146.401 394.341C146.213 394.242 146.047 394.108 145.918 393.942L145.416 393.311L146.804 390.482L146.867 390.46C147.83 390.111 148.846 390.258 149.756 390.733L147.158 394.734Z" fill="#FFB573"/>
<path d="M150.282 356.978C153.435 356.191 156.704 357.695 157.802 360.877C158.084 361.692 158.084 362.108 158.084 362.108L155.674 362.265L154.801 360.703L154.42 362.327L150.224 362.618L147.466 369.167C146.592 367.694 146.306 366.647 145.853 365.456C144.478 361.875 146.561 357.909 150.282 356.978Z" fill="black"/>
<path d="M150.194 365.931C150.194 366.557 149.688 367.063 149.061 367.063C148.434 367.063 147.928 366.557 147.928 365.931C147.928 365.304 148.434 364.798 149.061 364.798C149.683 364.798 150.194 365.304 150.194 365.931Z" fill="#FFB573"/>
<path d="M153.127 356.772C153.127 358.003 152.129 358.997 150.902 358.997C149.67 358.997 148.676 357.999 148.676 356.772C148.676 355.542 149.674 354.548 150.902 354.548C152.133 354.548 153.127 355.546 153.127 356.772Z" fill="black"/>
<path d="M150.239 360.479V368.021C150.239 368.021 148.896 366.105 149.343 363.661C149.791 361.217 150.239 360.479 150.239 360.479Z" fill="black"/>
<path d="M173.903 393.812H157.436C157.436 392.899 158.174 392.161 159.088 392.161H173.903V393.812Z" fill="white"/>
<path d="M177.172 393.736H162.72C161.861 393.736 161.22 392.944 161.399 392.102L163.383 382.824C163.518 382.201 164.068 381.754 164.704 381.754H179.156C180.016 381.754 180.656 382.546 180.477 383.388L178.493 392.666C178.363 393.289 177.813 393.736 177.172 393.736Z" fill="black"/>
<path d="M172.187 387.747C172.187 388.437 171.627 388.992 170.942 388.992C170.253 388.992 169.697 388.432 169.697 387.747C169.697 387.058 170.257 386.503 170.942 386.503C171.627 386.498 172.187 387.058 172.187 387.747Z" fill="white"/>
<path d="M215.73 312.768C215.73 309.008 212.613 306 208.851 306H203.388C199.626 306 196.576 308.954 196.576 312.714C196.576 316.474 199.626 319.428 203.388 319.428H206.845L211.14 321.076V319.182C213.831 318.278 215.73 315.771 215.73 312.768Z" fill="#DEDEDE"/>
<path d="M308.008 399.985C308.008 403.745 310.91 406.713 314.672 406.713H320.135C323.897 406.713 326.947 403.758 326.947 399.998C326.947 396.238 323.897 393.284 320.135 393.284H316.678L312.809 391.722V393.615C310.117 394.52 308.008 396.981 308.008 399.985Z" fill="#DEDEDE"/>
<path d="M158.336 345.3C158.336 341.54 161.139 338.676 164.901 338.676H170.365C174.127 338.676 177.177 341.63 177.177 345.39C177.177 349.15 174.127 352.104 170.365 352.104H166.908L163.231 353.456V351.562C159.644 350.658 158.336 348.299 158.336 345.3Z" fill="#DEDEDE"/>
<path d="M278.943 340.35C278.938 341.308 278.764 342.028 278.428 342.507C278.092 342.991 277.474 343.546 276.578 344.172C276.117 344.463 275.754 344.821 275.485 345.247C275.221 345.672 275.087 346.164 275.087 346.724C275.087 347.301 275.244 347.762 275.553 348.107C275.862 348.452 276.305 348.622 276.874 348.622C277.335 348.622 277.72 348.478 278.034 348.196C278.343 347.914 278.504 347.494 278.517 346.934H281.916L281.939 346.997C281.961 348.429 281.504 349.508 280.568 350.224C279.637 350.945 278.401 351.303 276.874 351.303C275.235 351.303 273.945 350.891 273.004 350.063C272.064 349.235 271.594 348.12 271.594 346.715C271.594 345.855 271.849 345.063 272.364 344.338C272.879 343.613 273.528 343.044 274.321 342.633C274.764 342.342 275.06 342.033 275.217 341.697C275.374 341.361 275.45 340.909 275.45 340.336H278.943V340.35ZM275.463 336.053H278.938V338.841H275.463V336.053Z" fill="#00A0D7"/>
<path d="M200.783 382.555C200.787 381.597 200.962 380.876 201.298 380.397C201.633 379.914 202.251 379.359 203.147 378.732C203.608 378.441 203.971 378.083 204.24 377.658C204.504 377.233 204.638 376.74 204.638 376.181C204.638 375.604 204.482 375.142 204.173 374.798C203.864 374.453 203.42 374.283 202.847 374.283C202.386 374.283 202.001 374.426 201.692 374.708C201.383 374.99 201.221 375.411 201.204 375.971H197.804L197.782 375.908C197.76 374.476 198.216 373.397 199.152 372.681C200.084 371.96 201.32 371.602 202.847 371.602C204.486 371.602 205.776 372.014 206.716 372.842C207.657 373.67 208.127 374.784 208.127 376.19C208.127 377.049 207.872 377.842 207.357 378.567C206.842 379.292 206.192 379.86 205.395 380.272C204.952 380.563 204.656 380.872 204.5 381.208C204.343 381.543 204.267 381.995 204.267 382.568H200.783V382.555ZM204.267 386.852H200.792V384.063H204.267V386.852Z" fill="#00A0D7"/>
<path d="M200.783 382.555C200.787 381.597 200.962 380.876 201.298 380.397C201.633 379.914 202.251 379.359 203.147 378.732C203.608 378.441 203.971 378.083 204.24 377.658C204.504 377.233 204.638 376.74 204.638 376.181C204.638 375.604 204.482 375.142 204.173 374.798C203.864 374.453 203.42 374.283 202.847 374.283C202.386 374.283 202.001 374.426 201.692 374.708C201.383 374.99 201.221 375.411 201.204 375.971H197.804L197.782 375.908C197.76 374.476 198.216 373.397 199.152 372.681C200.084 371.96 201.32 371.602 202.847 371.602C204.486 371.602 205.776 372.014 206.716 372.842C207.657 373.67 208.127 374.784 208.127 376.19C208.127 377.049 207.872 377.842 207.357 378.567C206.842 379.292 206.192 379.86 205.395 380.272C204.952 380.563 204.656 380.872 204.5 381.208C204.343 381.543 204.267 381.995 204.267 382.568H200.783V382.555ZM204.267 386.852H200.792V384.063H204.267V386.852Z" fill="#00A0D7"/>
<path d="M139.879 353.393H136.377V343.68H139.879V353.393ZM139.879 358.729H136.377V355.806H139.879V358.729Z" fill="#00A0D7"/>
<path d="M338.565 331.653H335.062V321.939H338.565V331.653ZM338.565 336.984H335.062V334.061H338.565V336.984Z" fill="#00A0D7"/>
<path d="M222.26 395.862L221.785 398.194L215.932 395.168C216.518 394.506 217.508 394.399 218.225 394.918L218.919 395.419C219.443 395.692 220.074 395.343 220.123 394.752L222.26 395.862Z" fill="black"/>
<path d="M233.242 395.862L233.717 398.194L239.57 395.168C238.983 394.506 237.994 394.399 237.277 394.918L236.583 395.419C236.059 395.692 235.428 395.343 235.378 394.752L233.242 395.862Z" fill="black"/>
<path d="M235.955 373.522L234.244 357.923L228.301 355.577L227.755 355.788L227.209 355.577L221.266 357.923L219.555 373.522C219.533 373.714 219.528 373.907 219.533 374.099L220.128 394.752L222.269 395.858C222.269 395.858 223.729 393.226 224.405 386.865C225.077 380.505 224.558 374.798 224.558 374.798L227.76 363.348L230.962 374.798C230.962 374.798 230.442 380.505 231.114 386.865C231.786 393.226 233.25 395.858 233.25 395.858L235.391 394.752L235.986 374.099C235.982 373.911 235.973 373.714 235.955 373.522Z" fill="#00A0D7"/>
<path d="M255.832 329.486L251.309 330.927L251.627 331.926L256.15 330.484C256.427 330.395 256.58 330.099 256.49 329.826C256.401 329.553 256.105 329.401 255.832 329.486Z" fill="#FFB573"/>
<path d="M250.551 330.005L250.905 329.71C252.907 329.074 254.626 327.763 255.768 325.999L255.854 325.865C256.14 325.426 256.754 325.35 257.134 325.708C257.399 325.954 257.475 326.339 257.331 326.666C256.422 328.721 254.783 330.363 252.732 331.281L250.457 332.297L250.551 330.005Z" fill="#FFB573"/>
<path d="M199.791 329.486L204.315 330.927L203.997 331.926L199.473 330.484C199.196 330.395 199.044 330.099 199.133 329.826C199.218 329.553 199.514 329.401 199.791 329.486Z" fill="#FFB573"/>
<path d="M205.072 330.005L204.719 329.71C202.717 329.074 200.997 327.763 199.855 325.999L199.77 325.865C199.483 325.426 198.87 325.35 198.489 325.708C198.225 325.954 198.149 326.339 198.292 326.666C199.201 328.721 200.84 330.363 202.891 331.281L205.171 332.302L205.072 330.005Z" fill="#FFB573"/>
<path d="M250.823 329.692L230.034 336.464C230.016 336.464 225.605 336.464 225.587 336.464L204.799 329.692L204.158 331.957L220.442 339.75L220.93 357.923H234.687L235.176 339.75L251.459 331.89L250.823 329.692Z" fill="#F45197"/>
<path d="M234.917 326.407C234.948 324.442 233.206 322.141 230.68 321.465C228.244 320.811 225.669 321.832 224.339 323.972L224.12 324.325C223.255 325.722 223.031 327.423 223.506 328.994L225.172 333.913L225.082 336.299L227.698 338.644L230.031 336.46V333.613L232.194 333.676C233.744 333.653 234.989 332.391 234.989 330.842V330.816V328.73L234.917 326.407Z" fill="#FFB573"/>
<path d="M224.514 349.141C225.544 349.141 226.381 348.304 226.377 347.27L226.282 327.449L234.997 325.135C234.997 325.135 234.997 324.728 234.724 323.936C233.654 320.829 230.465 319.366 227.389 320.131C224.509 320.852 222.633 323.452 222.651 326.236C222.651 326.474 222.651 341.124 222.651 347.283C222.651 348.313 223.484 349.141 224.514 349.141Z" fill="black"/>
<path d="M232.593 330.65C232.593 331.339 232.033 331.899 231.343 331.899C230.654 331.899 230.094 331.339 230.094 330.65" fill="white"/>
<path d="M227.979 328.671C227.979 329.486 227.316 330.149 226.501 330.149C225.686 330.149 225.023 329.486 225.023 328.671C225.023 327.857 225.686 327.194 226.501 327.194C227.316 327.194 227.979 327.857 227.979 328.671Z" fill="#FFB573"/>
<path d="M299.006 367.793V378.379C299.006 378.987 299.422 379.551 300.022 379.65C300.788 379.775 301.451 379.189 301.451 378.446V375.389C301.451 374.713 302.015 374.167 302.692 374.167C303.265 374.167 303.896 374.565 303.896 375.098V385.402C303.896 386.01 304.313 386.574 304.913 386.673C305.679 386.798 306.341 386.212 306.341 385.469L306.319 377.497C306.31 376.79 306.901 376.217 307.609 376.248C308.267 376.279 308.787 376.821 308.787 377.479V379.901C308.787 380.509 309.203 381.073 309.803 381.172C310.569 381.297 311.232 380.711 311.232 379.968V365.684L299.006 367.793Z" fill="black"/>
<path d="M299.323 337.207H305.494H311.666L315.002 330.117C315.786 328.452 314.451 326.572 312.62 326.76C312.23 326.8 311.854 326.939 311.527 327.158L305.494 331.268L299.462 327.158C299.135 326.939 298.763 326.8 298.369 326.76C296.538 326.572 295.203 328.452 295.987 330.117L299.323 337.207Z" fill="#F45197"/>
<path d="M285.477 370.442L288.652 366.965L287.881 366.262L284.706 369.74C284.514 369.95 284.527 370.281 284.738 370.474C284.953 370.671 285.284 370.657 285.477 370.442Z" fill="#FFB573"/>
<path d="M289.762 367.39L289.601 367.819C288.194 369.359 287.366 371.338 287.254 373.419L287.245 373.576C287.218 374.095 286.725 374.462 286.219 374.346C285.87 374.265 285.615 373.974 285.575 373.621C285.337 371.405 285.933 369.18 287.24 367.376L288.696 365.371L289.762 367.39Z" fill="#FFB573"/>
<path d="M326.126 370.442L322.951 366.965L323.721 366.262L326.897 369.74C327.089 369.95 327.076 370.281 326.865 370.474C326.65 370.671 326.319 370.657 326.126 370.442Z" fill="#FFB573"/>
<path d="M321.842 367.39L322.003 367.82C323.409 369.359 324.238 371.338 324.35 373.419L324.359 373.576C324.386 374.095 324.878 374.462 325.384 374.346C325.734 374.265 325.989 373.974 326.029 373.621C326.266 371.405 325.671 369.18 324.363 367.376L322.908 365.371L321.842 367.39Z" fill="#FFB573"/>
<path d="M323.566 366.217L312.974 351.956L311.671 337.207L310.825 336.957C307.403 335.95 303.767 335.936 300.341 336.916L299.329 337.207L298.536 352.086L288.043 366.217L289.687 367.793L297.694 359.395C299.808 357.18 302.732 355.926 305.791 355.917C308.859 355.909 311.796 357.157 313.919 359.369L321.926 367.717L323.566 366.217Z" fill="#00A0D7"/>
<path d="M298.656 365.778C298.624 367.681 300.313 369.91 302.758 370.563C305.113 371.195 307.608 370.21 308.893 368.133L309.104 367.793C309.941 366.441 310.156 364.798 309.699 363.276L308.087 359.284L308.074 356.441L305.803 354.718L303.483 356.441L303.43 359.498L301.289 359.503C299.789 359.525 298.584 360.747 298.584 362.247V362.269V363.518L298.656 365.778Z" fill="#FFB573"/>
<path d="M300.904 362.439C300.904 361.772 301.446 361.231 302.113 361.231C302.781 361.231 303.323 361.772 303.323 362.439" fill="white"/>
<path d="M306.555 365.25L298.432 366.987C298.432 366.987 298.432 367.408 298.714 368.222C299.82 371.423 303.103 372.931 306.273 372.143C309.198 371.414 311.235 368.724 311.235 365.998C311.235 363.272 308.736 360.891 308.736 360.891L306.555 365.25Z" fill="black"/>
<path d="M305.57 364.292C305.57 363.527 306.188 362.909 306.954 362.909C307.72 362.909 308.338 363.527 308.338 364.292C308.338 365.058 307.72 365.675 306.954 365.675C306.188 365.675 305.57 365.058 305.57 364.292Z" fill="#FFB573"/>
<path d="M271.468 390.93C270.536 387.89 269.193 386.601 266.698 386.449C265.597 386.382 256.353 386.382 255.252 386.449C252.757 386.606 251.602 388.168 250.666 391.252L248.561 399.766C248.418 400.723 248.713 401.69 249.358 402.411L252.202 405.58L253.523 394.372L255.964 407.737H266.922L268.736 394.372L270.532 405.499L273.304 402.357C273.944 401.632 274.227 400.661 274.079 399.707L271.468 390.93Z" fill="#00A0D7"/>
<path d="M253.658 376.834C253.626 374.887 255.355 372.604 257.858 371.933C260.272 371.284 262.829 372.296 264.146 374.422L264.365 374.771C265.225 376.154 265.445 377.841 264.974 379.399L263.322 383.49L263.309 386.404L260.984 388.168L258.606 386.4L258.552 383.267L256.358 383.262C254.822 383.24 253.586 381.986 253.586 380.451V380.429V379.149L253.658 376.834Z" fill="#FFB573"/>
<path d="M255.959 380.254C255.959 380.939 256.514 381.494 257.199 381.494C257.885 381.494 258.44 380.939 258.44 380.254" fill="white"/>
<path d="M263.576 382.855L265.301 379.883C265.52 379.502 265.704 379.099 265.842 378.683L265.851 378.652C266.975 375.312 265.287 371.562 261.942 370.456C261.781 370.402 261.619 370.357 261.454 370.313C258.207 369.503 254.843 371.051 253.71 374.328C253.419 375.165 253.424 375.594 253.424 375.594L257.499 378.562C258.435 379.243 259.743 379.086 260.491 378.2L261.324 377.215L263.576 382.855Z" fill="black"/>
<path d="M260.738 378.356C260.738 379.14 261.374 379.775 262.158 379.775C262.942 379.775 263.578 379.14 263.578 378.356C263.578 377.573 262.942 376.937 262.158 376.937C261.374 376.942 260.738 377.573 260.738 378.356Z" fill="#FFB573"/>
<path d="M278.154 407.706C277.402 406.498 275.96 406.068 274.576 406.399L268.391 408.055H254.19L248.005 406.399C246.622 406.063 245.18 406.574 244.427 407.782C243.357 409.501 244.073 411.847 245.941 412.639L256.976 416.108H268.664L276.645 412.599C278.503 411.811 279.224 409.425 278.154 407.706Z" fill="#F45197"/>
<path d="M264.912 415.038L265.736 415.956L273.649 416.059C273.434 415.078 272.507 414.42 271.509 414.541L270.541 414.657C268.777 414.657 267.617 413.239 267.617 413.239L264.912 415.038Z" fill="black"/>
<path d="M252.747 414.577C252.523 414.626 252.29 414.658 252.04 414.658L251.072 414.541C250.074 414.42 249.147 415.078 248.932 416.059L256.975 415.969L252.747 414.577Z" fill="black"/>
<path d="M268.786 411.663H253.775C253.027 411.663 252.404 411.099 252.324 410.356L251.352 401.001C251.262 400.142 251.938 399.394 252.803 399.394H269.78C270.645 399.394 271.321 400.142 271.227 401.005L270.233 410.36C270.156 411.099 269.53 411.663 268.786 411.663Z" fill="black"/>
<path d="M262.566 405.526C262.566 406.229 261.993 406.802 261.29 406.802C260.582 406.802 260.014 406.229 260.014 405.526C260.014 404.819 260.587 404.251 261.29 404.251C261.998 404.251 262.566 404.824 262.566 405.526Z" fill="#00A0D7"/>
<path d="M253.142 376.02C253.169 375.671 253.223 374.659 253.25 374.108C253.492 371.159 256.685 368.786 260.008 368.858C262.811 368.916 265.315 370.81 266.246 373.455C266.457 374.05 266.564 374.561 266.609 375.254L266.578 375.953L249.515 376.924L249.475 376.23L253.142 376.02Z" fill="#DEDEDE"/>
</svg>
