<svg width="298" height="264" viewBox="0 0 298 264" fill="none" xmlns="http://www.w3.org/2000/svg">
<rect x="3" y="3" width="291.542" height="257.73" rx="17" fill="#FFEA22" stroke="white" stroke-width="6"/>
<g filter="url(#filter0_b)">
<rect x="51" y="186" width="196.545" height="47" rx="10" fill="white" fill-opacity="0.5"/>
</g>
<path d="M115.888 205.776C115.888 206.616 115.732 207.318 115.42 207.882C115.12 208.434 114.718 208.878 114.214 209.214C113.71 209.55 113.134 209.79 112.486 209.934C111.85 210.066 111.196 210.132 110.524 210.132C110.308 210.132 110.068 210.126 109.804 210.114C109.54 210.102 109.294 210.09 109.066 210.078V214.452C109.066 214.548 109.03 214.632 108.958 214.704C108.886 214.776 108.802 214.812 108.706 214.812H106.384C106.288 214.812 106.204 214.782 106.132 214.722C106.06 214.65 106.024 214.566 106.024 214.47V202.374C106.024 202.062 106.09 201.852 106.222 201.744C106.354 201.636 106.558 201.558 106.834 201.51C107.29 201.438 107.848 201.384 108.508 201.348C109.18 201.3 109.84 201.276 110.488 201.276C111.172 201.276 111.838 201.342 112.486 201.474C113.134 201.606 113.71 201.84 114.214 202.176C114.718 202.512 115.12 202.962 115.42 203.526C115.732 204.078 115.888 204.774 115.888 205.614V205.776ZM112.828 205.614C112.828 204.966 112.63 204.51 112.234 204.246C111.85 203.97 111.28 203.832 110.524 203.832C110.464 203.832 110.362 203.838 110.218 203.85C110.074 203.85 109.924 203.856 109.768 203.868C109.624 203.868 109.48 203.874 109.336 203.886C109.204 203.886 109.114 203.886 109.066 203.886V207.558C109.114 207.558 109.204 207.564 109.336 207.576C109.48 207.576 109.63 207.582 109.786 207.594C109.954 207.594 110.104 207.594 110.236 207.594C110.38 207.594 110.476 207.594 110.524 207.594C111.328 207.594 111.91 207.444 112.27 207.144C112.642 206.844 112.828 206.388 112.828 205.776V205.614ZM125.138 214.452C125.138 214.548 125.102 214.632 125.03 214.704C124.958 214.776 124.874 214.812 124.778 214.812H122.762C122.666 214.812 122.582 214.776 122.51 214.704C122.438 214.632 122.402 214.548 122.402 214.452V214.164C122.054 214.416 121.682 214.614 121.286 214.758C120.902 214.902 120.44 214.974 119.9 214.974C119.504 214.974 119.12 214.92 118.748 214.812C118.388 214.716 118.064 214.548 117.776 214.308C117.488 214.068 117.254 213.75 117.074 213.354C116.906 212.958 116.822 212.466 116.822 211.878V211.716C116.822 210.66 117.17 209.892 117.866 209.412C118.574 208.92 119.702 208.674 121.25 208.674H122.222V208.026C122.222 207.51 122.102 207.174 121.862 207.018C121.622 206.862 121.292 206.784 120.872 206.784C120.584 206.784 120.29 206.79 119.99 206.802C119.702 206.802 119.42 206.808 119.144 206.82C118.88 206.832 118.64 206.85 118.424 206.874C118.208 206.886 118.028 206.898 117.884 206.91H117.794C117.698 206.91 117.62 206.886 117.56 206.838C117.5 206.79 117.47 206.706 117.47 206.586V205.128C117.47 204.924 117.584 204.792 117.812 204.732C118.148 204.648 118.598 204.564 119.162 204.48C119.738 204.396 120.326 204.354 120.926 204.354C121.574 204.354 122.156 204.426 122.672 204.57C123.2 204.702 123.644 204.918 124.004 205.218C124.364 205.506 124.64 205.884 124.832 206.352C125.036 206.808 125.138 207.366 125.138 208.026V214.452ZM122.276 210.402H121.25C120.938 210.402 120.68 210.432 120.476 210.492C120.272 210.54 120.11 210.618 119.99 210.726C119.87 210.834 119.786 210.972 119.738 211.14C119.69 211.308 119.666 211.5 119.666 211.716V211.878C119.666 212.262 119.756 212.508 119.936 212.616C120.128 212.724 120.416 212.778 120.8 212.778C121.076 212.778 121.334 212.742 121.574 212.67C121.826 212.586 122.06 212.49 122.276 212.382V210.402ZM130.205 214.434C130.205 214.53 130.169 214.62 130.097 214.704C130.037 214.776 129.959 214.812 129.863 214.812H127.667C127.571 214.812 127.481 214.776 127.397 214.704C127.325 214.62 127.289 214.53 127.289 214.434V201.366C127.289 201.27 127.325 201.186 127.397 201.114C127.481 201.042 127.571 201.006 127.667 201.006H129.863C129.959 201.006 130.037 201.042 130.097 201.114C130.169 201.186 130.205 201.27 130.205 201.366V214.434ZM138.309 214.47C138.309 214.674 138.195 214.794 137.967 214.83C137.691 214.878 137.451 214.914 137.247 214.938C137.043 214.962 136.809 214.974 136.545 214.974C136.053 214.974 135.615 214.932 135.231 214.848C134.859 214.776 134.547 214.626 134.295 214.398C134.043 214.17 133.851 213.858 133.719 213.462C133.587 213.054 133.521 212.532 133.521 211.896V206.676L132.081 206.442C131.985 206.418 131.895 206.376 131.811 206.316C131.739 206.244 131.703 206.16 131.703 206.064V204.876C131.703 204.78 131.739 204.696 131.811 204.624C131.895 204.54 131.985 204.498 132.081 204.498H133.521V203.022C133.521 202.926 133.557 202.848 133.629 202.788C133.701 202.728 133.785 202.686 133.881 202.662L136.077 202.284H136.131C136.227 202.284 136.305 202.314 136.365 202.374C136.425 202.422 136.455 202.494 136.455 202.59V204.498H137.931C138.027 204.498 138.111 204.534 138.183 204.606C138.255 204.678 138.291 204.762 138.291 204.858V206.316C138.291 206.412 138.255 206.496 138.183 206.568C138.111 206.64 138.027 206.676 137.931 206.676H136.455V211.914C136.455 212.274 136.485 212.508 136.545 212.616C136.605 212.712 136.773 212.76 137.049 212.76H137.931C138.183 212.76 138.309 212.862 138.309 213.066V214.47ZM148.675 210.132C148.675 210.42 148.549 210.564 148.297 210.564H142.555V210.6C142.555 210.852 142.585 211.098 142.645 211.338C142.705 211.578 142.807 211.788 142.951 211.968C143.095 212.148 143.281 212.292 143.509 212.4C143.749 212.508 144.049 212.562 144.409 212.562C144.697 212.562 145.003 212.556 145.327 212.544C145.651 212.532 145.969 212.52 146.281 212.508C146.605 212.496 146.905 212.484 147.181 212.472C147.457 212.448 147.685 212.424 147.865 212.4H147.919C148.147 212.4 148.261 212.496 148.261 212.688V214.056C148.261 214.2 148.237 214.308 148.189 214.38C148.141 214.452 148.039 214.506 147.883 214.542C147.307 214.686 146.743 214.794 146.191 214.866C145.639 214.938 144.973 214.974 144.193 214.974C143.653 214.974 143.113 214.896 142.573 214.74C142.033 214.584 141.547 214.326 141.115 213.966C140.683 213.606 140.335 213.132 140.071 212.544C139.807 211.944 139.675 211.212 139.675 210.348V209.088C139.675 208.368 139.777 207.714 139.981 207.126C140.185 206.538 140.479 206.04 140.863 205.632C141.259 205.224 141.739 204.912 142.303 204.696C142.867 204.468 143.509 204.354 144.229 204.354C144.961 204.354 145.603 204.474 146.155 204.714C146.719 204.954 147.187 205.284 147.559 205.704C147.931 206.124 148.207 206.622 148.387 207.198C148.579 207.774 148.675 208.404 148.675 209.088V210.132ZM145.831 208.692C145.831 208.02 145.687 207.522 145.399 207.198C145.111 206.862 144.715 206.694 144.211 206.694C143.707 206.694 143.305 206.862 143.005 207.198C142.705 207.534 142.555 208.032 142.555 208.692V208.764H145.831V208.692ZM153.478 214.434C153.478 214.53 153.442 214.62 153.37 214.704C153.31 214.776 153.232 214.812 153.136 214.812H150.94C150.844 214.812 150.754 214.776 150.67 214.704C150.598 214.62 150.562 214.53 150.562 214.434V201.366C150.562 201.27 150.598 201.186 150.67 201.114C150.754 201.042 150.844 201.006 150.94 201.006H153.136C153.232 201.006 153.31 201.042 153.37 201.114C153.442 201.186 153.478 201.27 153.478 201.366V214.434ZM168.598 214.254C168.598 214.386 168.562 214.482 168.49 214.542C168.43 214.59 168.334 214.632 168.202 214.668C168.01 214.728 167.674 214.794 167.194 214.866C166.714 214.938 166.156 214.974 165.52 214.974C164.836 214.974 164.17 214.878 163.522 214.686C162.886 214.494 162.322 214.176 161.83 213.732C161.338 213.276 160.942 212.682 160.642 211.95C160.342 211.218 160.192 210.318 160.192 209.25V206.982C160.192 205.914 160.342 205.014 160.642 204.282C160.942 203.55 161.338 202.962 161.83 202.518C162.322 202.074 162.886 201.756 163.522 201.564C164.17 201.372 164.836 201.276 165.52 201.276C166.156 201.276 166.714 201.312 167.194 201.384C167.674 201.456 168.01 201.522 168.202 201.582C168.334 201.618 168.43 201.66 168.49 201.708C168.562 201.756 168.598 201.846 168.598 201.978V203.724C168.598 203.964 168.484 204.084 168.256 204.084H168.202C167.854 204.06 167.446 204.03 166.978 203.994C166.522 203.958 166.042 203.94 165.538 203.94C165.226 203.94 164.932 203.988 164.656 204.084C164.392 204.168 164.158 204.33 163.954 204.57C163.75 204.798 163.588 205.11 163.468 205.506C163.36 205.89 163.306 206.382 163.306 206.982V209.25C163.306 209.85 163.36 210.348 163.468 210.744C163.588 211.128 163.75 211.44 163.954 211.68C164.158 211.908 164.392 212.07 164.656 212.166C164.932 212.25 165.226 212.292 165.538 212.292C166.042 212.292 166.522 212.274 166.978 212.238C167.446 212.202 167.854 212.172 168.202 212.148H168.256C168.484 212.148 168.598 212.268 168.598 212.508V214.254ZM173.468 202.968C173.468 203.064 173.432 203.148 173.36 203.22C173.288 203.292 173.204 203.328 173.108 203.328H170.768C170.672 203.328 170.588 203.292 170.516 203.22C170.444 203.148 170.408 203.064 170.408 202.968V201.294C170.408 201.198 170.444 201.114 170.516 201.042C170.588 200.97 170.672 200.934 170.768 200.934H173.108C173.204 200.934 173.288 200.97 173.36 201.042C173.432 201.114 173.468 201.198 173.468 201.294V202.968ZM173.396 214.452C173.396 214.548 173.36 214.632 173.288 214.704C173.216 214.776 173.132 214.812 173.036 214.812H170.84C170.744 214.812 170.66 214.776 170.588 214.704C170.516 214.632 170.48 214.548 170.48 214.452V204.858C170.48 204.762 170.516 204.678 170.588 204.606C170.66 204.534 170.744 204.498 170.84 204.498H173.036C173.132 204.498 173.216 204.534 173.288 204.606C173.36 204.678 173.396 204.762 173.396 204.858V214.452ZM181.569 214.47C181.569 214.674 181.455 214.794 181.227 214.83C180.951 214.878 180.711 214.914 180.507 214.938C180.303 214.962 180.069 214.974 179.805 214.974C179.313 214.974 178.875 214.932 178.491 214.848C178.119 214.776 177.807 214.626 177.555 214.398C177.303 214.17 177.111 213.858 176.979 213.462C176.847 213.054 176.781 212.532 176.781 211.896V206.676L175.341 206.442C175.245 206.418 175.155 206.376 175.071 206.316C174.999 206.244 174.963 206.16 174.963 206.064V204.876C174.963 204.78 174.999 204.696 175.071 204.624C175.155 204.54 175.245 204.498 175.341 204.498H176.781V203.022C176.781 202.926 176.817 202.848 176.889 202.788C176.961 202.728 177.045 202.686 177.141 202.662L179.337 202.284H179.391C179.487 202.284 179.565 202.314 179.625 202.374C179.685 202.422 179.715 202.494 179.715 202.59V204.498H181.191C181.287 204.498 181.371 204.534 181.443 204.606C181.515 204.678 181.551 204.762 181.551 204.858V206.316C181.551 206.412 181.515 206.496 181.443 206.568C181.371 206.64 181.287 206.676 181.191 206.676H179.715V211.914C179.715 212.274 179.745 212.508 179.805 212.616C179.865 212.712 180.033 212.76 180.309 212.76H181.191C181.443 212.76 181.569 212.862 181.569 213.066V214.47ZM192.385 204.822C192.385 204.846 192.379 204.864 192.367 204.876C192.367 204.876 192.367 204.888 192.367 204.912L189.343 215.514C189.199 216.006 189.037 216.432 188.857 216.792C188.677 217.164 188.443 217.47 188.155 217.71C187.867 217.95 187.501 218.13 187.057 218.25C186.613 218.382 186.061 218.448 185.401 218.448C185.233 218.448 185.047 218.436 184.843 218.412C184.639 218.4 184.435 218.382 184.231 218.358C184.027 218.334 183.835 218.304 183.655 218.268C183.475 218.232 183.331 218.196 183.223 218.16C183.127 218.124 183.037 218.082 182.953 218.034C182.881 217.998 182.845 217.932 182.845 217.836V216.378C182.845 216.282 182.881 216.198 182.953 216.126C183.025 216.066 183.109 216.036 183.205 216.036H183.241C183.385 216.048 183.553 216.06 183.745 216.072C183.949 216.084 184.153 216.096 184.357 216.108C184.573 216.132 184.777 216.15 184.969 216.162C185.173 216.174 185.347 216.18 185.491 216.18C185.815 216.18 186.067 216.114 186.247 215.982C186.427 215.85 186.571 215.604 186.679 215.244L186.841 214.686H186.571C186.403 214.686 186.241 214.674 186.085 214.65C185.941 214.614 185.797 214.542 185.653 214.434C185.509 214.326 185.371 214.164 185.239 213.948C185.119 213.72 185.005 213.408 184.897 213.012L182.521 204.912C182.509 204.876 182.503 204.834 182.503 204.786C182.503 204.594 182.623 204.498 182.863 204.498H185.257C185.353 204.498 185.425 204.534 185.473 204.606C185.533 204.666 185.575 204.744 185.599 204.84L187.219 211.608C187.267 211.836 187.339 211.95 187.435 211.95H187.597L189.271 204.84C189.295 204.744 189.337 204.666 189.397 204.606C189.469 204.534 189.553 204.498 189.649 204.498H192.043C192.139 204.498 192.217 204.528 192.277 204.588C192.349 204.648 192.385 204.726 192.385 204.822Z" fill="white"/>
<mask id="mask0" mask-type="alpha" maskUnits="userSpaceOnUse" x="22" y="34" width="254" height="130">
<rect x="22" y="34" width="253.333" height="130" rx="20" fill="#C4C4C4"/>
</mask>
<g mask="url(#mask0)">
<path d="M279.734 151.564H17.7808V163.927H279.734V151.564Z" fill="#414042"/>
<path d="M93.1723 156.745H85.8346L85.2215 156.165H92.5592L93.1723 156.745ZM77.3333 156.165H69.9956L70.6087 156.745H77.9464L77.3333 156.165ZM62.1074 156.165H54.7712L55.3843 156.745H62.7205L62.1074 156.165ZM46.8502 156.165H39.5125L40.1256 156.745H47.4633L46.8502 156.165ZM31.6243 156.165H24.2881L24.9012 156.745H32.2374L31.6243 156.165ZM123.01 156.165H115.672L116.285 156.745H123.623L123.01 156.165ZM107.784 156.165H100.446L101.059 156.745H108.397L107.784 156.165Z" fill="white"/>
<path d="M167.923 156.745H160.585L159.972 156.165H167.31L167.923 156.745ZM152.084 156.166H144.746L145.359 156.746H152.697L152.084 156.166ZM136.858 156.166H129.521L130.135 156.746H137.471L136.858 156.166ZM197.761 156.166H190.424L191.037 156.746H198.374L197.761 156.166ZM182.535 156.166H175.198L175.811 156.746H183.149L182.535 156.166Z" fill="white"/>
<path d="M242.439 156.659H235.102L234.488 156.079H241.826L242.439 156.659ZM226.6 156.079H219.263L219.876 156.659H227.213L226.6 156.079ZM211.374 156.079H204.038L204.651 156.659H211.987L211.374 156.079ZM272.278 156.079H264.94L265.553 156.659H272.891L272.278 156.079ZM257.052 156.079H249.714L250.327 156.659H257.665L257.052 156.079Z" fill="white"/>
<path d="M21.8804 151.549L25.9785 153.936C27.1392 154.329 29.157 154.592 29.9844 154.46C30.8118 154.329 35.2388 153.242 35.5825 153.064C35.9263 152.885 38.6807 151.547 38.6807 151.547H21.8804V151.549Z" fill="#A2A2A2"/>
<path d="M27.8176 152.443L26.9561 146.172H31.0929L30.7477 152.443H27.8176Z" fill="#565656"/>
<path d="M31.5248 151.964L30.748 152.443L31.0933 146.172H32.3001L31.5248 151.964Z" fill="#898989"/>
<path d="M28.3891 144.032C28.3891 144.172 26.9561 146.174 26.9561 146.174H31.0944L30.4902 144.032H28.3891Z" fill="#6F6F6F"/>
<path d="M32.2997 146.172L30.7477 144.032H30.4902L31.0929 146.172H31.6852H32.2997Z" fill="#525660"/>
<path d="M28.3892 144.032L29.0246 94.0913H29.9293L30.7477 144.032H28.3892Z" fill="#565656"/>
<path d="M29.5679 95.7775L35.5752 88.6646H35.3178L29.5679 94.7939V95.7775Z" fill="#565656"/>
<path d="M35.3727 87.4976C35.6971 86.7833 36.9947 85.9693 38.2253 86.1881C39.456 86.4068 40.6316 86.8979 40.6866 87.4976C40.7432 88.0973 40.6866 88.316 40.6866 88.316C40.6866 88.316 39.7908 89.5169 39.1197 89.5169C38.4486 89.5169 36.4992 89.7356 35.9873 89.5169C35.651 89.374 35.3162 89.0809 35.3162 89.0809C35.3162 89.0809 35.209 87.8577 35.3727 87.4976Z" fill="#5D6274"/>
<path d="M39.2776 89.4948C39.3058 89.4874 39.3341 89.4799 39.3624 89.471C39.3758 89.4665 39.3907 89.4606 39.4056 89.4546C39.4338 89.4427 39.4636 89.4308 39.4919 89.4159C39.5038 89.41 39.5172 89.404 39.5291 89.3981C39.5678 89.3787 39.605 89.3564 39.6436 89.3326C39.6466 89.3311 39.6496 89.3296 39.6511 89.3281C39.6927 89.3013 39.7344 89.2731 39.7746 89.2433C39.785 89.2359 39.7969 89.2269 39.8073 89.218C39.8371 89.1957 39.8669 89.1719 39.8966 89.1481C39.91 89.1377 39.9219 89.1272 39.9353 89.1168C39.9636 89.093 39.9904 89.0692 40.0171 89.0454C40.0291 89.035 40.0395 89.0246 40.0514 89.0156C40.0841 88.9859 40.1154 88.9561 40.1466 88.9249C40.1511 88.9204 40.1555 88.9174 40.16 88.913C40.1957 88.8787 40.2299 88.843 40.2627 88.8088C40.2716 88.7999 40.2805 88.7895 40.2895 88.7805C40.3133 88.7567 40.3356 88.7329 40.3564 88.7091C40.3683 88.6972 40.3787 88.6853 40.3892 88.6719C40.407 88.6526 40.4234 88.6332 40.4398 88.6139C40.4502 88.602 40.4621 88.5901 40.471 88.5781C40.4874 88.5603 40.5008 88.5424 40.5156 88.5261C40.5246 88.5156 40.5335 88.5052 40.5409 88.4963C40.5558 88.4784 40.5677 88.4636 40.5811 88.4472C40.5841 88.4427 40.5886 88.4383 40.593 88.4338C40.288 87.9502 39.2776 87.5633 38.2255 87.3758C37.0871 87.1734 35.5202 88.4427 35.2896 88.6362C35.3 88.8877 35.3163 89.0781 35.3163 89.0781C35.3163 89.0781 35.6526 89.3713 35.9875 89.5141C36.4994 89.7329 38.4487 89.5141 39.1198 89.5141C39.1585 89.5141 39.1987 89.5097 39.2374 89.5022C39.2523 89.5022 39.2642 89.4978 39.2776 89.4948Z" fill="#3C3C3C"/>
<path d="M39.328 89.4797C39.3697 89.4663 39.4128 89.45 39.456 89.4306C39.4694 89.4247 39.4828 89.4187 39.4962 89.4128C39.5512 89.386 39.6063 89.3547 39.6598 89.3205C39.6703 89.3131 39.6822 89.3056 39.6926 89.2982C39.7372 89.2684 39.7819 89.2372 39.825 89.2029C39.8414 89.191 39.8563 89.1791 39.8726 89.1657C39.9173 89.13 39.9619 89.0928 40.0051 89.0541C40.0125 89.0467 40.0214 89.0407 40.0289 89.0333C40.0795 88.9872 40.1286 88.941 40.1747 88.8949C40.1866 88.883 40.2 88.8696 40.2119 88.8577C40.2476 88.822 40.2819 88.7863 40.3146 88.7506C40.325 88.7387 40.3369 88.7282 40.3473 88.7163C40.3875 88.6717 40.4262 88.6285 40.4619 88.5899C40.0572 88.2788 39.1584 88.0318 38.2253 87.9053C37.1391 87.758 35.6376 88.63 35.2998 88.8369C35.3043 88.9202 35.3087 88.9872 35.3132 89.0288L35.3638 89.1181C35.3712 89.1241 35.3816 89.133 35.3921 89.1404C35.4025 89.1494 35.4144 89.1583 35.4263 89.1672C35.4337 89.1732 35.4427 89.1791 35.4516 89.1866C35.4724 89.2029 35.4947 89.2193 35.5186 89.2372C35.523 89.2401 35.526 89.2431 35.529 89.2461C35.5587 89.2684 35.5915 89.2907 35.6257 89.3131C35.6302 89.316 35.6346 89.319 35.6406 89.322C35.6688 89.3413 35.6986 89.3592 35.7284 89.3785C35.7388 89.3845 35.7477 89.3904 35.7581 89.3964C35.7849 89.4128 35.8132 89.4276 35.8415 89.444C35.8519 89.45 35.8623 89.4559 35.8742 89.4619C35.9129 89.4812 35.9516 89.5006 35.9903 89.5169C36.5022 89.7357 38.4515 89.5169 39.1227 89.5169C39.1747 89.5169 39.2283 89.508 39.2834 89.4946C39.2968 89.4901 39.3131 89.4857 39.328 89.4797Z" fill="#6F6F6F"/>
<path d="M38.2267 88.1628C37.1508 88.0393 35.6657 88.7773 35.3086 88.9648C35.3131 89.0363 35.3175 89.0794 35.3175 89.0794C35.3175 89.0794 35.6538 89.3726 35.9886 89.5154C36.5005 89.7342 38.4499 89.5154 39.121 89.5154C39.5407 89.5154 40.0496 89.0452 40.371 88.6925C39.9335 88.4544 39.0972 88.264 38.2267 88.1628Z" fill="#F1F2F2"/>
<path d="M28.3892 144.032H29.0246V94.0913L28.3892 144.032Z" fill="#6F6F6F"/>
<path d="M29.5674 94.0913V144.032H28.6255L29.0243 94.0913H29.5674Z" fill="#3C3C3C"/>
<path d="M29.0245 144.032L26.9561 146.172L28.3891 144.032H29.0245Z" fill="#41454A"/>
<path d="M28.3891 152.443L27.337 146.172H26.9561L27.8176 152.443H28.3891Z" fill="#3C3C3C"/>
<path d="M29.5679 95.7775L35.2821 88.9487L29.5679 95.3192V95.7775Z" fill="#3C3C3C"/>
<path d="M35.8755 86.8802C36.1478 86.9218 36.496 86.9174 36.871 86.8534C37.5719 86.7343 38.1254 86.4531 38.2207 86.1867C37.3472 86.0334 36.4439 86.3995 35.8755 86.8802Z" fill="#A2A2A2"/>
<path d="M29.5679 95.7769L29.9816 144.032H29.5679V95.7769Z" fill="#6F6F6F"/>
<path d="M29.5679 94.7933L33.4845 90.9526L29.5679 95.3186V94.7933Z" fill="#A2A2A2"/>
<path d="M173.325 151.597L169.227 153.984C168.066 154.376 166.049 154.64 165.221 154.507C164.394 154.376 159.967 153.29 159.623 153.112C159.279 152.933 156.525 151.595 156.525 151.595H173.325V151.597Z" fill="#A2A2A2"/>
<path d="M167.388 152.491L168.249 146.22H164.112L164.456 152.491H167.388Z" fill="#565656"/>
<path d="M163.681 152.012L164.456 152.491L164.112 146.22H162.905L163.681 152.012Z" fill="#898989"/>
<path d="M166.816 144.08C166.816 144.22 168.249 146.221 168.249 146.221H164.111L164.714 144.08H166.816Z" fill="#6F6F6F"/>
<path d="M162.905 146.22L164.456 144.08H164.715L164.112 146.22H163.518H162.905Z" fill="#525660"/>
<path d="M166.816 144.08L166.181 94.1406H165.276L164.456 144.08H166.816Z" fill="#565656"/>
<path d="M165.636 95.8254L159.628 88.7124H159.887L165.636 94.8418V95.8254Z" fill="#565656"/>
<path d="M159.832 87.5464C159.508 86.8321 158.21 86.0182 156.98 86.2369C155.749 86.4557 154.575 86.9467 154.518 87.5464C154.462 88.1461 154.518 88.3649 154.518 88.3649C154.518 88.3649 155.413 89.5657 156.085 89.5657C156.756 89.5657 158.706 89.7845 159.218 89.5657C159.554 89.4229 159.889 89.1297 159.889 89.1297C159.889 89.1297 159.994 87.9065 159.832 87.5464Z" fill="#5D6274"/>
<path d="M155.928 89.5441C155.9 89.5367 155.871 89.5292 155.843 89.5203C155.83 89.5158 155.815 89.5099 155.8 89.5039C155.772 89.492 155.743 89.4801 155.713 89.4652C155.702 89.4593 155.688 89.4533 155.676 89.4474C155.638 89.428 155.6 89.4057 155.562 89.3819C155.559 89.3804 155.556 89.3789 155.554 89.3774C155.513 89.3506 155.471 89.3224 155.431 89.2926C155.42 89.2852 155.408 89.2762 155.398 89.2673C155.368 89.245 155.339 89.2212 155.309 89.1989C155.295 89.1884 155.283 89.178 155.27 89.1676C155.242 89.1438 155.215 89.12 155.188 89.0962C155.176 89.0858 155.166 89.0754 155.154 89.0664C155.121 89.0367 155.09 89.0069 155.059 88.9756C155.054 88.9712 155.05 88.9682 155.045 88.9637C155.01 88.9295 154.975 88.8938 154.943 88.8596C154.934 88.8507 154.925 88.8402 154.916 88.8313C154.892 88.8075 154.87 88.7837 154.849 88.7599C154.837 88.748 154.827 88.7361 154.816 88.7227C154.798 88.7033 154.782 88.684 154.764 88.6646C154.754 88.6527 154.742 88.6408 154.733 88.6289C154.716 88.6111 154.703 88.5932 154.688 88.5768C154.679 88.5664 154.67 88.556 154.663 88.5471C154.648 88.5292 154.636 88.5143 154.623 88.498C154.62 88.4935 154.615 88.4891 154.611 88.4846C154.916 88.001 155.926 87.6141 156.978 87.4266C158.117 87.2242 159.684 88.4935 159.914 88.687C159.904 88.9384 159.888 89.1289 159.888 89.1289C159.888 89.1289 159.551 89.4221 159.216 89.5649C158.705 89.7837 156.755 89.5649 156.084 89.5649C156.045 89.5649 156.007 89.5605 155.966 89.553C155.953 89.55 155.941 89.5471 155.928 89.5441Z" fill="#3C3C3C"/>
<path d="M155.877 89.529C155.835 89.5156 155.792 89.4993 155.749 89.4799C155.736 89.474 155.722 89.468 155.709 89.4621C155.654 89.4353 155.599 89.404 155.545 89.3698C155.533 89.3624 155.523 89.3549 155.513 89.3475C155.468 89.3177 155.423 89.2865 155.38 89.2523C155.364 89.2403 155.349 89.2284 155.332 89.2151C155.288 89.1793 155.243 89.1421 155.2 89.1034C155.193 89.096 155.184 89.0901 155.176 89.0826C155.126 89.0365 155.076 88.9904 155.03 88.9442C155.018 88.9323 155.005 88.9189 154.993 88.907C154.957 88.8713 154.923 88.8356 154.89 88.7999C154.88 88.788 154.868 88.7776 154.858 88.7657C154.818 88.721 154.779 88.6779 154.743 88.6392C155.148 88.3282 156.047 88.0811 156.98 87.9547C158.066 87.8073 159.567 88.6793 159.905 88.8862C159.901 88.9695 159.896 89.0365 159.892 89.0781L159.841 89.1674C159.834 89.1734 159.823 89.1823 159.813 89.1898C159.803 89.1987 159.791 89.2076 159.779 89.2165C159.771 89.2225 159.762 89.2284 159.753 89.2359C159.733 89.2523 159.71 89.2686 159.687 89.2865C159.682 89.2895 159.679 89.2924 159.676 89.2954C159.646 89.3177 159.614 89.34 159.579 89.3624C159.575 89.3653 159.57 89.3683 159.565 89.3713C159.536 89.3906 159.506 89.4085 159.477 89.4278C159.466 89.4338 159.457 89.4398 159.447 89.4457C159.42 89.4621 159.392 89.477 159.364 89.4933C159.353 89.4993 159.343 89.5052 159.331 89.5112C159.292 89.5305 159.254 89.5499 159.215 89.5662C158.703 89.785 156.754 89.5662 156.082 89.5662C156.03 89.5662 155.977 89.5573 155.922 89.5439C155.908 89.538 155.892 89.5335 155.877 89.529Z" fill="#6F6F6F"/>
<path d="M156.978 88.2121C158.054 88.0886 159.539 88.8267 159.896 89.0142C159.892 89.0856 159.887 89.1287 159.887 89.1287C159.887 89.1287 159.551 89.4219 159.216 89.5647C158.704 89.7835 156.755 89.5647 156.084 89.5647C155.664 89.5647 155.155 89.0945 154.834 88.7418C155.271 88.5023 156.106 88.3118 156.978 88.2121Z" fill="#F1F2F2"/>
<path d="M166.816 144.08H166.181V94.1406L166.816 144.08Z" fill="#6F6F6F"/>
<path d="M165.636 94.1406V144.08H166.58L166.181 94.1406H165.636Z" fill="#3C3C3C"/>
<path d="M166.181 144.08L168.249 146.22L166.816 144.08H166.181Z" fill="#41454A"/>
<path d="M166.816 152.491L167.868 146.22H168.249L167.387 152.491H166.816Z" fill="#3C3C3C"/>
<path d="M165.636 95.8253L159.922 88.998L165.636 95.367V95.8253Z" fill="#3C3C3C"/>
<path d="M159.329 86.928C159.057 86.9697 158.707 86.9652 158.334 86.9012C157.633 86.7822 157.079 86.5009 156.984 86.2346C157.856 86.0813 158.761 86.4474 159.329 86.928Z" fill="#A2A2A2"/>
<path d="M165.636 95.8247L165.224 144.08H165.636V95.8247Z" fill="#6F6F6F"/>
<path d="M165.636 94.8412L161.721 91.0005L165.636 95.3665V94.8412Z" fill="#A2A2A2"/>
<path d="M149.466 99.1095C140.645 99.1095 112.096 98.3282 87.3111 97.5158C71.9156 97.0113 57.9486 96.4949 47.9845 96.0634C30.3241 95.2985 30.1723 95.0292 30.0919 94.8834L30.0532 94.8134L30.0979 94.7316L30.208 94.803L30.333 94.7837C30.3241 94.7465 30.3002 94.7271 30.2928 94.7227C31.0651 95.1527 53.651 96.1527 87.8305 97.2702C114.802 98.1527 146.265 98.9964 151.448 98.8253C162.185 98.4681 165.515 95.5039 165.548 95.4741L165.726 95.6661C165.592 95.7911 162.313 98.7271 151.457 99.0872C150.993 99.102 150.322 99.1095 149.466 99.1095Z" fill="#333333"/>
<path d="M122.049 105.118C116.287 105.118 110.028 104.771 103.387 103.902C66.8204 99.1165 29.9252 95.4856 29.5562 95.4484L29.5814 95.188C29.9505 95.2237 66.8502 98.8546 103.421 103.642C122.508 106.14 138.434 104.317 148.434 102.347C159.268 100.213 165.671 97.4528 165.734 97.4246L165.839 97.6656C165.776 97.6939 159.353 100.463 148.493 102.603C141.952 103.892 132.88 105.118 122.049 105.118Z" fill="#333333"/>
<path d="M29.1229 94.774L29.0738 94.5166C19.327 96.5419 17.5562 96.3975 17.5562 96.3975V96.5984C18.3106 96.5761 18.7228 96.5538 19.4088 96.466C22.6052 96.0597 28.2524 94.9422 29.1229 94.774Z" fill="#333333"/>
<path d="M29.1482 95.8847L29.0604 95.6377C19.6647 99.2314 17.5562 99.2954 17.5562 99.2954V99.6733C17.827 99.6927 18.263 99.6302 18.4981 99.5885C20.9906 99.1555 26.8997 96.6838 29.1482 95.8847Z" fill="#333333"/>
<path d="M278.14 151.554L274.042 153.941C272.881 154.334 270.863 154.597 270.036 154.465C269.209 154.334 264.782 153.248 264.438 153.069C264.094 152.891 261.34 151.553 261.34 151.553H278.14V151.554Z" fill="#A2A2A2"/>
<path d="M272.203 152.448L273.065 146.178H268.928L269.271 152.448H272.203Z" fill="#565656"/>
<path d="M268.496 151.969L269.272 152.448L268.928 146.178H267.721L268.496 151.969Z" fill="#898989"/>
<path d="M271.632 144.038C271.632 144.177 273.065 146.179 273.065 146.179H268.926L269.529 144.038H271.632Z" fill="#6F6F6F"/>
<path d="M267.721 146.177L269.272 144.038H269.531L268.928 146.177H268.334H267.721Z" fill="#525660"/>
<path d="M271.632 144.038L270.996 94.0981H270.091L269.271 144.038H271.632Z" fill="#565656"/>
<path d="M270.452 95.7829L264.444 88.6699H264.703L270.452 94.7993V95.7829Z" fill="#565656"/>
<path d="M264.648 87.503C264.324 86.7887 263.026 85.9747 261.795 86.1935C260.565 86.4122 259.391 86.9033 259.334 87.503C259.278 88.1026 259.334 88.3214 259.334 88.3214C259.334 88.3214 260.229 89.5223 260.901 89.5223C261.572 89.5223 263.522 89.741 264.034 89.5223C264.37 89.3794 264.705 89.0863 264.705 89.0863C264.705 89.0863 264.81 87.8631 264.648 87.503Z" fill="#5D6274"/>
<path d="M260.744 89.5016C260.715 89.4942 260.687 89.4867 260.659 89.4778C260.645 89.4733 260.631 89.4674 260.616 89.4614C260.587 89.4495 260.558 89.4376 260.529 89.4227C260.518 89.4168 260.504 89.4108 260.492 89.4049C260.454 89.3855 260.416 89.3632 260.378 89.3394C260.375 89.3379 260.372 89.3364 260.37 89.3349C260.329 89.3082 260.287 89.2799 260.247 89.2501C260.236 89.2427 260.224 89.2338 260.214 89.2248C260.184 89.2025 260.154 89.1787 260.125 89.1564C260.111 89.146 260.099 89.1355 260.086 89.1251C260.058 89.1013 260.031 89.0775 260.004 89.0537C259.992 89.0433 259.982 89.0329 259.97 89.0239C259.937 88.9942 259.906 88.9644 259.875 88.9332C259.87 88.9287 259.866 88.9257 259.861 88.9213C259.826 88.887 259.791 88.8513 259.759 88.8171C259.75 88.8082 259.741 88.7978 259.732 88.7888C259.708 88.765 259.686 88.7412 259.665 88.7174C259.653 88.7055 259.643 88.6936 259.632 88.6802C259.614 88.6609 259.598 88.6415 259.58 88.6222C259.57 88.6103 259.558 88.5984 259.549 88.5864C259.532 88.5686 259.519 88.5507 259.504 88.5344C259.495 88.524 259.486 88.5135 259.479 88.5046C259.464 88.4867 259.452 88.4719 259.439 88.4555C259.436 88.451 259.431 88.4466 259.427 88.4421C259.732 87.9585 260.742 87.5716 261.794 87.3841C262.933 87.1817 264.5 88.451 264.73 88.6445C264.72 88.896 264.703 89.0864 264.703 89.0864C264.703 89.0864 264.367 89.3796 264.032 89.5224C263.52 89.7412 261.571 89.5224 260.9 89.5224C260.861 89.5224 260.823 89.518 260.782 89.5105C260.769 89.5076 260.757 89.5046 260.744 89.5016Z" fill="#3C3C3C"/>
<path d="M260.693 89.4866C260.651 89.4732 260.608 89.4568 260.565 89.4374C260.552 89.4315 260.538 89.4255 260.525 89.4196C260.47 89.3928 260.415 89.3616 260.361 89.3273C260.349 89.3199 260.339 89.3124 260.328 89.305C260.284 89.2752 260.239 89.244 260.196 89.2098C260.18 89.1979 260.165 89.186 260.148 89.1726C260.104 89.1369 260.059 89.0997 260.016 89.061C260.008 89.0535 260 89.0476 259.992 89.0401C259.942 88.994 259.892 88.9479 259.846 88.9017C259.834 88.8898 259.821 88.8764 259.809 88.8645C259.773 88.8288 259.739 88.7931 259.706 88.7574C259.696 88.7455 259.684 88.7351 259.674 88.7232C259.633 88.6785 259.595 88.6354 259.559 88.5967C259.964 88.2857 260.863 88.0387 261.796 87.9122C262.882 87.7649 264.383 88.6369 264.721 88.8437C264.717 88.927 264.712 88.994 264.708 89.0357L264.657 89.125C264.65 89.1309 264.639 89.1398 264.629 89.1473C264.619 89.1562 264.607 89.1651 264.595 89.1741C264.587 89.18 264.578 89.186 264.569 89.1934C264.549 89.2098 264.526 89.2261 264.502 89.244C264.498 89.247 264.495 89.25 264.492 89.2529C264.462 89.2752 264.43 89.2976 264.395 89.3199C264.391 89.3229 264.386 89.3258 264.38 89.3288C264.352 89.3482 264.322 89.366 264.293 89.3854C264.282 89.3913 264.273 89.3973 264.263 89.4032C264.236 89.4196 264.208 89.4345 264.18 89.4508C264.169 89.4568 264.159 89.4627 264.147 89.4687C264.108 89.488 264.069 89.5074 264.031 89.5238C263.519 89.7425 261.569 89.5238 260.898 89.5238C260.846 89.5238 260.793 89.5148 260.738 89.5014C260.724 89.4955 260.708 89.491 260.693 89.4866Z" fill="#6F6F6F"/>
<path d="M261.794 88.1696C262.87 88.0461 264.355 88.7842 264.712 88.9717C264.707 89.0431 264.703 89.0863 264.703 89.0863C264.703 89.0863 264.367 89.3794 264.032 89.5223C263.52 89.741 261.571 89.5223 260.899 89.5223C260.48 89.5223 259.971 89.052 259.649 88.6994C260.087 88.4598 260.923 88.2693 261.794 88.1696Z" fill="#F1F2F2"/>
<path d="M271.632 144.038H270.996V94.0981L271.632 144.038Z" fill="#6F6F6F"/>
<path d="M270.451 94.0981V144.038H271.395L270.996 94.0981H270.451Z" fill="#3C3C3C"/>
<path d="M270.996 144.038L273.065 146.177L271.632 144.038H270.996Z" fill="#41454A"/>
<path d="M271.631 152.448L272.683 146.178H273.064L272.203 152.448H271.631Z" fill="#3C3C3C"/>
<path d="M270.451 95.7828L264.737 88.9556L270.451 95.3245V95.7828Z" fill="#3C3C3C"/>
<path d="M264.145 86.8855C263.873 86.9272 263.523 86.9227 263.149 86.8587C262.449 86.7397 261.895 86.4585 261.8 86.1921C262.672 86.0388 263.577 86.4049 264.145 86.8855Z" fill="#A2A2A2"/>
<path d="M270.452 95.7822L270.04 144.037H270.452V95.7822Z" fill="#6F6F6F"/>
<path d="M270.451 94.7987L266.536 90.958L270.451 95.324V94.7987Z" fill="#A2A2A2"/>
<path d="M270.363 95.4302C270.33 95.4599 267 98.4242 256.263 98.7813C251.08 98.9539 219.616 98.1087 192.645 97.2263C177.369 96.7263 169.799 96.6697 165.985 96.2575L165.946 96.5492C173.735 96.8453 182.659 97.1608 192.127 97.4703C216.911 98.2828 245.461 99.064 254.283 99.064C255.138 99.064 255.809 99.0566 256.272 99.0417C267.128 98.6801 270.406 95.7456 270.541 95.6206L270.363 95.4302Z" fill="#333333"/>
<path d="M226.865 105.076C221.103 105.076 214.844 104.729 208.203 103.86C172.726 99.2176 168.542 98.2682 166.104 98.0271C166.033 98.0197 165.981 97.9557 165.988 97.8843C165.995 97.8129 166.058 97.7593 166.131 97.7667C168.571 98.0078 172.759 98.9572 208.239 103.6C227.326 106.098 243.252 104.276 253.251 102.305C264.086 100.171 270.489 97.4111 270.552 97.3828L270.657 97.6239C270.593 97.6522 264.171 100.421 253.311 102.561C246.768 103.85 237.697 105.076 226.865 105.076Z" fill="#333333"/>
<path d="M276.752 97.1831C274.364 97.2813 271.016 95.6355 270.983 95.6191L270.867 95.8543C271.003 95.9212 274.105 97.451 276.535 97.451C276.613 97.451 276.69 97.4495 276.766 97.4465C278.711 97.3646 279.48 96.8141 279.738 96.5566V96.3557C279.736 96.3557 279.083 97.0849 276.752 97.1831Z" fill="#333333"/>
<path d="M278.467 99.707C277.186 99.6088 271.019 97.9094 270.957 97.8931L270.89 98.146C271.144 98.213 277.143 99.7948 278.433 99.9659C278.567 99.9838 278.692 99.9927 278.808 99.9927C279.166 99.9927 279.443 99.9094 279.634 99.7427C279.675 99.707 279.706 99.6683 279.736 99.6311V99.2532C279.736 99.2532 279.681 99.8008 278.467 99.707Z" fill="#333333"/>
<path d="M201.417 141.496C201.789 141.868 202.092 142.721 202.089 144.209C202.086 145.694 202.344 146.159 202.94 146.562L202.982 146.567C203.191 145.336 203.162 144.178 203.061 143.22L203.079 143.212C202.818 142.603 202.573 141.922 202.36 141.252H202.357C201.978 141.297 201.682 141.394 201.416 141.486L201.417 141.496Z" fill="#A7A9AC"/>
<path d="M201.414 141.486C201.106 141.597 200.832 141.705 200.523 141.735L200.526 141.759C200.887 141.996 201.237 143.046 200.587 143.88C201.151 144.825 201.135 146.416 201.867 147.073C202.189 147.361 202.521 147.448 202.795 147.46V147.455C202.873 147.154 202.935 146.858 202.984 146.566L202.942 146.56C202.346 146.159 202.088 145.693 202.09 144.207C202.093 142.719 201.79 141.867 201.418 141.495L201.414 141.486Z" fill="#A7A9AC"/>
<path d="M209.957 151.55C209.369 152.33 209.034 152.826 209.132 153.576L209.138 153.65C209.483 153.621 209.783 153.555 209.933 153.426C211.327 152.246 212.342 150.004 212.611 149.242L212.68 149.176C212.239 148.708 211.855 148.482 211.501 148.305L211.471 148.363C211.468 149.098 211.114 150.019 209.957 151.55Z" fill="#A7A9AC"/>
<path d="M207.909 153.65C208.272 153.672 208.736 153.684 209.137 153.65L209.132 153.576C209.032 152.826 209.369 152.331 209.957 151.55C211.114 150.02 211.467 149.099 211.47 148.363L211.501 148.305V148.303C211.312 148.207 211.132 148.126 210.955 148.023C210.902 147.994 210.842 147.954 210.773 147.907L210.755 147.933C210.857 148.651 210.083 149.701 209.091 149.587C209.384 151.046 208.485 151.325 207.984 152.627C207.858 152.954 207.834 153.339 207.861 153.653L207.909 153.65Z" fill="#A7A9AC"/>
<path d="M207.861 153.654C207.888 153.948 207.961 154.181 208.035 154.247C208.56 154.322 209.645 154.35 210.083 154.152C211.183 153.656 212.998 150.314 213.093 149.665C212.949 149.475 212.814 149.317 212.679 149.176L212.611 149.242C212.341 150.005 211.327 152.247 209.933 153.426C209.783 153.555 209.483 153.621 209.138 153.651C208.736 153.684 208.271 153.672 207.909 153.651L207.861 153.654Z" fill="white"/>
<path d="M209.806 147.198C209.827 147.921 209.141 148.644 208.484 148.923L208.436 148.977C208.792 149.288 209.036 149.512 209.09 149.586C210.081 149.7 210.856 148.65 210.753 147.932L210.771 147.905C210.529 147.744 210.199 147.486 209.83 147.167L209.806 147.198Z" fill="white"/>
<path d="M202.983 146.569C202.935 146.86 202.872 147.157 202.793 147.458V147.463C203.065 147.479 203.279 147.418 203.378 147.4C203.666 146.841 203.75 145.662 203.721 144.474L203.723 144.471C203.502 144.126 203.286 143.694 203.078 143.213L203.06 143.222C203.162 144.179 203.192 145.338 202.983 146.569Z" fill="#D9CECE"/>
<path d="M199.582 141.744C199.983 142.101 200.128 143.158 199.693 143.852V143.888C200.088 143.885 200.407 143.883 200.586 143.883C201.237 143.049 200.887 141.997 200.526 141.761L200.523 141.737C200.508 141.74 200.492 141.743 200.478 141.743C200.248 141.761 199.978 141.758 199.582 141.737V141.744Z" fill="#D9CECE"/>
<path d="M198.233 143.847V143.91C198.763 143.904 199.273 143.897 199.693 143.889V143.853C200.128 143.159 199.985 142.103 199.582 141.745V141.737C199.247 141.721 198.817 141.692 198.241 141.655L198.238 141.697C198.639 142.055 198.667 143.151 198.233 143.847Z" fill="#E6A373"/>
<path d="M208.769 146.2C208.787 146.923 207.933 147.664 207.275 147.943L207.266 147.952C207.71 148.339 208.118 148.693 208.436 148.978L208.484 148.925C209.14 148.645 209.828 147.922 209.807 147.199L209.831 147.17C209.498 146.888 209.135 146.555 208.771 146.197L208.769 146.2Z" fill="#FFD699"/>
<path d="M198.238 141.697L198.241 141.655C198.07 141.646 197.887 141.634 197.689 141.621L197.656 141.576V141.573C199.404 140.379 200.963 138.735 201.588 138.221C201.659 138.767 201.954 139.983 202.358 141.252C202.571 141.922 202.816 142.603 203.077 143.212C203.285 143.692 203.5 144.124 203.723 144.47C203.791 144.581 203.863 144.683 203.936 144.773C204.515 145.512 206.029 146.862 207.267 147.952L207.276 147.943C207.932 147.664 208.786 146.923 208.77 146.2L208.772 146.197C207.678 145.131 206.58 143.846 206.353 143.003C205.855 141.172 206.121 137.384 204.397 133.669C202.8 134.068 198.088 134.893 197.239 135.094C197.313 135.545 197.389 135.883 197.539 136.37C196.226 138.096 193.828 140.797 193.633 142.259C193.516 143.129 193.735 143.771 195.159 143.921C195.842 143.934 197.09 143.921 198.232 143.908V143.845C198.667 143.15 198.639 142.055 198.238 141.697Z" fill="#54C0E8"/>
<path d="M198.238 141.697L198.241 141.655C198.07 141.647 197.888 141.634 197.69 141.622L197.656 141.577V141.574C199.404 140.379 200.964 138.735 201.588 138.221C201.594 138.263 201.601 138.308 201.609 138.356H201.612C202.107 137.615 204.635 136.91 205.618 137.641C205.387 136.372 205.025 135.016 204.398 133.668C202.8 134.067 198.088 134.892 197.24 135.093C197.314 135.544 197.39 135.882 197.54 136.369C196.227 138.095 193.828 140.796 193.633 142.258C193.517 143.128 193.736 143.77 195.159 143.92C195.842 143.933 197.091 143.92 198.233 143.907V143.844C198.668 143.151 198.64 142.055 198.238 141.697Z" fill="#54C0E8"/>
<path d="M193.484 142.238C193.645 141.033 195.17 139.12 196.515 137.431C196.824 137.043 197.118 136.674 197.373 136.34C197.244 135.911 197.169 135.583 197.091 135.118C197.079 135.04 197.128 134.965 197.205 134.947C197.539 134.868 198.465 134.694 199.539 134.491C201.253 134.168 203.388 133.765 204.362 133.52C204.367 133.519 204.373 133.52 204.377 133.52C204.387 133.519 204.397 133.519 204.408 133.519C204.418 133.519 204.426 133.52 204.436 133.523C204.446 133.526 204.454 133.529 204.463 133.533C204.471 133.537 204.48 133.542 204.488 133.549C204.495 133.554 204.502 133.56 204.508 133.567C204.515 133.574 204.52 133.582 204.526 133.591C204.529 133.595 204.533 133.598 204.536 133.603C205.71 136.133 205.974 138.745 206.166 140.651C206.258 141.578 206.34 142.38 206.498 142.962C206.905 144.46 210.133 147.381 211.032 147.89C211.153 147.959 211.275 148.018 211.399 148.08C211.913 148.333 212.494 148.62 213.216 149.572C213.24 149.605 213.251 149.645 213.244 149.685C213.147 150.354 211.328 153.755 210.148 154.285C209.875 154.409 209.399 154.45 208.945 154.45C208.584 154.45 208.238 154.423 208.016 154.392C207.988 154.388 207.961 154.377 207.94 154.357C207.72 154.168 207.585 153.254 207.848 152.568C208.031 152.091 208.267 151.746 208.475 151.441C208.846 150.898 209.117 150.502 208.953 149.647C208.828 149.505 208.25 148.999 207.64 148.466C206.343 147.332 204.582 145.79 203.878 144.931C203.877 145.766 203.813 146.891 203.515 147.466C203.494 147.508 203.453 147.536 203.408 147.545L203.349 147.556C203.248 147.577 203.083 147.612 202.879 147.612C202.565 147.612 202.161 147.529 201.774 147.183C201.321 146.777 201.136 146.059 200.957 145.365C200.835 144.893 200.711 144.407 200.506 144.028C200.243 144.029 199.797 144.035 199.263 144.042C197.913 144.059 196.063 144.083 195.161 144.067C195.161 144.067 195.161 144.067 195.16 144.067C195.156 144.067 195.151 144.067 195.147 144.067C194.445 143.993 193.976 143.795 193.715 143.464C193.411 143.084 193.437 142.583 193.484 142.238ZM211.608 148.531C211.551 149.35 211.075 150.319 210.078 151.643C209.528 152.372 209.217 152.83 209.278 153.485C209.619 153.442 209.771 153.369 209.837 153.313C211.216 152.144 212.203 149.943 212.468 149.193C212.47 149.189 212.474 149.186 212.475 149.181C212.161 148.866 211.879 148.678 211.608 148.531ZM210.022 154.016C211.011 153.571 212.75 150.483 212.933 149.704C212.854 149.602 212.777 149.511 212.703 149.423C212.373 150.294 211.387 152.391 210.03 153.541C209.809 153.73 209.33 153.822 208.577 153.822C208.41 153.822 208.226 153.817 208.033 153.808C208.055 153.944 208.085 154.054 208.113 154.107C208.688 154.18 209.654 154.182 210.022 154.016ZM208.72 151.615C208.511 151.92 208.297 152.236 208.125 152.681C208.023 152.947 207.996 153.247 208.005 153.506C208.41 153.526 208.73 153.525 208.98 153.51C208.908 152.747 209.262 152.226 209.838 151.461C210.855 150.114 211.311 149.162 211.318 148.38C211.3 148.37 211.28 148.361 211.262 148.352C211.141 148.292 211.023 148.233 210.906 148.167C210.876 148.526 210.691 148.918 210.395 149.223C210.077 149.551 209.673 149.734 209.263 149.742C209.391 150.621 209.081 151.087 208.72 151.615ZM209.162 149.439C209.652 149.473 210.011 149.192 210.182 149.015C210.476 148.712 210.646 148.296 210.608 147.976C210.42 147.844 210.192 147.667 209.938 147.456C209.826 148.092 209.27 148.693 208.688 148.995C208.921 149.203 209.081 149.35 209.162 149.439ZM207.834 148.244C208.068 148.449 208.269 148.625 208.442 148.779C209.039 148.516 209.663 147.854 209.656 147.219C209.408 147.006 209.147 146.769 208.879 146.514C208.719 147.136 208.085 147.692 207.535 147.983C207.639 148.073 207.74 148.161 207.834 148.244ZM203.569 144.504C203.468 144.341 203.367 144.161 203.268 143.968C203.329 145.148 203.234 146.269 202.98 147.31C203.099 147.302 203.202 147.284 203.273 147.268C203.492 146.783 203.6 145.784 203.569 144.504ZM201.483 138.51C201.335 138.645 201.154 138.815 200.943 139.013C200.208 139.704 199.173 140.675 198.034 141.494L198.578 141.527C199.586 141.592 200.089 141.623 200.466 141.593C200.734 141.571 200.971 141.487 201.245 141.39C201.506 141.296 201.8 141.195 202.165 141.133C201.837 140.083 201.591 139.093 201.483 138.51ZM200.507 143.732C200.831 143.278 200.82 142.808 200.779 142.564C200.723 142.221 200.573 141.981 200.452 141.895C200.356 141.902 200.253 141.906 200.137 141.906C200.06 141.906 199.976 141.905 199.884 141.902C200.141 142.368 200.199 143.135 199.922 143.739C200.165 143.734 200.364 143.732 200.507 143.732ZM202.258 141.421C202.036 141.456 201.844 141.506 201.666 141.563C202.039 142.079 202.242 143.003 202.24 144.209C202.237 145.515 202.433 145.977 202.869 146.323C203.012 145.352 203.029 144.32 202.913 143.239C202.911 143.228 202.914 143.216 202.916 143.205C202.676 142.644 202.454 142.029 202.258 141.421ZM201.242 145.293C201.418 145.974 201.584 146.618 201.969 146.962C202.21 147.178 202.457 147.268 202.676 147.299C202.728 147.089 202.774 146.872 202.813 146.655C202.218 146.242 201.935 145.749 201.938 144.208C201.942 142.583 201.575 141.914 201.366 141.662C201.359 141.665 201.352 141.668 201.345 141.669C201.165 141.734 200.991 141.793 200.809 141.836C200.934 142.01 201.032 142.25 201.074 142.512C201.122 142.801 201.136 143.354 200.758 143.89C200.983 144.303 201.116 144.804 201.242 145.293ZM199.583 143.742C199.959 143.107 199.811 142.194 199.506 141.884C199.246 141.87 198.939 141.85 198.56 141.826L198.521 141.824C198.78 142.307 198.759 143.136 198.454 143.754C198.731 143.751 199.002 143.747 199.254 143.744C199.368 143.744 199.476 143.743 199.583 143.742ZM193.947 143.28C194.154 143.544 194.554 143.704 195.168 143.77C195.83 143.781 197 143.772 198.108 143.758C198.517 143.101 198.473 142.104 198.141 141.808C198.138 141.805 198.137 141.801 198.134 141.798L197.682 141.77C197.669 141.769 197.66 141.765 197.648 141.762C197.028 142.179 196.384 142.538 195.749 142.771C195.67 142.799 195.585 142.76 195.557 142.681C195.529 142.604 195.568 142.517 195.645 142.489C197.547 141.79 199.545 139.913 200.739 138.791C200.904 138.635 201.05 138.498 201.179 138.38C200.621 138.312 200.106 137.921 199.774 137.513C199.722 137.449 199.731 137.355 199.795 137.303C199.859 137.249 199.953 137.259 200.005 137.324C200.131 137.477 200.796 138.236 201.556 138.072C201.558 138.072 201.561 138.072 201.562 138.072C201.566 138.072 201.57 138.072 201.575 138.072C201.594 138.071 201.614 138.072 201.634 138.078C201.638 138.079 201.641 138.078 201.645 138.079C201.649 138.081 201.65 138.085 201.653 138.086C201.671 138.095 201.687 138.106 201.699 138.12C201.702 138.123 201.706 138.126 201.708 138.128C201.721 138.145 201.73 138.165 201.736 138.187C201.736 138.189 201.736 138.192 201.736 138.193C201.736 138.194 201.737 138.196 201.737 138.197C201.883 139.261 202.937 143.254 204.055 144.678C204.614 145.39 206.096 146.717 207.294 147.767C207.866 147.496 208.59 146.86 208.616 146.255C207.525 145.183 206.444 143.909 206.208 143.04C206.042 142.432 205.961 141.62 205.867 140.679C205.669 138.719 205.424 136.288 204.314 133.841C203.286 134.088 201.249 134.472 199.597 134.784C198.651 134.962 197.819 135.12 197.414 135.207C197.486 135.61 197.561 135.917 197.686 136.323C197.7 136.369 197.692 136.42 197.662 136.458C197.394 136.81 197.083 137.202 196.753 137.614C195.498 139.19 193.935 141.151 193.785 142.274C193.719 142.746 193.77 143.055 193.947 143.28Z" fill="#260C0C"/>
<path d="M200.775 124.415C199.984 124.637 199.165 124.913 198.613 125.231C198.194 125.476 197.765 125.919 197.933 126.42C198.157 127.095 199.129 127.09 199.533 127.069C199.89 127.05 200.586 126.924 201.381 126.757L201.372 126.709C200.449 125.912 200.674 124.815 200.787 124.459L200.775 124.415Z" fill="#54C0E8"/>
<path d="M205.063 125.899C205.327 126.49 205.468 126.775 205.827 127.685C205.39 128.07 205.06 128.369 205.05 128.711C205.042 129.176 205.108 129.371 205.237 129.827C205.113 130.121 205.245 130.542 205.498 130.661C206.275 131.034 206.805 130.931 206.964 130.569L206.982 130.581C207.082 130.84 207.609 130.872 207.707 130.444C207.868 129.747 208.034 128.883 207.608 128.301C207.355 126.11 207.107 124.453 206.735 123.962C206.178 123.223 204.258 123.605 202.621 123.967C202.152 124.073 201.475 124.223 200.773 124.418L200.786 124.46C200.672 124.817 200.447 125.913 201.371 126.711L201.379 126.758C202.683 126.48 204.256 126.093 205.063 125.899Z" fill="#E6A373"/>
<path d="M198.539 125.103C199.625 124.474 201.704 124.014 202.59 123.818C204.499 123.396 206.261 123.083 206.856 123.869C207.239 124.376 207.484 125.919 207.755 128.244C208.179 128.862 208.029 129.718 207.855 130.475C207.796 130.732 207.602 130.902 207.348 130.92C207.334 130.921 207.32 130.921 207.306 130.921C207.18 130.921 207.065 130.876 206.976 130.808C206.947 130.84 206.919 130.872 206.883 130.899C206.742 130.999 206.567 131.049 206.361 131.049C206.094 131.049 205.78 130.966 205.433 130.801C205.126 130.653 204.961 130.183 205.079 129.823L205.063 129.77C204.951 129.377 204.891 129.161 204.9 128.71C204.91 128.318 205.258 127.988 205.648 127.646C205.372 126.951 205.23 126.636 205.041 126.218L204.979 126.08C204.871 126.106 204.753 126.135 204.626 126.166C203.148 126.521 200.399 127.184 199.541 127.225C198.561 127.272 197.972 127.017 197.789 126.472C197.598 125.894 198.051 125.387 198.539 125.103ZM205.498 125.648C205.579 125.63 205.658 125.683 205.675 125.764C205.692 125.846 205.64 125.924 205.558 125.941C205.499 125.954 205.403 125.976 205.276 126.006L205.314 126.09C205.515 126.534 205.659 126.854 205.967 127.63C205.967 127.632 205.967 127.633 205.968 127.635C205.972 127.646 205.972 127.656 205.974 127.667C205.975 127.675 205.978 127.684 205.976 127.692C205.976 127.702 205.972 127.712 205.969 127.72C205.968 127.729 205.967 127.738 205.962 127.747C205.958 127.755 205.952 127.761 205.948 127.768C205.943 127.776 205.937 127.786 205.929 127.793C205.927 127.795 205.927 127.796 205.926 127.797C205.492 128.178 205.208 128.447 205.202 128.713C205.192 129.12 205.243 129.297 205.354 129.684L205.382 129.785C205.391 129.818 205.389 129.853 205.376 129.885C205.276 130.121 205.397 130.447 205.564 130.527C206.061 130.764 206.488 130.81 206.71 130.653C206.861 130.545 206.875 130.361 206.859 130.228C206.845 130.111 206.807 130.031 206.755 130.009C206.714 129.99 206.652 130.007 206.599 130.048C206.543 130.092 206.488 130.173 206.502 130.267C206.515 130.348 206.459 130.426 206.376 130.438C206.295 130.451 206.218 130.395 206.205 130.312C206.177 130.125 206.257 129.933 206.414 129.811C206.556 129.7 206.725 129.672 206.87 129.731C206.961 129.769 207.12 129.88 207.156 130.191C207.171 130.318 207.157 130.43 207.128 130.535C207.156 130.589 207.24 130.622 207.327 130.619C207.385 130.615 207.521 130.587 207.561 130.406C207.724 129.701 207.866 128.904 207.488 128.386C207.473 128.365 207.463 128.341 207.46 128.314C207.251 126.514 206.996 124.553 206.616 124.047C206.089 123.35 203.94 123.826 202.655 124.109C202.253 124.198 201.607 124.341 200.922 124.529C200.842 124.791 200.601 125.832 201.46 126.584C202.517 126.357 203.733 126.065 204.555 125.867C205.015 125.759 205.359 125.676 205.498 125.648ZM198.073 126.371C198.208 126.774 198.696 126.956 199.527 126.92C199.839 126.906 200.423 126.802 201.106 126.662C200.421 125.939 200.497 125.053 200.59 124.626C199.886 124.831 199.179 125.081 198.689 125.364C198.303 125.588 197.939 125.969 198.073 126.371Z" fill="#260C0C"/>
<path d="M195.32 126.202C195.462 126.363 195.621 126.492 195.768 126.55C195.649 126.043 195.642 125.073 196.368 124.6L196.413 124.581C196.26 124.236 196.099 123.874 195.97 123.573L195.919 123.6C195.716 123.65 194.594 124.125 194.744 125.149C194.78 125.415 195.027 125.874 195.32 126.202Z" fill="#F45197"/>
<path d="M198.265 122.745C198.431 123.13 198.56 123.429 198.816 124C199.003 124.037 199.314 124.051 199.314 124.051L199.375 124.087C199.87 123.214 200.484 122.589 201.072 122.433C201.111 122.425 201.15 122.415 201.186 122.407L201.183 122.394C200.316 122.235 199.441 122.31 198.316 122.724L198.265 122.745Z" fill="#F45197"/>
<path d="M200.382 124.347L200.39 124.374C200.888 124.761 201.425 125.484 201.964 126.424C202.612 126.073 202.981 124.944 202.42 124.158C202.968 123.258 202.383 122.163 201.184 122.405C201.148 122.414 201.11 122.424 201.07 122.432C200.483 122.588 199.868 123.213 199.373 124.086C199.025 124.69 198.735 125.41 198.54 126.175C199.288 125.197 199.699 124.579 200.382 124.347Z" fill="#F45197"/>
<path d="M195.767 126.55C195.619 126.492 195.461 126.363 195.319 126.202L195.292 126.226C195.392 129.025 196.041 132.726 196.89 135.628C198.255 136.201 203.137 135.364 205.085 134.127C204.249 131.31 203.097 128.389 201.964 126.424C201.424 125.484 200.888 124.761 200.39 124.374L200.382 124.347C199.698 124.577 199.287 125.197 198.54 126.175C198.39 126.7 198.176 132.628 198.252 133.828C196.793 130.953 196.016 127.901 195.767 126.55Z" fill="#F45197"/>
<path d="M198.816 123.999C198.742 124.861 197.802 125.685 196.786 125.49C196.702 125.256 196.562 124.928 196.412 124.58L196.367 124.599C195.642 125.073 195.647 126.042 195.767 126.549C196.015 127.899 196.792 130.952 198.252 133.827C198.178 132.627 198.39 126.699 198.54 126.174C198.735 125.409 199.025 124.688 199.373 124.085L199.313 124.048C199.314 124.051 199.003 124.036 198.816 123.999Z" fill="#F1F2F2"/>
<path d="M195.813 123.201C195.855 123.307 195.909 123.436 195.969 123.573C196.098 123.874 196.259 124.236 196.412 124.581C196.562 124.93 196.702 125.257 196.787 125.491C197.804 125.686 198.742 124.861 198.816 124C198.558 123.43 198.429 123.13 198.265 122.745C198.217 122.626 198.163 122.497 198.104 122.349C197.243 122.648 196.718 122.76 195.813 123.201Z" fill="#E6A373"/>
<path d="M195.77 123.489C195.735 123.404 195.701 123.324 195.675 123.256C195.647 123.183 195.677 123.1 195.749 123.066C196.412 122.743 196.873 122.594 197.406 122.422C197.606 122.357 197.818 122.288 198.056 122.205C198.131 122.18 198.216 122.221 198.246 122.295C198.285 122.388 198.32 122.472 198.352 122.552C199.413 122.176 200.299 122.081 201.211 122.246C201.214 122.246 201.215 122.248 201.218 122.249C201.767 122.158 202.252 122.319 202.538 122.704C202.837 123.105 202.858 123.664 202.599 124.151C202.834 124.529 202.907 125.005 202.799 125.473C202.701 125.894 202.472 126.257 202.174 126.474C203.324 128.505 204.446 131.431 205.234 134.085C205.254 134.149 205.227 134.218 205.171 134.255C203.656 135.218 200.364 135.969 198.275 135.969C197.672 135.969 197.167 135.906 196.837 135.767C196.795 135.75 196.765 135.713 196.752 135.671C195.874 132.674 195.244 128.968 195.147 126.231C195.147 126.229 195.147 126.228 195.147 126.226C194.862 125.883 194.638 125.44 194.599 125.171C194.45 124.172 195.372 123.639 195.77 123.489ZM198.02 122.535C197.833 122.599 197.661 122.655 197.497 122.708C197.009 122.865 196.584 123.003 196.006 123.275C196.101 123.504 196.23 123.8 196.365 124.105C196.565 124.56 196.772 125.029 196.896 125.356C197.293 125.409 197.697 125.298 198.041 125.039C198.388 124.776 198.618 124.398 198.662 124.022C198.362 123.354 198.24 123.062 198.02 122.535ZM195.914 126.514C195.914 126.516 195.914 126.517 195.914 126.517C195.914 126.519 195.916 126.52 195.916 126.521C196.209 128.108 196.946 130.722 198.09 133.15C198.086 131.205 198.256 126.656 198.396 126.138V126.137C198.396 126.135 198.397 126.134 198.397 126.132C198.577 125.423 198.838 124.761 199.145 124.188C199.083 124.184 199.013 124.178 198.943 124.17C198.86 124.588 198.599 124.994 198.222 125.279C197.883 125.536 197.491 125.669 197.094 125.669C196.982 125.669 196.87 125.658 196.758 125.637C196.706 125.627 196.664 125.59 196.645 125.541C196.577 125.352 196.467 125.092 196.347 124.81C195.801 125.266 195.811 126.08 195.914 126.514ZM198.469 122.83C198.597 123.134 198.717 123.411 198.921 123.864C199.072 123.886 199.263 123.896 199.311 123.897C199.699 123.25 200.148 122.75 200.601 122.476C199.933 122.439 199.252 122.552 198.469 122.83ZM202.506 125.404C202.604 124.98 202.531 124.568 202.3 124.244C202.265 124.195 202.262 124.13 202.294 124.078C202.54 123.677 202.541 123.208 202.298 122.882C202.053 122.552 201.621 122.441 201.112 122.576C200.329 122.784 199.458 123.948 198.93 125.419C199.747 124.365 200.269 123.903 201.847 124.158C201.928 124.171 201.984 124.248 201.97 124.331C201.958 124.413 201.882 124.47 201.798 124.455C201.336 124.38 200.98 124.37 200.681 124.425C201.117 124.828 201.57 125.447 202.021 126.211C202.246 126.034 202.427 125.739 202.506 125.404ZM197.016 135.515C198.359 135.993 202.899 135.27 204.912 134.061C204.136 131.476 202.994 128.516 201.847 126.516C201.842 126.51 201.835 126.507 201.831 126.499C201.827 126.492 201.827 126.483 201.824 126.476C201.318 125.6 200.813 124.912 200.337 124.526C199.821 124.741 199.459 125.214 198.89 125.964L198.681 126.239C198.54 126.847 198.329 132.615 198.404 133.818C198.409 133.889 198.362 133.953 198.295 133.972C198.282 133.977 198.268 133.978 198.256 133.978C198.201 133.978 198.148 133.947 198.122 133.896C196.809 131.313 195.968 128.397 195.635 126.648C195.576 126.617 195.518 126.58 195.459 126.534C195.588 129.192 196.188 132.665 197.016 135.515ZM194.892 125.127C194.933 125.407 195.247 125.954 195.568 126.243C195.52 125.7 195.631 124.96 196.222 124.525C196.178 124.427 196.135 124.327 196.091 124.227C196.021 124.066 195.952 123.911 195.889 123.765C195.597 123.871 194.773 124.31 194.892 125.127Z" fill="#260C0C"/>
<path d="M207.092 119.255C207.497 122.311 209.617 123.601 210.669 123.628L210.682 123.615C211.048 124.035 211.506 124.422 212.052 124.731C213.941 125.802 216.988 125.449 218.454 124.241C214.016 125.256 212.543 121.086 212.147 119.007C212.69 120.324 214.585 121.081 216.072 120.874C214.411 120.04 213.428 117.96 213.068 113.912C212.648 109.216 210.651 106.583 208.225 106.019C206.24 105.557 204.768 106.526 204.48 107.952C204.084 109.918 205.817 112.358 206.486 115.677C206.628 116.38 206.789 116.975 207.092 119.255Z" fill="#AC623D"/>
<path d="M214.744 125.52C216.217 125.52 217.685 125.068 218.549 124.359C218.603 124.314 218.619 124.24 218.589 124.176C218.558 124.115 218.489 124.081 218.42 124.096C217.064 124.408 215.884 124.242 214.912 123.608C213.512 122.692 212.816 120.987 212.49 119.81C213.347 120.742 214.885 121.193 216.095 121.025C216.159 121.016 216.211 120.966 216.222 120.901C216.233 120.836 216.2 120.772 216.141 120.742C214.466 119.901 213.564 117.791 213.216 113.901C212.823 109.503 210.97 106.503 208.26 105.874C207.217 105.633 206.232 105.762 205.487 106.242C204.884 106.631 204.473 107.228 204.333 107.924C204.093 109.11 204.598 110.451 205.183 112.004C205.595 113.096 206.061 114.335 206.337 115.708C206.361 115.83 206.386 115.948 206.413 116.073C206.538 116.661 206.693 117.394 206.942 119.275C207.348 122.354 209.502 123.709 210.613 123.776C210.982 124.182 211.436 124.56 211.975 124.866C212.784 125.321 213.765 125.52 214.744 125.52ZM217.782 124.512C216.278 125.333 213.804 125.552 212.125 124.603C210.707 123.8 209.843 122.381 209.723 121.394C209.713 121.312 209.638 121.252 209.556 121.263C209.474 121.273 209.416 121.347 209.426 121.43C209.496 122.009 209.795 122.74 210.324 123.428C209.256 123.167 207.59 121.873 207.24 119.236C206.991 117.342 206.834 116.603 206.707 116.009C206.681 115.886 206.656 115.768 206.632 115.647C206.351 114.25 205.88 112.999 205.465 111.897C204.896 110.388 204.406 109.085 204.627 107.981C204.751 107.367 205.114 106.837 205.65 106.493C206.326 106.058 207.228 105.941 208.193 106.166C210.771 106.764 212.539 109.666 212.919 113.927C213.247 117.597 214.073 119.738 215.577 120.758C214.289 120.754 212.755 120.088 212.286 118.952C212.257 118.881 212.178 118.844 212.105 118.865C212.031 118.888 211.986 118.962 212.001 119.038C212.201 120.077 212.865 122.628 214.749 123.859C215.616 124.426 216.635 124.645 217.782 124.512Z" fill="#260C0C"/>
<path d="M189.27 115.639C188.211 115.564 187.24 115.153 186.56 114.481C187.069 117.119 187.696 120.879 188.323 122.16C189.337 124.223 191.76 124.73 193.196 124.78C194.596 124.831 197.693 124.372 201.61 121.131C202.387 121.68 204.146 121.34 204.971 119.804C205.442 118.926 205.361 118.111 205.01 117.527C204.765 117.107 204.377 116.804 203.961 116.678C202.959 116.377 202.012 117.029 201.512 118.479C200.957 116.384 199.308 112.068 194.51 110.832C195.586 111.414 196.585 112.8 196.939 113.995C194.363 113.77 192.624 112.963 191.464 112.059C192.238 112.8 193.008 114.027 193.364 115.027C191.272 114.992 189.149 114.04 188.174 111.882C188.107 113.011 188.529 114.639 189.27 115.639Z" fill="#FFD699"/>
<path d="M205.453 107.98L204.928 108.28L204.902 108.299C205.22 108.718 205.505 109.203 205.738 109.745L205.827 109.705C205.827 109.705 206.278 109.481 206.428 109.366C206.652 108.73 206.128 107.905 205.453 107.98Z" fill="#54C0E8"/>
<path d="M186.559 114.481C187.24 115.153 188.212 115.564 189.269 115.639C188.529 114.639 188.105 113.009 188.172 111.882C189.147 114.04 191.27 114.992 193.363 115.027C193.006 114.027 192.235 112.8 191.462 112.059C192.622 112.961 194.361 113.77 196.937 113.995C196.583 112.8 195.585 111.413 194.509 110.832C199.306 112.069 200.956 116.384 201.51 118.479C202.011 117.029 202.959 116.379 203.959 116.678C204.376 116.804 204.763 117.107 205.008 117.527L205.039 117.509C205.564 116.945 206.631 114.921 206.388 112.293C206.302 111.354 206.07 110.496 205.738 109.745C205.503 109.202 205.219 108.719 204.902 108.299C204.124 107.264 203.157 106.613 202.266 106.481C202.833 106.259 203.381 106.13 204.089 106.03C203.489 105.769 201.891 105.429 201.142 106.03C201.385 104.613 200.062 103.004 198.227 102.969C198.678 103.381 199.192 104.161 199.343 105.13C195.558 103.141 190.431 104.484 188.37 106.837C185.758 105.418 183.278 106.742 182.891 108.674C183.473 108.191 185.113 108.095 186.115 108.352C184.889 108.706 183.374 109.672 183.052 111.642C182.822 113.056 183.016 115.087 185.116 116.251C184.367 114.75 185.359 112.971 185.622 112.71C185.746 113.412 186.082 114.013 186.559 114.481Z" fill="#AC623D"/>
<path d="M203.909 118.254C204.445 118.65 204.334 119.619 203.459 120.105C202.784 120.48 202.129 120.214 202.31 119.355C202.536 118.28 203.335 117.829 203.909 118.254Z" fill="#E6A373"/>
<path d="M191.44 120.48C191.198 120.178 190.765 120.179 190.839 120.48C190.915 120.78 191.59 120.668 191.44 120.48Z" fill="#E6A373"/>
<path d="M188.323 122.161C189.337 124.223 191.759 124.73 193.196 124.781C193.433 124.789 193.715 124.783 194.042 124.751C192.291 124.535 190.302 124.025 189.187 122.686C188.272 121.588 187.819 118.911 187.144 114.948C186.931 114.811 186.736 114.655 186.559 114.481C187.068 117.119 187.696 120.88 188.323 122.161Z" fill="white"/>
<path d="M183.054 111.642C182.824 113.055 183.018 115.087 185.117 116.251C183.169 114.787 182.149 110.51 186.116 108.352C184.889 108.706 183.374 109.673 183.054 111.642Z" fill="#CC846A"/>
<path d="M182.891 108.674C183.745 107.159 185.745 105.934 188.489 107.355C192.087 103.788 196.583 104.402 199.341 105.131C195.556 103.141 190.429 104.485 188.369 106.838C185.758 105.417 183.278 106.741 182.891 108.674Z" fill="#CC846A"/>
<path d="M188.172 111.882C188.106 113.011 188.529 114.639 189.269 115.639C188.21 115.564 187.239 115.153 186.559 114.481C186.601 114.702 186.646 114.934 186.691 115.171C187.585 116.158 189.24 116.396 190.407 116.071C190.009 115.644 189.466 114.739 189.16 114.153C190.18 115.192 192.312 115.995 194.485 115.771C194.434 115.42 194.065 114.433 193.52 113.908C194.485 114.628 197.078 115.045 198.053 114.857C197.987 114.53 197.489 112.509 196.032 111.369C195.563 111.153 195.057 110.973 194.508 110.832C195.584 111.414 196.583 112.8 196.937 113.995C194.361 113.77 192.622 112.963 191.462 112.059C192.236 112.8 193.006 114.027 193.362 115.027C191.27 114.992 189.146 114.04 188.172 111.882Z" fill="#E6A373"/>
<path d="M187.483 117.684C187.48 117.622 187.529 117.57 187.591 117.567C187.643 117.567 187.705 117.614 187.708 117.675C187.715 117.854 187.796 118.028 187.918 118.132C187.938 118.147 187.956 118.155 187.976 118.167C187.992 118.081 188.013 118 188.04 117.922C187.855 117.771 187.708 117.445 187.761 117.138C187.772 117.076 187.83 117.035 187.891 117.046C187.953 117.058 187.994 117.115 187.983 117.177C187.949 117.371 188.032 117.584 188.131 117.701C188.288 117.382 188.523 117.174 188.788 117.175C189.263 117.174 189.649 117.826 189.65 118.629C189.65 119.433 189.266 120.085 188.791 120.085C188.315 120.086 187.929 119.434 187.928 118.631C187.928 118.554 187.935 118.48 187.94 118.405C187.883 118.383 187.825 118.349 187.772 118.304C187.601 118.158 187.493 117.927 187.483 117.684Z" fill="#260C0C"/>
<path d="M194.079 117.157C194.479 117.085 194.877 117.335 195.134 117.755C195.407 117.672 195.609 117.428 195.622 117.151C195.625 117.089 195.678 117.043 195.74 117.044C195.802 117.047 195.849 117.101 195.847 117.162C195.83 117.52 195.581 117.836 195.239 117.958C195.277 118.043 195.308 118.131 195.333 118.224C195.705 118.243 196.092 117.995 196.186 117.65C196.201 117.589 196.265 117.556 196.323 117.571C196.384 117.588 196.419 117.65 196.402 117.71C196.286 118.14 195.84 118.45 195.384 118.454C195.5 119.225 195.152 119.921 194.588 120.022C194.012 120.126 193.428 119.569 193.288 118.777C193.148 117.984 193.501 117.259 194.079 117.157Z" fill="#260C0C"/>
<path d="M191.425 121.706C191.453 121.627 191.537 121.587 191.615 121.615C192.739 122.011 193.93 121.547 194.269 121.022C194.243 121.021 194.217 121.021 194.198 121.026C194.118 121.046 194.036 120.998 194.015 120.917C193.996 120.837 194.043 120.755 194.125 120.734C194.296 120.692 194.534 120.75 194.692 120.873C194.801 120.958 194.86 121.067 194.86 121.179C194.86 121.262 194.793 121.33 194.71 121.33C194.627 121.33 194.56 121.262 194.56 121.179C194.56 121.171 194.551 121.157 194.539 121.14C194.236 121.661 193.397 122.057 192.486 122.057C192.164 122.057 191.833 122.006 191.514 121.895C191.439 121.87 191.396 121.785 191.425 121.706Z" fill="#260C0C"/>
<path d="M202.272 119.692C202.345 119.692 202.41 119.639 202.421 119.565C202.563 118.61 203.072 118.258 203.466 118.245C203.735 118.229 203.956 118.383 204.001 118.597C204.017 118.679 204.097 118.732 204.179 118.714C204.26 118.697 204.312 118.617 204.295 118.537C204.219 118.176 203.881 117.922 203.458 117.946C202.95 117.961 202.295 118.383 202.125 119.521C202.113 119.603 202.17 119.68 202.251 119.691C202.257 119.692 202.265 119.692 202.272 119.692Z" fill="#260C0C"/>
<path d="M188.629 118.182C188.643 118.492 188.823 118.737 189.031 118.727C189.238 118.718 189.397 118.459 189.384 118.148C189.37 117.838 189.19 117.595 188.983 117.604C188.774 117.614 188.617 117.872 188.629 118.182Z" fill="white"/>
<path d="M189.909 117.446C189.93 117.446 189.949 117.442 189.969 117.434C190.045 117.4 190.078 117.312 190.045 117.236C189.774 116.628 189.137 116.117 188.53 116.02C188.203 115.968 187.924 116.048 187.747 116.246C187.692 116.308 187.696 116.402 187.758 116.458C187.82 116.513 187.915 116.508 187.97 116.447C188.107 116.294 188.325 116.292 188.483 116.317C188.914 116.386 189.512 116.774 189.771 117.359C189.798 117.413 189.852 117.446 189.909 117.446Z" fill="#260C0C"/>
<path d="M192.495 117.196C192.54 117.196 192.584 117.177 192.613 117.139C193.53 115.978 194.686 115.823 195.308 116.267C195.375 116.315 195.469 116.299 195.517 116.232C195.564 116.164 195.549 116.07 195.482 116.023C194.748 115.499 193.411 115.646 192.379 116.952C192.327 117.017 192.338 117.112 192.404 117.163C192.429 117.185 192.463 117.196 192.495 117.196Z" fill="#260C0C"/>
<path d="M194.109 118.308C194.224 118.631 194.511 118.822 194.75 118.736C194.988 118.651 195.088 118.319 194.973 117.996C194.856 117.675 194.57 117.483 194.332 117.568C194.092 117.654 193.992 117.985 194.109 118.308Z" fill="white"/>
<path d="M182.987 108.79C182.938 108.831 182.869 108.837 182.815 108.804C182.76 108.772 182.732 108.709 182.744 108.646C182.932 107.708 183.603 106.885 184.54 106.446C185.676 105.914 187.054 105.988 188.334 106.649C190.481 104.309 195.432 103.096 199.135 104.856C198.94 104.056 198.5 103.423 198.124 103.078C198.078 103.035 198.064 102.97 198.086 102.912C198.11 102.854 198.165 102.821 198.228 102.818C199.179 102.838 200.068 103.266 200.669 103.992C201.105 104.52 201.332 105.143 201.318 105.744C202.219 105.316 203.668 105.685 204.147 105.894C204.209 105.921 204.246 105.985 204.236 106.053C204.226 106.119 204.174 106.172 204.108 106.18C203.598 106.251 203.18 106.336 202.79 106.456C203.529 106.711 204.289 107.285 204.933 108.104L205.378 107.85C205.396 107.84 205.416 107.833 205.435 107.832C205.772 107.794 206.104 107.944 206.343 108.244C206.612 108.583 206.7 109.045 206.569 109.418C206.559 109.446 206.541 109.47 206.517 109.488C206.381 109.591 206.047 109.763 205.93 109.822C206.238 110.557 206.456 111.382 206.539 112.281C206.775 114.851 205.766 116.896 205.198 117.556C205.228 117.612 205.257 117.669 205.281 117.728C205.554 118.39 205.493 119.152 205.104 119.876C204.672 120.682 203.938 121.259 203.09 121.457C202.539 121.586 202 121.533 201.621 121.315C197.714 124.521 194.693 124.935 193.394 124.935C193.32 124.935 193.252 124.934 193.189 124.931C192.311 124.898 189.357 124.611 188.187 122.225C187.658 121.147 187.141 118.387 186.683 115.951C186.591 115.461 186.502 114.99 186.417 114.545C186.009 114.13 185.708 113.629 185.55 113.066C185.208 113.647 184.669 115.026 185.248 116.184C185.278 116.243 185.265 116.313 185.217 116.359C185.17 116.404 185.098 116.414 185.041 116.382C182.714 115.092 182.702 112.842 182.903 111.615C183.221 109.674 184.647 108.776 185.532 108.4C184.607 108.295 183.432 108.42 182.987 108.79ZM206.299 109.273C206.376 109.002 206.303 108.675 206.108 108.43C205.943 108.222 205.724 108.11 205.498 108.126L205.113 108.347C205.371 108.706 205.605 109.108 205.808 109.546C205.937 109.48 206.176 109.355 206.299 109.273ZM188.456 122.093C189.553 124.33 192.364 124.602 193.2 124.632C194.337 124.675 197.423 124.401 201.515 121.015C201.566 120.971 201.642 120.969 201.697 121.008C202.007 121.228 202.502 121.287 203.021 121.165C203.786 120.986 204.448 120.465 204.839 119.735C205.184 119.092 205.242 118.419 205.003 117.843C204.797 117.348 204.39 116.966 203.916 116.823C202.979 116.542 202.111 117.195 201.652 118.529C201.631 118.59 201.569 118.631 201.505 118.63C201.439 118.627 201.383 118.582 201.366 118.517C200.795 116.361 199.265 112.689 195.345 111.25C196.114 111.94 196.787 112.962 197.082 113.952C197.096 113.999 197.086 114.051 197.054 114.089C197.026 114.124 196.982 114.144 196.937 114.144C196.933 114.144 196.929 114.144 196.925 114.144C195.119 113.985 193.569 113.529 192.293 112.792C192.799 113.467 193.251 114.267 193.503 114.976C193.52 115.023 193.512 115.075 193.484 115.114C193.456 115.153 193.414 115.18 193.359 115.176C191.161 115.141 189.326 114.154 188.33 112.507C188.413 113.57 188.827 114.788 189.391 115.549C189.426 115.597 189.43 115.659 189.402 115.711C189.374 115.763 189.32 115.794 189.26 115.788C188.298 115.719 187.444 115.388 186.787 114.871C186.85 115.202 186.915 115.542 186.981 115.895C187.432 118.312 187.946 121.053 188.456 122.093ZM186.15 108.206C186.216 108.223 186.263 108.282 186.263 108.35C186.264 108.417 186.219 108.477 186.155 108.496C185.386 108.719 183.559 109.473 183.2 111.664C183.024 112.741 183.019 114.662 184.809 115.888C184.372 114.433 185.222 112.897 185.516 112.602C185.556 112.563 185.614 112.549 185.668 112.566C185.721 112.583 185.76 112.628 185.77 112.682C186.028 114.14 187.294 115.225 188.964 115.457C188.354 114.475 187.957 113 188.022 111.875C188.026 111.806 188.076 111.749 188.144 111.736C188.212 111.723 188.28 111.758 188.308 111.822C189.128 113.637 190.925 114.764 193.142 114.87C192.76 113.915 192.049 112.833 191.356 112.168C191.35 112.163 191.347 112.156 191.343 112.15C191.336 112.142 191.331 112.135 191.326 112.125C191.322 112.117 191.319 112.107 191.318 112.098C191.315 112.088 191.312 112.08 191.312 112.07C191.312 112.06 191.314 112.052 191.314 112.042C191.315 112.032 191.315 112.024 191.318 112.014C191.321 112.004 191.326 111.996 191.332 111.987C191.336 111.98 191.338 111.973 191.342 111.968C191.343 111.966 191.346 111.965 191.347 111.962C191.349 111.961 191.35 111.958 191.352 111.955C191.357 111.949 191.363 111.947 191.37 111.942C191.378 111.935 191.385 111.93 191.395 111.924C191.404 111.92 191.412 111.919 191.42 111.916C191.43 111.913 191.44 111.91 191.45 111.909C191.458 111.909 191.468 111.909 191.477 111.91C191.486 111.912 191.496 111.912 191.506 111.916C191.516 111.919 191.524 111.924 191.533 111.928C191.54 111.933 191.547 111.934 191.552 111.938C192.879 112.972 194.619 113.603 196.723 113.82C196.313 112.663 195.359 111.461 194.435 110.958C194.431 110.957 194.429 110.953 194.426 110.951C194.418 110.946 194.41 110.939 194.403 110.932C194.396 110.925 194.39 110.919 194.384 110.912C194.379 110.903 194.375 110.895 194.37 110.887C194.366 110.878 194.363 110.87 194.361 110.86C194.359 110.852 194.358 110.842 194.358 110.832C194.358 110.822 194.358 110.812 194.359 110.802C194.361 110.798 194.359 110.794 194.359 110.79C194.361 110.783 194.365 110.779 194.368 110.773C194.37 110.767 194.37 110.762 194.373 110.756C194.375 110.752 194.379 110.75 194.38 110.748C194.386 110.739 194.391 110.732 194.398 110.725C194.405 110.718 194.412 110.711 194.421 110.705C194.428 110.701 194.435 110.697 194.443 110.694C194.453 110.69 194.463 110.686 194.474 110.683C194.483 110.682 194.491 110.682 194.499 110.68C194.511 110.68 194.52 110.68 194.532 110.682C194.536 110.682 194.54 110.682 194.543 110.682C198.991 111.829 200.81 115.591 201.533 118.009C202.083 116.793 203.003 116.232 204 116.532C204.407 116.654 204.769 116.924 205.03 117.283C205.575 116.592 206.458 114.69 206.238 112.303C205.944 109.119 203.936 106.875 202.243 106.623C202.175 106.613 202.123 106.558 202.116 106.491C202.108 106.423 202.147 106.359 202.21 106.333C202.603 106.179 202.996 106.065 203.455 105.977C202.738 105.8 201.747 105.728 201.234 106.14C201.185 106.178 201.118 106.183 201.064 106.152C201.011 106.12 200.983 106.06 200.993 105.998C201.095 105.393 200.893 104.729 200.437 104.177C199.974 103.617 199.321 103.252 198.602 103.145C198.984 103.601 199.361 104.285 199.489 105.099C199.497 105.156 199.475 105.212 199.429 105.244C199.382 105.278 199.322 105.282 199.272 105.255C195.616 103.335 190.559 104.556 188.48 106.93C188.434 106.984 188.357 106.996 188.296 106.964C187.071 106.297 185.748 106.206 184.668 106.713C183.935 107.055 183.383 107.653 183.134 108.351C183.905 108.015 185.267 107.979 186.15 108.206Z" fill="#260C0C"/>
<path d="M187.719 126.826C187.363 127.531 187.474 128.24 188.085 127.736L188.088 127.738H188.091C188.165 127.519 188.265 127.351 188.357 127.282C188.202 127.003 188.252 126.551 188.61 126.261C188.628 126.246 188.646 126.231 188.667 126.222C188.338 126.066 188.077 126.124 187.719 126.826Z" fill="#FFD699"/>
<path d="M188.142 129.678C188.651 130.26 189.233 130.224 189.333 129.744C189.857 130.361 190.69 130.443 190.985 130.097C194.287 132.327 195.369 131.991 195.935 131.743C196.676 131.418 197.909 130.384 198.168 130.125C198.49 129.81 198.933 129.378 199.38 128.904L199.365 128.888C199.296 128.519 198.846 127.382 197.652 127.124L197.64 127.108C196.53 128.032 195.283 129.155 194.988 129.404L194.986 129.409C193.921 128.808 192.146 128.504 191.644 128.362L191.609 128.359C191.735 127.48 191.699 126.451 191.201 126.18C190.487 125.79 189.211 125.84 188.665 126.222C188.644 126.231 188.626 126.246 188.607 126.262C188.251 126.549 188.199 127.003 188.355 127.282C188.262 127.351 188.163 127.52 188.088 127.739H188.086C187.875 128.317 187.78 129.261 188.142 129.678Z" fill="#FFD699"/>
<path d="M197.654 127.123C198.847 127.382 199.298 128.519 199.366 128.888L199.382 128.904C199.946 128.313 200.518 127.656 200.876 127.091C201.047 126.822 201.292 126.08 200.909 125.722C200.385 125.236 199.536 125.707 199.191 125.917C198.851 126.125 198.271 126.587 197.644 127.109L197.654 127.123Z" fill="#F1F2F2"/>
<path d="M187.586 126.759C187.962 126.016 188.239 125.935 188.619 126.043C188.627 126.046 188.634 126.051 188.643 126.055C189.278 125.673 190.56 125.658 191.276 126.05C191.835 126.357 191.883 127.377 191.778 128.241C191.882 128.268 192.016 128.299 192.175 128.335C192.935 128.51 194.123 128.782 194.965 129.228C195.064 129.141 195.214 129.009 195.402 128.845C196.429 127.941 198.34 126.259 199.11 125.79C199.947 125.28 200.587 125.22 201.008 125.612C201.467 126.039 201.194 126.86 201.001 127.17C200.381 128.156 199.121 129.397 198.369 130.138L198.275 130.231C197.999 130.503 196.748 131.552 195.994 131.882C195.75 131.989 195.466 132.069 195.099 132.069C194.287 132.069 193.071 131.674 191.001 130.29C190.862 130.395 190.672 130.451 190.455 130.451C190.082 130.451 189.688 130.283 189.38 130.006C189.306 130.12 189.201 130.203 189.066 130.239C189.013 130.253 188.957 130.26 188.899 130.26C188.617 130.26 188.303 130.089 188.031 129.777C187.717 129.418 187.732 128.8 187.77 128.463C187.786 128.327 187.811 128.184 187.844 128.042C187.805 128.052 187.769 128.057 187.736 128.057C187.647 128.057 187.578 128.025 187.529 127.984C187.265 127.774 187.359 127.208 187.586 126.759ZM200.804 125.832C200.493 125.543 199.975 125.615 199.267 126.047C198.972 126.227 198.484 126.607 197.946 127.052C198.838 127.36 199.281 128.135 199.447 128.616C199.947 128.08 200.434 127.51 200.748 127.01C200.891 126.781 201.112 126.117 200.804 125.832ZM188.256 129.578C188.55 129.915 188.835 129.987 188.988 129.947C189.086 129.921 189.138 129.852 189.166 129.782C188.836 129.411 188.737 129.471 188.659 129.525C188.638 129.54 188.617 129.553 188.596 129.565C188.523 129.606 188.432 129.579 188.392 129.508C188.351 129.435 188.378 129.344 188.45 129.304C188.463 129.297 188.476 129.289 188.49 129.279C188.734 129.112 188.991 129.11 189.446 129.647C189.762 130.019 190.174 130.151 190.454 130.151C190.639 130.151 190.79 130.096 190.87 130.001C190.919 129.943 191.005 129.93 191.068 129.974C194.425 132.24 195.439 131.795 195.872 131.605C196.591 131.291 197.796 130.28 198.063 130.016L198.157 129.923C198.452 129.633 198.825 129.265 199.207 128.866C199.114 128.481 198.682 127.528 197.666 127.282C196.915 127.913 196.109 128.62 195.6 129.07C195.454 129.199 195.334 129.304 195.238 129.388C195.551 129.591 195.791 129.822 195.898 130.093C195.928 130.17 195.891 130.258 195.813 130.288C195.795 130.295 195.777 130.3 195.759 130.3C195.698 130.3 195.642 130.263 195.62 130.204C195.285 129.356 193.14 128.866 192.109 128.63C191.963 128.597 191.838 128.569 191.736 128.543C191.695 128.786 191.647 129.008 191.597 129.182C191.574 129.262 191.49 129.31 191.412 129.285C191.332 129.262 191.285 129.179 191.309 129.099C191.586 128.128 191.652 126.599 191.133 126.314C190.423 125.925 189.142 126.022 188.704 126.378C188.413 126.616 188.366 126.988 188.49 127.209C188.526 127.275 188.508 127.358 188.448 127.403C188.314 127.5 188.126 127.973 188.069 128.496C188.013 128.984 188.082 129.379 188.256 129.578ZM187.715 127.75C187.729 127.763 187.809 127.761 187.965 127.638C188.025 127.48 188.098 127.343 188.178 127.247C188.077 126.972 188.115 126.604 188.355 126.307C188.226 126.322 188.082 126.444 187.854 126.894C187.63 127.34 187.644 127.694 187.715 127.75Z" fill="#260C0C"/>
<path opacity="0.7" d="M171.481 69.5023H139.714L144.206 68.2418C144.206 68.2418 143.821 65.8605 145.721 64.1792C147.621 62.4988 152.432 62.779 152.307 65.8605C152.182 68.9419 152.774 66.9804 152.774 66.9804C152.774 66.9804 157.086 58.7164 161.459 65.1595C163.726 68.5005 161.134 67.9763 161.134 67.9763L171.481 69.5023Z" fill="white"/>
<path opacity="0.2" d="M83.0884 65.0925H53.5762L57.749 63.9208C57.749 63.9208 57.392 61.7085 59.1572 60.1471C60.9223 58.5856 65.3926 58.846 65.2762 61.7085C65.1607 64.5718 65.71 62.7491 65.71 62.7491C65.71 62.7491 69.7155 55.0714 73.7788 61.0575C75.8854 64.1614 73.4769 63.6742 73.4769 63.6742L83.0884 65.0925Z" fill="white"/>
<path opacity="0.7" d="M137.002 41.923H105.179L109.678 40.6599C109.678 40.6599 109.293 38.2742 111.197 36.5904C113.101 34.9065 117.92 35.1876 117.795 38.2742C117.67 41.3617 118.264 39.3968 118.264 39.3968C118.264 39.3968 122.583 31.1181 126.965 37.5724C129.236 40.9194 126.639 40.3943 126.639 40.3943L137.002 41.923Z" fill="white"/>
<path opacity="0.7" d="M51.0167 68.5275H19.1934L23.693 67.2644C23.693 67.2644 23.3075 64.8787 25.2115 63.1949C27.1156 61.511 31.9351 61.7921 31.8101 64.8787C31.685 67.9662 32.2783 66.0013 32.2783 66.0013C32.2783 66.0013 36.5977 57.7226 40.9792 64.1769C43.2505 67.5239 40.6541 66.9988 40.6541 66.9988L51.0167 68.5275Z" fill="white"/>
<path d="M99.3633 154.602C125.735 154.602 147.114 153.386 147.114 151.885C147.114 150.385 125.735 149.168 99.3633 149.168C72.9914 149.168 51.6128 150.385 51.6128 151.885C51.6128 153.386 72.9914 154.602 99.3633 154.602Z" fill="#A2A2A2"/>
<path d="M55.0498 80.2879L58.243 150.397H140.554L143.675 78.1479L55.0498 80.2879Z" fill="#F1F2F2"/>
<path d="M56.1699 81.3392L59.2614 150.398H139.525L142.556 79.2183L56.1699 81.3392Z" fill="#D1D3D4"/>
<path d="M136.361 150.397H62.8005C62.8005 150.397 60.5947 107.247 62.6238 106.379C74.2264 105.756 129.27 105.756 136.924 105.756C138.444 108.064 136.361 150.397 136.361 150.397Z" fill="#F1F2F2"/>
<path d="M138.443 95.9168C138.813 90.1945 138.858 84.6265 137.801 83.2573C130.146 83.2573 73.703 83.9721 62.1004 84.5946C60.7526 85.2386 60.4525 90.3962 60.5344 95.9168H138.443V95.9168Z" fill="#F1F2F2"/>
<path d="M67.4873 150.397V113.124C67.4873 110.926 69.2689 109.145 71.4669 109.145H126.64C129.768 109.145 132.304 111.679 132.304 114.807V150.397H67.4873Z" fill="white"/>
<path d="M66.1857 110.377L66.8678 150.397H132.851L133.476 108.83L67.0334 109.506C66.5582 109.512 66.1771 109.902 66.1857 110.377Z" fill="#00A0D7"/>
<path d="M69.3846 149.357H88.4498L88.7611 110.921H68.8008L69.3846 149.357Z" fill="#00A0D7"/>
<path d="M70.3271 148.198H87.6607L87.9711 111.794H69.7847L70.3271 148.198Z" fill="#54C0E8"/>
<path d="M87.2362 112.795H70.2769L70.9624 148.064L86.9258 148.053L87.2362 112.795Z" fill="#54C0E8"/>
<path opacity="0.1" d="M76.1145 148.158L86.4478 113.167H81.4247L70.9966 148.158H76.1145Z" fill="white"/>
<path d="M130.364 149.357H111.299L110.988 110.921H130.948L130.364 149.357Z" fill="#00A0D7"/>
<path d="M129.112 148.198H111.777V111.794H129.965L129.112 148.198Z" fill="#54C0E8"/>
<path d="M112.513 112.795H129.472L128.787 148.064L112.824 148.053L112.513 112.795Z" fill="#54C0E8"/>
<path opacity="0.1" d="M118.419 148.158L128.752 113.167H123.729L113.3 148.158H118.419Z" fill="white"/>
<path opacity="0.1" d="M111.8 148.199L111.729 138.906H122.258V140.629H121.308L121.225 148.199H111.8Z" fill="#58595B"/>
<path d="M89.6123 149.357H109.413L109.98 110.921H90.0202L89.6123 149.357Z" fill="#00A0D7"/>
<path d="M90.5645 148.198H108.635L109.164 111.794H90.9775L90.5645 148.198Z" fill="#54C0E8"/>
<path d="M108.4 112.795H91.4409L91.2271 148.064L107.927 148.053L108.4 112.795Z" fill="#54C0E8"/>
<path opacity="0.1" d="M96.3638 148.199L107.601 113.167H102.578L91.2588 148.158L96.3638 148.199Z" fill="white"/>
<path opacity="0.1" d="M87.6697 148.2V138.907H72.3721V140.63H73.3224V148.243L87.6697 148.2Z" fill="#58595B"/>
<path opacity="0.1" d="M108.635 148.199L108.707 138.906H98.4873V140.629H99.4385L99.5204 148.199H108.635Z" fill="#58595B"/>
<path opacity="0.1" d="M92.7246 143.6C91.8295 143.6 91.0387 144.049 90.5645 144.733V147.726C90.6852 147.899 90.8249 148.058 90.9835 148.198H94.4665C95.0106 147.713 95.3547 147.014 95.3547 146.231C95.3547 144.78 94.1767 143.6 92.7246 143.6Z" fill="#58595B"/>
<path fill-rule="evenodd" clip-rule="evenodd" d="M143.06 92.5723L104.274 92.5991C102.866 90.9161 100.754 89.8418 98.4098 89.8418C97.005 89.8418 95.6969 90.2281 94.5845 90.8997C94.2361 91.0971 93.9127 91.3299 93.6169 91.5963C93.2617 91.8981 92.9383 92.2352 92.646 92.5999H55.5659L56.0402 102.055L92.8081 102.108C94.2154 103.791 96.3272 104.865 98.671 104.865C100.076 104.865 101.383 104.48 102.495 103.809C102.845 103.611 103.171 103.376 103.468 103.11C103.823 102.808 104.145 102.471 104.436 102.108L142.639 102.104L143.06 92.5723Z" fill="#E6E7E8"/>
<path d="M150.416 91.7324H46.7974V101.241H150.416V91.7324Z" fill="white"/>
<path d="M52.9399 91.8877H142.644" stroke="#E6E7E8" stroke-width="3.6023" stroke-miterlimit="10"/>
<path d="M103.911 91.7324H105.011C105.011 91.7324 106.667 93.4223 106.749 96.5227C106.822 99.2791 105.396 101.241 105.396 101.241H104.072L103.911 91.7324Z" fill="#E6E7E8"/>
<path d="M104.156 98.1481C104.304 97.6213 104.38 97.0634 104.369 96.4875C104.368 96.3883 104.363 96.29 104.356 96.1918C104.312 95.527 104.156 94.8933 103.909 94.307C103.552 93.4569 103 92.7077 102.314 92.1119C102.504 92.4283 102.666 92.7629 102.796 93.1138C102.827 93.1983 102.857 93.2845 102.883 93.3707C103.046 93.8854 103.138 94.432 103.148 94.9968C103.177 96.6453 102.502 98.1291 101.4 99.168C101.958 98.38 102.279 97.4109 102.26 96.3625C102.231 94.6502 101.304 93.1482 99.9353 92.3042C99.6456 92.1257 99.3369 91.9765 99.0118 91.8601C98.5056 91.6808 97.9615 91.5825 97.3966 91.5825C95.2934 91.5825 93.53 92.9405 92.9246 94.8295C92.7772 95.3546 92.703 95.9115 92.7134 96.4883C92.7151 96.5875 92.7185 96.6858 92.7254 96.7832C92.7703 97.4471 92.9263 98.0808 93.1738 98.6688C93.5317 99.5189 94.0819 100.269 94.7691 100.865C94.5786 100.549 94.4164 100.213 94.2871 99.8638C94.2561 99.7793 94.2259 99.6931 94.1991 99.606C94.037 99.0913 93.9439 98.5447 93.9344 97.9799C93.9059 96.3314 94.5812 94.8476 95.6823 93.8087C95.1244 94.5959 94.8036 95.5658 94.8217 96.6142C94.8519 98.3265 95.7781 99.8284 97.1474 100.673C97.4372 100.851 97.7459 101 98.0719 101.117C98.578 101.297 99.1213 101.394 99.687 101.394C101.789 101.392 103.552 100.035 104.156 98.1481Z" fill="white"/>
<path d="M98.4106 88.9761C97.0059 88.9761 95.6977 89.3623 94.5853 90.034C94.2369 90.2314 93.9136 90.4642 93.6178 90.7306C91.9992 92.1075 90.9903 94.175 91.0299 96.4883C91.1024 100.637 94.5241 104 98.6727 104C100.077 104 101.385 103.614 102.497 102.943C102.846 102.745 103.172 102.511 103.47 102.244C105.087 100.866 106.096 98.7989 106.054 96.4883C105.982 92.3386 102.559 88.9761 98.4106 88.9761ZM93.1745 98.6679C92.9271 98.0799 92.771 97.4462 92.7261 96.7823C92.7192 96.6849 92.7158 96.5866 92.7141 96.4874C92.7037 95.9115 92.7779 95.3536 92.9253 94.8286C93.5307 92.9404 95.2941 91.5816 97.3974 91.5816C97.9622 91.5816 98.5063 91.6799 99.0125 91.8592C99.3376 91.9747 99.6463 92.1239 99.9361 92.3032C101.305 93.1473 102.232 94.6492 102.261 96.3615C102.28 97.4108 101.959 98.379 101.4 99.1671C102.502 98.1282 103.178 96.6443 103.149 94.9958C103.139 94.4311 103.046 93.8845 102.883 93.3698C102.858 93.2835 102.827 93.1973 102.796 93.1128C102.667 92.7619 102.505 92.4274 102.314 92.111C103.001 92.7076 103.553 93.4568 103.91 94.3061C104.157 94.8924 104.312 95.5261 104.357 96.1908C104.363 96.2891 104.368 96.3874 104.37 96.4866C104.38 97.0625 104.305 97.6203 104.157 98.1471C103.553 100.034 101.79 101.392 99.6868 101.392C99.122 101.392 98.5779 101.294 98.0717 101.114C97.7466 100.998 97.437 100.849 97.1473 100.67C95.7779 99.8258 94.8518 98.3239 94.8216 96.6116C94.8035 95.5623 95.1243 94.5932 95.6822 93.806C94.581 94.845 93.9058 96.3288 93.9343 97.9773C93.9437 98.542 94.0369 99.0886 94.199 99.6033C94.2257 99.6904 94.2559 99.7766 94.2869 99.8611C94.4163 100.211 94.5793 100.547 94.769 100.862C94.0826 100.267 93.5324 99.518 93.1745 98.6679Z" fill="#00A0D7"/>
<path fill-rule="evenodd" clip-rule="evenodd" d="M88.3257 94.8169H88.0334C87.9411 94.8169 87.8652 94.891 87.8652 94.9842V97.9906C87.8652 98.0828 87.9403 98.1579 88.0334 98.1579H88.3257C88.4171 98.1579 88.493 98.0837 88.493 97.9906V94.9842C88.493 94.891 88.4171 94.8169 88.3257 94.8169Z" fill="#00A0D7"/>
<path fill-rule="evenodd" clip-rule="evenodd" d="M85.5257 98.1577H86.0897H86.4449C86.8839 98.1577 87.2391 97.8025 87.2391 97.3645V97.0921V94.9832C87.2391 94.8909 87.1633 94.8159 87.0718 94.8159H86.7795C86.6881 94.8159 86.6122 94.8901 86.6122 94.9832V97.0921V97.3533C86.6122 97.4973 86.4958 97.6146 86.3509 97.6146H86.0897H85.5257C85.4351 97.6146 85.3584 97.6904 85.3584 97.781V97.9896C85.3584 98.0836 85.4351 98.1577 85.5257 98.1577Z" fill="#00A0D7"/>
<path fill-rule="evenodd" clip-rule="evenodd" d="M84.7314 97.3645V97.0921V95.7773C84.7314 95.685 84.6564 95.61 84.565 95.61H84.2735C84.1813 95.61 84.1054 95.685 84.1054 95.7773V97.0921V97.3533C84.1054 97.4973 83.9881 97.6146 83.8441 97.6146H83.5828H83.4379C83.4647 97.5352 83.4785 97.4516 83.4785 97.3645V97.3533V96.2885V96.2782C83.4785 95.8402 83.1223 95.485 82.6851 95.485H82.3298C80.9312 95.485 80.3456 96.5498 80.3456 96.5498V96.1945C80.3456 96.1032 80.2706 96.0273 80.1775 96.0273H79.8852C79.7938 96.0273 79.7179 96.1023 79.7179 96.1945V97.6146H79.6075H79.3462C79.2022 97.6146 79.0849 97.4973 79.0849 97.3533V97.0921V94.9832C79.0849 94.8909 79.0099 94.8159 78.9176 94.8159H78.6253C78.533 94.8159 78.458 94.8901 78.458 94.9832V97.0921V97.3645C78.458 97.8025 78.8141 98.1577 79.2513 98.1577H79.6066H82.3281H82.6834H83.5819H83.9381C84.377 98.1577 84.7314 97.8034 84.7314 97.3645ZM82.3298 97.6154H80.3456V97.5852C80.3456 97.5852 80.9898 96.0273 82.3298 96.0273H82.5911C82.7351 96.0273 82.8524 96.1445 82.8524 96.2885V97.3533C82.8524 97.4973 82.7351 97.6146 82.5911 97.6146H82.3298V97.6154Z" fill="#00A0D7"/>
<path fill-rule="evenodd" clip-rule="evenodd" d="M75.3261 97.0929V95.7781C75.3261 95.6858 75.2511 95.6108 75.1588 95.6108H74.8665C74.7751 95.6108 74.6992 95.6858 74.6992 95.7781V97.0929V97.3542C74.6992 97.4982 74.5828 97.6154 74.4379 97.6154H74.1766H72.6158H72.3545C72.2096 97.6154 72.0932 97.4982 72.0932 97.3542V97.0929V95.7781C72.0932 95.6858 72.0173 95.6108 71.9259 95.6108H71.6336C71.5422 95.6108 71.4663 95.6858 71.4663 95.7781V97.0929V97.3654C71.4663 97.8034 71.8225 98.1586 72.2605 98.1586H72.6158H74.1766H74.531C74.9691 98.1586 75.3252 97.8034 75.3252 97.3654V97.0929H75.3261Z" fill="#00A0D7"/>
<path fill-rule="evenodd" clip-rule="evenodd" d="M76.1194 98.1577H76.6834H77.0378C77.4759 98.1577 77.832 97.8025 77.832 97.3645V97.0921V94.9832C77.832 94.8909 77.757 94.8159 77.6639 94.8159H77.3724C77.281 94.8159 77.206 94.8901 77.206 94.9832V97.0921V97.3533C77.206 97.4973 77.0878 97.6146 76.9447 97.6146H76.6834H76.1194C76.0272 97.6146 75.9521 97.6904 75.9521 97.781V97.9896C75.9521 98.0836 76.0272 98.1577 76.1194 98.1577Z" fill="#00A0D7"/>
<path fill-rule="evenodd" clip-rule="evenodd" d="M76.1194 97.0931H76.4118C76.5023 97.0931 76.5791 97.018 76.5791 96.9258V94.9842C76.5791 94.8919 76.5032 94.8169 76.4118 94.8169H76.1194C76.0272 94.8169 75.9521 94.891 75.9521 94.9842V96.9258C75.9521 97.018 76.0272 97.0931 76.1194 97.0931Z" fill="#00A0D7"/>
<path fill-rule="evenodd" clip-rule="evenodd" d="M84.2736 95.2341H84.5651C84.6565 95.2341 84.7315 95.1591 84.7315 95.0668V94.9832C84.7315 94.8909 84.6565 94.8159 84.5651 94.8159H84.2736C84.1814 94.8159 84.1055 94.8901 84.1055 94.9832V95.0668C84.1055 95.1591 84.1805 95.2341 84.2736 95.2341Z" fill="#00A0D7"/>
<path fill-rule="evenodd" clip-rule="evenodd" d="M83.2708 95.2341H83.5631C83.6545 95.2341 83.7296 95.1591 83.7296 95.0668V94.9832C83.7296 94.8909 83.6554 94.8159 83.5631 94.8159H83.2708C83.1794 94.8159 83.1035 94.8901 83.1035 94.9832V95.0668C83.1035 95.1591 83.1785 95.2341 83.2708 95.2341Z" fill="#00A0D7"/>
<path fill-rule="evenodd" clip-rule="evenodd" d="M73.7518 96.0281H74.0441C74.1355 96.0281 74.2105 95.9523 74.2105 95.8609V95.7781C74.2105 95.6858 74.1355 95.6108 74.0441 95.6108H73.7518C73.6595 95.6108 73.5845 95.6858 73.5845 95.7781V95.8609C73.5845 95.9523 73.6595 96.0281 73.7518 96.0281Z" fill="#00A0D7"/>
<path fill-rule="evenodd" clip-rule="evenodd" d="M72.7492 96.0281H73.0415C73.1321 96.0281 73.2088 95.9523 73.2088 95.8609V95.7781C73.2088 95.6858 73.1329 95.6108 73.0415 95.6108H72.7492C72.6569 95.6108 72.5811 95.6858 72.5811 95.7781V95.8609C72.5811 95.9523 72.6569 96.0281 72.7492 96.0281Z" fill="#00A0D7"/>
<path fill-rule="evenodd" clip-rule="evenodd" d="M85.5257 97.0931H85.818C85.9103 97.0931 85.9853 97.018 85.9853 96.9258V94.9842C85.9853 94.8919 85.9103 94.8169 85.818 94.8169H85.5257C85.4351 94.8169 85.3584 94.891 85.3584 94.9842V96.9258C85.3584 97.018 85.4351 97.0931 85.5257 97.0931Z" fill="#00A0D7"/>
<path fill-rule="evenodd" clip-rule="evenodd" d="M116.675 94.8169H116.382C116.291 94.8169 116.216 94.891 116.216 94.9842V97.9906C116.216 98.0828 116.29 98.1579 116.382 98.1579H116.675C116.766 98.1579 116.842 98.0837 116.842 97.9906V94.9842C116.842 94.891 116.766 94.8169 116.675 94.8169Z" fill="#00A0D7"/>
<path fill-rule="evenodd" clip-rule="evenodd" d="M125.448 94.8169H125.156C125.065 94.8169 124.988 94.891 124.988 94.9842V97.9906C124.988 98.0828 125.064 98.1579 125.156 98.1579H125.448C125.54 98.1579 125.616 98.0837 125.616 97.9906V94.9842C125.616 94.891 125.541 94.8169 125.448 94.8169Z" fill="#00A0D7"/>
<path fill-rule="evenodd" clip-rule="evenodd" d="M111.112 94.8174H110.813H109.049H108.95H108.758C108.665 94.8174 108.59 94.8915 108.59 94.9846V97.9911C108.59 98.0833 108.664 98.1583 108.758 98.1583H109.049C109.141 98.1583 109.216 98.0842 109.216 97.9911V97.0936H110.813H111.112C111.564 97.0936 111.933 96.7263 111.933 96.2727V96.0788V95.8322V95.6382C111.934 95.1847 111.565 94.8174 111.112 94.8174ZM110.813 96.4883H109.216V95.4226H110.813C111.038 95.4226 111.222 95.6063 111.222 95.8322V96.0788C111.222 96.3047 111.038 96.4883 110.813 96.4883Z" fill="#00A0D7"/>
<path fill-rule="evenodd" clip-rule="evenodd" d="M120.226 95.4838H118.513V95.1502C118.513 95.0579 118.438 94.9829 118.345 94.9829H118.054C117.962 94.9829 117.886 95.0571 117.886 95.1502V95.4838H117.636C117.543 95.4838 117.468 95.5588 117.468 95.6511V95.8597C117.468 95.9511 117.543 96.027 117.636 96.027H117.886V97.0918V97.3643C117.886 97.8023 118.243 98.1575 118.68 98.1575H119.035H120.226C120.318 98.1575 120.394 98.0833 120.394 97.9902V97.7824C120.394 97.691 120.319 97.6152 120.226 97.6152H119.035H118.774C118.63 97.6152 118.513 97.4979 118.513 97.3539V97.0927V96.0279H120.226C120.318 96.0279 120.394 95.952 120.394 95.8606V95.652C120.394 95.5597 120.319 95.4838 120.226 95.4838Z" fill="#00A0D7"/>
<path fill-rule="evenodd" clip-rule="evenodd" d="M123.569 95.4844H123.214H122.17H121.815C121.376 95.4844 121.021 95.8405 121.021 96.2784V96.5509V97.0932V97.3657C121.021 97.8036 121.376 98.1589 121.815 98.1589H122.17H123.883C123.975 98.1589 124.051 98.0847 124.051 97.9916V97.7838C124.051 97.6924 123.975 97.6165 123.883 97.6165H122.17H121.909C121.764 97.6165 121.647 97.4993 121.647 97.3553V97.0941H123.214H123.569C124.008 97.0941 124.364 96.7389 124.364 96.3009V96.2897V96.2793C124.363 95.8405 124.008 95.4844 123.569 95.4844ZM123.476 96.5509H123.214H121.647V96.2897C121.647 96.1457 121.764 96.0284 121.909 96.0284H122.17H123.214H123.476C123.62 96.0284 123.736 96.1457 123.736 96.2897C123.736 96.4336 123.619 96.5509 123.476 96.5509Z" fill="#00A0D7"/>
<path fill-rule="evenodd" clip-rule="evenodd" d="M114.795 95.4844H114.439H112.727C112.635 95.4844 112.56 95.5594 112.56 95.6516V95.8603C112.56 95.9517 112.635 96.0275 112.727 96.0275H114.439H114.701C114.845 96.0275 114.962 96.1448 114.962 96.2888V96.55H113.395H113.041C112.602 96.55 112.247 96.9053 112.247 97.3432V97.3536V97.3648C112.247 97.8028 112.602 98.158 113.041 98.158H113.395H114.439H114.795C115.234 98.158 115.588 97.8028 115.588 97.3648V97.0924V96.55V96.2776C115.588 95.8405 115.234 95.4844 114.795 95.4844ZM114.962 97.3545C114.962 97.4984 114.845 97.6157 114.701 97.6157H114.439H113.395H113.134C112.99 97.6157 112.873 97.4984 112.873 97.3545C112.873 97.2105 112.99 97.0932 113.134 97.0932H113.395H114.962V97.3545V97.3545Z" fill="#00A0D7"/>
<path d="M65.9125 92.4804L63.6938 98.1984L42.2598 88.7239L44.4794 83.0059L65.9125 92.4804Z" fill="#F45197"/>
<path d="M40.6905 84.6799C41.3036 83.1004 42.9998 82.3503 44.4796 83.0056C45.9593 83.66 46.6612 85.4697 46.049 87.0483C45.4359 88.6279 43.7397 89.378 42.2591 88.7236C40.7802 88.0692 40.0782 86.2586 40.6905 84.6799Z" fill="#FFCD00"/>
<path d="M62.123 94.1547C62.7361 92.5751 64.4323 91.8259 65.912 92.4803C67.3918 93.1338 68.0937 94.9453 67.4815 96.5239C66.8684 98.1035 65.173 98.8536 63.6933 98.1983C62.2135 97.5448 61.5107 95.7333 62.123 94.1547Z" fill="#F45197"/>
<path d="M61.4731 103.916L59.2534 109.635L37.8203 100.161L40.0399 94.4419L61.4731 103.916Z" fill="#80BC00"/>
<path d="M36.2509 96.1172C36.864 94.5385 38.5602 93.7876 40.04 94.442C41.5197 95.0964 42.2225 96.907 41.6094 98.4856C40.9963 100.064 39.301 100.814 37.8203 100.16C36.3415 99.5073 35.6387 97.6967 36.2509 96.1172Z" fill="#80BC00"/>
<path d="M57.6841 105.592C58.2972 104.013 59.9943 103.263 61.4741 103.917C62.9538 104.571 63.6557 106.382 63.0426 107.96C62.4295 109.539 60.7342 110.29 59.2536 109.635C57.7738 108.982 57.0719 107.171 57.6841 105.592Z" fill="#80BC00"/>
<path d="M55.4654 111.311L64.3431 88.4368L58.9855 86.0684L50.1069 108.942L55.4654 111.311Z" fill="#FFCD00"/>
<path d="M58.9853 86.0675C59.5984 84.4889 61.2946 83.7379 62.7743 84.3931C64.2541 85.0467 64.9569 86.8581 64.3438 88.4368C63.7307 90.0154 62.0345 90.7655 60.5547 90.1111C59.075 89.4576 58.3722 87.647 58.9853 86.0675Z" fill="#FFCD00"/>
<path d="M50.1069 108.942C50.72 107.363 52.4162 106.614 53.8959 107.268C55.3757 107.921 56.0785 109.732 55.4654 111.312C54.8522 112.89 53.156 113.64 51.6763 112.986C50.1965 112.332 49.4937 110.521 50.1069 108.942Z" fill="#F45197"/>
<path d="M48.2685 81.3307C48.8816 79.7512 50.5778 79.0011 52.0575 79.6555C53.5373 80.309 54.2401 82.1204 53.627 83.6991C53.0139 85.2786 51.3177 86.0287 49.8379 85.3735C48.3582 84.7199 47.6554 82.9093 48.2685 81.3307Z" fill="#54C0E8"/>
<path d="M39.3901 104.204C40.0032 102.625 41.6994 101.876 43.1791 102.53C44.6589 103.184 45.3617 104.994 44.7486 106.574C44.1363 108.153 42.4393 108.903 40.9595 108.249C39.4806 107.595 38.7778 105.784 39.3901 104.204Z" fill="#54C0E8"/>
<path d="M53.6272 83.699L44.7486 106.573L39.3901 104.205L48.2687 81.3306L53.6272 83.699Z" fill="#54C0E8"/>
<path d="M159.293 92.7338L157.075 98.4518L135.641 88.9773L137.861 83.2593L159.293 92.7338Z" fill="#F45197"/>
<path d="M134.071 84.9338C134.684 83.3543 136.381 82.6042 137.86 83.2595C139.34 83.9139 140.042 85.7236 139.43 87.3023C138.817 88.8818 137.12 89.6319 135.64 88.9775C134.162 88.3239 133.459 86.5125 134.071 84.9338Z" fill="#FFCD00"/>
<path d="M155.506 94.4086C156.119 92.8291 157.815 92.0798 159.295 92.7342C160.775 93.3877 161.477 95.1992 160.864 96.7779C160.251 98.3574 158.556 99.1075 157.076 98.4522C155.595 97.7978 154.893 95.9872 155.506 94.4086Z" fill="#F45197"/>
<path d="M154.855 104.171L152.635 109.889L131.203 100.414L133.421 94.6963L154.855 104.171Z" fill="#80BC00"/>
<path d="M129.633 96.3716C130.246 94.7929 131.942 94.042 133.422 94.6964C134.902 95.3508 135.604 97.1614 134.991 98.74C134.378 100.319 132.682 101.069 131.202 100.414C129.722 99.7608 129.02 97.9502 129.633 96.3716Z" fill="#80BC00"/>
<path d="M151.066 105.846C151.679 104.268 153.376 103.518 154.856 104.171C156.336 104.826 157.038 106.636 156.425 108.215C155.812 109.793 154.116 110.544 152.636 109.889C151.156 109.236 150.453 107.426 151.066 105.846Z" fill="#80BC00"/>
<path d="M148.846 111.565L157.724 88.6915L152.366 86.3223L143.488 109.196L148.846 111.565Z" fill="#FFCD00"/>
<path d="M152.366 86.3219C152.979 84.7432 154.675 83.9923 156.155 84.6475C157.635 85.3011 158.338 87.1125 157.725 88.6912C157.112 90.2699 155.415 91.0199 153.936 90.3656C152.456 89.712 151.753 87.9006 152.366 86.3219Z" fill="#FFCD00"/>
<path d="M143.488 109.196C144.101 107.616 145.797 106.867 147.277 107.521C148.757 108.175 149.459 109.985 148.846 111.565C148.233 113.144 146.537 113.894 145.057 113.239C143.578 112.586 142.876 110.775 143.488 109.196Z" fill="#F45197"/>
<path d="M141.649 81.5841C142.262 80.0046 143.958 79.2545 145.438 79.9089C146.918 80.5624 147.62 82.3739 147.007 83.9525C146.394 85.532 144.698 86.2821 143.218 85.6269C141.739 84.9742 141.036 83.1628 141.649 81.5841Z" fill="#54C0E8"/>
<path d="M132.771 104.459C133.385 102.879 135.081 102.13 136.56 102.785C138.04 103.438 138.743 105.249 138.13 106.828C137.518 108.408 135.821 109.158 134.341 108.503C132.861 107.848 132.158 106.038 132.771 104.459Z" fill="#54C0E8"/>
<path d="M147.008 83.9524L138.129 106.827L132.771 104.459L141.649 81.584L147.008 83.9524Z" fill="#54C0E8"/>
</g>
<defs>
<filter id="filter0_b" x="15" y="150" width="268.545" height="119" filterUnits="userSpaceOnUse" color-interpolation-filters="sRGB">
<feFlood flood-opacity="0" result="BackgroundImageFix"/>
<feGaussianBlur in="BackgroundImage" stdDeviation="18"/>
<feComposite in2="SourceAlpha" operator="in" result="effect1_backgroundBlur"/>
<feBlend mode="normal" in="SourceGraphic" in2="effect1_backgroundBlur" result="shape"/>
</filter>
</defs>
</svg>
